<svg width="34" height="34" viewBox="0 0 34 34" fill="none" xmlns="http://www.w3.org/2000/svg">
<g clip-path="url(#clip0_647_95)">
<mask id="mask0_647_95" style="mask-type:luminance" maskUnits="userSpaceOnUse" x="0" y="0" width="34" height="34">
<path d="M34 0H0V34H34V0Z" fill="white"/>
</mask>
<g mask="url(#mask0_647_95)">
<path d="M0 5C0 2.23858 2.23858 0 5 0H29C31.7614 0 34 2.23858 34 5V29C34 31.7614 31.7614 34 29 34H5C2.23858 34 0 31.7614 0 29V5Z" fill="url(#paint0_linear_647_95)"/>
<path d="M28.6516 16.9661L26.7666 18.8748C26.8334 19.8802 26.5955 20.8822 26.0847 21.747C25.574 22.6117 24.8147 23.298 23.9084 23.714C23.0021 24.13 21.992 24.256 21.0131 24.0751C20.0343 23.8941 19.1332 23.4149 18.4305 22.7015L20.4712 26.7487H13.5223L15.5675 22.7015C15.1136 23.1615 14.5747 23.5265 13.9816 23.7755C13.3884 24.0246 12.7525 24.1529 12.1104 24.153C11.4682 24.1532 10.8323 24.0252 10.239 23.7764C9.64575 23.5277 9.10667 23.163 8.6526 22.7032C8.19853 22.2434 7.83837 21.6975 7.5927 21.0967C7.34703 20.4959 7.22065 19.852 7.2208 19.2018C7.22095 18.5515 7.34762 17.9077 7.59357 17.307C7.83951 16.7063 8.19992 16.1606 8.65419 15.701L16.9991 7.25083L19.6149 9.89982L12.0345 17.5798C11.72 17.5954 11.4168 17.7041 11.1627 17.8925C10.9086 18.0809 10.7147 18.3406 10.605 18.6396C10.4953 18.9385 10.4747 19.2635 10.5458 19.5742C10.6168 19.8849 10.7763 20.1676 11.0046 20.3874C11.2328 20.6071 11.5197 20.7542 11.8298 20.8103C12.1398 20.8664 12.4592 20.8292 12.7485 20.7032C13.0379 20.5772 13.2843 20.3679 13.4572 20.1014C13.6302 19.8349 13.7221 19.5229 13.7215 19.2039C13.7215 19.1563 13.7116 19.1114 13.7076 19.065L21.1888 11.4936L24.4813 14.8277L21.7607 17.5829L21.7575 17.5861C21.4189 17.6013 21.0928 17.7204 20.8225 17.9274C20.5521 18.1345 20.3502 18.4198 20.2435 18.7456C20.1368 19.0714 20.1304 19.4223 20.2249 19.7519C20.3195 20.0815 20.5107 20.3742 20.7733 20.5914C21.0358 20.8085 21.3572 20.9398 21.695 20.9679C22.0329 20.996 22.3711 20.9195 22.6651 20.7487C22.9591 20.5778 23.1949 20.3205 23.3413 20.011C23.4877 19.7014 23.5378 19.3541 23.485 19.015L23.4901 19.0099L24.1434 18.3526L25.9796 16.4932L27.5713 14.8817V14.8773L27.6291 14.8232L26.9221 14.1163L26.0508 13.2384L22.7582 9.90433L22.7597 9.90284L21.1858 8.30909L21.1843 8.31058L18.5686 5.66182C18.3626 5.45207 18.1177 5.28562 17.848 5.17204C17.5782 5.05847 17.289 5 16.9969 5C16.7048 5 16.4155 5.05847 16.1458 5.17204C15.8761 5.28562 15.6312 5.45207 15.4252 5.66182L7.08052 14.1118C6.13341 15.0723 5.47346 16.2842 5.17665 17.6078C4.87984 18.9314 4.95825 20.313 5.40284 21.5935C5.84743 22.874 6.64012 24.0014 7.68965 24.8457C8.73917 25.69 10.0028 26.217 11.3352 26.366C11.275 26.7193 11.2989 27.0821 11.4048 27.4242C11.5107 27.7663 11.6956 28.078 11.9442 28.3333C12.1614 28.55 12.4193 28.7206 12.7025 28.8351C12.9858 28.9495 13.2888 29.0054 13.5937 28.9996H20.4712C20.8516 29 21.2257 28.9012 21.5574 28.7127C21.8891 28.5243 22.1673 28.2525 22.3653 27.9236C22.6494 27.4588 22.7539 26.9041 22.6586 26.366C23.6937 26.2518 24.6915 25.9093 25.5818 25.3625C26.472 24.8157 27.2331 24.078 27.8114 23.2012C28.3156 22.452 28.6677 21.6088 28.8472 20.7206C29.1038 19.473 29.0364 18.1794 28.6516 16.9661Z" fill="#FFBC00"/>
</g>
</g>
<defs>
<linearGradient id="paint0_linear_647_95" x1="17" y1="0" x2="17" y2="34" gradientUnits="userSpaceOnUse">
<stop stop-color="#1E2837"/>
<stop offset="1" stop-color="#0B1524"/>
</linearGradient>
<clipPath id="clip0_647_95">
<rect width="34" height="34" fill="white"/>
</clipPath>
</defs>
</svg>
