<svg width="29" height="30" viewBox="0 0 29 30" fill="none" xmlns="http://www.w3.org/2000/svg">
<path d="M10.9999 8.9467C8.16661 10.9467 2.59994 16.2467 2.99994 21.4467C3.49994 27.9467 13.5 28.9467 18.5 26.9467C23.5 24.9467 25.5616 20.0698 23.5 15.9467C22 12.9467 18.8333 9.78003 17 8.9467H10.9999Z" fill="#5EA100"/>
<path d="M10.9999 8.9467H17V5.4467C17.6667 4.78003 18.9 3.1467 18.5 1.9467C18.5 2.8452 10.4266 2.93639 9.51346 2.22024C9.58312 2.99215 9.94126 4.38804 10.9999 5.4467V8.9467Z" fill="#5EA100"/>
<path d="M18.5 1.9467C18 0.446695 10.5 0.946695 9.5 1.9467C9.5 2.02523 9.50415 2.11717 9.51346 2.22024C10.4266 2.93639 18.5 2.8452 18.5 1.9467Z" fill="#38217E"/>
<path d="M2.99994 21.4467L3.37384 21.4179L2.99994 21.4467ZM17 5.4467L16.7348 5.18153L16.625 5.29137V5.4467H17ZM18.5 1.9467L18.8558 1.82811L18.5 1.9467ZM10.9999 5.4467H11.3749V5.29136L11.2651 5.18153L10.9999 5.4467ZM10.7837 8.64033C9.34122 9.65855 7.21186 11.5092 5.4892 13.7694C3.77319 16.0209 2.41551 18.7384 2.62605 21.4755L3.37384 21.4179C3.18438 18.955 4.41004 16.4225 6.08569 14.224C7.75469 12.0342 9.82534 10.2348 11.2162 9.25306L10.7837 8.64033ZM2.62605 21.4755C2.8943 24.9627 5.71744 26.9185 8.96985 27.7476C12.2274 28.5779 16.0591 28.3269 18.6393 27.2949L18.3607 26.5985C15.9409 27.5665 12.2726 27.8155 9.1551 27.0208C6.03247 26.2249 3.60559 24.4307 3.37384 21.4179L2.62605 21.4755ZM18.6393 27.2949C23.8042 25.2289 26.0128 20.1338 23.8354 15.779L23.1646 16.1144C25.1103 20.0058 23.1958 24.6645 18.3607 26.5985L18.6393 27.2949ZM23.8354 15.779C23.0645 14.2371 21.873 12.6654 20.6468 11.3758C19.427 10.093 18.1374 9.05176 17.1552 8.60531L16.8448 9.28808C17.696 9.67496 18.9063 10.6337 20.1032 11.8926C21.2937 13.1446 22.4355 14.6563 23.1646 16.1144L23.8354 15.779ZM17 8.5717H10.9999V9.3217H17V8.5717ZM17.375 8.9467V5.4467H16.625V8.9467H17.375ZM17.2652 5.71186C17.6189 5.35814 18.1184 4.7539 18.481 4.07294C18.835 3.40808 19.1064 2.57997 18.8558 1.82811L18.1442 2.06528C18.2936 2.51342 18.1483 3.10198 17.819 3.72045C17.4983 4.32282 17.0478 4.86859 16.7348 5.18153L17.2652 5.71186ZM18.8558 1.82811C18.7472 1.50239 18.4699 1.28591 18.179 1.13986C17.8802 0.989921 17.5043 0.882138 17.0928 0.804722C16.2669 0.649363 15.2216 0.602688 14.1761 0.634367C13.1283 0.66612 12.0612 0.777209 11.1869 0.945655C10.7502 1.02979 10.3538 1.12971 10.0286 1.24442C9.71644 1.35453 9.42221 1.49416 9.23484 1.68153L9.76516 2.21186C9.82779 2.14923 9.98669 2.05449 10.2781 1.95171C10.5564 1.85353 10.9139 1.76204 11.3288 1.68211C12.1576 1.52243 13.1842 1.41477 14.1989 1.38402C15.2159 1.3532 16.2018 1.40028 16.9541 1.54179C17.3316 1.61282 17.6315 1.70425 17.8425 1.81017C18.0613 1.91998 18.1278 2.016 18.1442 2.06528L18.8558 1.82811ZM10.6249 5.4467V8.9467H11.3749V5.4467H10.6249ZM18.125 1.9467C18.125 1.84835 18.1829 1.806 18.1679 1.81854C18.1533 1.83083 18.1088 1.85972 18.0147 1.89658C17.8296 1.969 17.5419 2.03846 17.1649 2.09894C16.4175 2.21883 15.3988 2.29144 14.3412 2.31405C13.2851 2.33663 12.2044 2.30907 11.3358 2.23243C10.9008 2.19404 10.5266 2.14399 10.2384 2.08386C10.0942 2.05378 9.97787 2.02247 9.88932 1.99131C9.79582 1.95842 9.75503 1.93313 9.74487 1.92516L9.28204 2.51532C9.38603 2.59688 9.51533 2.6548 9.64041 2.6988C9.77045 2.74455 9.92121 2.78384 10.0852 2.81805C10.4133 2.8865 10.8196 2.93979 11.2699 2.97953C12.1719 3.05912 13.2808 3.08689 14.3572 3.06388C15.432 3.0409 16.4887 2.967 17.2837 2.83947C17.6778 2.77623 18.028 2.69675 18.288 2.595C18.4163 2.54478 18.5462 2.48027 18.6503 2.39286C18.7541 2.30571 18.875 2.15735 18.875 1.9467H18.125ZM9.13997 2.25395C9.21453 3.08015 9.59395 4.57106 10.7348 5.71186L11.2651 5.18153C10.2886 4.20502 9.9517 2.90415 9.88694 2.18654L9.13997 2.25395ZM9.125 1.94667C9.12499 2.038 9.12981 2.14131 9.13997 2.25395L9.88694 2.18654C9.8785 2.09304 9.875 2.01245 9.875 1.94672L9.125 1.94667ZM9.23484 1.68153C9.14537 1.77099 9.04219 1.91927 9.05589 2.1171C9.06945 2.31281 9.18977 2.44296 9.28204 2.51532L9.74487 1.92516C9.734 1.91664 9.79686 1.96075 9.8041 2.06529C9.81149 2.17193 9.75315 2.22388 9.76516 2.21186L9.23484 1.68153Z" fill="#1D4B22"/>
<path fill-rule="evenodd" clip-rule="evenodd" d="M23 15.9467C20.2 15.9467 18.003 16.9467 18.0021 18.4467L18.0021 18.4479C18.0026 19.9472 20.2533 20.9467 23.0011 20.9467C25.7488 20.9467 28.0011 19.9467 28.0011 18.4467C28.0011 16.9467 26.5 15.9467 23 15.9467ZM19.5 18.4467C19.5 16.9467 26.5 16.8656 26.5 18.4467C26.5 19.9467 19.5 20.0279 19.5 18.4467Z" fill="#FFA031"/>
<path d="M19.5 18.4467C19.5 16.9467 26.5 16.8656 26.5 18.4467C26.5 19.9467 19.5 20.0279 19.5 18.4467Z" fill="#FFDD8D"/>
<path d="M28.0011 18.4467C28.0011 19.9467 25.7488 20.9467 23.0011 20.9467C20.2533 20.9467 18.0026 19.9472 18.0021 18.4479L18.001 26.4467C18 27.9467 20.5 28.9467 23 28.9467C25.5 28.9467 28 27.9467 28 26.4467L28.0003 24.4787L28.0005 22.4817L28.0008 20.4715L28.0011 18.4467Z" fill="#FFC231"/>
<path d="M18.0021 18.4467L17.8771 18.4466L17.8771 18.4467L18.0021 18.4467ZM28.1261 20.4467C28.1261 20.3777 28.0701 20.3217 28.0011 20.3217C27.932 20.3217 27.8761 20.3777 27.8761 20.4467H28.1261ZM18.1271 20.4468C18.1271 20.3778 18.0712 20.3218 18.0021 20.3217C17.9331 20.3217 17.8771 20.3776 17.8771 20.4466L18.1271 20.4468ZM28.1261 22.4467C28.1261 22.3777 28.0701 22.3217 28.0011 22.3217C27.932 22.3217 27.8761 22.3777 27.8761 22.4467H28.1261ZM18.1271 22.4468C18.1271 22.3778 18.0712 22.3218 18.0021 22.3217C17.9331 22.3217 17.8771 22.3776 17.8771 22.4466L18.1271 22.4468ZM28.1257 24.4467C28.1257 24.3777 28.0698 24.3217 28.0007 24.3217C27.9317 24.3217 27.8757 24.3777 27.8757 24.4467H28.1257ZM18.1267 24.4468C18.1267 24.3778 18.0708 24.3218 18.0018 24.3217C17.9327 24.3217 17.8767 24.3776 17.8767 24.4466L18.1267 24.4468ZM28 26.4467L27.875 26.4467V26.4467H28ZM18.001 26.4467L18.126 26.4468L18.126 26.4467L18.001 26.4467ZM18.0021 18.4479L17.8771 18.4479L18.0021 18.4479ZM18.1271 18.4468C18.1275 17.767 18.6249 17.1753 19.5061 16.7466C20.3836 16.3197 21.6128 16.0717 23 16.0717V15.8217C21.5872 15.8217 20.3179 16.0737 19.3967 16.5218C18.4791 16.9682 17.8776 17.6264 17.8771 18.4466L18.1271 18.4468ZM23 16.0717C24.7417 16.0717 25.9677 16.3211 26.7538 16.7443C27.5316 17.163 27.8761 17.7487 27.8761 18.4467H28.1261C28.1261 17.6447 27.72 16.9804 26.8723 16.5241C26.0329 16.0723 24.7583 15.8217 23 15.8217V16.0717ZM27.8761 18.4467C27.8761 19.1252 27.3668 19.7173 26.4772 20.1466C25.592 20.5738 24.3618 20.8217 23.0011 20.8217V21.0717C24.3881 21.0717 25.6579 20.8196 26.5858 20.3718C27.5092 19.9261 28.1261 19.2683 28.1261 18.4467H27.8761ZM23.0011 22.8217C21.7662 22.8217 20.5349 22.5743 19.617 22.1459C18.6904 21.7135 18.1266 21.12 18.1271 20.4468L17.8771 20.4466C17.8765 21.2734 18.5628 21.9299 19.5113 22.3725C20.4684 22.8192 21.7371 23.0717 23.0011 23.0717V22.8217ZM23.0011 24.8217C21.7662 24.8217 20.5349 24.5743 19.617 24.1459C18.6904 23.7135 18.1266 23.12 18.1271 22.4468L17.8771 22.4466C17.8765 23.2734 18.5628 23.9299 19.5113 24.3725C20.4684 24.8192 21.7371 25.0717 23.0011 25.0717V24.8217ZM23.0007 26.8217C21.7656 26.8217 20.5343 26.5743 19.6165 26.1459C18.6899 25.7135 18.1263 25.12 18.1267 24.4468L17.8767 24.4466C17.8762 25.2734 18.5624 25.9299 19.5108 26.3725C20.4679 26.8192 21.7366 27.0717 23.0007 27.0717V26.8217ZM27.875 26.4467C27.875 27.12 27.3112 27.7135 26.3846 28.1459C25.4668 28.5743 24.2355 28.8217 23 28.8217V29.0717C24.2645 29.0717 25.5332 28.8192 26.4904 28.3725C27.4388 27.9299 28.125 27.2734 28.125 26.4467H27.875ZM23 28.8217C21.7645 28.8217 20.5332 28.5743 19.6155 28.1459C18.689 27.7135 18.1255 27.12 18.126 26.4468L17.876 26.4466C17.8754 27.2734 18.5614 27.9299 19.5098 28.3725C20.4668 28.8192 21.7355 29.0717 23 29.0717V28.8217ZM19.625 18.4467C19.625 18.314 19.701 18.1815 19.8755 18.0514C20.0501 17.9212 20.3077 17.8064 20.6292 17.7114C21.2705 17.522 22.1329 17.4213 23.0007 17.4163C23.8686 17.4113 24.7306 17.502 25.3713 17.6887C25.6923 17.7823 25.9493 17.8976 26.1234 18.0306C26.2964 18.1627 26.375 18.3015 26.375 18.4467H26.625C26.625 18.1966 26.4849 17.9921 26.2751 17.8319C26.0664 17.6725 25.7764 17.5464 25.4412 17.4487C24.7694 17.2529 23.8814 17.1612 22.9993 17.1663C22.1171 17.1714 21.2295 17.2734 20.5583 17.4717C20.2235 17.5706 19.9343 17.6958 19.7261 17.851C19.5177 18.0063 19.375 18.2044 19.375 18.4467H19.625ZM26.375 18.4467C26.375 18.5794 26.299 18.712 26.1245 18.842C25.9499 18.9722 25.6923 19.0871 25.3708 19.182C24.7295 19.3714 23.8671 19.4721 22.9993 19.4771C22.1314 19.4822 21.2694 19.3915 20.6287 19.2047C20.3077 19.1111 20.0507 18.9958 19.8766 18.8629C19.7036 18.7307 19.625 18.5919 19.625 18.4467H19.375C19.375 18.6968 19.5151 18.9013 19.7249 19.0615C19.9336 19.2209 20.2236 19.347 20.5588 19.4447C21.2306 19.6405 22.1186 19.7323 23.0007 19.7271C23.8829 19.722 24.7705 19.62 25.4417 19.4218C25.7765 19.3229 26.0657 19.1976 26.2739 19.0424C26.4823 18.8871 26.625 18.689 26.625 18.4467H26.375ZM17.8771 18.4467L17.8771 18.4479L18.1271 18.4479L18.1271 18.4467L17.8771 18.4467ZM17.8771 18.4479C17.8774 19.2691 18.4939 19.9267 19.4171 20.3721C20.3447 20.8198 21.6141 21.0717 23.0011 21.0717V20.8217C21.6403 20.8217 20.4105 20.5739 19.5257 20.147C18.6364 19.7178 18.1273 19.126 18.1271 18.4478L17.8771 18.4479ZM18.126 26.4467L18.1271 18.4479L17.8771 18.4479L17.876 26.4467L18.126 26.4467ZM28.125 26.4467L28.1253 24.4787L27.8753 24.4787L27.875 26.4467L28.125 26.4467ZM28.1253 24.4787L28.1255 22.4817L27.8755 22.4817L27.8753 24.4787L28.1253 24.4787ZM28.1255 22.4817L28.1258 20.4715L27.8758 20.4715L27.8755 22.4817L28.1255 22.4817ZM28.1258 20.4715L28.1261 18.4467L27.8761 18.4467L27.8758 20.4715L28.1258 20.4715ZM27.8761 20.4467C27.8761 20.4541 27.876 20.4614 27.8758 20.4688L28.1258 20.4743C28.126 20.4651 28.1261 20.4559 28.1261 20.4467H27.8761ZM27.8758 20.4688C27.8611 21.137 27.2954 21.7252 26.3731 22.1531C25.4592 22.577 24.2361 22.8217 23.0011 22.8217V23.0717C24.265 23.0717 25.5253 22.8219 26.4783 22.3798C27.423 21.9416 28.1077 21.2923 28.1258 20.4743L27.8758 20.4688ZM27.8761 22.4467C27.8761 22.4571 27.8759 22.4675 27.8756 22.4778L28.1255 22.4856C28.1259 22.4727 28.1261 22.4597 28.1261 22.4467H27.8761ZM27.8756 22.4778C27.8548 23.144 27.2884 23.7301 26.3681 24.156C25.4559 24.5781 24.2362 24.8217 23.0011 24.8217V25.0717C24.2649 25.0717 25.5218 24.8231 26.4731 24.3829C27.4162 23.9464 28.1001 23.3 28.1255 22.4856L27.8756 22.4778ZM27.8757 24.4467C27.8757 24.4562 27.8756 24.4657 27.8753 24.4751L28.1252 24.4822C28.1256 24.4704 28.1257 24.4586 28.1257 24.4467H27.8757ZM27.8753 24.4751C27.8563 25.1419 27.2902 25.7286 26.3694 26.1551C25.4567 26.5778 24.236 26.8217 23.0007 26.8217V27.0717C24.2647 27.0717 25.5227 26.8227 26.4744 26.382C27.418 25.945 28.102 25.2977 28.1252 24.4822L27.8753 24.4751Z" fill="#FA305F"/>
<path d="M16.7587 14.5643H12.172C9.27592 14.5643 9.27608 18.0938 12.172 18.0938H14.8276C17.724 18.0938 17.7242 22.1351 14.8276 22.1351H10M13.1382 12.4467V24.4467" stroke="white" stroke-width="1.25"/>
<path d="M27 11.4467C26.5 11.4467 25 10.4467 25 9.44672C25 10.4467 23.5 11.4467 23 11.4467C23.5 11.4467 25 12.9467 25 13.4467C25 12.9467 26.5 11.4467 27 11.4467Z" stroke="#FFC231" stroke-width="0.75"/>
<path d="M5 6.44672C4.5 6.44672 3 5.44672 3 4.44672C3 5.44672 1.5 6.44672 1 6.44672C1.5 6.44672 3 7.94672 3 8.44672C3 7.94672 4.5 6.44672 5 6.44672Z" stroke="#FFC231" stroke-width="0.75"/>
<path d="M10 8.44672H18" stroke="#FFC231" stroke-width="2" stroke-linecap="round"/>
<path d="M10 6.44672H18" stroke="#FFC231" stroke-width="2" stroke-linecap="round"/>
</svg>
