<svg height="512px" viewBox="56 56 400 400" width="512px" xmlns="http://www.w3.org/2000/svg">
<circle  cx="256" cy="256" r="187" fill="#ffffff" data-original="#ffffff" class=""/>
<path fill='#012169' d="m229.601562 241-12.003906 30h76.804688l-12.003906-30zm0 0"/>
<path fill='#012169' d="m256 174.101562-14.699219 36.898438h29.398438zm0 0"/>
<path fill='#012169' d="m394.335938 117.664062c-37.183594-37.183593-86.3125-57.664062-138.335938-57.664062s-101.152344 20.480469-138.335938 57.664062c-37.1875 37.183594-57.664062 86.3125-57.664062 138.335938s20.480469 101.152344 57.664062 138.335938c37.183594 37.183593 86.3125 57.664062 138.335938 57.664062s101.152344-20.480469 138.335938-57.664062c37.183593-37.183594 57.664062-86.3125 57.664062-138.335938s-20.480469-101.152344-57.664062-138.335938zm-33.335938 123.335938h-46.199219c3.898438 10.199219 7.796875 20.398438 11.699219 30h34.5v30h-22.5c12.601562 32.101562 21.300781 54.601562 21.300781 54.601562l-27.601562 10.796876-25.800781-65.398438h-100.796876c-10.503906 26.398438-20.101562 50.699219-25.800781 65.398438l-27.601562-10.796876 21.601562-54.601562h-22.800781v-30h34.5l11.699219-30h-46.199219v-30h58.199219l35.402343-90h22.796876c9.300781 23.699219 22.203124 56.398438 35.402343 90h58.199219zm0 0"/>
</svg>