<svg width="250" height="250" viewBox="0 0 250 250" fill="none" xmlns="http://www.w3.org/2000/svg">
<g clip-path="url(#clip0_1112_5754)">
<path d="M177.667 133.189L145.701 126.967L177.659 114.088L183.924 121.394L177.667 133.189Z" fill="#E50539"/>
<path d="M219.89 116.699C216.071 108.316 213.27 101.153 212.267 99.4348C209.348 94.4795 205 94.7487 201.268 95.3978C191.318 97.1155 187.435 98.8728 169.894 103.551C167.314 104.263 162.445 105.696 159.763 104.762C152.661 102.324 150.507 100.369 147.098 100.757C141.819 101.366 130.969 106.48 119.188 115.116C115.503 117.776 115.93 120.958 115.243 123.032C115.211 123.137 115.203 123.247 115.218 123.356C115.234 123.465 115.273 123.568 115.334 123.66C115.394 123.752 115.474 123.829 115.567 123.886C115.661 123.943 115.766 123.978 115.874 123.99C117.587 124.164 136.28 125.794 137.132 125.913C137.004 125.847 136.897 125.747 136.822 125.624C136.747 125.502 136.707 125.361 136.706 125.217C136.703 125.085 136.738 124.955 136.807 124.843C136.875 124.731 136.974 124.641 137.093 124.583C142.427 121.702 161.806 111.403 173.508 106.773C189.519 100.401 193.385 99.7198 198.246 99.2607C199.542 99.1882 200.842 99.2041 202.136 99.3082C202.59 99.3363 203.027 99.4954 203.394 99.7664C203.761 100.037 204.042 100.409 204.203 100.836C206.413 107.343 212.883 122.042 216.308 126.911C216.131 127.232 215.882 127.508 215.581 127.717C215.279 127.926 214.934 128.062 214.572 128.114C213.672 128.114 211.841 126.428 210.705 125.422C210.579 125.322 210.425 125.263 210.264 125.253C210.103 125.243 209.943 125.283 209.806 125.367C190.607 137.241 176.767 142.418 174.771 143.13C174.691 143.164 174.605 143.181 174.518 143.181C174.432 143.181 174.346 143.164 174.266 143.13L164.458 139.465C164.991 138.819 165.425 138.096 165.744 137.32C165.921 136.935 166.015 136.517 166.02 136.093C165.949 134.51 164.442 134.169 163.763 134.082C161.151 133.758 91.0738 123.388 73.5011 121.654C66.0444 120.863 58.9506 124.734 55.8811 128.779V128.882L65.8313 139.283C65.936 139.397 66.0744 139.475 66.2263 139.505C66.3782 139.535 66.5356 139.515 66.6756 139.449L74.5032 135.832C74.5032 135.832 75.5764 139.156 74.5743 139.718C68.0723 143.296 61.7755 146.494 55.6839 149.7C53.2377 150.998 53.3167 153.452 52.5276 156.903C52.1962 158.344 52.0226 159.666 52.0226 159.666C52.0226 159.666 65.6735 152.803 74.0377 148.798C74.1804 148.739 74.3372 148.723 74.4886 148.753C74.6401 148.782 74.7796 148.856 74.8899 148.964C76.0814 150.254 76.468 150.547 77.2571 151.339C77.3385 151.421 77.3996 151.521 77.4357 151.631C77.4718 151.741 77.4818 151.858 77.4649 151.972C77.4481 152.087 77.4048 152.196 77.3386 152.29C77.2724 152.385 77.1851 152.463 77.0835 152.518C75.1108 153.571 73.075 154.647 71.5127 155.582C70.2738 156.318 71.5127 158.795 71.5127 158.795L94.2301 147.998C94.2301 147.998 95.6425 149.399 93.1411 150.959C89.2668 153.397 53.435 171.722 50.3576 171.801C42.2302 172.007 26.8985 156.666 21.3592 154.331C16.6879 152.36 11.6536 155.574 4.82812 159.595C2.9738 160.703 4.10216 163.379 4.10216 163.379L13.9971 158.352C13.9971 158.352 15.2202 159.769 13.8472 160.632C9.05755 163.679 2.1295 166.727 1.06425 167.495C-0.513893 168.619 0.101583 173.883 0.101583 173.883L9.45997 169.529C9.58405 169.467 9.72233 169.438 9.86087 169.447C9.99941 169.455 10.1333 169.5 10.249 169.577L30.3073 188.733C31.5803 188.423 32.8239 188.002 34.0238 187.474L17.2876 169.624C17.216 169.536 17.1641 169.434 17.1354 169.324C17.1067 169.214 17.1019 169.099 17.1214 168.987C17.1409 168.875 17.1841 168.769 17.2482 168.675C17.3123 168.582 17.3957 168.503 17.4927 168.445C19.205 167.574 21.2487 166.933 24.1446 169.157C26.575 171.009 35.0812 177.912 43.3112 177.176C46.0572 176.938 46.0966 177.785 46.0966 177.785C46.0966 177.785 42.601 179.471 38.4584 181.743C36.4068 182.883 38.0718 185.883 38.0718 185.883C59.2741 177.176 85.4161 166.3 89.0459 164.716C89.1747 164.662 89.3156 164.643 89.4543 164.661C89.5929 164.679 89.7243 164.734 89.8349 164.819L95.966 169.703C96.834 171.065 140.446 154.244 153.892 147.428C154.681 147.056 161.483 147.373 164.789 147.341C166.304 147.341 166.249 148.006 166.249 148.006C166.249 148.006 57.1279 191.646 30.3546 190.648H30.3073L24.6023 193.102C27.948 195.319 27.151 199.15 32.8481 196.19C33.1874 196.981 33.5819 197.773 34.0001 198.691C35.1048 201.066 35.1048 201.113 42.3485 198.643C62.8644 191.693 154.933 164.075 175.56 155.51C187.207 150.69 203.312 144.032 213.349 137.795C223.251 131.684 225.271 128.517 219.89 116.699ZM131.774 117.127C130.535 118.013 122.376 116.485 122.376 116.485C122.376 116.485 131.403 108.435 139.996 107.406C142.553 107.097 147.721 109.108 147.721 109.108C147.721 109.108 136.193 113.937 131.774 117.127ZM159.155 109.116L147.5 115.116C147.5 115.116 144.802 113.477 147.84 112.1C148.629 111.744 150.404 110.723 151.848 109.971C152.027 109.876 152.175 109.732 152.274 109.556C152.374 109.38 152.421 109.178 152.41 108.976C152.4 108.774 152.331 108.579 152.213 108.414C152.096 108.249 151.933 108.122 151.746 108.047L143.105 104.572C143.923 103.919 144.884 103.469 145.908 103.259C146.932 103.048 147.991 103.083 149 103.361C150.254 103.749 155.502 105.965 158.95 107.414C159.132 107.455 159.297 107.553 159.423 107.692C159.548 107.831 159.627 108.006 159.65 108.192C159.672 108.379 159.637 108.567 159.548 108.733C159.46 108.898 159.322 109.032 159.155 109.116ZM162.059 137.399C160.923 139.085 158.271 142.22 154.373 141.586C152.472 141.262 75.0793 125.509 74.8899 125.494C74.3454 125.343 74.4165 124.18 75.4028 124.298L161.546 136.235C161.67 136.261 161.785 136.316 161.884 136.397C161.982 136.477 162.059 136.579 162.109 136.696C162.16 136.812 162.181 136.939 162.172 137.065C162.164 137.192 162.125 137.314 162.059 137.423V137.399Z" fill="#E50539"/>
<path d="M217.988 101.992C217.908 102.004 217.829 102.022 217.752 102.048C217.675 102.078 217.605 102.124 217.546 102.182L218.335 101.977L217.988 101.992Z" fill="#E50539"/>
<path d="M249.804 160.362C249.157 157.758 244.406 140.501 241.668 134.169L229.162 111.656C227.979 113.299 226.659 114.837 225.216 116.255C224.975 116.463 224.71 116.641 224.427 116.786C224.054 116.94 223.655 117.023 223.251 117.031L229.99 139.195C230.992 142.757 233.336 145.789 235.356 148.868C236.374 150.388 243.538 161.114 246.292 165.23C246.425 165.43 246.605 165.593 246.815 165.706C247.026 165.819 247.261 165.878 247.5 165.878C247.738 165.878 247.974 165.819 248.184 165.706C248.395 165.593 248.574 165.43 248.707 165.23C249.202 164.532 249.554 163.742 249.742 162.907C249.931 162.071 249.951 161.206 249.804 160.362ZM247.358 163.441L247.208 163.679L247.042 163.441C246.939 163.291 236.823 148.354 233.17 142.567C232.065 140.826 233.359 139.947 233.359 139.947L233.509 139.86L233.612 139.995C234.125 140.644 246.056 156.238 247.602 159.103C247.939 159.786 248.094 160.544 248.051 161.305C248.008 162.065 247.769 162.801 247.358 163.441Z" fill="#E50539"/>
<path d="M216.615 76.9464C215.242 72.284 212.899 69.2681 210.863 66.181C209.845 64.5978 202.396 53.5157 199.776 49.5578C199.664 49.3863 199.51 49.2456 199.33 49.1483C199.149 49.0509 198.948 49 198.743 49C198.538 49 198.336 49.0509 198.156 49.1483C197.975 49.2456 197.822 49.3863 197.709 49.5578C197.176 50.3132 196.801 51.1689 196.605 52.0735C196.41 52.978 196.399 53.9128 196.573 54.8218C197.236 57.4103 201.82 74.6113 204.566 80.9439L215.976 101.105C216.261 100.771 216.613 100.502 217.01 100.314C217.28 100.197 217.568 100.128 217.862 100.108C219.369 100.005 221.728 100.021 223.859 100.061L216.615 76.9464ZM212.93 75.3633L212.78 75.4504L212.678 75.3158C212.173 74.6509 200.266 59.0726 198.687 56.1912C198.361 55.5063 198.214 54.7491 198.261 53.9913C198.308 53.2335 198.547 52.5003 198.956 51.8613L199.106 51.6397L199.271 51.8613C199.374 52.0275 209.529 66.9805 213.143 72.7432C214.24 74.5163 212.946 75.3712 212.93 75.387V75.3633Z" fill="#E50539"/>
<path d="M230.771 101.992C227.662 101.295 221.776 101.256 218.257 101.477C218.128 101.47 217.999 101.47 217.87 101.477C217.785 101.491 217.7 101.509 217.617 101.533C217.534 101.567 217.459 101.618 217.397 101.683C217.192 101.826 217.037 102.029 216.952 102.265C216.867 102.5 216.857 102.756 216.923 102.997C218.691 107.478 220.253 110.953 222.305 115.037C222.478 115.28 222.732 115.454 223.021 115.526C223.31 115.599 223.616 115.566 223.883 115.433C223.998 115.377 224.106 115.308 224.206 115.227C227.399 112.16 229.985 108.516 231.829 104.485C232.405 103.243 232.065 102.261 230.771 101.992ZM220.553 108.055L218.754 103.9C218.709 103.811 218.685 103.715 218.682 103.616C218.679 103.517 218.697 103.419 218.737 103.328C218.776 103.237 218.834 103.156 218.908 103.091C218.982 103.026 219.069 102.977 219.164 102.95C219.224 102.918 219.287 102.894 219.353 102.878C219.353 102.878 226.802 102.609 229.13 103.068C230.369 103.322 230.416 103.765 230.416 103.765L220.553 108.055Z" fill="#E50539"/>
<path d="M192.848 103.123C192.848 103.123 191.444 108.957 189.227 115.685L185.123 110.485L181.801 112.005L187.846 119.683C185.96 124.86 183.687 130.013 181.265 133.053L187.325 130.29C188.706 129.008 189.818 126.411 190.686 123.292L194.016 127.52L197.362 125.992L191.712 118.868C192.943 112.369 193.267 105.332 192.848 103.123Z" fill="#E50539"/>
</g>
<defs>
<clipPath id="clip0_1112_5754">
<rect width="250" height="250" fill="white"/>
</clipPath>
</defs>
</svg>
