<svg height="512px" viewBox="56 56 400 400" width="512px" xmlns="http://www.w3.org/2000/svg">
<circle  cx="256" cy="256" r="187" fill="#ffffff" data-original="#ffffff" class=""/>
<path fill="#f25e03" d="m394.335938 117.664062c-37.183594-37.183593-86.3125-57.664062-138.335938-57.664062s-101.152344 20.480469-138.335938 57.664062c-37.183593 37.183594-57.664062 86.3125-57.664062 138.335938s20.480469 101.152344 57.664062 138.335938c37.183594 37.183593 86.3125 57.664062 138.335938 57.664062s101.152344-20.480469 138.335938-57.664062c37.183593-37.183594 57.664062-86.3125 57.664062-138.335938s-20.480469-101.152344-57.664062-138.335938zm-33.335938 213.335938h-30v-45c0-36.300781-25.800781-66.601562-60-73.5v88.5h-30v-88.5c-34.199219 6.898438-60 37.199219-60 73.5v45h-30v-45c0-52.800781 39.300781-96.601562 90-103.800781v-31.199219h30v31.199219c50.699219 7.199219 90 51 90 103.800781zm0 0"/>
</svg>