<svg width="32" height="32" viewBox="0 0 32 32" fill="none" xmlns="http://www.w3.org/2000/svg">
<path d="M25.15 9.7001V25.9001C25.15 26.6501 24.475 27.2501 23.65 27.2501H13.525C12.7 27.2501 12.025 26.6501 12.025 25.9001V9.7001C12.025 8.9501 12.7 8.3501 13.525 8.3501H23.65C24.475 8.3501 25.15 8.9501 25.15 9.7001Z" fill="#FFC231"/>
<path d="M20.375 6.1V8.325H13.525C12.7 8.325 12.025 8.925 12.025 9.675V23.65H8.75C7.925 23.65 7.25 23.05 7.25 22.3V6.1C7.25 5.35 7.925 4.75 8.75 4.75H18.875C19.7 4.75 20.375 5.35 20.375 6.1Z" fill="#FFC231"/>
<path d="M21.35 16.4L18.875 13.925C18.725 13.775 18.45 13.775 18.3 13.925L15.825 16.4C14.975 17.225 14.975 18.6 15.8 19.45C16.425 20.075 17.375 20.275 18.175 19.925H18.975C19.775 20.275 20.725 20.075 21.35 19.475C22.2 18.6 22.2 17.225 21.35 16.4Z" fill="#FF6300"/>
<path d="M21.575 19.65C22.475 18.725 22.475 17.25 21.575 16.35L18.9 13.65C18.725 13.475 18.45 13.475 18.275 13.65L15.575 16.35C14.65 17.25 14.65 18.725 15.55 19.65C16.225 20.325 17.25 20.525 18.125 20.15V21.2001H16.925C16.675 21.2001 16.475 21.4 16.475 21.65C16.475 21.9 16.675 22.1 16.925 22.1H20.2C20.45 22.1 20.65 21.9 20.65 21.65C20.65 21.4 20.45 21.2001 20.2 21.2001H19V20.175C19.9 20.525 20.9 20.325 21.575 19.65ZM16.2 19.025C15.625 18.45 15.625 17.525 16.2 16.95L18.575 14.575L20.95 16.95C21.525 17.525 21.5 18.45 20.925 19.025C20.35 19.575 19.45 19.575 18.875 19.025C18.7 18.85 18.425 18.85 18.25 19.025C17.7 19.6 16.775 19.6 16.2 19.025ZM23.65 7.90005H20.8V6.10005C20.8 5.10005 19.925 4.30005 18.85 4.30005H8.75C7.675 4.30005 6.8 5.10005 6.8 6.10005V22.3C6.8 23.3 7.675 24.1 8.75 24.1H11.575V25.9C11.575 26.9 12.45 27.7001 13.525 27.7001H23.65C24.725 27.7001 25.6 26.9 25.6 25.9V18.65C25.6 18.4 25.4 18.2 25.15 18.2C24.9 18.2 24.7 18.4 24.7 18.65V25.875C24.7 26.375 24.225 26.8 23.625 26.8H13.525C12.975 26.825 12.5 26.425 12.45 25.875V9.70005C12.45 9.20005 12.925 8.77505 13.525 8.77505H23.65C24.25 8.77505 24.725 9.17505 24.725 9.70005V13.675C24.725 13.925 24.925 14.125 25.175 14.125C25.425 14.125 25.625 13.925 25.625 13.675V9.70005C25.575 8.70005 24.7 7.90005 23.65 7.90005ZM11.575 9.70005V23.225H8.75C8.15 23.225 7.675 22.8 7.675 22.3V6.10005C7.675 5.60005 8.15 5.17505 8.75 5.17505H18.875C19.475 5.17505 19.95 5.57505 19.95 6.10005V7.90005H13.525C12.45 7.90005 11.575 8.70005 11.575 9.70005ZM25.575 16V16.225C25.575 16.475 25.375 16.675 25.125 16.675C24.875 16.675 24.675 16.475 24.675 16.225V16C24.675 15.75 24.875 15.55 25.125 15.55C25.375 15.55 25.575 15.75 25.575 16ZM23.75 24.9L22.875 23.15C22.725 22.825 22.25 22.825 22.1 23.15L21.225 24.9C21.125 25.125 21.2 25.375 21.425 25.475C21.65 25.575 21.9 25.5 22 25.275L22.5 24.3L23 25.275C23.1 25.5 23.375 25.575 23.6 25.475C23.75 25.375 23.85 25.125 23.75 24.9ZM15.2 10.15C15.05 9.82505 14.575 9.82505 14.425 10.15L13.55 11.9C13.45 12.125 13.525 12.375 13.75 12.475C13.975 12.575 14.225 12.5 14.325 12.275L14.825 11.3L15.325 12.275C15.425 12.5 15.7 12.575 15.925 12.475C16.15 12.375 16.225 12.1 16.125 11.9L15.2 10.15ZM10.325 6.45005C10.075 6.45005 9.875 6.65005 9.875 6.90005V8.10005C9.875 8.15005 9.825 8.22505 9.75 8.22505C9.675 8.22505 9.625 8.17505 9.625 8.10005V8.00005C9.625 7.75005 9.425 7.55005 9.175 7.55005C8.925 7.55005 8.8 7.75005 8.8 8.00005V8.10005C8.8 8.65005 9.25 9.10005 9.8 9.10005C10.35 9.10005 10.8 8.65005 10.8 8.10005V6.90005C10.775 6.65005 10.575 6.45005 10.325 6.45005Z" fill="#371699"/>
</svg>
