<svg id="Capa_1" enable-background="new 0 0 512 512" height="512" viewBox="0 0 512 512" width="512" xmlns="http://www.w3.org/2000/svg"><g><g><g><g><g><g id="XMLID_1867_"><g id="XMLID_1868_"><g id="XMLID_1869_"><g id="XMLID_1870_"><g id="XMLID_1871_"><g id="XMLID_1872_"><g id="XMLID_1873_"><g id="XMLID_1874_"><g id="XMLID_1875_"><g id="XMLID_1876_"><g id="XMLID_1877_"><g id="XMLID_1878_"><g id="XMLID_1879_"><g id="XMLID_1880_"><g id="XMLID_1881_"><circle cx="256" cy="256" fill="#ffde55" r="256"/></g></g></g></g></g></g></g></g></g></g></g></g></g></g></g></g></g></g></g><path d="m512 256c0-10.277-.606-20.413-1.783-30.374l-93.662-93.661-110.046 75.19-72.637-72.637-88.328 223.327 150.813 150.991c122.21-19.352 215.643-125.183 215.643-252.836z" fill="#f7b81c"/><g><path d="m256 435.386s-249.325-126.463-177.506-280.082c14.468-30.965 58.496-61.774 110.413-47.889 18.798 5.027 33.89 16.133 44.965 27.104l-25.147 103.2 35.753 18.246 11.522 98.62 32.01 37.055z" fill="#e24d71"/></g><g><g><g><path d="m433.506 155.304c-14.374-30.767-57.934-61.379-109.424-48.15l-54.03 112.245 30.216 18.714-44.268 116.472v80.801s249.325-126.463 177.506-280.082z" fill="#af2e59"/></g></g></g></g></svg>