<svg width="41" height="40" viewBox="0 0 41 40" fill="none" xmlns="http://www.w3.org/2000/svg">
<rect x="0.664062" width="40" height="40" rx="20" fill="#B8E5EF"/>
<path d="M7.89844 10.9375H13.9336C15.2305 10.9375 16.3359 11.1328 17.25 11.5234C18.1641 11.9141 18.8633 12.4922 19.3477 13.2578C19.8398 14.0156 20.0859 14.9531 20.0859 16.0703C20.0859 16.9219 19.9297 17.6719 19.6172 18.3203C19.3047 18.9688 18.8633 19.5156 18.293 19.9609C17.7227 20.3984 17.043 20.7383 16.2539 20.9805L15.3633 21.4141H9.9375L9.91406 19.082H13.9805C14.6836 19.082 15.2695 18.957 15.7383 18.707C16.207 18.457 16.5586 18.1172 16.793 17.6875C17.0352 17.25 17.1562 16.7578 17.1562 16.2109C17.1562 15.6172 17.0391 15.1016 16.8047 14.6641C16.5781 14.2188 16.2266 13.8789 15.75 13.6445C15.2734 13.4023 14.668 13.2812 13.9336 13.2812H10.8398V28H7.89844V10.9375ZM17.6367 28L13.6289 20.3359L16.7109 20.3242L20.7773 27.8477V28H17.6367ZM28.8755 8.20703V11.7109H27.0708V8.20703H28.8755ZM28.6528 27.3438V30.4844H26.8598V27.3438H28.6528ZM30.4223 23.5586C30.4223 23.1055 30.3286 22.7109 30.1411 22.375C29.9614 22.0312 29.6645 21.7227 29.2505 21.4492C28.8364 21.168 28.2817 20.9062 27.5864 20.6641C26.5864 20.3125 25.7114 19.918 24.9614 19.4805C24.2192 19.0352 23.6411 18.4883 23.227 17.8398C22.8208 17.1836 22.6177 16.3672 22.6177 15.3906C22.6177 14.4297 22.8364 13.5977 23.2739 12.8945C23.7192 12.1914 24.3364 11.6484 25.1255 11.2656C25.9145 10.8828 26.8364 10.6914 27.8911 10.6914C28.7036 10.6914 29.4341 10.8125 30.0825 11.0547C30.7388 11.2969 31.2973 11.6523 31.7583 12.1211C32.2192 12.5898 32.5708 13.168 32.813 13.8555C33.063 14.5352 33.188 15.3164 33.188 16.1992H30.3755C30.3755 15.6992 30.3169 15.2539 30.1997 14.8633C30.0903 14.4648 29.9263 14.1289 29.7075 13.8555C29.4888 13.5742 29.2231 13.3594 28.9106 13.2109C28.6059 13.0625 28.2583 12.9883 27.8677 12.9883C27.313 12.9883 26.8559 13.0938 26.4966 13.3047C26.1372 13.5078 25.8716 13.7891 25.6997 14.1484C25.5356 14.5078 25.4536 14.918 25.4536 15.3789C25.4536 15.8242 25.5395 16.2148 25.7114 16.5508C25.8833 16.8867 26.1763 17.1914 26.5903 17.4648C27.0122 17.7305 27.5903 18 28.3247 18.2734C29.3325 18.6328 30.2036 19.0352 30.938 19.4805C31.6802 19.918 32.2505 20.4609 32.6489 21.1094C33.0552 21.75 33.2583 22.5586 33.2583 23.5352C33.2583 24.543 33.0239 25.3984 32.5552 26.1016C32.0942 26.8047 31.4458 27.3398 30.6098 27.707C29.7817 28.0664 28.8169 28.2461 27.7153 28.2461C27.02 28.2461 26.3286 28.1562 25.6411 27.9766C24.9614 27.7891 24.3442 27.4844 23.7895 27.0625C23.2348 26.6406 22.7934 26.082 22.4653 25.3867C22.1372 24.6836 21.9731 23.8242 21.9731 22.8086H24.8091C24.8091 23.418 24.8911 23.9258 25.0552 24.332C25.2192 24.7383 25.4419 25.0586 25.7231 25.293C26.0044 25.5273 26.3169 25.6953 26.6606 25.7969C27.0122 25.8984 27.3638 25.9492 27.7153 25.9492C28.3013 25.9492 28.7934 25.8516 29.1919 25.6562C29.5981 25.4531 29.9028 25.1719 30.1059 24.8125C30.3169 24.4453 30.4223 24.0273 30.4223 23.5586Z" fill="#202A39"/>
</svg>
