<svg height="512px" viewBox="56 56 400 400" width="512px" xmlns="http://www.w3.org/2000/svg">
<circle  cx="256" cy="256" r="187" fill="#ffffff" data-original="#ffffff" class=""/>
<path fill='#f7931a' d="m286 181h-60v60h60c16.5 0 30-13.5 30-30s-13.5-30-30-30zm0 0"/>
<path fill='#f7931a' d="m286 271h-60v60h60c16.5 0 30-13.5 30-30s-13.5-30-30-30zm0 0"/>
<path fill='#f7931a' d="m394.335938 117.664062c-37.183594-37.183593-86.3125-57.664062-138.335938-57.664062s-101.152344 20.480469-138.335938 57.664062c-37.183593 37.183594-57.664062 86.3125-57.664062 138.335938s20.480469 101.152344 57.664062 138.335938c37.183594 37.183593 86.3125 57.664062 138.335938 57.664062s101.152344-20.480469 138.335938-57.664062c37.183593-37.183594 57.664062-86.3125 57.664062-138.335938s-20.480469-101.152344-57.664062-138.335938zm-48.335938 183.335938c0 33-27 60-60 60v30h-30v-30h-30v30h-30v-30h-30v-30h30v-150h-30v-30h30v-30h30v30h30v-30h30v30c33 0 60 27 60 60 0 18-8.101562 34.199219-20.699219 45 12.597657 10.800781 20.699219 27 20.699219 45zm0 0"/></svg>