<svg height="512px" viewBox="56 56 400 400" width="512px" xmlns="http://www.w3.org/2000/svg">
<circle cx="256" cy="256" r="187" fill="#ffffff" data-original="#ffffff" class=""/>
<path fill='#d62718' d="m271 271h30v60h-30zm0 0"/><path fill='#d62718' d="m211 181h30v60h-30zm0 0"/>
<path fill='#d62718' d="m394.335938 117.664062c-37.183594-37.183593-86.3125-57.664062-138.335938-57.664062s-101.152344 20.480469-138.335938 57.664062c-37.183593 37.183594-57.664062 86.3125-57.664062 138.335938s20.480469 101.152344 57.664062 138.335938c37.183594 37.183593 86.3125 57.664062 138.335938 57.664062s101.152344-20.480469 138.335938-57.664062c37.183593-37.183594 57.664062-86.3125 57.664062-138.335938s-20.480469-101.152344-57.664062-138.335938zm-63.335938 93.335938h-30v-30h-30v60h60v120h-60v30h-30v-30h-60v-60h30v30h30v-60h-60v-120h60v-30h30v30h60zm0 0"/>
</svg>