<svg viewBox="124.652 115.017 215.167 217.576" xmlns="http://www.w3.org/2000/svg">
  <defs></defs>
  <ellipse style="stroke: rgb(0, 0, 0);" cx="232.167" cy="222.985" rx="102.973" ry="102.973"></ellipse>
  <path d="M 329.867 182.648 C 329.867 182.648 329.867 182.648 329.867 182.648 C 329.867 182.648 329.867 181.946 329.867 182.648 C 324.249 169.307 316.525 158.072 307.397 148.241 C 307.397 148.241 307.397 148.241 307.397 148.241 C 307.397 148.241 307.397 148.241 307.397 148.241 C 297.566 138.411 286.331 130.687 273.692 125.772 C 273.692 125.772 273.692 125.772 273.692 125.772 C 273.692 125.772 273.692 125.772 273.692 125.772 C 260.351 120.154 246.307 117.345 232.263 117.345 C 218.22 117.345 204.176 120.154 192.239 125.069 C 192.239 125.069 192.239 125.069 192.239 125.069 C 192.239 125.069 192.239 125.069 192.239 125.069 C 178.897 130.687 167.663 138.411 157.832 148.241 C 157.832 148.241 157.832 148.241 157.832 148.241 C 157.832 148.241 157.832 148.241 157.832 148.241 C 148.001 158.072 140.277 169.307 135.362 181.946 C 135.362 181.946 135.362 181.946 135.362 181.946 C 135.362 181.946 135.362 181.946 135.362 181.946 C 129.745 195.288 126.936 208.629 126.936 222.673 C 126.936 236.716 129.745 250.058 134.66 262.697 C 134.66 262.697 134.66 262.697 134.66 262.697 C 134.66 262.697 134.66 262.697 134.66 262.697 C 140.277 275.337 148.001 286.571 157.13 296.402 C 157.13 296.402 157.13 296.402 157.13 296.402 C 157.13 296.402 157.13 296.402 157.13 296.402 C 166.96 306.233 178.195 313.957 190.835 318.872 C 190.835 318.872 190.835 318.872 190.835 318.872 C 190.835 318.872 190.835 318.872 190.835 318.872 C 204.176 325.192 218.22 328 232.263 328 C 246.307 328 260.351 325.192 272.288 320.276 C 272.288 320.276 272.288 320.276 272.288 320.276 C 272.288 320.276 272.288 320.276 272.288 320.276 C 284.927 314.659 296.162 306.935 305.993 297.806 C 305.993 297.806 305.993 297.806 305.993 297.806 C 305.993 297.806 305.993 297.806 305.993 297.806 C 315.823 287.976 323.547 276.741 328.462 264.102 C 328.462 264.102 328.462 264.102 328.462 264.102 C 328.462 264.102 328.462 264.102 328.462 264.102 C 334.782 250.058 337.591 236.716 337.591 222.673 C 337.591 208.629 334.782 195.288 329.867 182.648 Z M 313.717 181.244 L 294.055 188.968 C 291.949 184.755 289.14 181.244 286.331 177.733 L 301.077 162.987 C 305.993 168.605 310.206 174.924 313.717 181.244 Z M 273.692 141.22 C 280.012 144.731 286.331 148.241 291.949 153.157 L 277.203 167.903 C 273.692 165.094 270.181 162.285 265.968 160.179 L 273.692 141.22 Z M 239.285 132.091 C 247.009 132.793 254.031 134.198 260.351 136.304 L 251.924 155.965 C 247.711 154.561 243.498 153.859 238.583 153.157 L 238.583 132.091 L 239.285 132.091 Z M 225.242 132.091 L 225.242 153.157 C 221.028 153.859 216.113 154.561 211.9 155.965 L 204.176 135.602 C 210.496 133.496 217.518 132.091 225.242 132.091 Z M 190.835 141.22 L 198.559 160.881 C 194.345 162.987 190.835 165.796 187.324 168.605 L 173.28 153.157 C 178.195 148.944 184.515 144.731 190.835 141.22 Z M 162.747 163.689 L 177.493 178.435 C 174.684 181.946 171.876 185.457 169.769 189.67 L 150.108 181.946 C 154.321 174.924 158.534 168.605 162.747 163.689 Z M 145.193 194.586 L 164.854 203.012 C 163.449 207.225 162.747 211.438 162.045 216.353 L 140.98 216.353 C 141.682 207.927 143.086 200.905 145.193 194.586 Z M 141.682 229.695 L 162.747 229.695 C 163.449 233.908 164.152 238.823 165.556 243.036 L 145.193 250.76 C 143.086 244.44 141.682 237.419 141.682 229.695 Z M 150.81 264.102 L 170.471 256.378 C 172.578 260.591 175.387 264.102 178.195 267.613 L 163.449 282.358 C 158.534 276.741 154.321 270.421 150.81 264.102 Z M 190.835 304.126 C 184.515 300.615 178.195 297.104 172.578 292.189 L 187.324 277.443 C 190.835 280.252 194.345 283.061 198.559 285.167 L 190.835 304.126 Z M 225.242 313.254 C 217.518 312.552 210.496 311.148 204.176 309.041 L 212.602 289.38 C 216.815 290.785 221.028 291.487 225.944 292.189 L 225.944 313.254 L 225.242 313.254 Z M 218.22 257.782 C 218.22 252.867 221.028 247.951 225.242 245.845 L 225.242 234.61 C 223.135 233.206 221.731 231.801 220.326 229.695 L 209.091 229.695 C 206.985 233.908 202.069 236.716 197.154 236.716 C 189.43 236.716 183.111 230.397 183.111 222.673 C 183.111 214.949 189.43 208.629 197.154 208.629 C 202.069 208.629 206.985 211.438 209.091 215.651 L 220.326 215.651 C 221.731 213.544 223.135 212.14 225.242 210.736 L 225.242 199.501 C 221.028 197.394 218.22 192.479 218.22 187.564 C 218.22 179.84 224.539 173.52 232.263 173.52 C 239.987 173.52 246.307 179.84 246.307 187.564 C 246.307 192.479 243.498 197.394 239.285 199.501 L 239.285 210.736 C 241.392 212.14 242.796 213.544 244.2 215.651 L 255.435 215.651 C 257.542 211.438 262.457 208.629 267.373 208.629 C 275.097 208.629 281.416 214.949 281.416 222.673 C 281.416 230.397 275.097 236.716 267.373 236.716 C 262.457 236.716 257.542 233.908 255.435 229.695 L 244.2 229.695 C 242.796 231.801 241.392 233.206 239.285 234.61 L 239.285 245.845 C 243.498 247.951 246.307 252.867 246.307 257.782 C 246.307 265.506 239.987 271.826 232.263 271.826 C 224.539 271.826 218.22 265.506 218.22 257.782 Z M 239.285 313.254 L 239.285 292.189 C 243.498 291.487 248.414 290.785 252.627 289.38 L 261.053 309.041 C 254.031 311.85 247.009 313.254 239.285 313.254 Z M 273.692 304.126 L 265.968 284.465 C 270.181 282.358 273.692 279.55 277.203 276.741 L 291.949 291.487 C 286.331 296.402 280.012 300.615 273.692 304.126 Z M 301.779 281.656 L 287.034 266.91 C 289.842 263.399 292.651 259.889 294.758 255.675 L 314.419 263.399 C 310.206 270.421 305.993 276.741 301.779 281.656 Z M 319.334 250.76 L 299.673 242.334 C 301.077 238.121 301.779 233.908 302.482 228.992 L 323.547 228.992 C 322.845 237.419 321.441 244.44 319.334 250.76 Z M 301.779 215.651 C 301.077 211.438 300.375 206.523 298.971 202.31 L 318.632 193.883 C 320.738 200.905 322.143 207.927 322.845 214.949 L 301.779 214.949 L 301.779 215.651 Z" style="stroke-miterlimit: 5; fill: rgb(255, 255, 255);"></path>
</svg>