<svg aria-hidden="true" width="32" height="32" viewBox="0 0 32 32" style="position: absolute; width: 0; height: 0; overflow: hidden;" version="1.1" xmlns="http://www.w3.org/2000/svg" xmlns:xlink="http://www.w3.org/1999/xlink">

<path fill="#99a4b099" d="M28.037 3.083c0.172 0.244 0.275 0.547 0.275 0.875s-0.103 0.631-0.279 0.88l0.003-0.005-4.043 6.381 3.462-0.81c0.207-0.092 0.449-0.146 0.704-0.146 0.693 0 1.292 0.397 1.584 0.976l0.066 0.132c0.085 0.2 0.135 0.433 0.135 0.677 0 0.35-0.102 0.675-0.277 0.95l0.004-0.007-1.635 2.606-1.865 2.965-1.429 2.201-0.848 1.299c-1.159 1.816-2.488 3.383-4 4.751l-0.020 0.017c-0.193 0.167-0.405 0.33-0.625 0.481l-0.024 0.016c-1.785 1.404-4.064 2.251-6.542 2.251-5.87 0-10.628-4.757-10.63-10.627v0c0-0.008 0-0.017 0-0.026 0-1.146 0.185-2.249 0.526-3.281l-0.021 0.074c0.247-0.855 0.596-1.601 1.043-2.277l-0.019 0.031c0.399-0.654 0.828-1.222 1.306-1.743l-0.007 0.008 0.199-0.229c1.102-1.191 2.286-2.27 3.555-3.244l0.067-0.049c2.293-1.781 3.148-2.293 5.655-4.020 1.139-0.764 3.057-1.246 4.027-0.29s0 2.575-0.329 3.37l-0.42 0.94 8.291-5.525c0.239-0.163 0.535-0.26 0.853-0.26 0.518 0 0.976 0.258 1.253 0.653l0.003 0.005zM15.405 13.614c-0.487-0.632-1.243-1.035-2.094-1.035-0.603 0-1.159 0.202-1.603 0.543l0.006-0.005-0.306 0.252-0.764-0.932c-0.039-0.040-0.093-0.064-0.153-0.064s-0.114 0.025-0.153 0.064v0l-0.565 0.466c-0.038 0.041-0.062 0.096-0.062 0.157s0.024 0.116 0.062 0.157v0l0.764 0.932-0.894 0.764-0.764-0.932c-0.041-0.038-0.096-0.062-0.157-0.062s-0.116 0.024-0.157 0.062v0l-0.558 0.474c-0.040 0.039-0.064 0.093-0.064 0.153s0.025 0.114 0.064 0.153v0l0.764 0.932-1.849 1.528c-0.040 0.039-0.064 0.093-0.064 0.153s0.025 0.114 0.064 0.153v0l0.474 0.565c0.041 0.049 0.102 0.081 0.171 0.081 0.044 0 0.086-0.013 0.12-0.035h-0.001c0.219-0.183 0.504-0.294 0.815-0.294 0.402 0 0.76 0.185 0.994 0.476l0.002 0.002 2.904 3.469c0.204 0.192 0.331 0.463 0.331 0.764s-0.127 0.573-0.331 0.764h-0.001c-0.039 0.042-0.063 0.099-0.063 0.161 0 0.039 0.009 0.075 0.026 0.108l-0.001-0.001 0.374 0.657c0.039 0.066 0.11 0.109 0.191 0.109 0.052 0 0.1-0.018 0.138-0.048v0l1.758-1.475 0.68 0.818c0.041 0.038 0.096 0.062 0.157 0.062s0.116-0.024 0.157-0.062v0l0.558-0.466c0.038-0.041 0.062-0.096 0.062-0.157s-0.024-0.116-0.062-0.157v0l-0.688-0.81 0.894-0.764 0.688 0.818c0.040 0.038 0.094 0.061 0.153 0.061s0.113-0.023 0.153-0.061v0l0.527-0.436c0.038-0.040 0.061-0.094 0.061-0.153s-0.023-0.113-0.061-0.153v0l-0.688-0.818 0.764-0.634c0.529-0.48 0.86-1.17 0.86-1.938 0-0.672-0.254-1.285-0.671-1.748l0.002 0.002c-0.508-0.621-1.275-1.013-2.133-1.013-0.056 0-0.112 0.002-0.167 0.005h0.008c-0.055-0.621-0.3-1.176-0.676-1.616l0.003 0.004zM16.513 17.549c-0.222-0.266-0.553-0.435-0.924-0.435-0.295 0-0.565 0.106-0.774 0.283l0.002-0.001-1.819 1.528 1.528 1.842 1.811-1.528c0.272-0.222 0.444-0.557 0.444-0.932 0-0.288-0.101-0.552-0.27-0.759l0.002 0.002zM13.816 15.257c-0.223-0.262-0.553-0.427-0.921-0.427-0.296 0-0.567 0.106-0.777 0.283l0.002-0.002-1.376 1.146 1.528 1.849 1.391-1.169c0.269-0.222 0.438-0.555 0.438-0.927 0-0.297-0.108-0.569-0.287-0.779l0.001 0.002z"></path>

</svg>