<svg id="Layer_1" data-name="Layer 1" xmlns="http://www.w3.org/2000/svg" viewBox="0 0 75.95309 120.58433"><defs><style>.cls-1{fill:#ffbc00;}.cls-2{fill:#fff;}.cls-3{fill:#161f2c;}</style></defs><path class="cls-1" d="M406.03522,321.65466l-5.96448,5.96433A15.46319,15.46319,0,0,1,373.694,339.57637l6.45714,12.6465H358.16349l6.4713-12.6465a15.46786,15.46786,0,1,1-21.87493-21.87478l26.40479-26.4048,8.27675,8.27742-23.98554,23.99822a5.08994,5.08994,0,1,0,5.338,5.0749c0-.14891-.03138-.28914-.04407-.434l23.6717-23.659,10.41822,10.41822-8.60862,8.60928-.01.01a5.29523,5.29523,0,1,0,5.4662,4.46524l.016-.016,2.06735-2.054,5.81009-5.81008,5.03616-5.03549v-.014l.183-.16894-2.237-2.20891-2.75713-2.74311-10.41822-10.41822.00467-.00468-4.98007-4.98007-.00467.00468-8.27675-8.27675a7.01347,7.01347,0,0,0-9.94612,0l-26.40413,26.40413a22.51734,22.51734,0,0,0,13.46249,38.29139,7.0502,7.0502,0,0,0,1.92712,6.1473,7.24116,7.24116,0,0,0,5.21913,2.082h21.76194a7.00975,7.00975,0,0,0,5.993-3.36212,6.925,6.925,0,0,0,.92817-4.86722,22.54068,22.54068,0,0,0,16.30443-9.88936,21.3746,21.3746,0,0,0,3.27731-7.75123A23.01771,23.01771,0,0,0,406.03522,321.65466Z" transform="translate(-331.18243 -284.26339)"/><path class="cls-2" d="M339.99148,384.43535a9.72509,9.72509,0,0,1-3.49478-.61574,8.10484,8.10484,0,0,1-2.80691-1.75294,8.00677,8.00677,0,0,1-1.84169-2.67378,8.86306,8.86306,0,0,1,0-6.73992,7.91069,7.91069,0,0,1,1.85278-2.66823,8.36472,8.36472,0,0,1,2.818-1.75293,10.33864,10.33864,0,0,1,7.32238.11094,7.42671,7.42671,0,0,1,2.88458,2.15234l-2.44079,2.23a5.6006,5.6006,0,0,0-1.8417-1.44229,5.25093,5.25093,0,0,0-2.24109-.48816,5.4502,5.4502,0,0,0-2.09686.38831,4.98358,4.98358,0,0,0-1.65309,1.07617,4.845,4.845,0,0,0-1.07616,1.65308,5.94588,5.94588,0,0,0,0,4.227,4.76911,4.76911,0,0,0,1.07616,1.64754,4.9128,4.9128,0,0,0,1.65309,1.08171,5.555,5.555,0,0,0,2.09686.38277,5.09984,5.09984,0,0,0,2.24109-.49926,5.69311,5.69311,0,0,0,1.8417-1.44783l2.44079,2.23a7.49457,7.49457,0,0,1-2.88458,2.15788A9.53229,9.53229,0,0,1,339.99148,384.43535Z" transform="translate(-331.18243 -284.26339)"/><path class="cls-2" d="M356.78858,384.43535a9.66616,9.66616,0,0,1-3.55025-.62684,8.5783,8.5783,0,0,1-2.84019-1.764,7.96278,7.96278,0,0,1-1.86388-2.67378,8.765,8.765,0,0,1,0-6.70109,7.9741,7.9741,0,0,1,1.86388-2.66268,8.64273,8.64273,0,0,1,2.8291-1.764,9.60663,9.60663,0,0,1,3.53915-.62684,9.94313,9.94313,0,0,1,3.55025.61575,8.4749,8.4749,0,0,1,2.818,1.75293,7.97165,7.97165,0,0,1,1.875,2.66823,8.97346,8.97346,0,0,1,0,6.72883,7.928,7.928,0,0,1-1.875,2.68487,8.47492,8.47492,0,0,1-2.818,1.75294A9.86434,9.86434,0,0,1,356.78858,384.43535Zm-.02219-3.18412a5.14072,5.14072,0,0,0,2.00811-.38277,4.85908,4.85908,0,0,0,1.6198-1.09281,4.98659,4.98659,0,0,0,1.07617-1.64753,5.88565,5.88565,0,0,0,0-4.20482,5.06808,5.06808,0,0,0-1.07617-1.65309,4.92777,4.92777,0,0,0-1.6198-1.08726,5.0444,5.0444,0,0,0-2.00811-.38831,5.1377,5.1377,0,0,0-2.0192.38831,4.70827,4.70827,0,0,0-1.6198,1.08726,5.22338,5.22338,0,0,0-1.06508,1.65309,5.88579,5.88579,0,0,0,0,4.20482,5.13711,5.13711,0,0,0,1.06508,1.64753,4.64574,4.64574,0,0,0,1.6198,1.09281A5.23624,5.23624,0,0,0,356.76639,381.25123Z" transform="translate(-331.18243 -284.26339)"/><path class="cls-2" d="M368.50439,384.158V367.89342h3.78323V384.158Z" transform="translate(-331.18243 -284.26339)"/><path class="cls-2" d="M376.12633,384.158V367.89342h3.10646l9.59676,11.71027H387.3207V367.89342h3.71666V384.158H387.9309l-9.59676-11.71027H379.843V384.158Z" transform="translate(-331.18243 -284.26339)"/><path class="cls-2" d="M400.25691,384.43535a13.342,13.342,0,0,1-3.75-.52144,8.90511,8.90511,0,0,1-2.89567-1.35908l1.287-2.83465a8.80431,8.80431,0,0,0,2.463,1.2204,9.15533,9.15533,0,0,0,2.89567.47706,5.77211,5.77211,0,0,0,1.80841-.233,2.27645,2.27645,0,0,0,1.0096-.61575,1.36854,1.36854,0,0,0,.32174-.89311,1.217,1.217,0,0,0-.51035-1.03733,4.154,4.154,0,0,0-1.35353-.62684c-.56582-.16087-1.18711-.3162-1.85278-.466-.66568-.14423-1.33135-.32174-2.00811-.53254a8.12379,8.12379,0,0,1-1.86388-.83764,3.91857,3.91857,0,0,1-1.34244-1.37017,4.13888,4.13888,0,0,1-.49925-2.1246,4.558,4.558,0,0,1,.74333-2.54619,5.12362,5.12362,0,0,1,2.26328-1.83615,9.34364,9.34364,0,0,1,3.82761-.68231,12.43918,12.43918,0,0,1,3.02881.37167,8.87035,8.87035,0,0,1,2.6183,1.06507l-1.18711,2.83465a9.60179,9.60179,0,0,0-2.25219-.93749,8.52718,8.52718,0,0,0-2.24109-.31619,5.43172,5.43172,0,0,0-1.78622.24408,2.1069,2.1069,0,0,0-.98741.66012,1.51942,1.51942,0,0,0-.31065.93194,1.24073,1.24073,0,0,0,.51035,1.04289,3.676,3.676,0,0,0,1.34244.61574c.56582.14978,1.18711.29956,1.86388.44378a20.14767,20.14767,0,0,1,2.0192.54918,9.24153,9.24153,0,0,1,1.84169.821,3.93448,3.93448,0,0,1,1.35353,1.348,3.87737,3.87737,0,0,1,.52144,2.10241,4.40149,4.40149,0,0,1-.75442,2.51291,5.243,5.243,0,0,1-2.28548,1.83615A9.33322,9.33322,0,0,1,400.25691,384.43535Z" transform="translate(-331.18243 -284.26339)"/><path class="cls-1" d="M407.13551,389.47663v12.55245a2.78328,2.78328,0,0,1-2.78125,2.81864H333.96345a2.78323,2.78323,0,0,1-2.781-2.81864V389.47663Z" transform="translate(-331.18243 -284.26339)"/><path class="cls-3" d="M341.53624,401.59906a5.11277,5.11277,0,0,1-1.85261-.32446,4.40538,4.40538,0,0,1-1.47006-.9293,4.27239,4.27239,0,0,1-.97337-1.404,4.72706,4.72706,0,0,1,0-3.543,4.25063,4.25063,0,0,1,.97937-1.404,4.43533,4.43533,0,0,1,1.47608-.9273,5.56951,5.56951,0,0,1,3.8394.03,3.86888,3.86888,0,0,1,1.48209,1.04547l-1.00742.98539a3.18906,3.18906,0,0,0-2.37534-.98539,3.44948,3.44948,0,0,0-1.26178.22231,2.85888,2.85888,0,0,0-1.64231,1.58623,3.27073,3.27073,0,0,0,0,2.43143,2.88213,2.88213,0,0,0,.65092.96535,2.91688,2.91688,0,0,0,.98539.62689,3.40208,3.40208,0,0,0,1.25576.22231,3.84185,3.84185,0,0,0,1.23574-.20229,3.36636,3.36636,0,0,0,1.1376-.683l.89927,1.19368a4.58912,4.58912,0,0,1-1.55018.81715A6.04071,6.04071,0,0,1,341.53624,401.59906Zm1.85661-1.30383v-3.21052H344.895v3.42081Z" transform="translate(-331.18243 -284.26339)"/><path class="cls-3" d="M355.36461,401.47689l3.87745-8.61412h1.57422l3.88947,8.61412h-1.68637L359.6967,393.712h.6389l-3.33469,7.76493Zm1.78451-1.9928.44262-1.25577h4.64053l.43061,1.25577Z" transform="translate(-331.18243 -284.26339)"/><path class="cls-3" d="M374.39529,401.47689v-8.61412h1.31585l3.7653,6.28885h-.689l3.70321-6.28885h1.31786l.024,8.61412h-1.53816v-6.23878h.30843l-3.1264,5.26741h-.725l-3.2005-5.26741h.36852v6.23878Z" transform="translate(-331.18243 -284.26339)"/><path class="cls-3" d="M396.56139,400.123h4.86084v1.35391h-6.45909v-8.61412H401.25v1.3539h-4.68859Zm-.12217-3.67917h4.282v1.31785h-4.282Z" transform="translate(-331.18243 -284.26339)"/></svg>