<svg id="Layer_1" data-name="Layer 1" xmlns="http://www.w3.org/2000/svg" viewBox="0 0 111.22575 50.28704"><defs><style>.cls-1{fill:#fff;}.cls-2{fill:#ffbc00;}</style></defs><path class="cls-1" d="M280.29283,225.89273a11.63814,11.63814,0,0,0-2.77245-3.89093,11.90551,11.90551,0,0,0-4.08565-2.57743,14.9775,14.9775,0,0,0-5.20295-.87537,14.70565,14.70565,0,0,0-5.15545.87537,13.22628,13.22628,0,0,0-4.13434,2.57743,11.98719,11.98719,0,0,0-2.72317,3.89093,12.46585,12.46585,0,0,0-.973,4.91175,12.643,12.643,0,0,0,.973,4.912,11.98608,11.98608,0,0,0,2.72317,3.89063,12.39149,12.39149,0,0,0,4.13434,2.57773,14.97615,14.97615,0,0,0,10.3584,0,12.55467,12.55467,0,0,0,4.08565-2.529,11.82716,11.82716,0,0,0,2.77245-3.93931,12.62824,12.62824,0,0,0,.92376-4.912A12.45891,12.45891,0,0,0,280.29283,225.89273Zm-5.64226,9.24022a3.79447,3.79447,0,0,1-2.6745,1.11877,3.8809,3.8809,0,0,1-2.67449-1.11877l1.6047,3.06394h-5.34959l1.6047-3.06394a3.88308,3.88308,0,0,1-2.6745,1.11877,3.79582,3.79582,0,0,1-2.67508-1.11877,3.72854,3.72854,0,0,1,0-5.34959l6.42-6.41968,6.41879,6.41968A3.72854,3.72854,0,0,1,274.65057,235.133Z" transform="translate(-230.88028 -218.50032)"/><path class="cls-1" d="M247.31907,237.71067a7.43474,7.43474,0,0,1-3.25867.72933,7.817,7.817,0,0,1-3.06394-.58358,6.7305,6.7305,0,0,1-2.43169-1.55631,7.44552,7.44552,0,0,1-1.55661-2.43169,8.47019,8.47019,0,0,1,0-6.17627,7.23015,7.23015,0,0,1,1.55661-2.383,7.57032,7.57032,0,0,1,2.43169-1.605,8.80176,8.80176,0,0,1,3.06394-.5349,8.14766,8.14766,0,0,1,3.25867.68065,8.02485,8.02485,0,0,1,2.67509,2.13989l3.59884-3.25837a10.90453,10.90453,0,0,0-4.2317-3.16131,13.82361,13.82361,0,0,0-5.59239-1.06979,13.43477,13.43477,0,0,0-5.10677.92405,12.55469,12.55469,0,0,0-4.08566,2.529,11.68431,11.68431,0,0,0-2.72318,3.93932,11.51167,11.51167,0,0,0-.973,4.91175,11.66313,11.66313,0,0,0,.973,4.912,11.36041,11.36041,0,0,0,2.6745,3.89063,11.90758,11.90758,0,0,0,4.08565,2.57773,14.82714,14.82714,0,0,0,5.10678.87537,13.89884,13.89884,0,0,0,5.64107-1.0698,10.90453,10.90453,0,0,0,4.2317-3.16131l-3.59884-3.25837A8.02472,8.02472,0,0,1,247.31907,237.71067Z" transform="translate(-230.88028 -218.50032)"/><path class="cls-1" d="M285.399,218.93785V242.6711h5.49563V218.93785Z" transform="translate(-230.88028 -218.50032)"/><path class="cls-1" d="M312.87715,218.93785v14.39567L301.0595,218.93785h-4.57187V242.6711h5.44695V228.22705l11.81764,14.44405h4.52319V218.93785Z" transform="translate(-230.88028 -218.50032)"/><path class="cls-1" d="M341.03623,232.65258a5.59769,5.59769,0,0,0-1.99415-1.99385,11.12885,11.12885,0,0,0-2.67509-1.16716c-.97243-.34047-1.94546-.58358-2.9179-.827-1.02111-.19443-1.94546-.43754-2.72377-.632a5.86261,5.86261,0,0,1-1.99355-.92405,1.75977,1.75977,0,0,1-.72962-1.50763,2.38188,2.38188,0,0,1,.43753-1.36189,3.33938,3.33938,0,0,1,1.45925-.97273,7.63409,7.63409,0,0,1,2.62641-.34047,13.38187,13.38187,0,0,1,3.25807.43783,13.781,13.781,0,0,1,3.25867,1.41027l1.75074-4.18242a13.79836,13.79836,0,0,0-3.84225-1.55631,19.32886,19.32886,0,0,0-4.42523-.5349,13.13,13.13,0,0,0-5.5449,1.02141,7.09422,7.09422,0,0,0-3.30676,2.67479,6.61421,6.61421,0,0,0-1.11848,3.69621,6.02426,6.02426,0,0,0,.729,3.11233,5.60012,5.60012,0,0,0,1.99474,1.99414,10.2546,10.2546,0,0,0,2.67449,1.21584,24.36169,24.36169,0,0,0,2.96659.778c.97243.24311,1.8481.48652,2.67509.68094a6.93352,6.93352,0,0,1,1.99355.92406,1.86562,1.86562,0,0,1,.7783,1.50763,1.97507,1.97507,0,0,1-.48622,1.3132,3.48032,3.48032,0,0,1-1.50792.924,9.04538,9.04538,0,0,1-2.62582.34047,12.91174,12.91174,0,0,1-4.2311-.72962,12.40437,12.40437,0,0,1-3.59885-1.75074l-1.84869,4.13374a13.19161,13.19161,0,0,0,4.2317,1.99415,20.17343,20.17343,0,0,0,5.44694.72933,14.2432,14.2432,0,0,0,5.593-.97274,7.62683,7.62683,0,0,0,3.35544-2.72347,6.454,6.454,0,0,0,1.11848-3.64752A5.52628,5.52628,0,0,0,341.03623,232.65258Z" transform="translate(-230.88028 -218.50032)"/><path class="cls-2" d="M269.83588,258.23393v7.4411l4.183.58358v-8.02468Zm0,5.78742a3.21344,3.21344,0,0,1-.92375.43783,8.26017,8.26017,0,0,1-2.62641.43754,6.25318,6.25318,0,0,1-2.57772-.48622,5.6733,5.6733,0,0,1-2.04224-1.3132,5.10749,5.10749,0,0,1-1.3132-1.99385,6.33939,6.33939,0,0,1-.48622-2.529,6.25266,6.25266,0,0,1,.48622-2.57742,5.10641,5.10641,0,0,1,1.3132-1.99415,5.6733,5.6733,0,0,1,2.04224-1.3132,6.41582,6.41582,0,0,1,2.57772-.48622,6.80965,6.80965,0,0,1,2.82113.58358,7.49072,7.49072,0,0,1,2.383,1.70235l2.86922-2.72377a8.95978,8.95978,0,0,0-3.55017-2.52874,11.99841,11.99841,0,0,0-4.71732-.87537,12.4442,12.4442,0,0,0-4.32847.72932,10.07728,10.07728,0,0,0-3.4528,2.13989,9.62459,9.62459,0,0,0-2.28563,3.25867,10.0257,10.0257,0,0,0-.7789,4.08506,10.35385,10.35385,0,0,0,.7789,4.08536,10.12362,10.12362,0,0,0,2.28563,3.25838,9.32711,9.32711,0,0,0,3.40412,2.09121,11.25,11.25,0,0,0,4.32847.778,16.23357,16.23357,0,0,0,4.23111-.632,12.35317,12.35317,0,0,0,3.74488-1.89678l-2.62641-3.30706A5.24461,5.24461,0,0,1,269.83588,264.02135Z" transform="translate(-230.88028 -218.50032)"/><path class="cls-2" d="M291.42954,260.7143H281.21659l-1.11848,3.50178h12.54727Zm-2.48037-12.01237H284.426l-8.80238,19.74525h4.71792l1.75014-4.2311,1.45925-3.50178,3.11262-7.48948,3.11263,7.48948,1.45925,3.50178,1.75014,4.2311h4.81469Z" transform="translate(-230.88028 -218.50032)"/><path class="cls-2" d="M318.27541,248.70193l-7.24636,12.25548-7.39242-12.25548h-3.793v19.74525h4.27919V256.775l5.78712,9.53231h2.04342l5.83581-9.67835.04868,11.81824h4.23051V248.70193Z" transform="translate(-230.88028 -218.50032)"/><path class="cls-2" d="M331.01741,256.62894v3.55046h9.48333v-3.55046Zm.34077,8.122V252.34945h10.3584v-3.64752H326.7863v19.74525H342.106V264.751Z" transform="translate(-230.88028 -218.50032)"/><rect class="cls-2" x="18.85055" y="46.09087" width="3.8477" height="3.8477"/></svg>