<svg width="32" height="21" viewBox="0 0 32 21" fill="none" xmlns="http://www.w3.org/2000/svg">
<path fill-rule="evenodd" clip-rule="evenodd" d="M25.001 1.00001C28.536 1.00001 31.401 3.83502 31.401 7.33301C31.401 8.64301 30.999 9.86101 30.31 10.871C30.1815 11.0682 30.0409 11.2572 29.889 11.437C25.15 17.096 10.691 20.037 10.662 19.999C14.585 17.671 16.571 15.417 16.502 15.378C12.353 17.512 7.185 18.951 1 19.694C4.73147 18.0412 8.25705 15.9581 11.505 13.487C16.414 9.75701 17.878 5.43301 20.458 2.87401L20.371 2.96001L20.544 2.78701C21.742 1.63704 23.3404 0.996467 25.001 1.00001ZM24.968 2.58301C22.317 2.58301 20.168 4.71002 20.168 7.33301C20.168 9.95601 22.317 12.083 24.968 12.083C27.619 12.083 29.768 9.95601 29.768 7.33301C29.768 4.71002 27.619 2.58301 24.968 2.58301Z" fill="#FFC231"/>
<path d="M24.968 2.58301C22.317 2.58301 20.168 4.71002 20.168 7.33301C20.168 9.95601 22.317 12.083 24.968 12.083C27.619 12.083 29.768 9.95601 29.768 7.33301C29.768 4.71002 27.619 2.58301 24.968 2.58301Z" fill="#FF6300"/>
<path d="M25.001 1.00001L24.9999 1.50001H25.001V1.00001ZM30.31 10.871L29.8969 10.5892L29.8911 10.598L30.31 10.871ZM29.889 11.437L29.507 11.1144L29.5057 11.116L29.889 11.437ZM10.662 19.999L10.4068 19.569L9.92369 19.8557L10.2645 20.3024L10.662 19.999ZM16.502 15.378L16.748 14.9427L16.5132 14.81L16.2733 14.9334L16.502 15.378ZM1 19.694L0.79751 19.2369L1.05964 20.1904L1 19.694ZM11.505 13.487L11.2025 13.0889L11.2023 13.0891L11.505 13.487ZM20.458 2.87401L20.8101 3.22901L20.1065 2.51842L20.458 2.87401ZM20.371 2.96001L20.0174 2.60646L20.7225 3.3156L20.371 2.96001ZM20.544 2.78701L20.1977 2.42622L20.1904 2.43346L20.544 2.78701ZM25.001 1.50001C28.2648 1.50001 30.901 4.11611 30.901 7.33301H31.901C31.901 3.55392 28.8072 0.500015 25.001 0.500015V1.50001ZM30.901 7.33301C30.901 8.53913 30.5312 9.65948 29.897 10.5892L30.723 11.1528C31.4668 10.0626 31.901 8.7469 31.901 7.33301H30.901ZM29.8911 10.598C29.7739 10.7779 29.6456 10.9503 29.507 11.1144L30.271 11.7597C30.4362 11.5641 30.5891 11.3585 30.7289 11.144L29.8911 10.598ZM29.5057 11.116C28.3808 12.4592 26.6533 13.6679 24.6556 14.7257C22.6643 15.7802 20.4382 16.6674 18.3477 17.3812C16.2586 18.0946 14.3143 18.6317 12.8906 18.988C12.179 19.1661 11.5987 19.2987 11.1967 19.3854C10.9955 19.4287 10.8403 19.4603 10.7365 19.4802C10.684 19.4903 10.6475 19.4968 10.6258 19.5004C10.6139 19.5023 10.612 19.5024 10.6162 19.502C10.6165 19.5019 10.6297 19.5003 10.6485 19.4996C10.6557 19.4994 10.6815 19.4985 10.7148 19.502C10.7333 19.5043 10.7811 19.5135 10.81 19.5215C10.8597 19.5398 10.9902 19.6218 11.0595 19.6957L10.2645 20.3024C10.334 20.3764 10.4646 20.4585 10.5146 20.4769C10.5439 20.485 10.5922 20.4943 10.6112 20.4966C10.6456 20.5002 10.673 20.4994 10.6822 20.4991C10.7048 20.4983 10.7238 20.4962 10.7315 20.4953C10.7505 20.4931 10.7703 20.49 10.7867 20.4873C10.8217 20.4816 10.8686 20.4731 10.9248 20.4623C11.0383 20.4406 11.2013 20.4074 11.4075 20.3629C11.8204 20.2739 12.4114 20.1388 13.1334 19.9581C14.5771 19.5968 16.5491 19.0521 18.6708 18.3276C20.7911 17.6035 23.0701 16.6968 25.1236 15.6094C27.1707 14.5254 29.0277 13.2443 30.2723 11.758L29.5057 11.116ZM10.9172 20.429C12.9073 19.248 14.4094 18.0839 15.409 17.2058C15.9085 16.767 16.2846 16.3977 16.5347 16.1314C16.6589 15.9992 16.7565 15.8877 16.8238 15.8027C16.8555 15.7626 16.8902 15.7164 16.9178 15.671C16.9288 15.6529 16.9561 15.6074 16.9761 15.5483C16.9847 15.5227 17.0074 15.4518 17.0032 15.3591C16.9986 15.255 16.9512 15.0576 16.748 14.9427L16.256 15.8133C16.055 15.6997 16.0087 15.5045 16.0042 15.4038C16.0002 15.3145 16.022 15.248 16.0288 15.2279C16.0383 15.1998 16.0482 15.1797 16.0528 15.1707C16.058 15.1604 16.0622 15.1534 16.0639 15.1506C16.0682 15.1436 16.0634 15.1521 16.0398 15.1819C15.9964 15.2367 15.9194 15.3259 15.8058 15.4468C15.5804 15.6869 15.2278 16.0339 14.749 16.4545C13.7921 17.2951 12.3397 18.422 10.4068 19.569L10.9172 20.429ZM16.2733 14.9334C12.1915 17.0328 7.08495 18.4594 0.940364 19.1976L1.05964 20.1904C7.28505 19.4426 12.5145 17.9912 16.7307 15.8226L16.2733 14.9334ZM1.20249 20.1512C4.96958 18.4826 8.5288 16.3796 11.8077 13.8849L11.2023 13.0891C7.98529 15.5366 4.49337 17.5999 0.79751 19.2369L1.20249 20.1512ZM11.8075 13.8851C14.3202 11.9759 15.9481 9.91571 17.265 8.0274C18.6001 6.11296 19.5629 4.46603 20.8101 3.22901L20.1059 2.51902C18.7731 3.841 17.7139 5.63556 16.4448 7.45538C15.1574 9.30131 13.5988 11.2681 11.2025 13.0889L11.8075 13.8851ZM20.1065 2.51842L20.0195 2.60442L20.7225 3.3156L20.8095 3.2296L20.1065 2.51842ZM20.7246 3.31357L20.8976 3.14057L20.1904 2.43346L20.0174 2.60646L20.7246 3.31357ZM20.8902 3.14773C21.9948 2.08744 23.4686 1.49674 24.9999 1.50001L25.0021 0.500016C23.2121 0.496191 21.4892 1.18664 20.1978 2.4263L20.8902 3.14773ZM24.968 2.08301C22.0458 2.08301 19.668 4.42898 19.668 7.33301H20.668C20.668 4.99105 22.5882 3.08301 24.968 3.08301V2.08301ZM19.668 7.33301C19.668 10.2371 22.0458 12.583 24.968 12.583V11.583C22.5882 11.583 20.668 9.67498 20.668 7.33301H19.668ZM24.968 12.583C27.8902 12.583 30.268 10.2371 30.268 7.33301H29.268C29.268 9.67498 27.3478 11.583 24.968 11.583V12.583ZM30.268 7.33301C30.268 4.42898 27.8902 2.08301 24.968 2.08301V3.08301C27.3478 3.08301 29.268 4.99105 29.268 7.33301H30.268Z" fill="#371699"/>
</svg>
