<svg width="25" height="24" viewBox="0 0 25 24" fill="none" xmlns="http://www.w3.org/2000/svg">
<g opacity="0.7">
<path d="M17.5 22H7.5C7.09 22 6.75 21.66 6.75 21.25C6.75 20.84 7.09 20.5 7.5 20.5H17.5C17.91 20.5 18.25 20.84 18.25 21.25C18.25 21.66 17.91 22 17.5 22Z" fill="white"/>
<path d="M20.8522 5.52004L16.8522 8.38004C16.3222 8.76004 15.5622 8.53004 15.3322 7.92004L13.4422 2.88004C13.1222 2.01004 11.8922 2.01004 11.5722 2.88004L9.67217 7.91004C9.44217 8.53004 8.69217 8.76004 8.16217 8.37004L4.16217 5.51004C3.36217 4.95004 2.30217 5.74004 2.63217 6.67004L6.79217 18.32C6.93217 18.72 7.31217 18.98 7.73217 18.98H17.2622C17.6822 18.98 18.0622 18.71 18.2022 18.32L22.3622 6.67004C22.7022 5.74004 21.6422 4.95004 20.8522 5.52004ZM15.0022 14.75H10.0022C9.59217 14.75 9.25217 14.41 9.25217 14C9.25217 13.59 9.59217 13.25 10.0022 13.25H15.0022C15.4122 13.25 15.7522 13.59 15.7522 14C15.7522 14.41 15.4122 14.75 15.0022 14.75Z" fill="white"/>
</g>
</svg>
