<svg width="26" height="26" viewBox="0 0 26 26" fill="none" xmlns="http://www.w3.org/2000/svg">
<path d="M17.9587 8.35352H16.8329L16.6482 9.07853H17.9587C18.1996 9.07853 18.3955 9.27445 18.3955 9.5153V9.8694C18.3955 11.2126 17.3027 12.3052 15.9597 12.3052H15.8262L15.6416 13.0303H15.9596C17.7026 13.0303 19.1204 11.6123 19.1204 9.8694V9.5153C19.1206 8.87468 18.5993 8.35352 17.9587 8.35352Z" fill="#FEDF30"/>
<path d="M10.2347 12.3052H10.1013C8.75814 12.3052 7.66544 11.2125 7.66544 9.8694V9.5153C7.66544 9.27445 7.86138 9.07853 8.10223 9.07853H9.41275L9.2281 8.35352H8.10223C7.46161 8.35352 6.94043 8.87468 6.94043 9.5153V9.8694C6.94043 11.6123 8.35837 13.0303 10.1013 13.0303H10.4194L10.2347 12.3052Z" fill="#FEDF30"/>
<path d="M12.3421 14.5438C12.3297 14.5438 12.3172 14.5432 12.3047 14.543V16.2448H13.7546V14.543C13.7421 14.5432 13.7296 14.5438 13.7172 14.5438H12.3421Z" fill="#FEDF30"/>
<path d="M12.8847 14.5438H12.3421C12.3297 14.5438 12.3172 14.5432 12.3047 14.543V16.2448H12.8847V14.5438Z" fill="#FAC600"/>
<path d="M9.06055 7.84766L10.389 13.0626C10.6165 13.9556 11.4207 14.5806 12.3423 14.5806H13.7172C14.6388 14.5806 15.4429 13.9556 15.6704 13.0626L16.9988 7.84766H9.06055Z" fill="#FAC600"/>
<path d="M11.9215 13.0626L10.5931 7.84766H9.06055L10.389 13.0626C10.6165 13.9556 11.4207 14.5806 12.3422 14.5806H13.7171C13.7435 14.5806 13.7698 14.58 13.7959 14.5789C12.9077 14.5445 12.1425 13.9301 11.9215 13.0626Z" fill="#E8B800"/>
<path d="M13.1517 8.42293L13.5182 9.03922C13.5546 9.10048 13.6308 9.12523 13.6963 9.0971L14.355 8.81389C14.454 8.77136 14.5623 8.85014 14.5525 8.95736L14.4867 9.67135C14.4802 9.74233 14.5273 9.80718 14.5968 9.82288L15.2962 9.98093C15.4012 10.0047 15.4427 10.1321 15.3717 10.2131L14.8987 10.752C14.8517 10.8056 14.8517 10.8857 14.8987 10.9393L15.3717 11.4783C15.4427 11.5592 15.4012 11.6866 15.2962 11.7104L14.5968 11.8685C14.5273 11.8842 14.4801 11.949 14.4867 12.02L14.5525 12.7339C14.5624 12.8413 14.454 12.9201 14.355 12.8775L13.6963 12.5942C13.6308 12.566 13.5546 12.5908 13.5182 12.6522L13.1517 13.2684C13.0967 13.361 12.9627 13.361 12.9076 13.2684L12.5412 12.6522C12.5048 12.5909 12.4285 12.5661 12.363 12.5942L11.7043 12.8775C11.6054 12.92 11.497 12.8413 11.5068 12.7339L11.5727 12.02C11.5792 11.949 11.532 11.8842 11.4625 11.8685L10.7631 11.7104C10.6581 11.6866 10.6167 11.5592 10.6877 11.4783L11.1606 10.9393C11.2076 10.8857 11.2076 10.8056 11.1606 10.752L10.6877 10.2131C10.6167 10.1321 10.6581 10.0047 10.7631 9.98093L11.4625 9.82288C11.532 9.80718 11.5792 9.74233 11.5727 9.67135L11.5068 8.95736C11.497 8.85014 11.6053 8.77133 11.7043 8.81389L12.363 9.0971C12.4285 9.12528 12.5048 9.10052 12.5412 9.03922L12.9076 8.42293C12.9627 8.33038 13.0967 8.33038 13.1517 8.42293Z" fill="#FE9901"/>
<path d="M14.4462 17.5456V16.8564C14.4462 16.4988 14.1563 16.209 13.7988 16.209H12.2617C11.9042 16.209 11.6143 16.4988 11.6143 16.8564V17.5456H14.4462Z" fill="#FAC600"/>
<path d="M12.5228 17.5456V16.8564C12.5228 16.4988 12.8125 16.209 13.1701 16.209H12.2617C11.9042 16.209 11.6143 16.4988 11.6143 16.8564V17.5456H12.5228Z" fill="#E8B800"/>
<path d="M10.4199 18.9028H10.675H15.3124H15.5675C15.5675 18.8303 15.5675 18.776 15.5675 18.6985V18.3472C15.5675 17.8933 15.1671 17.5254 14.6733 17.5254H11.3141C10.8203 17.5254 10.4199 17.8933 10.4199 18.3472V18.6985C10.4199 18.7579 10.4199 18.8122 10.4199 18.9028Z" fill="#FEDF30"/>
<path d="M10.4199 18.9028H10.6742H11.7398V18.3472C11.7398 17.8933 12.139 17.5254 12.6312 17.5254H11.3112C10.819 17.5254 10.4199 17.8933 10.4199 18.3472V18.6985C10.4199 18.776 10.4199 18.8122 10.4199 18.9028Z" fill="#FAC600"/>
<path d="M13.0301 12.2966C13.831 12.2966 14.4802 11.6474 14.4802 10.8465C14.4802 10.0457 13.831 9.39648 13.0301 9.39648C12.2293 9.39648 11.5801 10.0457 11.5801 10.8465C11.5801 11.6474 12.2293 12.2966 13.0301 12.2966Z" fill="#FEDF30"/>
<path d="M12.4642 10.8465C12.4642 10.1999 12.8876 9.65234 13.4721 9.46537C13.3327 9.42078 13.1843 9.39648 13.0301 9.39648C12.2293 9.39648 11.5801 10.0457 11.5801 10.8465C11.5801 11.6474 12.2293 12.2966 13.0301 12.2966C13.1843 12.2966 13.3328 12.2723 13.4721 12.2276C12.8876 12.0407 12.4642 11.4931 12.4642 10.8465Z" fill="#FAC600"/>
<path d="M13.115 9.94903L13.3354 10.3955C13.3491 10.4234 13.3756 10.4427 13.4064 10.4471L13.899 10.5187C13.9763 10.53 14.0073 10.625 13.9514 10.6796L13.5948 11.0271C13.5726 11.0488 13.5624 11.08 13.5677 11.1105L13.6518 11.6012C13.665 11.6783 13.5843 11.7371 13.5151 11.7006L13.0743 11.4689C13.0469 11.4545 13.0141 11.4545 12.9866 11.4689L12.5459 11.7006C12.4767 11.7371 12.3958 11.6783 12.4091 11.6012L12.4933 11.1105C12.4986 11.0799 12.4884 11.0487 12.4662 11.0271L12.1096 10.6796C12.0537 10.625 12.0845 10.53 12.1619 10.5187L12.6546 10.4471C12.6853 10.4427 12.7118 10.4234 12.7256 10.3955L12.946 9.94903C12.9804 9.87897 13.0804 9.87897 13.115 9.94903Z" fill="#FEA613"/>
<path d="M12.9054 11.4517L12.9896 10.961C12.9948 10.9304 12.9848 10.8992 12.9625 10.8776L12.606 10.53C12.5852 10.5098 12.5764 10.484 12.5776 10.459L12.1619 10.5194C12.0846 10.5306 12.0537 10.6257 12.1096 10.6802L12.4661 11.0278C12.4883 11.0494 12.4985 11.0806 12.4933 11.1112L12.4091 11.6019C12.3959 11.679 12.4768 11.7377 12.5458 11.7013L12.9133 11.5082C12.9053 11.4917 12.9019 11.4724 12.9054 11.4517Z" fill="#FE9901"/>
<path d="M17.1628 7.88376H8.86152C8.66131 7.88376 8.49902 7.72146 8.49902 7.52125V7.05C8.49902 6.84979 8.66131 6.6875 8.86152 6.6875H17.1628C17.3631 6.6875 17.5254 6.84979 17.5254 7.05V7.52125C17.5254 7.72146 17.3631 7.88376 17.1628 7.88376Z" fill="#FEDF30"/>
<path d="M10.239 7.52125V7.05C10.239 6.84979 10.4013 6.6875 10.6016 6.6875H8.86152C8.66131 6.6875 8.49902 6.84979 8.49902 7.05V7.52125C8.49902 7.72146 8.66131 7.88376 8.86152 7.88376H10.6016C10.4013 7.88376 10.239 7.72146 10.239 7.52125Z" fill="#FAC600"/>
<path fill-rule="evenodd" clip-rule="evenodd" d="M19.6432 9.23438C19.6188 9.54985 19.5745 9.85976 19.5117 10.1629L23.7218 11.291C23.8723 11.3313 24.0269 11.242 24.0672 11.0915L24.1622 10.7373C24.2025 10.5868 24.1131 10.4321 23.9626 10.3918L19.6432 9.23438Z" fill="#FE9F30"/>
<path fill-rule="evenodd" clip-rule="evenodd" d="M17.5874 13.7942L17.587 13.819C17.5781 14.5361 18.0568 15.1678 18.7495 15.3535L19.7829 15.6305C20.4757 15.816 21.2061 15.5081 21.5569 14.8828L23.6059 11.2304L19.517 10.1348C19.2313 11.5404 18.5471 12.8013 17.5874 13.7942Z" fill="#FA9600"/>
<path fill-rule="evenodd" clip-rule="evenodd" d="M6.35182 9.32617L2.34979 10.3985C2.19929 10.4388 2.10998 10.5935 2.15031 10.744L2.24523 11.0982C2.28556 11.2487 2.44023 11.338 2.59073 11.2977L6.49475 10.2516C6.42824 9.94966 6.38018 9.64076 6.35182 9.32617Z" fill="#C2E4EC"/>
<path d="M24.2247 11.805L23.3784 11.5782L23.0936 12.086L24.0787 12.35C24.2597 12.3984 24.3676 12.5853 24.319 12.7662L24.2478 13.0324C23.9772 14.0421 22.9357 14.6433 21.9261 14.3728L21.8259 14.3459L21.541 14.8537L21.7801 14.9178C23.0902 15.2688 24.4417 14.4885 24.7926 13.1784L24.864 12.9123C24.9931 12.4307 24.7063 11.934 24.2247 11.805Z" fill="#FE9F30"/>
<path d="M18.7575 15.3265C18.7481 15.324 18.7388 15.3211 18.7295 15.3184L18.3867 16.5976L19.4767 16.8897L19.8195 15.6104C19.81 15.6081 19.8005 15.606 19.7911 15.6034L18.7575 15.3265Z" fill="#FE9F30"/>
<path d="M19.1653 15.4358L18.7575 15.3265C18.7481 15.324 18.7388 15.3211 18.7295 15.3184L18.3867 16.5976L18.8226 16.7145L19.1653 15.4358Z" fill="#D97500"/>
<path d="M19.7332 18.0069L19.872 17.4888C19.944 17.22 19.7845 16.9438 19.5158 16.8718L18.3603 16.5622C18.0915 16.4902 17.8152 16.6496 17.7433 16.9184L17.6045 17.4365L19.7332 18.0069Z" fill="#FA9600"/>
<path d="M18.2874 17.6195L18.4262 17.1015C18.4982 16.8327 18.7744 16.6731 19.0432 16.7451L18.3603 16.5622C18.0915 16.4902 17.8152 16.6496 17.7433 16.9184L17.6045 17.4365L18.2874 17.6195Z" fill="#E87D00"/>
<path d="M16.4336 18.2152L16.6253 18.2666L20.1112 19.2007L20.3029 19.252C20.3174 19.1975 20.3284 19.1566 20.344 19.0983L20.4148 18.8343C20.5062 18.4932 20.2794 18.136 19.9082 18.0364L17.3832 17.3598C17.012 17.2604 16.6369 17.4564 16.5455 17.7976L16.4748 18.0616C16.4628 18.1063 16.4518 18.1471 16.4336 18.2152Z" fill="#FE9330"/>
<path d="M16.4336 18.2156L16.6248 18.2668L17.4258 18.4815L17.5377 18.0639C17.6291 17.7226 18.0032 17.5264 18.3732 17.6255L17.381 17.3597C17.011 17.2606 16.6369 17.4568 16.5455 17.798L16.4748 18.062C16.4562 18.1313 16.4541 18.139 16.4336 18.2156Z" fill="#D97500"/>
<path fill-rule="evenodd" clip-rule="evenodd" d="M6.48958 10.2246L2.73438 11.2308L4.78327 14.8832C5.13412 15.5086 5.86452 15.8165 6.55723 15.6308L7.59074 15.354C8.18665 15.1943 8.62413 14.7044 8.7291 14.1141C7.61877 13.0987 6.81919 11.7491 6.48958 10.2246Z" fill="#A2C7CF"/>
<path d="M4.51436 14.3458L4.41409 14.3726C3.40447 14.6431 2.36304 14.0418 2.09251 13.0323L2.0212 12.7661C1.97268 12.5851 2.0805 12.3983 2.26155 12.3499L3.24664 12.0859L2.96181 11.5781L2.11552 11.8049C1.63399 11.9339 1.34719 12.4306 1.47622 12.9121L1.54754 13.1783C1.89859 14.4884 3.25001 15.2686 4.56012 14.9176L4.79919 14.8536L4.51436 14.3458Z" fill="#C2E4EC"/>
<path d="M6.54984 15.6015C6.54042 15.604 6.53093 15.6061 6.52148 15.6084L6.86425 16.8876L7.9542 16.5956L7.61142 15.3164C7.60206 15.319 7.59281 15.322 7.58338 15.3245L6.54984 15.6015Z" fill="#C2E4EC"/>
<path d="M6.95762 15.4922L6.54984 15.6015C6.54042 15.604 6.53093 15.606 6.52148 15.6083L6.86425 16.8876L7.30022 16.7708L6.95762 15.4922Z" fill="#A2C7CF"/>
<path d="M5.93523 14.5723L3.88634 10.9199L2.73438 11.2286L4.78327 14.8809C5.13412 15.5064 5.86452 15.8142 6.55723 15.6286L7.59074 15.3517C7.61056 15.3464 7.63015 15.3406 7.64961 15.3346C6.97498 15.4875 6.27606 15.1798 5.93523 14.5723Z" fill="#83A6AE"/>
<path d="M8.73502 17.4344L8.5962 16.9164C8.52418 16.6476 8.24792 16.4881 7.97914 16.56L6.82375 16.8696C6.55497 16.9417 6.39547 17.2179 6.46749 17.4868L6.60631 18.0048L8.73502 17.4344Z" fill="#A2C7CF"/>
<path d="M7.28918 17.8226L7.15036 17.3045C7.07834 17.0358 7.23784 16.7595 7.50662 16.6875L6.82375 16.8704C6.55497 16.9425 6.39547 17.2187 6.46749 17.4875L6.60631 18.0056L7.28918 17.8226Z" fill="#83A6AE"/>
<path fill-rule="evenodd" clip-rule="evenodd" d="M18.2861 12.9557L18.6342 13.1386C18.6833 13.1645 18.7057 13.2227 18.6864 13.2747L18.4932 13.7981C18.4641 13.8768 18.5298 13.9578 18.6127 13.9457L19.1649 13.8656C19.2197 13.8575 19.2721 13.8916 19.2872 13.9449L19.4385 14.482C19.4612 14.5626 19.562 14.5897 19.622 14.5311L20.0215 14.1417C20.0612 14.103 20.1235 14.0997 20.1671 14.134L20.6052 14.4796C20.671 14.5316 20.7684 14.4941 20.7825 14.4116L20.8769 13.8617C20.8862 13.8069 20.9347 13.7677 20.9901 13.7699L21.5477 13.792C21.6314 13.7952 21.6882 13.7078 21.6511 13.6327L21.4042 13.1323C21.3797 13.0826 21.3958 13.0223 21.442 12.9915L21.906 12.6817C21.9756 12.6351 21.9702 12.531 21.896 12.492L21.4021 12.2323C21.353 12.2065 21.3307 12.1483 21.3499 12.0962L21.5431 11.5727C21.5722 11.4942 21.5066 11.4131 21.4237 11.4252L20.8715 11.5054C20.8166 11.5133 20.7643 11.4794 20.7491 11.426L20.5978 10.8889C20.5752 10.8083 20.4744 10.7813 20.4144 10.8398L20.0148 11.2292C19.9751 11.268 19.9128 11.2712 19.8693 11.2369L19.4312 10.8913C19.3993 10.8661 19.3599 10.8619 19.3262 10.8737C19.2903 10.9883 19.2516 11.1018 19.2101 11.2139L19.1595 11.5093C19.1505 11.5612 19.1064 11.5992 19.0547 11.601C18.8458 12.0812 18.5875 12.5349 18.2861 12.9557Z" fill="#FA7800"/>
<path fill-rule="evenodd" clip-rule="evenodd" d="M6.7166 11.0431L6.4706 11.2371C6.42705 11.2714 6.36476 11.2682 6.32503 11.2295L5.92548 10.84C5.86548 10.7815 5.76471 10.8085 5.74198 10.8892L5.59066 11.4262C5.57562 11.4796 5.52333 11.5137 5.46842 11.5056L4.91625 11.4254C4.83328 11.4134 4.76766 11.4944 4.79669 11.5731L4.98995 12.0965C5.00918 12.1485 4.98681 12.2067 4.93771 12.2326L4.44384 12.4923C4.36966 12.5312 4.36421 12.6353 4.4339 12.6819L4.8979 12.9918C4.94403 13.0226 4.96017 13.0828 4.93563 13.1325L4.68872 13.6329C4.65164 13.7081 4.70843 13.7956 4.79218 13.7923L5.34971 13.7702C5.40514 13.768 5.4536 13.8073 5.46299 13.8619L5.55734 14.4118C5.57153 14.4944 5.6689 14.5318 5.73469 14.4799L6.17278 14.1344C6.21633 14.1 6.27861 14.1032 6.31833 14.1419L6.71792 14.5314C6.77793 14.5899 6.8787 14.5629 6.90141 14.4822L7.05271 13.9452C7.06775 13.8918 7.12004 13.8578 7.17495 13.8658L7.72713 13.946C7.81009 13.9581 7.87572 13.877 7.84669 13.7984L7.65342 13.275C7.6342 13.2229 7.65656 13.1647 7.70566 13.1389L7.79938 13.0896C7.33782 12.4746 6.96985 11.7855 6.7166 11.0431Z" fill="#DAECF0"/>
<path d="M19.7262 13.7753C20.3283 13.9365 20.947 13.5793 21.1083 12.9773C21.2695 12.3754 20.9123 11.7567 20.3104 11.5954C19.7084 11.434 19.0896 11.7913 18.9284 12.3933C18.7671 12.9952 19.1242 13.6139 19.7262 13.7753Z" fill="#FE9F30"/>
<path d="M19.5929 12.5713C19.7231 12.0853 20.1516 11.759 20.6288 11.7362C20.5329 11.6745 20.4263 11.6264 20.3104 11.5954C19.7084 11.434 19.0896 11.7913 18.9284 12.3933C18.7671 12.9952 19.1242 13.6139 19.7262 13.7753C19.8422 13.8063 19.9586 13.8179 20.0724 13.8125C19.6707 13.5542 19.4627 13.0573 19.5929 12.5713Z" fill="#E99431"/>
<path d="M20.2629 12.0259L20.3386 12.406C20.3434 12.4297 20.3595 12.4495 20.3817 12.459L20.7375 12.612C20.7934 12.6361 20.7974 12.7137 20.7444 12.7435L20.4065 12.9329C20.3855 12.9447 20.3715 12.9662 20.3693 12.9902L20.3337 13.376C20.3281 13.4366 20.2556 13.4644 20.2109 13.4232L19.9263 13.1602C19.9085 13.1438 19.8839 13.1373 19.8603 13.1425L19.4823 13.228C19.4231 13.2414 19.3741 13.1809 19.3995 13.1257L19.5617 12.7737C19.5718 12.7519 19.5704 12.7263 19.558 12.7056L19.3601 12.3725C19.329 12.3203 19.3713 12.255 19.4318 12.2622L19.8165 12.3076C19.8406 12.3104 19.8644 12.3013 19.8803 12.2831L20.1359 11.9919C20.176 11.9461 20.251 11.9662 20.2629 12.0259Z" fill="#FA7800"/>
<path d="M19.8029 13.1128L19.965 12.7609C19.9751 12.739 19.9737 12.7134 19.9614 12.6927L19.7635 12.3597C19.7519 12.3403 19.7505 12.3192 19.7564 12.3005L19.4318 12.2623C19.3714 12.2552 19.329 12.3203 19.3601 12.3726L19.5581 12.7056C19.5705 12.7265 19.5717 12.7519 19.5616 12.7738L19.3996 13.1258C19.3741 13.181 19.423 13.2414 19.4824 13.228L19.7974 13.1568C19.7947 13.1428 19.7961 13.1277 19.8029 13.1128Z" fill="#D26500"/>
<path d="M5.98275 19.2657L6.17445 19.2144L9.66031 18.2803L9.85204 18.2289C9.83745 18.1745 9.82648 18.1336 9.81087 18.0753L9.74012 17.8113C9.64871 17.4701 9.27366 17.2741 8.90245 17.3735L6.37744 18.0502C6.00624 18.1496 5.77941 18.5069 5.87083 18.848L5.94157 19.1121C5.95354 19.1568 5.96449 19.1975 5.98275 19.2657Z" fill="#C2E4EC"/>
<path d="M5.98281 19.266L6.17391 19.2148L6.975 19.0002L6.86308 18.5825C6.77166 18.2414 6.99752 17.8843 7.36753 17.7852L6.37534 18.0511C6.00533 18.1502 5.77947 18.5072 5.87089 18.8483L5.94163 19.1124C5.95726 19.1707 5.96455 19.1979 5.98281 19.266Z" fill="#A2C7CF"/>
<path d="M6.61408 13.7753C7.21604 13.614 7.57327 12.9952 7.41197 12.3933C7.25068 11.7913 6.63195 11.4341 6.02998 11.5953C5.42802 11.7567 5.07079 12.3755 5.23209 12.9774C5.39338 13.5794 6.01213 13.9366 6.61408 13.7753Z" fill="#C2E4EC"/>
<path d="M5.89668 12.7992C5.76644 12.3131 5.97439 11.8162 6.37614 11.5579C6.26236 11.5525 6.14589 11.5641 6.02998 11.5951C5.42803 11.7565 5.0708 12.3753 5.23209 12.9771C5.39338 13.5792 6.01213 13.9364 6.61407 13.7751C6.73 13.744 6.83671 13.6959 6.9325 13.6342C6.45543 13.6115 6.02692 13.2851 5.89668 12.7992Z" fill="#AFD6DE"/>
<path d="M6.20468 11.9918L6.46026 12.2831C6.47619 12.3013 6.50002 12.3105 6.524 12.3076L6.90877 12.2621C6.96916 12.255 7.01152 12.3203 6.98046 12.3725L6.78247 12.7056C6.77014 12.7263 6.7688 12.7519 6.7789 12.7738L6.941 13.1256C6.96644 13.1809 6.9175 13.2413 6.85819 13.2279L6.48027 13.1426C6.45671 13.1372 6.43204 13.1438 6.4143 13.1602L6.1297 13.4232C6.08503 13.4644 6.01241 13.4366 6.00685 13.376L5.97128 12.9901C5.96906 12.9661 5.95515 12.9447 5.93409 12.9329L5.59611 12.7435C5.54304 12.7137 5.54712 12.6361 5.603 12.612L5.95894 12.459C5.98112 12.4494 5.99722 12.4296 6.0019 12.4059L6.07762 12.0259C6.08945 11.9663 6.16454 11.9461 6.20468 11.9918Z" fill="#DAECF0"/>
<path d="M6.34967 13.1646L6.31409 12.7787C6.31188 12.7547 6.29796 12.7333 6.27691 12.7215L5.93892 12.532C5.91926 12.521 5.90747 12.5034 5.90325 12.4844L5.60297 12.6135C5.54713 12.6375 5.54305 12.7152 5.59608 12.7449L5.93407 12.9344C5.95514 12.9462 5.96906 12.9676 5.97126 12.9917L6.00682 13.3774C6.01242 13.438 6.08502 13.4658 6.12968 13.4246L6.36689 13.2055C6.3576 13.1946 6.35118 13.1809 6.34967 13.1646Z" fill="#CBE7ED"/>
<path d="M3.55315 10.7486L3.45824 10.3943C3.41792 10.2438 3.50722 10.0892 3.65771 10.0488L2.34978 10.3993C2.19929 10.4396 2.10998 10.5943 2.15031 10.7448L2.24523 11.099C2.28554 11.2495 2.44023 11.3388 2.59072 11.2985L3.89865 10.948C3.74816 10.9884 3.59348 10.8991 3.55315 10.7486Z" fill="#A2C7CF"/>
</svg>
