<svg width="19" height="19" viewBox="0 0 19 19" fill="none" xmlns="http://www.w3.org/2000/svg">
<g clip-path="url(#clip0_336_367)">
<path d="M17.6737 14.3593C17.7235 14.2845 17.7686 14.207 17.8115 14.1284C17.799 14.1514 17.7887 14.1755 17.7757 14.1982C17.713 14.3092 17.6415 14.4166 17.5627 14.5186C17.6003 14.4667 17.6379 14.413 17.6737 14.3593Z" fill="#EFAE1D"/>
<path d="M18.0155 13.6685C17.9887 13.7467 17.9577 13.8228 17.9247 13.898C17.9575 13.8227 17.989 13.7466 18.0155 13.6685Z" fill="#EFAE1D"/>
<path d="M18.1157 13.293C18.0925 13.4218 18.0585 13.5471 18.0155 13.6688C18.0567 13.5471 18.0907 13.4218 18.1157 13.293Z" fill="#EFAE1D"/>
<path d="M17.6737 14.3593C17.7235 14.2845 17.7686 14.207 17.8115 14.1284C17.799 14.1514 17.7887 14.1755 17.7757 14.1982C17.7453 14.2519 17.7113 14.3056 17.6737 14.3593Z" fill="#EFAE1D"/>
<path d="M18.0155 13.6685C17.9887 13.7467 17.9577 13.8228 17.9247 13.898C17.9575 13.8227 17.989 13.7466 18.0155 13.6685Z" fill="#EFAE1D"/>
<path d="M18.1157 13.293C18.0925 13.4218 18.0585 13.5471 18.0155 13.6688C18.0567 13.5471 18.0907 13.4218 18.1157 13.293Z" fill="#EFAE1D"/>
<path d="M17.0168 3.96109C16.9033 3.85376 16.7478 3.77502 10.9441 0.376128C10.051 -0.142889 8.93064 -0.114224 8.03576 0.40121L1.99885 3.88768C1.87894 3.95567 1.79304 4.05233 1.73933 4.16152C1.13797 4.72529 0.785393 5.52173 0.78181 6.37012V6.68333C0.778227 6.71195 0.776436 6.74057 0.776436 6.77098L0.760334 12.7005C0.756751 13.7099 1.26505 14.6478 2.10266 15.1955C2.1492 15.2277 2.19752 15.2581 2.24764 15.2867C2.26196 15.2975 2.27627 15.3047 2.29059 15.3136L7.96776 18.5907C7.98744 18.6014 8.00533 18.6122 8.02502 18.6211C8.13032 18.6777 8.18784 18.7294 8.31854 18.7643H8.32034C9.19375 19.1294 10.1978 19.0703 11.0283 18.5871L16.6696 15.3082C17.0222 15.1042 17.3229 14.8357 17.5609 14.5225C17.5609 14.5208 17.5609 14.5189 17.5627 14.5189C17.6003 14.467 17.6379 14.4134 17.6737 14.3596C17.7236 14.2848 17.7686 14.2074 17.8115 14.1288C17.799 14.1518 17.7887 14.1759 17.7757 14.1985C18.0406 13.744 18.1874 13.2213 18.1891 12.6772L18.207 6.38799C18.2106 5.43049 17.7632 4.5356 17.0168 3.96109ZM18.0155 13.6688C18.0567 13.5471 18.0907 13.4218 18.1158 13.293C18.0925 13.4218 18.0585 13.5471 18.0155 13.6688Z" fill="#EFAE1D"/>
<path d="M7.94289 0.461113L2.30092 3.73986C1.36337 4.2847 0.785244 5.28604 0.782172 6.37041L0.764356 12.6605C0.761258 13.7541 1.34342 14.7657 2.29047 15.3125L7.96883 18.5909C8.91595 19.1378 10.0832 19.1361 11.0288 18.5866L16.6707 15.3079C17.6082 14.7631 18.1863 13.7617 18.1894 12.6774L18.2072 6.38737C18.2103 5.29374 17.6281 4.28202 16.681 3.7352L11.0026 0.45678C10.0556 -0.0900023 8.88839 -0.0883496 7.94289 0.461113Z" fill="#B68008"/>
<path d="M16.9081 3.8808L10.944 0.3762C10.0505 -0.143083 8.93103 -0.115422 8.03599 0.40133L1.99804 3.88734C1.56065 4.13987 1.55976 4.77087 1.99643 5.02464L7.24323 8.07371C8.59054 8.85668 10.2538 8.85903 11.6033 8.07989L16.9065 5.0181C17.3439 4.76557 17.3447 4.13457 16.9081 3.8808Z" fill="#FFBC00"/>
<path d="M16.9065 5.01775L16.3473 5.34078C15.1414 2.834 12.5077 1.09573 9.45236 1.09573C6.39384 1.09573 3.75771 2.83712 2.55368 5.34829L1.99634 5.02462C1.55957 4.77095 1.56082 4.13987 1.9982 3.88744L8.03589 0.401554C8.93124 -0.115176 10.0503 -0.14329 10.9438 0.375934L16.9078 3.88058C17.3445 4.13425 17.3439 4.76532 16.9065 5.01775Z" fill="#FFC633"/>
<path d="M10.0685 1.89672C10.5048 2.14863 10.5071 2.55663 10.0736 2.80854C9.64015 3.06046 8.93532 3.06072 8.49901 2.80881C8.06267 2.5569 8.05991 2.1481 8.4934 1.89619C8.92689 1.64428 9.63217 1.64481 10.0685 1.89672Z" fill="#474746"/>
<path d="M10.254 2.67043C10.2228 2.70311 10.185 2.73506 10.1422 2.76484C10.1393 2.60144 10.0296 2.43803 9.81389 2.31384C9.37743 2.06256 8.67226 2.06184 8.23871 2.31384C8.21474 2.32764 8.19148 2.34217 8.17041 2.35741C8.1697 2.31819 8.17478 2.27971 8.18712 2.24122C8.22343 2.11485 8.32584 1.99429 8.49361 1.89625C8.92715 1.64425 9.63233 1.64497 10.0688 1.89625C10.4319 2.10614 10.4944 2.42423 10.254 2.67043Z" fill="#232323"/>
<path d="M14.104 4.22631C14.5403 4.47822 14.5426 4.88622 14.1091 5.13813C13.6756 5.39005 12.9708 5.39031 12.5345 5.1384C12.0982 4.88649 12.0954 4.4777 12.5289 4.22578C12.9624 3.97387 13.6677 3.9744 14.104 4.22631Z" fill="#474746"/>
<path d="M14.2895 5.00002C14.2583 5.03269 14.2205 5.06465 14.1776 5.09443C14.1747 4.93103 14.0651 4.76762 13.8494 4.64343C13.4129 4.39215 12.7077 4.39143 12.2742 4.64343C12.2502 4.65723 12.2269 4.67176 12.2059 4.687C12.2052 4.64778 12.2102 4.6093 12.2226 4.57081C12.2589 4.44444 12.3613 4.32388 12.5291 4.22584C12.9626 3.97384 13.6678 3.97456 14.1043 4.22584C14.4674 4.43573 14.5298 4.75382 14.2895 5.00002Z" fill="#232323"/>
<path d="M10.5723 6.27856C11.0086 6.53046 11.0109 6.93846 10.5774 7.19038C10.1439 7.44229 9.4391 7.44255 9.00279 7.19065C8.56646 6.93873 8.5637 6.52994 8.99718 6.27803C9.43067 6.02611 10.136 6.02664 10.5723 6.27856Z" fill="#474746"/>
<path d="M10.7578 7.05226C10.7265 7.08494 10.6888 7.11689 10.6459 7.14668C10.643 6.98327 10.5334 6.81987 10.3176 6.69568C9.88119 6.44439 9.17601 6.44367 8.74247 6.69568C8.71849 6.70948 8.69523 6.724 8.67417 6.73925C8.67346 6.70003 8.67853 6.66155 8.69087 6.62305C8.72718 6.49669 8.82959 6.37613 8.99736 6.27809C9.43091 6.02609 10.1361 6.0268 10.5726 6.27809C10.9357 6.48797 10.9981 6.80607 10.7578 7.05226Z" fill="#232323"/>
<path d="M6.53676 3.94946C6.97307 4.20136 6.97539 4.60936 6.5419 4.86128C6.10842 5.11319 5.40358 5.11345 4.96727 4.86155C4.53093 4.60963 4.52818 4.20084 4.96166 3.94892C5.39515 3.69701 6.10043 3.69754 6.53676 3.94946Z" fill="#474746"/>
<path d="M6.72229 4.72316C6.69105 4.75584 6.65328 4.78779 6.61045 4.81758C6.60754 4.65417 6.49786 4.49077 6.28215 4.36658C5.8457 4.11529 5.14052 4.11457 4.70697 4.36658C4.683 4.38038 4.65974 4.3949 4.63868 4.41015C4.63797 4.37093 4.64304 4.33244 4.65538 4.29395C4.69169 4.16759 4.7941 4.04703 4.96187 3.94899C5.39541 3.69698 6.10059 3.6977 6.53708 3.94899C6.9002 4.15887 6.96265 4.47697 6.72229 4.72316Z" fill="#232323"/>
<path d="M18.1745 12.7012L18.1577 6.77041C18.1556 6.01481 17.3373 5.54394 16.6829 5.92175L11.1021 9.14384C10.2835 9.61649 9.78023 10.491 9.78291 11.4363L9.80191 18.1371C9.80332 18.6366 10.3442 18.9479 10.7768 18.6981L16.6872 15.2858C17.6101 14.7529 18.1775 13.7669 18.1745 12.7012Z" fill="#FFBC00"/>
<path d="M18.1743 12.7009C18.1774 13.7669 17.61 14.7528 16.6872 15.2858L10.777 18.698C10.344 18.9479 9.80353 18.6367 9.80163 18.1369L9.79974 17.4527C14.0836 17.3452 17.5213 13.8949 17.5213 9.65364C17.5213 8.32401 17.1833 7.07187 16.5872 5.97655L16.6828 5.92157C17.337 5.54417 18.1555 6.01466 18.1574 6.77071L18.1743 12.7009Z" fill="#FFC633"/>
<path d="M15.3951 12.1436C15.7705 11.9268 16.0754 12.1006 16.0767 12.532C16.0779 12.9633 15.7749 13.4891 15.3995 13.7058C15.0241 13.9225 14.7187 13.748 14.7175 13.3167C14.7163 12.8853 15.0197 12.3603 15.3951 12.1436Z" fill="#474746"/>
<path d="M16.0766 12.5317C16.0779 12.9634 15.7748 13.4889 15.3993 13.7057C15.1706 13.8382 14.9676 13.8244 14.8438 13.6957C14.9263 13.6889 15.0175 13.6589 15.1131 13.6039C15.4886 13.3871 15.7917 12.8616 15.7904 12.4305C15.7898 12.2624 15.7436 12.1337 15.6642 12.0518C15.906 12.0318 16.076 12.2105 16.0766 12.5317Z" fill="#232323"/>
<path d="M13.7497 11.2061C14.1251 10.9893 14.4301 11.1631 14.4313 11.5945C14.4326 12.0258 14.1296 12.5516 13.7542 12.7683C13.3788 12.985 13.0734 12.8105 13.0722 12.3792C13.071 11.9478 13.3744 11.4228 13.7497 11.2061Z" fill="#474746"/>
<path d="M14.4313 11.5942C14.4325 12.0259 14.1295 12.5514 13.754 12.7682C13.5253 12.9007 13.3222 12.8869 13.1985 12.7582C13.281 12.7514 13.3722 12.7214 13.4678 12.6664C13.8433 12.4496 14.1464 11.9241 14.1451 11.493C14.1445 11.3249 14.0983 11.1962 14.0189 11.1143C14.2607 11.0943 14.4307 11.273 14.4313 11.5942Z" fill="#232323"/>
<path d="M12.1044 10.2686C12.4798 10.0518 12.7848 10.2256 12.786 10.657C12.7872 11.0883 12.4842 11.6141 12.1088 11.8308C11.7334 12.0475 11.428 11.873 11.4268 11.4417C11.4256 11.0103 11.729 10.4853 12.1044 10.2686Z" fill="#474746"/>
<path d="M12.7859 10.6567C12.7872 11.0884 12.4841 11.6139 12.1086 11.8307C11.8799 11.9632 11.6769 11.9494 11.5532 11.8207C11.6356 11.8139 11.7269 11.7839 11.8225 11.7289C12.198 11.5121 12.501 10.9866 12.4998 10.5555C12.4991 10.3874 12.4529 10.2587 12.3735 10.1768C12.6154 10.1568 12.7853 10.3355 12.7859 10.6567Z" fill="#232323"/>
<path d="M0.760022 12.7012L0.776837 6.77041C0.77898 6.01481 1.59722 5.54394 2.25159 5.92175L7.83242 9.14384C8.65107 9.61649 9.1543 10.491 9.15162 11.4363L9.13262 18.1371C9.13121 18.6366 8.59031 18.9479 8.15774 18.6981L2.24737 15.2858C1.32438 14.7529 0.757 13.7669 0.760022 12.7012Z" fill="#FFBC00"/>
<path d="M0.760236 12.7009C0.757124 13.7669 1.32447 14.7528 2.2473 15.2858L8.15753 18.698C8.59052 18.9479 9.13098 18.6367 9.13287 18.1369L9.13477 17.4527C4.85094 17.3452 1.41319 13.8949 1.41319 9.65364C1.41319 8.32401 1.7512 7.07187 2.34728 5.97655L2.2517 5.92157C1.59749 5.54417 0.778969 6.01466 0.777108 6.77071L0.760236 12.7009Z" fill="#FFC633"/>
<path d="M4.9587 11.0516C4.423 10.7423 3.9878 10.9903 3.98606 11.6058C3.98431 12.2214 4.41668 12.9716 4.95238 13.2809C5.48806 13.5902 5.92384 13.3412 5.92559 12.7256C5.92734 12.1101 5.49438 11.3608 4.9587 11.0516Z" fill="#474746"/>
<path d="M3.98609 11.6054C3.9843 12.2215 4.41675 12.9714 4.95265 13.2808C5.27896 13.4698 5.56874 13.4502 5.74528 13.2665C5.6276 13.2567 5.49742 13.2139 5.36098 13.1354C4.82513 12.826 4.39268 12.0762 4.39446 11.461C4.39538 11.2211 4.46134 11.0374 4.57458 10.9206C4.2295 10.8921 3.987 11.1471 3.98609 11.6054Z" fill="#232323"/>
<path d="M2.06415 9.99775C2.07268 9.50507 2.13041 9.12689 2.04973 9.13439C1.96933 9.14185 1.79893 9.57736 1.7904 10.07C1.78187 10.5631 1.93846 10.9263 2.01885 10.9189C2.09953 10.9114 2.05562 10.4908 2.06415 9.99775Z" fill="white"/>
<path d="M1.96231 10.8795C1.89439 10.7363 1.82908 10.4685 1.83468 10.1451C1.8434 9.66346 2.00583 9.23558 2.08858 9.21104C2.08356 9.15985 2.07159 9.13212 2.04951 9.13387C1.9694 9.14211 1.79919 9.57702 1.79037 10.0695C1.78358 10.4636 1.88162 10.7747 1.96231 10.8795Z" fill="#DCE0F4"/>
<path d="M2.21317 8.45066C2.23757 8.30913 2.23098 8.20686 2.19517 8.20002C2.15948 8.1932 2.06624 8.30012 2.04184 8.44165C2.01742 8.58328 2.07109 8.70582 2.10678 8.71264C2.14259 8.71948 2.18875 8.59229 2.21317 8.45066Z" fill="white"/>
<path d="M2.07833 8.6844C2.05935 8.63618 2.04924 8.5629 2.06287 8.48489C2.08691 8.34309 2.18016 8.23641 2.21519 8.24341C2.21781 8.24327 2.22167 8.24482 2.22415 8.24822C2.22006 8.2203 2.20905 8.20153 2.19469 8.20052C2.15966 8.19355 2.06642 8.30021 2.04237 8.442C2.02498 8.54833 2.04997 8.64192 2.07833 8.6844Z" fill="#DCE0F4"/>
<path d="M14.0086 6.73472C13.6276 6.73472 13.3193 7.04301 13.3193 7.42403C13.3193 7.23385 13.2419 7.06103 13.1178 6.93624C12.993 6.81212 12.8202 6.73472 12.63 6.73472C12.8202 6.73472 12.993 6.65732 13.1178 6.5332C13.2419 6.40841 13.3193 6.23559 13.3193 6.04541C13.3193 6.23559 13.3967 6.40841 13.5208 6.5332C13.6456 6.65732 13.8184 6.73472 14.0086 6.73472Z" fill="white"/>
</g>
<defs>
<clipPath id="clip0_336_367">
<rect width="19" height="19" fill="white"/>
</clipPath>
</defs>
</svg>
