<svg height="512px" viewBox="56 56 400 400" width="512px" xmlns="http://www.w3.org/2000/svg">
<circle  cx="256" cy="256" r="187" fill="#ffffff" data-original="#ffffff" class=""/>
<path fill='#2b7fff' d="m394.335938 117.664062c-37.183594-37.183593-86.3125-57.664062-138.335938-57.664062s-101.152344 20.480469-138.335938 57.664062c-37.183593 37.183594-57.664062 86.3125-57.664062 138.335938s20.480469 101.152344 57.664062 138.335938c37.183594 37.183593 86.3125 57.664062 138.335938 57.664062s101.152344-20.480469 138.335938-57.664062c37.183593-37.183594 57.664062-86.3125 57.664062-138.335938s-20.480469-101.152344-57.664062-138.335938zm-108.335938 93.335938v30h-88.800781c-.898438 4.800781-1.199219 9.898438-1.199219 15s.300781 10.199219 1.199219 15h88.800781v30h-80.101562c3.601562 6.898438 7.800781 13.5 12.902343 19.5 14.097657 16.5 32.699219 25.5 52.199219 25.5 24 0 46.800781-14.101562 60.902344-37.800781l25.796875 15.601562c-19.5 32.699219-51.898438 52.199219-86.699219 52.199219-28.5 0-55.199219-12.898438-75-36-9.898438-11.398438-17.398438-24.601562-22.199219-39h-37.800781v-30h30.902344c-.601563-4.800781-.902344-9.898438-.902344-15s.300781-10.199219.902344-15h-30.902344v-30h37.800781c4.796875-14.402344 12.296875-27.601562 22.199219-39 19.800781-23.101562 46.5-36 75-36 34.800781 0 67.199219 19.5 86.699219 52.199219l-25.800781 15.601562c-14.097657-23.703125-36.898438-37.800781-60.898438-37.800781-19.5 0-38.101562 9-52.199219 25.5-5.101562 6-9.300781 12.597656-12.902343 19.5zm0 0"/></svg>