<svg width="512" height="512" viewBox="0 0 512 512" fill="none" xmlns="http://www.w3.org/2000/svg">
<g clip-path="url(#clip0_460_2148)">
<path d="M471.829 436.108V475.411C471.829 486.227 375.731 495.04 257.138 495.04C202.005 495.457 146.885 493.095 91.9911 487.963V487.963C61.0149 484.58 42.4023 480.173 42.4023 475.411V436.108H471.829Z" fill="url(#paint0_linear_460_2148)"/>
<g style="mix-blend-mode:color-burn" opacity="0.1">
<path d="M471.824 436.108V475.411C471.824 486.227 375.727 495.04 257.133 495.04C202 495.457 146.881 493.095 91.9863 487.963C225.175 482.755 129.479 451.954 129.479 451.954L201.251 436.108H471.824Z" fill="#848484"/>
</g>
<path d="M471.831 436.153C471.831 437.934 469.197 439.714 464.243 441.316C439.382 449.684 356.049 455.782 257.184 455.782C212.773 455.782 171.486 454.58 137.252 452.444C130.155 451.999 123.371 451.509 116.988 450.975C71.4611 447.414 42.6719 442.073 42.6719 436.153C42.6719 433.483 48.3851 430.946 58.8741 428.675C70.3928 426.312 82.0289 424.559 93.7335 423.423C103.285 422.355 113.953 421.42 125.602 420.619C152.071 418.75 183.627 417.414 217.772 416.836C225.896 416.836 234.242 416.836 242.634 416.613C247.499 416.613 252.408 416.613 257.363 416.613C265.977 416.613 274.503 416.613 282.849 416.613H283.162C312.531 416.925 340.07 417.815 364.485 419.15L382.339 420.174C398.05 421.198 412.244 422.4 424.429 423.779C436.893 424.933 449.249 427.046 461.386 430.1C468.171 432.014 471.831 434.061 471.831 436.153Z" fill="url(#paint1_linear_460_2148)"/>
<g style="mix-blend-mode:color-burn" opacity="0.3">
<path d="M471.831 436.108C471.831 444.342 416.707 451.375 338.419 454.313C313.334 455.247 285.884 455.781 257.14 455.781C212.729 455.781 171.486 454.58 137.252 452.443C298.248 446.123 300.167 428.185 282.671 416.835C332.661 417.369 377.429 419.461 410.816 422.577C448.576 425.96 471.831 430.811 471.831 436.108Z" fill="#848484"/>
</g>
<g style="mix-blend-mode:color-burn" opacity="0.3">
<path d="M242.451 416.613L206.342 437.666L205.717 438.023H204.869L172.152 431.702L152.334 427.963H151.085L118.546 431.213L59.4058 436.865L50.1666 437.845H48.4258L49.5416 437.489L56.1029 435.352L74.6708 429.343L93.5511 423.245C103.103 422.177 113.77 421.242 125.42 420.441C151.888 418.572 183.444 417.236 217.59 416.658C225.713 416.702 234.06 416.658 242.451 416.613Z" fill="#848484"/>
</g>
<g style="mix-blend-mode:color-burn" opacity="0.3">
<path d="M461.656 431.035C461.656 432.816 458.978 434.641 454.023 436.243L429.519 431.569L409.88 427.742H408.586L376.092 430.991L317.085 436.866L307.801 437.845H306.061L307.221 437.489L313.782 435.353L332.306 429.344L364.308 419.018L382.162 420.041C397.873 421.065 412.067 422.267 424.252 423.647C436.716 424.8 449.072 426.913 461.209 429.967C461.44 430.283 461.593 430.649 461.656 431.035V431.035Z" fill="#848484"/>
</g>
<g style="mix-blend-mode:color-burn" opacity="0.1">
<path d="M471.83 436.108C471.83 444.343 416.707 451.376 338.418 454.313H339.221C419.563 449.862 424.741 435.307 410.636 422.399C448.575 425.96 471.83 430.812 471.83 436.108Z" fill="#848484"/>
</g>
<path d="M399.339 122.578L398.179 123.78L390.68 131.035L387.779 133.795L381.128 140.248L327.21 192.726L326.585 193.349V194.061L336.092 249.165L337.655 258.467L343.412 291.672V293.319L341.939 292.518L301.054 271.108L287.129 263.764L254.144 246.45L253.43 246.094L252.671 246.45L224.373 261.316L205.671 271.108L172.954 288.289L164.92 292.518L163.402 293.319L163.67 291.672L165.366 281.924L169.339 258.868L170.053 254.417C170.04 254.328 170.04 254.239 170.053 254.15L180.408 193.839V193.171L179.738 192.503L129.614 143.854L108.77 123.602L107.609 122.4L109.216 122.177L140.058 117.726L207.456 107.979H208.215L208.617 107.222L230.889 62.9789L243.878 36.6734L246.511 31.8218L253.073 18.4688L253.831 17L254.545 18.4688L261.732 32.9791L265.168 39.9671L298.421 107.489L298.644 107.89L299.805 108.112L373.273 118.75L384.163 120.308L397.554 122.266L399.339 122.578Z" fill="url(#paint2_linear_460_2148)"/>
<path d="M252.942 172.43V246.495L224.644 261.361L205.943 271.153L173.226 288.334L165.191 292.562L183.045 267.904L205.362 237.326L239.686 190.367L252.942 172.43Z" fill="url(#paint3_linear_460_2148)"/>
<path d="M252.053 171.051L237.458 191.08L217.283 218.677C217.226 218.778 217.15 218.869 217.06 218.944C217.022 219.094 216.945 219.232 216.837 219.344L181.576 267.727L163.945 291.807L165.641 282.059L169.614 259.003L170.328 254.552C170.315 254.463 170.315 254.373 170.328 254.285L180.683 193.973H180.951L182.201 193.573L233.039 177.104L239.422 175.101L252.053 171.051Z" fill="url(#paint4_linear_460_2148)"/>
<path d="M398.186 123.78L387.831 133.795L381.314 140.115L327.218 192.726L308.114 186.584L256.115 169.759L318.246 149.641L398.186 123.78Z" fill="url(#paint5_linear_460_2148)"/>
<path d="M342.214 292.607L301.329 271.153L287.403 263.809L254.418 246.495V172.029L269.995 193.394L324.226 267.86L342.214 292.607Z" fill="url(#paint6_linear_460_2148)"/>
<path d="M251.292 169.759L242.678 172.563L180.19 192.682L130.065 143.988L109.266 123.78L251.292 169.759Z" fill="url(#paint7_linear_460_2148)"/>
<path d="M343.458 291.716L325.916 267.592L270.034 190.99L255.662 171.183L268.204 175.233L308.107 188.141L326.675 194.061L336.138 249.164V249.209L337.745 258.511L343.458 291.716Z" fill="url(#paint8_linear_460_2148)"/>
<path d="M252.942 18.5557V167.531L252.629 167.086L209.066 107.22L230.893 63.1103L243.926 36.8048L252.942 18.5557Z" fill="url(#paint9_linear_460_2148)"/>
<path d="M397.69 122.357L326.9 145.28L255.977 168.247L299.897 108.158L373.365 118.796L397.69 122.357Z" fill="url(#paint10_linear_460_2148)"/>
<path d="M298.517 107.354L298.427 107.443L254.418 167.665V18.334L265.086 39.8769L298.517 107.354Z" fill="url(#paint11_linear_460_2148)"/>
<path d="M251.782 168.377L109.711 122.354L140.509 117.903L207.906 108.11L245.935 160.365L251.782 168.377Z" fill="url(#paint12_linear_460_2148)"/>
<g style="mix-blend-mode:color-burn" opacity="0.1">
<path d="M327.212 192.729L326.543 193.352L327.212 192.729Z" fill="#848484"/>
</g>
<g style="mix-blend-mode:color-burn" opacity="0.1">
<path d="M180.186 192.729L180.855 193.352L180.186 192.729Z" fill="#848484"/>
</g>
<g style="mix-blend-mode:color-burn" opacity="0.1">
<path d="M180.768 194.06L180.857 193.393L180.768 194.06Z" fill="#848484"/>
</g>
<g style="mix-blend-mode:color-burn" opacity="0.1">
<path d="M281.15 161.702L256.11 169.803L268.652 173.854L308.109 186.583L327.168 192.726L326.543 193.349V194.061L308.02 188.097L268.117 175.233L255.441 171.138L269.857 190.946L325.873 267.725L343.459 291.85V293.497L341.986 292.696L324.133 267.993L269.991 193.394L254.414 172.029V246.494L253.7 246.138L252.941 246.494V172.429L239.863 190.233L205.539 237.192L183.222 267.77L165.369 292.429L163.851 293.23L164.119 291.583L181.749 267.503L216.876 219.432C216.985 219.32 217.062 219.182 217.1 219.031C217.189 218.956 217.265 218.866 217.323 218.764V218.764L237.498 191.168L252.093 171.138L239.506 175.233L233.123 177.236L182.285 193.705L181.035 194.106H180.767V193.438L180.098 192.77L238.881 173.854L241.381 173.052L242.363 172.741C242.363 172.741 242.363 172.741 242.586 172.741L251.2 170.026L228.66 162.37L109.442 123.78L108.281 122.578L109.888 122.355L232.008 161.88L251.959 168.334L246.157 160.367L245.398 159.343L208.128 108.112H208.887L209.289 107.356L246.514 158.498L252.807 167.088C252.898 167.218 253.003 167.337 253.12 167.444V18.4688L253.878 17L254.592 18.4688V167.845L262.002 157.741L298.513 107.489L298.736 107.89L299.896 108.112L263.028 158.542L255.976 168.156L278.293 160.99L326.945 145.189L397.735 122.266L399.386 122.489L398.226 123.691L318.286 149.596L281.15 161.702Z" fill="#848484"/>
</g>
<g style="mix-blend-mode:color-burn" opacity="0.1">
<path d="M281.15 161.702L256.11 169.803L268.652 173.854L308.109 186.583L327.168 192.726L326.543 193.349V194.061L308.02 188.097L268.117 175.233L255.441 171.138L269.857 190.946L325.873 267.725L343.459 291.85V293.497L341.986 292.696L324.133 267.993L269.991 193.394L254.414 172.029V246.494L253.7 246.138L252.941 246.494V172.429L239.863 190.233L205.539 237.192L183.222 267.77L165.369 292.429L163.851 293.23L164.119 291.583L181.749 267.503L216.876 219.432C216.985 219.32 217.062 219.182 217.1 219.031C217.189 218.956 217.265 218.866 217.323 218.764V218.764L237.498 191.168L252.093 171.138L239.506 175.233L233.123 177.236L182.285 193.705L181.035 194.106H180.767V193.438L180.098 192.77L238.881 173.854L241.381 173.052L242.363 172.741C242.363 172.741 242.363 172.741 242.586 172.741L251.2 170.026L228.66 162.37L109.442 123.78L108.281 122.578L109.888 122.355L232.008 161.88L251.959 168.334L246.157 160.367L245.398 159.343L208.128 108.112H208.887L209.289 107.356L246.514 158.498L252.807 167.088C252.898 167.218 253.003 167.337 253.12 167.444V18.4688L253.878 17L254.592 18.4688V167.845L262.002 157.741L298.513 107.489L298.736 107.89L299.896 108.112L263.028 158.542L255.976 168.156L278.293 160.99L326.945 145.189L397.735 122.266L399.386 122.489L398.226 123.691L318.286 149.596L281.15 161.702Z" fill="#848484"/>
</g>
<path style="mix-blend-mode:soft-light" opacity="0.8" d="M261.601 32.8895C261.601 32.8895 255.888 85.5006 254.415 101.569C253.879 107.266 253.612 111.895 253.656 114.699C253.656 111.183 253.255 107.222 252.942 103.082C251.157 81.7172 249.282 48.9578 246.381 31.8659L252.942 18.5129L253.656 17.0439L254.415 18.5129L261.601 32.8895Z" fill="url(#paint13_linear_460_2148)"/>
<path style="mix-blend-mode:soft-light" opacity="0.8" d="M399.34 122.58L398.135 123.737L390.681 131.037C368.677 136.111 338.772 144.968 318.195 149.642C318.195 149.642 321.543 148.039 327.122 145.191C337.879 139.671 384.522 120.31 384.522 120.31L397.912 122.268L399.34 122.58Z" fill="url(#paint14_linear_460_2148)"/>
<g style="mix-blend-mode:soft-light" opacity="0.2">
<path d="M253.52 134.688C253.52 134.688 249.726 169.984 286.505 159.302C261.599 168.871 265.393 185.118 273.918 197.669C273.918 198.827 254.413 167.892 233.435 197.669C233.435 197.669 254.413 171.987 222.143 159.346C223.928 159.524 254.279 174.257 253.52 134.688Z" fill="white"/>
</g>
<g style="mix-blend-mode:color-burn" opacity="0.3">
<path d="M253.697 168.379L252.938 167.445L252.626 167.089L209.107 107.267L230.889 62.9795C231.335 89.3295 234.772 139.092 252.938 167.089C253.162 167.623 253.429 167.979 253.697 168.379Z" fill="#848484"/>
</g>
<g style="mix-blend-mode:color-burn" opacity="0.2">
<path d="M245.938 160.365C216.97 134.282 165.105 122.309 140.512 117.858L207.91 108.11L245.938 160.365Z" fill="#848484"/>
</g>
<g style="mix-blend-mode:color-burn" opacity="0.1">
<path d="M242.636 172.565L180.148 192.683L130.068 143.989C188.048 188.588 202.421 175.636 242.636 172.565Z" fill="#848484"/>
</g>
<g style="mix-blend-mode:color-burn" opacity="0.3">
<path d="M242.632 172.564C239.24 174.033 235.982 175.591 232.902 177.283C217.879 185.423 204.622 196.45 193.897 209.727C183.172 223.005 175.19 238.27 170.414 254.641L180.814 194.107H181.082L242.632 172.564Z" fill="#848484"/>
</g>
<g style="mix-blend-mode:soft-light" opacity="0.9">
<path d="M216.921 219.165C216.883 219.316 216.806 219.454 216.697 219.566C215.314 221.88 211.029 228.468 205.494 237.37L185.944 268.304C181.481 275.604 177.017 282.592 173.224 288.378L165.189 292.607L163.672 293.408L163.94 291.761L165.636 282.013L177.776 267.102L216.921 219.165Z" fill="white"/>
</g>
<g style="mix-blend-mode:color-burn" opacity="0.3">
<path d="M287.356 263.81L254.416 246.54L253.657 246.14L252.943 246.54L224.645 261.362C243.168 245.828 250.488 204.79 252.943 185.962C253.701 179.998 254.014 176.259 254.014 176.259C254.014 179.196 254.237 182.09 254.416 184.849C258.209 239.597 282.223 260.027 287.356 263.81Z" fill="#848484"/>
</g>
<g style="mix-blend-mode:color-burn" opacity="0.3">
<path d="M381.308 140.115L327.166 192.726L308.107 186.584C308.107 186.584 347.654 162.326 381.308 140.115Z" fill="#848484"/>
</g>
<g style="mix-blend-mode:color-burn" opacity="0.3">
<path d="M336.138 249.212C327.906 228.352 318.549 207.951 308.107 188.1L326.631 194.109L336.138 249.212Z" fill="#848484"/>
</g>
<g style="mix-blend-mode:color-burn" opacity="0.4">
<path d="M185.945 268.261L205.985 271.154L173.269 288.335L165.19 292.608L163.717 293.364L163.94 291.717L165.636 281.97L169.609 258.958L173.045 265.902L173.001 265.946L173.045 266.08L173.269 266.391L174.25 266.569L177.777 267.059L181.571 267.637L183.222 267.905L185.945 268.261Z" fill="#848484"/>
</g>
<g style="mix-blend-mode:color-burn" opacity="0.3">
<path d="M343.727 293.362L342.209 292.605L301.324 271.152L324.222 267.858L325.918 267.591L333.148 266.523L333.818 266.389L334.175 265.766L337.746 258.511L343.459 291.715L343.727 293.362Z" fill="#848484"/>
</g>
<path d="M254.192 288.955L253.166 289.979L244.239 298.881L190.678 350.869V351.492L205.318 436.729L205.541 438.153L204.291 437.486L156.399 412.382L127.609 397.293L126.94 396.937L126.315 397.293L101.677 410.156L56.8195 433.702L49.7673 437.396L48.4729 438.064L48.696 436.64L50.1244 427.96L54.2308 404.103L63.4254 350.691L41.7778 329.637L18.8804 307.783L1.02664 289.979L0 288.955H1.42833L28.2089 285.038L87.0369 276.537H87.7065L88.0635 275.869L107.122 237.368L118.459 214.401L126.36 198.466L126.985 197.131L127.654 198.466L136.938 217.205L166.174 275.736V276.092H167.2L231.518 285.528L252.719 288.599L254.192 288.955Z" fill="url(#paint15_linear_460_2148)"/>
<path d="M126.36 332.444V397.162L101.677 410.159L56.8197 433.705L49.7676 437.399L84.984 389.195L126.36 332.444Z" fill="url(#paint16_linear_460_2148)"/>
<path d="M125.602 331.287L95.1616 372.904L48.6973 436.465L50.1256 427.963L54.232 404.106L63.1589 351.228L125.602 331.287Z" fill="url(#paint17_linear_460_2148)"/>
<path d="M253.164 289.98L244.103 298.749L238.434 304.268L191.211 350.203L174.518 344.817L129.125 330.129L183.356 312.592L253.164 289.98Z" fill="url(#paint18_linear_460_2148)"/>
<path d="M204.334 437.353L156.441 412.249L127.652 397.16V332.131L204.334 437.353Z" fill="url(#paint19_linear_460_2148)"/>
<path d="M124.929 330.129L117.386 332.577L62.843 350.158L19.1014 307.651L0.890625 289.98L124.929 330.129Z" fill="url(#paint20_linear_460_2148)"/>
<path d="M205.406 436.596L128.725 331.374L174.519 346.151L190.722 351.359L199.024 399.475L205.406 436.596Z" fill="url(#paint21_linear_460_2148)"/>
<path d="M126.363 198.113V328.172L126.095 327.771L88.0664 275.561L107.125 237.015L118.507 214.048L126.363 198.113Z" fill="url(#paint22_linear_460_2148)"/>
<path d="M252.765 288.731L190.902 308.761L129.039 328.835L167.38 276.357L231.519 285.66L252.765 288.731Z" fill="url(#paint23_linear_460_2148)"/>
<path d="M166.172 275.65L166.082 275.739L127.652 328.306V197.936L136.981 216.763L166.172 275.65Z" fill="url(#paint24_linear_460_2148)"/>
<path d="M125.338 328.925L1.34375 288.733L28.2136 284.86L87.0416 276.314L120.25 321.937L125.338 328.925Z" fill="url(#paint25_linear_460_2148)"/>
<g style="mix-blend-mode:color-burn" opacity="0.1">
<path d="M191.215 350.205L190.635 350.739L191.215 350.205Z" fill="#848484"/>
</g>
<g style="mix-blend-mode:color-burn" opacity="0.1">
<path d="M62.8457 350.157L63.4259 350.736L62.8457 350.157Z" fill="#848484"/>
</g>
<g style="mix-blend-mode:color-burn" opacity="0.1">
<path d="M63.332 351.361L63.421 350.782L63.332 351.361Z" fill="#848484"/>
</g>
<g style="mix-blend-mode:color-burn" opacity="0.1">
<path d="M183.358 312.59L129.127 330.038L191.169 350.112L190.633 350.646V351.269L128.591 331.284L205.273 436.506L205.496 437.93L204.247 437.263L127.565 332.041V397.07L126.895 396.714L126.27 397.07V332.441L84.8498 389.147L49.6334 437.352L48.339 438.019L48.5621 436.595L95.0265 373.035L125.467 331.418L62.9791 351.492V350.913L62.3988 350.334L124.485 330.305L1.02664 289.979L0 288.955H1.42833L125.467 329.014L87.1708 276.403H87.8404L88.1974 275.735L126.494 328.391V198.11L127.119 196.774L127.788 198.11V328.48L166.174 275.824V276.18H167.2L128.859 328.658L190.767 308.584L252.585 288.554H254.058L253.032 289.578L183.358 312.59Z" fill="#848484"/>
</g>
<g style="mix-blend-mode:color-burn" opacity="0.1">
<path d="M183.358 312.59L129.127 330.038L191.169 350.112L190.633 350.646V351.269L128.591 331.284L205.273 436.506L205.496 437.93L204.247 437.263L127.565 332.041V397.07L126.895 396.714L126.27 397.07V332.441L84.8498 389.147L49.6334 437.352L48.339 438.019L48.5621 436.595L95.0265 373.035L125.467 331.418L62.9791 351.492V350.913L62.3988 350.334L124.485 330.305L1.02664 289.979L0 288.955H1.42833L125.467 329.014L87.1708 276.403H87.8404L88.1974 275.735L126.494 328.391V198.11L127.119 196.774L127.788 198.11V328.48L166.174 275.824V276.18H167.2L128.859 328.658L190.767 308.584L252.585 288.554H254.058L253.032 289.578L183.358 312.59Z" fill="#848484"/>
</g>
<path style="mix-blend-mode:soft-light" opacity="0.8" d="M133.942 210.617C133.942 210.617 128.943 256.551 127.648 270.572C127.202 275.557 126.934 279.474 126.979 282.055C126.979 278.984 126.666 275.557 126.354 271.907C124.792 253.257 123.185 224.682 120.641 209.593L126.354 198.065L126.979 196.729L127.648 198.065L133.942 210.617Z" fill="url(#paint26_linear_460_2148)"/>
<path style="mix-blend-mode:soft-light" opacity="0.8" d="M254.195 288.958L253.169 289.982L246.518 296.302C227.326 300.753 201.214 308.498 183.271 312.593L190.949 308.765C200.366 303.958 241.073 287.044 241.073 287.044L252.767 288.735L254.195 288.958Z" fill="url(#paint27_linear_460_2148)"/>
<g style="mix-blend-mode:soft-light" opacity="0.2">
<path d="M126.89 299.505C126.89 299.505 123.542 330.306 155.679 320.959C133.942 329.371 137.245 343.525 144.654 354.475C144.654 355.499 127.649 328.481 109.349 354.475C109.349 354.475 127.649 332.22 99.4844 321.048C101.047 321.137 127.559 333.867 126.89 299.505Z" fill="white"/>
</g>
<g style="mix-blend-mode:color-burn" opacity="0.3">
<path d="M127.032 328.926L126.363 328.125L126.095 327.769L88.0664 275.514L107.125 237.013C107.527 260.024 110.517 303.466 126.363 327.902L127.032 328.926Z" fill="#848484"/>
</g>
<g style="mix-blend-mode:color-burn" opacity="0.2">
<path d="M120.245 321.937C94.9819 299.148 49.6781 288.688 28.209 284.816L87.037 276.314L120.245 321.937Z" fill="#848484"/>
</g>
<g style="mix-blend-mode:color-burn" opacity="0.1">
<path d="M117.391 332.576L62.8476 350.158L18.8828 307.784C69.7213 346.552 82.2635 335.247 117.391 332.576Z" fill="#848484"/>
</g>
<g style="mix-blend-mode:color-burn" opacity="0.3">
<path d="M117.392 332.578C114.401 333.824 111.589 335.249 108.867 336.673C95.743 343.787 84.1598 353.419 74.7837 365.015C65.4077 376.611 58.4239 389.942 54.2344 404.239L63.1612 351.361H63.5182L117.392 332.578Z" fill="#848484"/>
</g>
<g style="mix-blend-mode:soft-light" opacity="0.9">
<path d="M95.1132 372.993C94.4883 373.928 90.4266 380.382 84.9366 389.106C76.4561 402.459 64.5834 421.242 56.7724 433.616L49.7202 437.31L48.4258 437.978L48.649 436.554L50.1219 427.963L95.1132 372.993Z" fill="white"/>
</g>
<g style="mix-blend-mode:color-burn" opacity="0.3">
<path d="M156.438 412.249L127.649 397.16L126.98 396.804L126.355 397.16L101.672 410.157C117.874 396.582 124.257 360.751 126.399 344.282C127.069 339.119 127.337 335.825 127.337 335.825C127.337 338.407 127.337 340.944 127.694 343.347C130.952 391.107 151.93 408.955 156.438 412.249Z" fill="#848484"/>
</g>
<g style="mix-blend-mode:color-burn" opacity="0.3">
<path d="M238.434 304.268L191.166 350.202L174.518 344.816C174.518 344.816 209.065 323.629 238.434 304.268Z" fill="#848484"/>
</g>
<g style="mix-blend-mode:color-burn" opacity="0.3">
<path d="M198.977 399.475C191.805 381.24 183.639 363.409 174.518 346.062L190.72 351.27L198.977 399.475Z" fill="#848484"/>
</g>
<path d="M511.863 288.958L510.837 289.982L501.776 298.75L448.304 350.738L448.393 351.361L463.078 436.598L463.301 438.023L462.007 437.355L414.114 412.251L385.325 397.162L384.7 396.806L384.031 397.162L359.348 410.115L314.446 433.661L307.394 437.355L306.099 438.023L306.322 436.598L307.795 428.097L311.902 404.239L321.096 350.783V350.738L299.449 329.73L276.73 307.652L258.564 289.982L257.537 288.958L258.965 288.736L285.88 284.863L344.708 276.317L345.377 276.228L345.734 275.561L364.793 237.015L376.175 214.048L384.031 198.113L384.7 196.822L385.325 198.113L394.609 216.852L423.755 275.739L423.8 275.828L424.023 276.228L425.05 276.362L489.189 285.664L510.39 288.736H510.435L511.863 288.958Z" fill="url(#paint28_linear_460_2148)"/>
<path d="M384.028 332.444V397.162L359.345 410.114L314.443 433.66L307.391 437.355L342.607 389.15L384.028 332.444Z" fill="url(#paint29_linear_460_2148)"/>
<path d="M383.278 331.287L352.882 372.904L352.837 372.949V372.993L352.792 373.038L306.328 436.598L307.801 428.097L311.907 404.239L321.013 351.361L383.278 331.287Z" fill="url(#paint30_linear_460_2148)"/>
<path d="M510.839 289.98L501.779 298.749L496.11 304.268L448.887 350.203L432.194 344.817L386.801 330.129L441.031 312.592L510.839 289.98Z" fill="url(#paint31_linear_460_2148)"/>
<path d="M462.01 437.353L414.117 412.249L385.328 397.16V332.131L462.01 437.353Z" fill="url(#paint32_linear_460_2148)"/>
<path d="M382.603 330.129L375.06 332.577L320.517 350.158L276.731 307.651L258.564 289.98L382.603 330.129Z" fill="url(#paint33_linear_460_2148)"/>
<path d="M463.082 436.596L386.4 331.374L432.195 346.151L448.397 351.359L456.655 399.475L463.082 436.596Z" fill="url(#paint34_linear_460_2148)"/>
<path d="M384.038 198.113V328.172L383.771 327.771L345.742 275.561L364.801 237.015L376.183 214.048L384.038 198.113Z" fill="url(#paint35_linear_460_2148)"/>
<path d="M510.396 288.731L448.578 308.761L386.715 328.835L425.056 276.357L489.195 285.66L510.396 288.731Z" fill="url(#paint36_linear_460_2148)"/>
<path d="M423.803 275.65L423.758 275.739L385.328 328.306V197.936L394.657 216.763L423.803 275.65Z" fill="url(#paint37_linear_460_2148)"/>
<path d="M383.005 328.925L258.967 288.733L285.881 284.86L344.709 276.314L377.917 321.937L383.005 328.925Z" fill="url(#paint38_linear_460_2148)"/>
<g style="mix-blend-mode:color-burn" opacity="0.1">
<path d="M448.885 350.205L448.305 350.739L448.885 350.205Z" fill="#848484"/>
</g>
<g style="mix-blend-mode:color-burn" opacity="0.1">
<path d="M320.521 350.157L321.102 350.736L320.521 350.157Z" fill="#848484"/>
</g>
<g style="mix-blend-mode:color-burn" opacity="0.1">
<path d="M321.008 351.361L321.097 350.782L321.008 351.361Z" fill="#848484"/>
</g>
<g style="mix-blend-mode:color-burn" opacity="0.1">
<path d="M441.029 312.593L386.798 330.13L448.884 350.204L448.304 350.738L448.393 351.361L386.396 331.376L463.078 436.598L463.301 438.023L462.007 437.355L385.325 332.133V397.162L384.7 396.806L384.031 397.162V332.445L342.61 389.151L307.394 437.355L306.099 438.023L306.322 436.598L352.787 373.038L352.831 372.993V372.949L352.876 372.904L383.272 331.287L321.007 351.361L321.096 350.783V350.738L320.516 350.16L382.602 330.13L258.564 289.982L257.537 288.958L258.965 288.736L383.004 328.928L344.708 276.317L345.377 276.228L345.734 275.561L384.031 328.172V198.113L384.7 196.822L385.325 198.113V328.483L423.8 275.828L424.023 276.228L425.05 276.362L386.709 328.839L448.572 308.765L510.39 288.736H510.435L511.863 288.958L510.837 289.982L441.029 312.593Z" fill="#848484"/>
</g>
<g style="mix-blend-mode:color-burn" opacity="0.1">
<path d="M441.029 312.593L386.798 330.13L448.884 350.204L448.304 350.738L448.393 351.361L386.396 331.376L463.078 436.598L463.301 438.023L462.007 437.355L385.325 332.133V397.162L384.7 396.806L384.031 397.162V332.445L342.61 389.151L307.394 437.355L306.099 438.023L306.322 436.598L352.787 373.038L352.831 372.993V372.949L352.876 372.904L383.272 331.287L321.007 351.361L321.096 350.783V350.738L320.516 350.16L382.602 330.13L258.564 289.982L257.537 288.958L258.965 288.736L383.004 328.928L344.708 276.317L345.377 276.228L345.734 275.561L384.031 328.172V198.113L384.7 196.822L385.325 198.113V328.483L423.8 275.828L424.023 276.228L425.05 276.362L386.709 328.839L448.572 308.765L510.39 288.736H510.435L511.863 288.958L510.837 289.982L441.029 312.593Z" fill="#848484"/>
</g>
<path style="mix-blend-mode:soft-light" opacity="0.8" d="M391.621 210.617C391.621 210.617 386.578 256.551 385.328 270.572C384.906 274.386 384.683 278.219 384.658 282.055C384.658 278.984 384.346 275.557 384.033 271.907C382.471 253.257 380.864 224.682 378.32 209.593L384.033 198.065L384.658 196.729L385.328 198.065L391.621 210.617Z" fill="url(#paint39_linear_460_2148)"/>
<path style="mix-blend-mode:soft-light" opacity="0.8" d="M511.872 288.958L510.801 289.982L504.284 296.302C485.091 300.753 458.98 308.498 441.037 312.593L448.714 308.765C458.132 303.958 498.839 287.044 498.839 287.044L510.533 288.735L511.872 288.958Z" fill="url(#paint40_linear_460_2148)"/>
<g style="mix-blend-mode:soft-light" opacity="0.2">
<path d="M384.569 299.505C384.569 299.505 381.222 330.306 413.314 320.959C391.621 329.371 394.924 343.525 402.334 354.475C402.334 355.499 385.328 328.481 367.028 354.475C367.028 354.475 385.328 332.22 357.119 321.048C358.726 321.137 385.239 333.867 384.569 299.505Z" fill="white"/>
</g>
<g style="mix-blend-mode:color-burn" opacity="0.3">
<path d="M384.88 328.926L384.211 328.125L383.943 327.769L345.959 275.514L365.018 237.013C365.419 260.024 368.365 303.466 384.255 327.902L384.88 328.926Z" fill="#848484"/>
</g>
<g style="mix-blend-mode:color-burn" opacity="0.2">
<path d="M377.921 321.937C352.658 299.148 307.354 288.688 285.885 284.816L344.713 276.314L377.921 321.937Z" fill="#848484"/>
</g>
<g style="mix-blend-mode:color-burn" opacity="0.1">
<path d="M375.015 332.576L320.517 350.158L276.73 307.784C327.39 346.552 339.933 335.247 375.015 332.576Z" fill="#848484"/>
</g>
<g style="mix-blend-mode:color-burn" opacity="0.3">
<path d="M375.021 332.578C372.075 333.824 369.263 335.249 366.541 336.673C353.411 343.779 341.823 353.409 332.446 365.006C323.069 376.603 316.089 389.937 311.908 404.239L320.835 351.361H321.058L375.021 332.578Z" fill="#848484"/>
</g>
<g style="mix-blend-mode:soft-light" opacity="0.9">
<path d="M352.789 372.993C352.164 373.928 348.102 380.382 342.612 389.106C334.132 402.459 322.259 421.242 314.448 433.616L307.396 437.31L306.102 437.978V436.554L307.574 428.052L352.789 372.993Z" fill="white"/>
</g>
<g style="mix-blend-mode:color-burn" opacity="0.3">
<path d="M414.116 412.249L385.327 397.16L384.88 396.804L384.255 397.16L359.35 410.157C375.507 396.582 381.935 360.751 384.077 344.282C384.747 339.119 385.014 335.825 385.014 335.825C385.014 338.407 385.014 340.944 385.371 343.347C388.63 391.107 409.608 408.955 414.116 412.249Z" fill="#848484"/>
</g>
<g style="mix-blend-mode:color-burn" opacity="0.3">
<path d="M496.11 304.268L448.842 350.202L432.193 344.816C432.193 344.816 466.74 323.629 496.11 304.268Z" fill="#848484"/>
</g>
<g style="mix-blend-mode:color-burn" opacity="0.3">
<path d="M456.653 399.475C449.48 381.24 441.315 363.409 432.193 346.062L448.396 351.27L456.653 399.475Z" fill="#848484"/>
</g>
<path style="mix-blend-mode:color-burn" opacity="0.2" d="M510.393 288.734L489.192 285.663L425.053 276.36H424.026V276.004L394.835 217.073L385.551 198.29L384.882 196.954L384.257 198.29L375.955 214.046L364.618 237.014L345.559 275.515L345.202 276.182H344.532L340.694 276.716L337.525 258.378L335.963 249.076L327.036 198.29L326.277 193.839V193.126L326.902 192.503L349.889 170.248L381.133 139.981L387.604 133.661L389.479 131.881L390.506 130.901L398.004 123.646L398.942 122.667L399.165 122.444L397.781 122.222H397.513L373.188 118.661L300.077 108.157H298.916L298.693 107.756L265.262 40.2787L254.416 18.4688L253.702 17L253.166 18.1572V18.4688L249.06 26.7476L244.864 35.249L244.105 36.7624L230.893 62.9789L209.246 106.688V107.088L208.844 107.845H208.085L176.618 112.296L140.688 117.504L109.845 121.955L108.238 122.177L109.399 123.379L130.243 143.631L163.897 176.302L180.323 192.281L180.992 192.949V193.616L179.966 199.759L170.593 254.194V254.372C170.58 254.461 170.58 254.551 170.593 254.639L169.878 259.091L166.888 276.405H166.174V276.049L137.028 217.117L133.992 211.02L127.699 198.334L127.03 196.999L126.405 198.334L118.504 214.269L107.167 237.236L88.1084 275.737L87.7513 276.405H87.0818L28.2538 284.906L1.47325 288.823H0.0449219L1.07156 289.847L19.2376 307.651L54.6327 342.013L63.2024 350.336L63.6041 350.737L54.4095 404.149L50.1246 427.962L49.589 430.989C45.1256 432.591 42.4922 434.282 42.4922 435.974V475.276C42.4922 480.039 61.1046 484.445 92.0808 487.828C146.975 492.96 202.094 495.322 257.228 494.905C375.821 494.905 471.919 486.003 471.919 475.276V435.974C471.914 435.678 471.838 435.388 471.696 435.128L471.428 434.683L471.071 434.327L470.446 433.704C467.9 432.098 465.112 430.91 462.188 430.187L448.798 351.315V350.692L481.336 319.046L496.601 304.224L502.27 298.704L504.769 296.256L511.286 289.936L512.357 288.912L510.393 288.734ZM101.677 410.158L126.36 397.205L126.985 396.849L127.654 397.205L156.444 412.294L167.915 418.303C152.739 418.926 138.456 419.727 125.423 420.662C113.773 421.463 103.106 422.398 93.5538 423.466C84.627 424.401 77.0837 425.425 70.4332 426.538L101.677 410.158V410.158ZM435.943 425.291L433.533 424.98L430.364 424.579L427.418 424.223C422.241 423.6 416.751 423.021 410.814 422.443C391.8 420.662 369.126 419.238 343.863 418.214L359.262 410.158L383.945 397.205L384.882 396.805L385.551 397.161L414.34 412.25L440.318 425.87L435.943 425.291ZM258.969 288.779H257.54L258.567 289.802L276.733 307.607L300.077 330.04L320.921 350.292L321.278 350.603L312.083 404.015L309.852 416.879C301.163 416.671 292.236 416.523 283.071 416.434H282.759C274.412 416.434 265.887 416.434 257.272 416.434C252.318 416.434 247.408 416.434 242.543 416.434C234.152 416.434 225.805 416.434 217.682 416.656L202.104 417.012L190.812 351.182V350.559L223.35 318.912L238.615 304.09L244.284 298.571L246.783 296.123L253.345 289.802L254.371 288.779H252.898L231.697 285.708L190.053 279.654L206.122 271.197L224.823 261.405L253.121 246.583L253.612 246.316H253.88L254.594 246.717L279.456 259.758L287.579 263.987L301.505 271.331L318.6 280.233L286.061 284.951L258.969 288.779Z" fill="url(#paint41_radial_460_2148)"/>
</g>
<defs>
<linearGradient id="paint0_linear_460_2148" x1="42.447" y1="465.574" x2="471.829" y2="465.574" gradientUnits="userSpaceOnUse">
<stop stop-color="#FFA91F"/>
<stop offset="1" stop-color="#FF8C2E"/>
</linearGradient>
<linearGradient id="paint1_linear_460_2148" x1="42.4933" y1="436.153" x2="471.831" y2="436.153" gradientUnits="userSpaceOnUse">
<stop stop-color="#FFD463"/>
<stop offset="1" stop-color="#FFC531"/>
</linearGradient>
<linearGradient id="paint2_linear_460_2148" x1="108.056" y1="155.204" x2="399.339" y2="155.204" gradientUnits="userSpaceOnUse">
<stop stop-color="#CB7B30"/>
<stop offset="0.44" stop-color="#FFDA37"/>
<stop offset="1" stop-color="#FEFB80"/>
</linearGradient>
<linearGradient id="paint3_linear_460_2148" x1="174.475" y1="219.521" x2="249.141" y2="247.7" gradientUnits="userSpaceOnUse">
<stop stop-color="#FFD463"/>
<stop offset="1" stop-color="#FFC531"/>
</linearGradient>
<linearGradient id="paint4_linear_460_2148" x1="206.75" y1="224.641" x2="199.38" y2="185.509" gradientUnits="userSpaceOnUse">
<stop stop-color="#FFF68B"/>
<stop offset="1" stop-color="#FFE446"/>
</linearGradient>
<linearGradient id="paint5_linear_460_2148" x1="256.115" y1="158.231" x2="398.186" y2="158.231" gradientUnits="userSpaceOnUse">
<stop stop-color="#F4A11C"/>
<stop offset="1" stop-color="#FF671B"/>
</linearGradient>
<linearGradient id="paint6_linear_460_2148" x1="299.097" y1="231.762" x2="251.071" y2="265.849" gradientUnits="userSpaceOnUse">
<stop stop-color="#F29D1D"/>
<stop offset="1" stop-color="#F2B61D"/>
</linearGradient>
<linearGradient id="paint7_linear_460_2148" x1="198.847" y1="197.934" x2="167.889" y2="112.241" gradientUnits="userSpaceOnUse">
<stop offset="0.17" stop-color="#FFC420"/>
<stop offset="1" stop-color="#FFB820"/>
</linearGradient>
<linearGradient id="paint8_linear_460_2148" x1="299.538" y1="244.535" x2="299.538" y2="180.663" gradientUnits="userSpaceOnUse">
<stop offset="0.17" stop-color="#FFC420"/>
<stop offset="1" stop-color="#FFB820"/>
</linearGradient>
<linearGradient id="paint9_linear_460_2148" x1="214.467" y1="99.4306" x2="254.409" y2="92.7625" gradientUnits="userSpaceOnUse">
<stop stop-color="#FFF68B"/>
<stop offset="1" stop-color="#FFE446"/>
</linearGradient>
<linearGradient id="paint10_linear_460_2148" x1="286.551" y1="137.223" x2="367.589" y2="153.557" gradientUnits="userSpaceOnUse">
<stop stop-color="#FFA91F"/>
<stop offset="1" stop-color="#FF8C2E"/>
</linearGradient>
<linearGradient id="paint11_linear_460_2148" x1="252.231" y1="93.2445" x2="309.94" y2="87.2919" gradientUnits="userSpaceOnUse">
<stop stop-color="#F4A11C"/>
<stop offset="1" stop-color="#F4951C"/>
</linearGradient>
<linearGradient id="paint12_linear_460_2148" x1="159.166" y1="154.579" x2="271.592" y2="106.371" gradientUnits="userSpaceOnUse">
<stop stop-color="#FFA91F"/>
<stop offset="1" stop-color="#FF8C2E"/>
</linearGradient>
<linearGradient id="paint13_linear_460_2148" x1="246.381" y1="65.8716" x2="261.601" y2="65.8716" gradientUnits="userSpaceOnUse">
<stop stop-color="white"/>
<stop offset="1" stop-color="white"/>
</linearGradient>
<linearGradient id="paint14_linear_460_2148" x1="318.106" y1="135.042" x2="399.34" y2="135.042" gradientUnits="userSpaceOnUse">
<stop stop-color="white"/>
<stop offset="1" stop-color="white"/>
</linearGradient>
<linearGradient id="paint15_linear_460_2148" x1="-0.133903" y1="317.397" x2="254.192" y2="317.397" gradientUnits="userSpaceOnUse">
<stop stop-color="#CB7B30"/>
<stop offset="0.44" stop-color="#FFDA37"/>
<stop offset="1" stop-color="#FEFB80"/>
</linearGradient>
<linearGradient id="paint16_linear_460_2148" x1="57.8464" y1="373.572" x2="123.056" y2="398.172" gradientUnits="userSpaceOnUse">
<stop stop-color="#FFD463"/>
<stop offset="1" stop-color="#FFC531"/>
</linearGradient>
<linearGradient id="paint17_linear_460_2148" x1="86.0116" y1="378.067" x2="79.6187" y2="343.877" gradientUnits="userSpaceOnUse">
<stop stop-color="#FFF68B"/>
<stop offset="1" stop-color="#FFE446"/>
</linearGradient>
<linearGradient id="paint18_linear_460_2148" x1="129.125" y1="320.069" x2="253.164" y2="320.069" gradientUnits="userSpaceOnUse">
<stop stop-color="#F4A11C"/>
<stop offset="1" stop-color="#FF671B"/>
</linearGradient>
<linearGradient id="paint19_linear_460_2148" x1="166.663" y1="384.252" x2="124.74" y2="414.006" gradientUnits="userSpaceOnUse">
<stop stop-color="#F29D1D"/>
<stop offset="1" stop-color="#F2B61D"/>
</linearGradient>
<linearGradient id="paint20_linear_460_2148" x1="79.1345" y1="354.743" x2="52.1303" y2="279.918" gradientUnits="userSpaceOnUse">
<stop offset="0.17" stop-color="#FFC420"/>
<stop offset="1" stop-color="#FFB820"/>
</linearGradient>
<linearGradient id="paint21_linear_460_2148" x1="167.065" y1="395.424" x2="167.065" y2="339.653" gradientUnits="userSpaceOnUse">
<stop offset="0.17" stop-color="#FFC420"/>
<stop offset="1" stop-color="#FFB820"/>
</linearGradient>
<linearGradient id="paint22_linear_460_2148" x1="92.753" y1="268.706" x2="127.652" y2="262.889" gradientUnits="userSpaceOnUse">
<stop stop-color="#FFF68B"/>
<stop offset="1" stop-color="#FFE446"/>
</linearGradient>
<linearGradient id="paint23_linear_460_2148" x1="155.73" y1="301.728" x2="226.46" y2="316.003" gradientUnits="userSpaceOnUse">
<stop stop-color="#FFA91F"/>
<stop offset="1" stop-color="#FF8C2E"/>
</linearGradient>
<linearGradient id="paint24_linear_460_2148" x1="125.733" y1="263.321" x2="176.122" y2="258.129" gradientUnits="userSpaceOnUse">
<stop stop-color="#F4A11C"/>
<stop offset="1" stop-color="#F4951C"/>
</linearGradient>
<linearGradient id="paint25_linear_460_2148" x1="44.5051" y1="316.863" x2="142.66" y2="274.781" gradientUnits="userSpaceOnUse">
<stop stop-color="#FFA91F"/>
<stop offset="1" stop-color="#FF8C2E"/>
</linearGradient>
<linearGradient id="paint26_linear_460_2148" x1="120.641" y1="239.415" x2="133.942" y2="239.415" gradientUnits="userSpaceOnUse">
<stop stop-color="white"/>
<stop offset="1" stop-color="white"/>
</linearGradient>
<linearGradient id="paint27_linear_460_2148" x1="183.227" y1="299.818" x2="254.195" y2="299.818" gradientUnits="userSpaceOnUse">
<stop stop-color="white"/>
<stop offset="1" stop-color="white"/>
</linearGradient>
<linearGradient id="paint28_linear_460_2148" x1="257.537" y1="317.4" x2="511.863" y2="317.4" gradientUnits="userSpaceOnUse">
<stop stop-color="#CB7B30"/>
<stop offset="0.44" stop-color="#FFDA37"/>
<stop offset="1" stop-color="#FEFB80"/>
</linearGradient>
<linearGradient id="paint29_linear_460_2148" x1="315.514" y1="373.572" x2="380.769" y2="398.172" gradientUnits="userSpaceOnUse">
<stop stop-color="#FFD463"/>
<stop offset="1" stop-color="#FFC531"/>
</linearGradient>
<linearGradient id="paint30_linear_460_2148" x1="343.687" y1="378.067" x2="337.294" y2="343.877" gradientUnits="userSpaceOnUse">
<stop stop-color="#FFF68B"/>
<stop offset="1" stop-color="#FFE446"/>
</linearGradient>
<linearGradient id="paint31_linear_460_2148" x1="386.801" y1="320.069" x2="510.839" y2="320.069" gradientUnits="userSpaceOnUse">
<stop stop-color="#F4A11C"/>
<stop offset="1" stop-color="#FF671B"/>
</linearGradient>
<linearGradient id="paint32_linear_460_2148" x1="424.338" y1="384.252" x2="382.416" y2="414.006" gradientUnits="userSpaceOnUse">
<stop stop-color="#F29D1D"/>
<stop offset="1" stop-color="#F2B61D"/>
</linearGradient>
<linearGradient id="paint33_linear_460_2148" x1="336.808" y1="354.743" x2="309.804" y2="279.918" gradientUnits="userSpaceOnUse">
<stop offset="0.17" stop-color="#FFC420"/>
<stop offset="1" stop-color="#FFB820"/>
</linearGradient>
<linearGradient id="paint34_linear_460_2148" x1="424.741" y1="395.424" x2="424.741" y2="339.653" gradientUnits="userSpaceOnUse">
<stop offset="0.17" stop-color="#FFC420"/>
<stop offset="1" stop-color="#FFB820"/>
</linearGradient>
<linearGradient id="paint35_linear_460_2148" x1="350.429" y1="268.706" x2="385.328" y2="262.889" gradientUnits="userSpaceOnUse">
<stop stop-color="#FFF68B"/>
<stop offset="1" stop-color="#FFE446"/>
</linearGradient>
<linearGradient id="paint36_linear_460_2148" x1="413.362" y1="301.728" x2="484.136" y2="316.003" gradientUnits="userSpaceOnUse">
<stop stop-color="#FFA91F"/>
<stop offset="1" stop-color="#FF8C2E"/>
</linearGradient>
<linearGradient id="paint37_linear_460_2148" x1="383.409" y1="263.321" x2="433.798" y2="258.129" gradientUnits="userSpaceOnUse">
<stop stop-color="#F4A11C"/>
<stop offset="1" stop-color="#F4951C"/>
</linearGradient>
<linearGradient id="paint38_linear_460_2148" x1="302.173" y1="316.863" x2="400.328" y2="274.781" gradientUnits="userSpaceOnUse">
<stop stop-color="#FFA91F"/>
<stop offset="1" stop-color="#FF8C2E"/>
</linearGradient>
<linearGradient id="paint39_linear_460_2148" x1="378.32" y1="239.415" x2="391.621" y2="239.415" gradientUnits="userSpaceOnUse">
<stop stop-color="white"/>
<stop offset="1" stop-color="white"/>
</linearGradient>
<linearGradient id="paint40_linear_460_2148" x1="440.903" y1="299.818" x2="511.872" y2="299.818" gradientUnits="userSpaceOnUse">
<stop stop-color="white"/>
<stop offset="1" stop-color="white"/>
</linearGradient>
<radialGradient id="paint41_radial_460_2148" cx="0" cy="0" r="1" gradientUnits="userSpaceOnUse" gradientTransform="translate(255.844 256.064) scale(247.988 247.298)">
<stop stop-color="white"/>
<stop offset="0.17" stop-color="#F0F0F0"/>
<stop offset="0.48" stop-color="#C9C9C9"/>
<stop offset="0.92" stop-color="#8A8A8A"/>
<stop offset="1" stop-color="#7D7D7D"/>
</radialGradient>
<clipPath id="clip0_460_2148">
<rect width="512" height="512" fill="white"/>
</clipPath>
</defs>
</svg>
