<svg width="22" height="22" viewBox="0 0 22 22" fill="none" xmlns="http://www.w3.org/2000/svg">
<path d="M6.04002 20.0119C5.03023 18.8644 4.02049 17.6711 3.37788 16.2482C2.73531 14.7335 2.5517 12.9894 2.873 11.337C3.19431 9.68468 3.92866 8.1241 4.98436 6.79305C4.89258 7.94053 5.30567 9.13389 6.08594 10.006C5.62693 7.80284 6.36133 5.41608 7.83008 3.67194C9.29883 1.9278 11.3184 0.780266 13.4297 0C12.3741 1.10157 12.2364 2.84572 12.6495 4.31451C13.0625 5.78326 13.9346 7.06844 14.7149 8.39949C15.4952 9.73055 16.2296 11.1075 16.2755 12.6222C16.6886 11.8419 17.1476 11.0616 17.423 10.1895C17.6984 9.31746 17.8361 8.39949 17.6066 7.5274C18.4328 8.53719 18.8918 9.54694 19.1212 10.8321C19.3507 12.1173 19.3049 13.4484 19.1672 14.7335C18.9835 16.1564 18.6164 17.6252 17.8361 18.8185C16.9181 20.2414 15.4493 21.2511 13.8429 21.8019C10.9971 22.3068 8.19726 21.8938 6.04002 20.0119Z" fill="#C44A2F"/>
<path d="M9.52833 21.71C13.292 23.1788 17.0098 18.7266 14.9444 15.2842C14.9444 15.2383 14.8985 15.2383 14.8985 15.1924C15.0821 17.0743 14.6231 18.4512 13.751 19.2316C14.21 18.13 13.8887 16.8448 13.3379 15.7432C12.7871 14.6876 12.0068 13.7237 11.4101 12.7139C10.8134 11.6582 10.3545 10.4648 10.6299 9.27148C9.52829 10.0977 8.74802 11.3369 8.42672 12.668C8.10541 13.999 8.28902 15.4678 8.88572 16.7071C8.19724 16.2022 7.69237 15.376 7.64645 14.504C6.91206 15.376 6.4531 16.5235 6.49897 17.671C6.49901 19.461 7.92185 21.0675 9.52833 21.71Z" fill="#FF937B"/>
</svg>
