<svg width="29" height="28" viewBox="0 0 29 28" fill="none" xmlns="http://www.w3.org/2000/svg">
<path d="M16 27.5V12H13V27.5H16Z" fill="#FFA031"/>
<path d="M22.5 27.5C23 27.5 24 27.2 24 26V12H21H16V27.5H22.5Z" fill="#FF1422"/>
<path d="M5 12V26C5 26.3333 5.3 27.1 6.5 27.5H13V12H7.5H5Z" fill="#FF1422"/>
<path d="M24 12L28 5.5H25L21 12H24Z" fill="#FA305F"/>
<path d="M3.5 5.5H1L5 12H7.5L3.5 5.5Z" fill="#FA305F"/>
<path d="M6.5 27.5L6.34189 27.9743L6.41886 28H6.5V27.5ZM1 5.5V5H0.105218L0.574171 5.76205L1 5.5ZM3.5 5.5L3.92583 5.23795L3.7794 5H3.5V5.5ZM28 5.5L28.4258 5.76205L28.8948 5H28V5.5ZM25 5.5V5H24.7206L24.5742 5.23795L25 5.5ZM17.5385 10.3077C17.4323 10.5626 17.5528 10.8553 17.8077 10.9615C18.0626 11.0677 18.3553 10.9472 18.4615 10.6923L17.5385 10.3077ZM25.1085 3.98809C25.378 3.92819 25.548 3.6611 25.4881 3.39153C25.4282 3.12197 25.1611 2.952 24.8915 3.01191L25.1085 3.98809ZM10.5031 11.0552C10.5336 11.3297 10.7808 11.5274 11.0552 11.4969C11.3297 11.4664 11.5274 11.2192 11.4969 10.9448L10.5031 11.0552ZM4.20953 3.04602C3.9588 2.9303 3.66174 3.03974 3.54602 3.29047C3.4303 3.5412 3.53974 3.83826 3.79047 3.95398L4.20953 3.04602ZM4.5 12V26H5.5V12H4.5ZM4.5 26C4.5 26.5856 4.97522 27.5188 6.34189 27.9743L6.65811 27.0257C5.62478 26.6812 5.5 26.0811 5.5 26H4.5ZM22.5 28C22.83 28 23.3139 27.9051 23.7297 27.6058C24.1709 27.2881 24.5 26.763 24.5 26H23.5C23.5 26.437 23.3291 26.6619 23.1453 26.7942C22.9361 26.9449 22.67 27 22.5 27V28ZM24.5 26C24.5 25.9977 24.5 25.9953 24.5 25.9929C24.5 25.9905 24.5 25.9881 24.5 25.9856C24.5 25.9831 24.5 25.9807 24.5 25.9781C24.5 25.9756 24.5 25.9731 24.5 25.9705C24.5 25.968 24.5 25.9654 24.5 25.9627C24.5 25.9601 24.5 25.9575 24.5 25.9548C24.5 25.9521 24.5 25.9494 24.5 25.9466C24.5 25.9439 24.5 25.9411 24.5 25.9384C24.5 25.9356 24.5 25.9327 24.5 25.9299C24.5 25.927 24.5 25.9242 24.5 25.9213C24.5 25.9184 24.5 25.9154 24.5 25.9125C24.5 25.9095 24.5 25.9065 24.5 25.9035C24.5 25.9005 24.5 25.8975 24.5 25.8944C24.5 25.8913 24.5 25.8883 24.5 25.8851C24.5 25.882 24.5 25.8789 24.5 25.8757C24.5 25.8725 24.5 25.8693 24.5 25.8661C24.5 25.8629 24.5 25.8596 24.5 25.8563C24.5 25.853 24.5 25.8497 24.5 25.8464C24.5 25.8431 24.5 25.8397 24.5 25.8363C24.5 25.8329 24.5 25.8295 24.5 25.8261C24.5 25.8226 24.5 25.8191 24.5 25.8156C24.5 25.8122 24.5 25.8086 24.5 25.8051C24.5 25.8015 24.5 25.798 24.5 25.7944C24.5 25.7908 24.5 25.7871 24.5 25.7835C24.5 25.7798 24.5 25.7761 24.5 25.7724C24.5 25.7687 24.5 25.765 24.5 25.7612C24.5 25.7575 24.5 25.7537 24.5 25.7499C24.5 25.7461 24.5 25.7422 24.5 25.7384C24.5 25.7345 24.5 25.7306 24.5 25.7267C24.5 25.7228 24.5 25.7189 24.5 25.7149C24.5 25.7109 24.5 25.7069 24.5 25.7029C24.5 25.6989 24.5 25.6949 24.5 25.6908C24.5 25.6867 24.5 25.6826 24.5 25.6785C24.5 25.6744 24.5 25.6703 24.5 25.6661C24.5 25.6619 24.5 25.6577 24.5 25.6535C24.5 25.6493 24.5 25.645 24.5 25.6408C24.5 25.6365 24.5 25.6322 24.5 25.6279C24.5 25.6236 24.5 25.6192 24.5 25.6148C24.5 25.6105 24.5 25.6061 24.5 25.6017C24.5 25.5972 24.5 25.5928 24.5 25.5883C24.5 25.5838 24.5 25.5793 24.5 25.5748C24.5 25.5703 24.5 25.5658 24.5 25.5612C24.5 25.5566 24.5 25.552 24.5 25.5474C24.5 25.5428 24.5 25.5382 24.5 25.5335C24.5 25.5288 24.5 25.5241 24.5 25.5194C24.5 25.5147 24.5 25.51 24.5 25.5052C24.5 25.5004 24.5 25.4956 24.5 25.4908C24.5 25.486 24.5 25.4812 24.5 25.4763C24.5 25.4714 24.5 25.4666 24.5 25.4617C24.5 25.4567 24.5 25.4518 24.5 25.4469C24.5 25.4419 24.5 25.4369 24.5 25.4319C24.5 25.4269 24.5 25.4219 24.5 25.4168C24.5 25.4118 24.5 25.4067 24.5 25.4016C24.5 25.3965 24.5 25.3914 24.5 25.3862C24.5 25.3811 24.5 25.3759 24.5 25.3707C24.5 25.3655 24.5 25.3603 24.5 25.355C24.5 25.3498 24.5 25.3445 24.5 25.3393C24.5 25.334 24.5 25.3287 24.5 25.3233C24.5 25.318 24.5 25.3126 24.5 25.3072C24.5 25.3019 24.5 25.2965 24.5 25.291C24.5 25.2856 24.5 25.2802 24.5 25.2747C24.5 25.2692 24.5 25.2637 24.5 25.2582C24.5 25.2527 24.5 25.2471 24.5 25.2416C24.5 25.236 24.5 25.2304 24.5 25.2248C24.5 25.2192 24.5 25.2136 24.5 25.2079C24.5 25.2023 24.5 25.1966 24.5 25.1909C24.5 25.1852 24.5 25.1794 24.5 25.1737C24.5 25.168 24.5 25.1622 24.5 25.1564C24.5 25.1506 24.5 25.1448 24.5 25.139C24.5 25.1331 24.5 25.1273 24.5 25.1214C24.5 25.1155 24.5 25.1096 24.5 25.1037C24.5 25.0978 24.5 25.0918 24.5 25.0859C24.5 25.0799 24.5 25.0739 24.5 25.0679C24.5 25.0619 24.5 25.0558 24.5 25.0498C24.5 25.0437 24.5 25.0377 24.5 25.0316C24.5 25.0255 24.5 25.0193 24.5 25.0132C24.5 25.0071 24.5 25.0009 24.5 24.9947C24.5 24.9885 24.5 24.9823 24.5 24.9761C24.5 24.9699 24.5 24.9636 24.5 24.9573C24.5 24.9511 24.5 24.9448 24.5 24.9385C24.5 24.9321 24.5 24.9258 24.5 24.9195C24.5 24.9131 24.5 24.9067 24.5 24.9003C24.5 24.8939 24.5 24.8875 24.5 24.8811C24.5 24.8746 24.5 24.8682 24.5 24.8617C24.5 24.8552 24.5 24.8487 24.5 24.8422C24.5 24.8357 24.5 24.8291 24.5 24.8225C24.5 24.816 24.5 24.8094 24.5 24.8028C24.5 24.7962 24.5 24.7896 24.5 24.7829C24.5 24.7763 24.5 24.7696 24.5 24.7629C24.5 24.7562 24.5 24.7495 24.5 24.7428C24.5 24.736 24.5 24.7293 24.5 24.7225C24.5 24.7158 24.5 24.709 24.5 24.7022C24.5 24.6953 24.5 24.6885 24.5 24.6817C24.5 24.6748 24.5 24.6679 24.5 24.661C24.5 24.6542 24.5 24.6472 24.5 24.6403C24.5 24.6334 24.5 24.6264 24.5 24.6195C24.5 24.6125 24.5 24.6055 24.5 24.5985C24.5 24.5915 24.5 24.5844 24.5 24.5774C24.5 24.5703 24.5 24.5633 24.5 24.5562C24.5 24.5491 24.5 24.542 24.5 24.5349C24.5 24.5277 24.5 24.5206 24.5 24.5134C24.5 24.5062 24.5 24.4991 24.5 24.4919C24.5 24.4846 24.5 24.4774 24.5 24.4702C24.5 24.4629 24.5 24.4557 24.5 24.4484C24.5 24.4411 24.5 24.4338 24.5 24.4265C24.5 24.4192 24.5 24.4118 24.5 24.4045C24.5 24.3971 24.5 24.3897 24.5 24.3823C24.5 24.3749 24.5 24.3675 24.5 24.3601C24.5 24.3526 24.5 24.3452 24.5 24.3377C24.5 24.3303 24.5 24.3228 24.5 24.3153C24.5 24.3077 24.5 24.3002 24.5 24.2927C24.5 24.2851 24.5 24.2776 24.5 24.27C24.5 24.2624 24.5 24.2548 24.5 24.2472C24.5 24.2395 24.5 24.2319 24.5 24.2243C24.5 24.2166 24.5 24.2089 24.5 24.2012C24.5 24.1935 24.5 24.1858 24.5 24.1781C24.5 24.1704 24.5 24.1626 24.5 24.1549C24.5 24.1471 24.5 24.1393 24.5 24.1315C24.5 24.1237 24.5 24.1159 24.5 24.108C24.5 24.1002 24.5 24.0924 24.5 24.0845C24.5 24.0766 24.5 24.0687 24.5 24.0608C24.5 24.0529 24.5 24.045 24.5 24.037C24.5 24.0291 24.5 24.0211 24.5 24.0132C24.5 24.0052 24.5 23.9972 24.5 23.9892C24.5 23.9812 24.5 23.9731 24.5 23.9651C24.5 23.957 24.5 23.949 24.5 23.9409C24.5 23.9328 24.5 23.9247 24.5 23.9166C24.5 23.9085 24.5 23.9003 24.5 23.8922C24.5 23.884 24.5 23.8759 24.5 23.8677C24.5 23.8595 24.5 23.8513 24.5 23.8431C24.5 23.8349 24.5 23.8266 24.5 23.8184C24.5 23.8101 24.5 23.8019 24.5 23.7936C24.5 23.7853 24.5 23.777 24.5 23.7687C24.5 23.7604 24.5 23.752 24.5 23.7437C24.5 23.7353 24.5 23.7269 24.5 23.7186C24.5 23.7102 24.5 23.7018 24.5 23.6934C24.5 23.6849 24.5 23.6765 24.5 23.6681C24.5 23.6596 24.5 23.6511 24.5 23.6427C24.5 23.6342 24.5 23.6257 24.5 23.6172C24.5 23.6087 24.5 23.6001 24.5 23.5916C24.5 23.583 24.5 23.5745 24.5 23.5659C24.5 23.5573 24.5 23.5487 24.5 23.5401C24.5 23.5315 24.5 23.5229 24.5 23.5142C24.5 23.5056 24.5 23.497 24.5 23.4883C24.5 23.4796 24.5 23.4709 24.5 23.4622C24.5 23.4535 24.5 23.4448 24.5 23.4361C24.5 23.4273 24.5 23.4186 24.5 23.4098C24.5 23.401 24.5 23.3923 24.5 23.3835C24.5 23.3747 24.5 23.3659 24.5 23.357C24.5 23.3482 24.5 23.3394 24.5 23.3305C24.5 23.3217 24.5 23.3128 24.5 23.3039C24.5 23.295 24.5 23.2861 24.5 23.2772C24.5 23.2683 24.5 23.2594 24.5 23.2504C24.5 23.2415 24.5 23.2325 24.5 23.2235C24.5 23.2146 24.5 23.2056 24.5 23.1966C24.5 23.1876 24.5 23.1785 24.5 23.1695C24.5 23.1605 24.5 23.1514 24.5 23.1424C24.5 23.1333 24.5 23.1242 24.5 23.1151C24.5 23.1061 24.5 23.0969 24.5 23.0878C24.5 23.0787 24.5 23.0696 24.5 23.0604C24.5 23.0513 24.5 23.0421 24.5 23.0329C24.5 23.0238 24.5 23.0146 24.5 23.0054C24.5 22.9962 24.5 22.9869 24.5 22.9777C24.5 22.9685 24.5 22.9592 24.5 22.95C24.5 22.9407 24.5 22.9314 24.5 22.9222C24.5 22.9129 24.5 22.9036 24.5 22.8943C24.5 22.8849 24.5 22.8756 24.5 22.8663C24.5 22.8569 24.5 22.8476 24.5 22.8382C24.5 22.8288 24.5 22.8194 24.5 22.8101C24.5 22.8007 24.5 22.7912 24.5 22.7818C24.5 22.7724 24.5 22.763 24.5 22.7535C24.5 22.7441 24.5 22.7346 24.5 22.7251C24.5 22.7157 24.5 22.7062 24.5 22.6967C24.5 22.6872 24.5 22.6777 24.5 22.6681C24.5 22.6586 24.5 22.6491 24.5 22.6395C24.5 22.63 24.5 22.6204 24.5 22.6108C24.5 22.6012 24.5 22.5916 24.5 22.582C24.5 22.5724 24.5 22.5628 24.5 22.5532C24.5 22.5436 24.5 22.5339 24.5 22.5243C24.5 22.5146 24.5 22.5049 24.5 22.4953C24.5 22.4856 24.5 22.4759 24.5 22.4662C24.5 22.4565 24.5 22.4468 24.5 22.437C24.5 22.4273 24.5 22.4176 24.5 22.4078C24.5 22.3981 24.5 22.3883 24.5 22.3785C24.5 22.3687 24.5 22.3589 24.5 22.3491C24.5 22.3393 24.5 22.3295 24.5 22.3197C24.5 22.3099 24.5 22.3 24.5 22.2902C24.5 22.2804 24.5 22.2705 24.5 22.2606C24.5 22.2507 24.5 22.2409 24.5 22.231C24.5 22.2211 24.5 22.2112 24.5 22.2012C24.5 22.1913 24.5 22.1814 24.5 22.1715C24.5 22.1615 24.5 22.1516 24.5 22.1416C24.5 22.1316 24.5 22.1217 24.5 22.1117C24.5 22.1017 24.5 22.0917 24.5 22.0817C24.5 22.0717 24.5 22.0617 24.5 22.0516C24.5 22.0416 24.5 22.0315 24.5 22.0215C24.5 22.0114 24.5 22.0014 24.5 21.9913C24.5 21.9812 24.5 21.9711 24.5 21.961C24.5 21.9509 24.5 21.9408 24.5 21.9307C24.5 21.9206 24.5 21.9105 24.5 21.9003C24.5 21.8902 24.5 21.88 24.5 21.8699C24.5 21.8597 24.5 21.8496 24.5 21.8394C24.5 21.8292 24.5 21.819 24.5 21.8088C24.5 21.7986 24.5 21.7884 24.5 21.7782C24.5 21.7679 24.5 21.7577 24.5 21.7475C24.5 21.7372 24.5 21.727 24.5 21.7167C24.5 21.7064 24.5 21.6962 24.5 21.6859C24.5 21.6756 24.5 21.6653 24.5 21.655C24.5 21.6447 24.5 21.6344 24.5 21.624C24.5 21.6137 24.5 21.6034 24.5 21.593C24.5 21.5827 24.5 21.5724 24.5 21.562C24.5 21.5516 24.5 21.5413 24.5 21.5309C24.5 21.5205 24.5 21.5101 24.5 21.4997C24.5 21.4893 24.5 21.4789 24.5 21.4685C24.5 21.458 24.5 21.4476 24.5 21.4372C24.5 21.4267 24.5 21.4163 24.5 21.4058C24.5 21.3954 24.5 21.3849 24.5 21.3744C24.5 21.364 24.5 21.3535 24.5 21.343C24.5 21.3325 24.5 21.322 24.5 21.3115C24.5 21.301 24.5 21.2904 24.5 21.2799C24.5 21.2694 24.5 21.2589 24.5 21.2483C24.5 21.2378 24.5 21.2272 24.5 21.2166C24.5 21.2061 24.5 21.1955 24.5 21.1849C24.5 21.1743 24.5 21.1637 24.5 21.1531C24.5 21.1426 24.5 21.1319 24.5 21.1213C24.5 21.1107 24.5 21.1001 24.5 21.0895C24.5 21.0788 24.5 21.0682 24.5 21.0575C24.5 21.0469 24.5 21.0362 24.5 21.0256C24.5 21.0149 24.5 21.0042 24.5 20.9935C24.5 20.9829 24.5 20.9722 24.5 20.9615C24.5 20.9508 24.5 20.9401 24.5 20.9294C24.5 20.9186 24.5 20.9079 24.5 20.8972C24.5 20.8865 24.5 20.8757 24.5 20.865C24.5 20.8542 24.5 20.8435 24.5 20.8327C24.5 20.822 24.5 20.8112 24.5 20.8004C24.5 20.7897 24.5 20.7789 24.5 20.7681C24.5 20.7573 24.5 20.7465 24.5 20.7357C24.5 20.7249 24.5 20.7141 24.5 20.7033C24.5 20.6924 24.5 20.6816 24.5 20.6708C24.5 20.6599 24.5 20.6491 24.5 20.6383C24.5 20.6274 24.5 20.6166 24.5 20.6057C24.5 20.5948 24.5 20.584 24.5 20.5731C24.5 20.5622 24.5 20.5513 24.5 20.5404C24.5 20.5296 24.5 20.5187 24.5 20.5078C24.5 20.4969 24.5 20.4859 24.5 20.475C24.5 20.4641 24.5 20.4532 24.5 20.4423C24.5 20.4313 24.5 20.4204 24.5 20.4094C24.5 20.3985 24.5 20.3876 24.5 20.3766C24.5 20.3656 24.5 20.3547 24.5 20.3437C24.5 20.3328 24.5 20.3218 24.5 20.3108C24.5 20.2998 24.5 20.2888 24.5 20.2778C24.5 20.2668 24.5 20.2558 24.5 20.2448C24.5 20.2338 24.5 20.2228 24.5 20.2118C24.5 20.2008 24.5 20.1898 24.5 20.1787C24.5 20.1677 24.5 20.1567 24.5 20.1456C24.5 20.1346 24.5 20.1236 24.5 20.1125C24.5 20.1014 24.5 20.0904 24.5 20.0793C24.5 20.0683 24.5 20.0572 24.5 20.0461C24.5 20.0351 24.5 20.024 24.5 20.0129C24.5 20.0018 24.5 19.9907 24.5 19.9796C24.5 19.9685 24.5 19.9574 24.5 19.9463C24.5 19.9352 24.5 19.9241 24.5 19.913C24.5 19.9019 24.5 19.8907 24.5 19.8796C24.5 19.8685 24.5 19.8574 24.5 19.8462C24.5 19.8351 24.5 19.8239 24.5 19.8128C24.5 19.8017 24.5 19.7905 24.5 19.7793C24.5 19.7682 24.5 19.757 24.5 19.7459C24.5 19.7347 24.5 19.7235 24.5 19.7124C24.5 19.7012 24.5 19.69 24.5 19.6788C24.5 19.6676 24.5 19.6564 24.5 19.6453C24.5 19.6341 24.5 19.6229 24.5 19.6117C24.5 19.6005 24.5 19.5893 24.5 19.578C24.5 19.5668 24.5 19.5556 24.5 19.5444C24.5 19.5332 24.5 19.522 24.5 19.5107C24.5 19.4995 24.5 19.4883 24.5 19.477C24.5 19.4658 24.5 19.4546 24.5 19.4433C24.5 19.4321 24.5 19.4208 24.5 19.4096C24.5 19.3983 24.5 19.3871 24.5 19.3758C24.5 19.3646 24.5 19.3533 24.5 19.342C24.5 19.3308 24.5 19.3195 24.5 19.3082C24.5 19.297 24.5 19.2857 24.5 19.2744C24.5 19.2631 24.5 19.2519 24.5 19.2406C24.5 19.2293 24.5 19.218 24.5 19.2067C24.5 19.1954 24.5 19.1841 24.5 19.1728C24.5 19.1615 24.5 19.1502 24.5 19.1389C24.5 19.1276 24.5 19.1163 24.5 19.105C24.5 19.0937 24.5 19.0824 24.5 19.071C24.5 19.0597 24.5 19.0484 24.5 19.0371C24.5 19.0258 24.5 19.0144 24.5 19.0031C24.5 18.9918 24.5 18.9804 24.5 18.9691C24.5 18.9578 24.5 18.9464 24.5 18.9351C24.5 18.9238 24.5 18.9124 24.5 18.9011C24.5 18.8897 24.5 18.8784 24.5 18.867C24.5 18.8557 24.5 18.8443 24.5 18.833C24.5 18.8216 24.5 18.8103 24.5 18.7989C24.5 18.7876 24.5 18.7762 24.5 18.7648C24.5 18.7535 24.5 18.7421 24.5 18.7307C24.5 18.7194 24.5 18.708 24.5 18.6966C24.5 18.6853 24.5 18.6739 24.5 18.6625C24.5 18.6512 24.5 18.6398 24.5 18.6284C24.5 18.617 24.5 18.6056 24.5 18.5943C24.5 18.5829 24.5 18.5715 24.5 18.5601C24.5 18.5487 24.5 18.5373 24.5 18.526C24.5 18.5146 24.5 18.5032 24.5 18.4918C24.5 18.4804 24.5 18.469 24.5 18.4576C24.5 18.4462 24.5 18.4348 24.5 18.4234C24.5 18.412 24.5 18.4006 24.5 18.3892C24.5 18.3778 24.5 18.3664 24.5 18.355C24.5 18.3436 24.5 18.3322 24.5 18.3208C24.5 18.3094 24.5 18.298 24.5 18.2866C24.5 18.2752 24.5 18.2638 24.5 18.2524C24.5 18.241 24.5 18.2296 24.5 18.2182C24.5 18.2068 24.5 18.1954 24.5 18.184C24.5 18.1726 24.5 18.1612 24.5 18.1497C24.5 18.1383 24.5 18.1269 24.5 18.1155C24.5 18.1041 24.5 18.0927 24.5 18.0813C24.5 18.0699 24.5 18.0585 24.5 18.047C24.5 18.0356 24.5 18.0242 24.5 18.0128C24.5 18.0014 24.5 17.99 24.5 17.9786C24.5 17.9672 24.5 17.9557 24.5 17.9443C24.5 17.9329 24.5 17.9215 24.5 17.9101C24.5 17.8987 24.5 17.8873 24.5 17.8759C24.5 17.8644 24.5 17.853 24.5 17.8416C24.5 17.8302 24.5 17.8188 24.5 17.8074C24.5 17.796 24.5 17.7846 24.5 17.7732C24.5 17.7617 24.5 17.7503 24.5 17.7389C24.5 17.7275 24.5 17.7161 24.5 17.7047C24.5 17.6933 24.5 17.6819 24.5 17.6705C24.5 17.6591 24.5 17.6477 24.5 17.6363C24.5 17.6249 24.5 17.6135 24.5 17.6021C24.5 17.5906 24.5 17.5792 24.5 17.5678C24.5 17.5564 24.5 17.545 24.5 17.5336C24.5 17.5222 24.5 17.5108 24.5 17.4994C24.5 17.4881 24.5 17.4767 24.5 17.4653C24.5 17.4539 24.5 17.4425 24.5 17.4311C24.5 17.4197 24.5 17.4083 24.5 17.3969C24.5 17.3855 24.5 17.3741 24.5 17.3627C24.5 17.3514 24.5 17.34 24.5 17.3286C24.5 17.3172 24.5 17.3058 24.5 17.2944C24.5 17.2831 24.5 17.2717 24.5 17.2603C24.5 17.2489 24.5 17.2376 24.5 17.2262C24.5 17.2148 24.5 17.2034 24.5 17.1921C24.5 17.1807 24.5 17.1693 24.5 17.158C24.5 17.1466 24.5 17.1352 24.5 17.1239C24.5 17.1125 24.5 17.1012 24.5 17.0898C24.5 17.0785 24.5 17.0671 24.5 17.0557C24.5 17.0444 24.5 17.033 24.5 17.0217C24.5 17.0104 24.5 16.999 24.5 16.9877C24.5 16.9763 24.5 16.965 24.5 16.9536C24.5 16.9423 24.5 16.931 24.5 16.9196C24.5 16.9083 24.5 16.897 24.5 16.8857C24.5 16.8743 24.5 16.863 24.5 16.8517C24.5 16.8404 24.5 16.829 24.5 16.8177C24.5 16.8064 24.5 16.7951 24.5 16.7838C24.5 16.7725 24.5 16.7612 24.5 16.7499C24.5 16.7386 24.5 16.7273 24.5 16.716C24.5 16.7047 24.5 16.6934 24.5 16.6821C24.5 16.6708 24.5 16.6595 24.5 16.6482C24.5 16.637 24.5 16.6257 24.5 16.6144C24.5 16.6031 24.5 16.5918 24.5 16.5806C24.5 16.5693 24.5 16.558 24.5 16.5468C24.5 16.5355 24.5 16.5243 24.5 16.513C24.5 16.5018 24.5 16.4905 24.5 16.4793C24.5 16.468 24.5 16.4568 24.5 16.4455C24.5 16.4343 24.5 16.423 24.5 16.4118C24.5 16.4006 24.5 16.3894 24.5 16.3781C24.5 16.3669 24.5 16.3557 24.5 16.3445C24.5 16.3333 24.5 16.322 24.5 16.3108C24.5 16.2996 24.5 16.2884 24.5 16.2772C24.5 16.266 24.5 16.2548 24.5 16.2437C24.5 16.2325 24.5 16.2213 24.5 16.2101C24.5 16.1989 24.5 16.1877 24.5 16.1766C24.5 16.1654 24.5 16.1542 24.5 16.1431C24.5 16.1319 24.5 16.1208 24.5 16.1096C24.5 16.0984 24.5 16.0873 24.5 16.0762C24.5 16.065 24.5 16.0539 24.5 16.0427C24.5 16.0316 24.5 16.0205 24.5 16.0094C24.5 15.9982 24.5 15.9871 24.5 15.976C24.5 15.9649 24.5 15.9538 24.5 15.9427C24.5 15.9316 24.5 15.9205 24.5 15.9094C24.5 15.8983 24.5 15.8872 24.5 15.8761C24.5 15.8651 24.5 15.854 24.5 15.8429C24.5 15.8318 24.5 15.8208 24.5 15.8097C24.5 15.7987 24.5 15.7876 24.5 15.7766C24.5 15.7655 24.5 15.7545 24.5 15.7434C24.5 15.7324 24.5 15.7214 24.5 15.7103C24.5 15.6993 24.5 15.6883 24.5 15.6773C24.5 15.6663 24.5 15.6553 24.5 15.6443C24.5 15.6333 24.5 15.6223 24.5 15.6113C24.5 15.6003 24.5 15.5893 24.5 15.5783C24.5 15.5674 24.5 15.5564 24.5 15.5454C24.5 15.5345 24.5 15.5235 24.5 15.5126C24.5 15.5016 24.5 15.4907 24.5 15.4797C24.5 15.4688 24.5 15.4579 24.5 15.4469C24.5 15.436 24.5 15.4251 24.5 15.4142C24.5 15.4033 24.5 15.3924 24.5 15.3815C24.5 15.3706 24.5 15.3597 24.5 15.3488C24.5 15.3379 24.5 15.327 24.5 15.3162C24.5 15.3053 24.5 15.2944 24.5 15.2836C24.5 15.2727 24.5 15.2619 24.5 15.251C24.5 15.2402 24.5 15.2293 24.5 15.2185C24.5 15.2077 24.5 15.1969 24.5 15.1861C24.5 15.1752 24.5 15.1644 24.5 15.1536C24.5 15.1428 24.5 15.132 24.5 15.1213C24.5 15.1105 24.5 15.0997 24.5 15.0889C24.5 15.0782 24.5 15.0674 24.5 15.0566C24.5 15.0459 24.5 15.0351 24.5 15.0244C24.5 15.0137 24.5 15.0029 24.5 14.9922C24.5 14.9815 24.5 14.9708 24.5 14.9601C24.5 14.9494 24.5 14.9387 24.5 14.928C24.5 14.9173 24.5 14.9066 24.5 14.8959C24.5 14.8852 24.5 14.8746 24.5 14.8639C24.5 14.8533 24.5 14.8426 24.5 14.832C24.5 14.8213 24.5 14.8107 24.5 14.8001C24.5 14.7894 24.5 14.7788 24.5 14.7682C24.5 14.7576 24.5 14.747 24.5 14.7364C24.5 14.7258 24.5 14.7152 24.5 14.7046C24.5 14.6941 24.5 14.6835 24.5 14.6729C24.5 14.6624 24.5 14.6518 24.5 14.6413C24.5 14.6308 24.5 14.6202 24.5 14.6097C24.5 14.5992 24.5 14.5887 24.5 14.5782C24.5 14.5677 24.5 14.5572 24.5 14.5467C24.5 14.5362 24.5 14.5257 24.5 14.5152C24.5 14.5048 24.5 14.4943 24.5 14.4839C24.5 14.4734 24.5 14.463 24.5 14.4525C24.5 14.4421 24.5 14.4317 24.5 14.4213C24.5 14.4109 24.5 14.4005 24.5 14.3901C24.5 14.3797 24.5 14.3693 24.5 14.3589C24.5 14.3485 24.5 14.3382 24.5 14.3278C24.5 14.3175 24.5 14.3071 24.5 14.2968C24.5 14.2864 24.5 14.2761 24.5 14.2658C24.5 14.2555 24.5 14.2452 24.5 14.2349C24.5 14.2246 24.5 14.2143 24.5 14.204C24.5 14.1937 24.5 14.1835 24.5 14.1732C24.5 14.163 24.5 14.1527 24.5 14.1425C24.5 14.1322 24.5 14.122 24.5 14.1118C24.5 14.1016 24.5 14.0914 24.5 14.0812C24.5 14.071 24.5 14.0608 24.5 14.0506C24.5 14.0405 24.5 14.0303 24.5 14.0201C24.5 14.01 24.5 13.9998 24.5 13.9897C24.5 13.9796 24.5 13.9695 24.5 13.9593C24.5 13.9492 24.5 13.9391 24.5 13.929C24.5 13.919 24.5 13.9089 24.5 13.8988C24.5 13.8887 24.5 13.8787 24.5 13.8686C24.5 13.8586 24.5 13.8486 24.5 13.8385C24.5 13.8285 24.5 13.8185 24.5 13.8085C24.5 13.7985 24.5 13.7885 24.5 13.7785C24.5 13.7686 24.5 13.7586 24.5 13.7486C24.5 13.7387 24.5 13.7287 24.5 13.7188C24.5 13.7089 24.5 13.6989 24.5 13.689C24.5 13.6791 24.5 13.6692 24.5 13.6593C24.5 13.6495 24.5 13.6396 24.5 13.6297C24.5 13.6199 24.5 13.61 24.5 13.6002C24.5 13.5903 24.5 13.5805 24.5 13.5707C24.5 13.5609 24.5 13.5511 24.5 13.5413C24.5 13.5315 24.5 13.5217 24.5 13.5119C24.5 13.5022 24.5 13.4924 24.5 13.4827C24.5 13.4729 24.5 13.4632 24.5 13.4535C24.5 13.4437 24.5 13.434 24.5 13.4243C24.5 13.4146 24.5 13.405 24.5 13.3953C24.5 13.3856 24.5 13.376 24.5 13.3663C24.5 13.3567 24.5 13.347 24.5 13.3374C24.5 13.3278 24.5 13.3182 24.5 13.3086C24.5 13.299 24.5 13.2894 24.5 13.2798C24.5 13.2703 24.5 13.2607 24.5 13.2512C24.5 13.2416 24.5 13.2321 24.5 13.2226C24.5 13.2131 24.5 13.2036 24.5 13.1941C24.5 13.1846 24.5 13.1751 24.5 13.1656C24.5 13.1562 24.5 13.1467 24.5 13.1373C24.5 13.1278 24.5 13.1184 24.5 13.109C24.5 13.0996 24.5 13.0902 24.5 13.0808C24.5 13.0714 24.5 13.062 24.5 13.0527C24.5 13.0433 24.5 13.034 24.5 13.0246C24.5 13.0153 24.5 13.006 24.5 12.9967C24.5 12.9874 24.5 12.9781 24.5 12.9688C24.5 12.9595 24.5 12.9503 24.5 12.941C24.5 12.9318 24.5 12.9225 24.5 12.9133C24.5 12.9041 24.5 12.8949 24.5 12.8857C24.5 12.8765 24.5 12.8673 24.5 12.8581C24.5 12.849 24.5 12.8398 24.5 12.8307C24.5 12.8216 24.5 12.8124 24.5 12.8033C24.5 12.7942 24.5 12.7851 24.5 12.776C24.5 12.767 24.5 12.7579 24.5 12.7488C24.5 12.7398 24.5 12.7307 24.5 12.7217C24.5 12.7127 24.5 12.7037 24.5 12.6947C24.5 12.6857 24.5 12.6767 24.5 12.6678C24.5 12.6588 24.5 12.6498 24.5 12.6409C24.5 12.632 24.5 12.6231 24.5 12.6142C24.5 12.6053 24.5 12.5964 24.5 12.5875C24.5 12.5786 24.5 12.5698 24.5 12.5609C24.5 12.5521 24.5 12.5432 24.5 12.5344C24.5 12.5256 24.5 12.5168 24.5 12.508C24.5 12.4992 24.5 12.4905 24.5 12.4817C24.5 12.473 24.5 12.4642 24.5 12.4555C24.5 12.4468 24.5 12.4381 24.5 12.4294C24.5 12.4207 24.5 12.412 24.5 12.4033C24.5 12.3947 24.5 12.386 24.5 12.3774C24.5 12.3688 24.5 12.3602 24.5 12.3516C24.5 12.343 24.5 12.3344 24.5 12.3258C24.5 12.3173 24.5 12.3087 24.5 12.3002C24.5 12.2916 24.5 12.2831 24.5 12.2746C24.5 12.2661 24.5 12.2576 24.5 12.2492C24.5 12.2407 24.5 12.2322 24.5 12.2238C24.5 12.2154 24.5 12.2069 24.5 12.1985C24.5 12.1901 24.5 12.1817 24.5 12.1734C24.5 12.165 24.5 12.1566 24.5 12.1483C24.5 12.14 24.5 12.1316 24.5 12.1233C24.5 12.115 24.5 12.1067 24.5 12.0985C24.5 12.0902 24.5 12.0819 24.5 12.0737C24.5 12.0655 24.5 12.0572 24.5 12.049C24.5 12.0408 24.5 12.0326 24.5 12.0245C24.5 12.0163 24.5 12.0081 24.5 12H23.5C23.5 12.0081 23.5 12.0163 23.5 12.0245C23.5 12.0326 23.5 12.0408 23.5 12.049C23.5 12.0572 23.5 12.0655 23.5 12.0737C23.5 12.0819 23.5 12.0902 23.5 12.0985C23.5 12.1067 23.5 12.115 23.5 12.1233C23.5 12.1316 23.5 12.14 23.5 12.1483C23.5 12.1566 23.5 12.165 23.5 12.1734C23.5 12.1817 23.5 12.1901 23.5 12.1985C23.5 12.2069 23.5 12.2154 23.5 12.2238C23.5 12.2322 23.5 12.2407 23.5 12.2492C23.5 12.2576 23.5 12.2661 23.5 12.2746C23.5 12.2831 23.5 12.2916 23.5 12.3002C23.5 12.3087 23.5 12.3173 23.5 12.3258C23.5 12.3344 23.5 12.343 23.5 12.3516C23.5 12.3602 23.5 12.3688 23.5 12.3774C23.5 12.386 23.5 12.3947 23.5 12.4033C23.5 12.412 23.5 12.4207 23.5 12.4294C23.5 12.4381 23.5 12.4468 23.5 12.4555C23.5 12.4642 23.5 12.473 23.5 12.4817C23.5 12.4905 23.5 12.4992 23.5 12.508C23.5 12.5168 23.5 12.5256 23.5 12.5344C23.5 12.5432 23.5 12.5521 23.5 12.5609C23.5 12.5698 23.5 12.5786 23.5 12.5875C23.5 12.5964 23.5 12.6053 23.5 12.6142C23.5 12.6231 23.5 12.632 23.5 12.6409C23.5 12.6498 23.5 12.6588 23.5 12.6678C23.5 12.6767 23.5 12.6857 23.5 12.6947C23.5 12.7037 23.5 12.7127 23.5 12.7217C23.5 12.7307 23.5 12.7398 23.5 12.7488C23.5 12.7579 23.5 12.767 23.5 12.776C23.5 12.7851 23.5 12.7942 23.5 12.8033C23.5 12.8124 23.5 12.8216 23.5 12.8307C23.5 12.8398 23.5 12.849 23.5 12.8581C23.5 12.8673 23.5 12.8765 23.5 12.8857C23.5 12.8949 23.5 12.9041 23.5 12.9133C23.5 12.9225 23.5 12.9318 23.5 12.941C23.5 12.9503 23.5 12.9595 23.5 12.9688C23.5 12.9781 23.5 12.9874 23.5 12.9967C23.5 13.006 23.5 13.0153 23.5 13.0246C23.5 13.034 23.5 13.0433 23.5 13.0527C23.5 13.062 23.5 13.0714 23.5 13.0808C23.5 13.0902 23.5 13.0996 23.5 13.109C23.5 13.1184 23.5 13.1278 23.5 13.1373C23.5 13.1467 23.5 13.1562 23.5 13.1656C23.5 13.1751 23.5 13.1846 23.5 13.1941C23.5 13.2036 23.5 13.2131 23.5 13.2226C23.5 13.2321 23.5 13.2416 23.5 13.2512C23.5 13.2607 23.5 13.2703 23.5 13.2798C23.5 13.2894 23.5 13.299 23.5 13.3086C23.5 13.3182 23.5 13.3278 23.5 13.3374C23.5 13.347 23.5 13.3567 23.5 13.3663C23.5 13.376 23.5 13.3856 23.5 13.3953C23.5 13.405 23.5 13.4146 23.5 13.4243C23.5 13.434 23.5 13.4437 23.5 13.4535C23.5 13.4632 23.5 13.4729 23.5 13.4827C23.5 13.4924 23.5 13.5022 23.5 13.5119C23.5 13.5217 23.5 13.5315 23.5 13.5413C23.5 13.5511 23.5 13.5609 23.5 13.5707C23.5 13.5805 23.5 13.5903 23.5 13.6002C23.5 13.61 23.5 13.6199 23.5 13.6297C23.5 13.6396 23.5 13.6495 23.5 13.6593C23.5 13.6692 23.5 13.6791 23.5 13.689C23.5 13.6989 23.5 13.7089 23.5 13.7188C23.5 13.7287 23.5 13.7387 23.5 13.7486C23.5 13.7586 23.5 13.7686 23.5 13.7785C23.5 13.7885 23.5 13.7985 23.5 13.8085C23.5 13.8185 23.5 13.8285 23.5 13.8385C23.5 13.8486 23.5 13.8586 23.5 13.8686C23.5 13.8787 23.5 13.8887 23.5 13.8988C23.5 13.9089 23.5 13.919 23.5 13.929C23.5 13.9391 23.5 13.9492 23.5 13.9593C23.5 13.9695 23.5 13.9796 23.5 13.9897C23.5 13.9998 23.5 14.01 23.5 14.0201C23.5 14.0303 23.5 14.0405 23.5 14.0506C23.5 14.0608 23.5 14.071 23.5 14.0812C23.5 14.0914 23.5 14.1016 23.5 14.1118C23.5 14.122 23.5 14.1322 23.5 14.1425C23.5 14.1527 23.5 14.163 23.5 14.1732C23.5 14.1835 23.5 14.1937 23.5 14.204C23.5 14.2143 23.5 14.2246 23.5 14.2349C23.5 14.2452 23.5 14.2555 23.5 14.2658C23.5 14.2761 23.5 14.2864 23.5 14.2968C23.5 14.3071 23.5 14.3175 23.5 14.3278C23.5 14.3382 23.5 14.3485 23.5 14.3589C23.5 14.3693 23.5 14.3797 23.5 14.3901C23.5 14.4005 23.5 14.4109 23.5 14.4213C23.5 14.4317 23.5 14.4421 23.5 14.4525C23.5 14.463 23.5 14.4734 23.5 14.4839C23.5 14.4943 23.5 14.5048 23.5 14.5152C23.5 14.5257 23.5 14.5362 23.5 14.5467C23.5 14.5572 23.5 14.5677 23.5 14.5782C23.5 14.5887 23.5 14.5992 23.5 14.6097C23.5 14.6202 23.5 14.6308 23.5 14.6413C23.5 14.6518 23.5 14.6624 23.5 14.6729C23.5 14.6835 23.5 14.6941 23.5 14.7046C23.5 14.7152 23.5 14.7258 23.5 14.7364C23.5 14.747 23.5 14.7576 23.5 14.7682C23.5 14.7788 23.5 14.7894 23.5 14.8001C23.5 14.8107 23.5 14.8213 23.5 14.832C23.5 14.8426 23.5 14.8533 23.5 14.8639C23.5 14.8746 23.5 14.8852 23.5 14.8959C23.5 14.9066 23.5 14.9173 23.5 14.928C23.5 14.9387 23.5 14.9494 23.5 14.9601C23.5 14.9708 23.5 14.9815 23.5 14.9922C23.5 15.0029 23.5 15.0137 23.5 15.0244C23.5 15.0351 23.5 15.0459 23.5 15.0566C23.5 15.0674 23.5 15.0782 23.5 15.0889C23.5 15.0997 23.5 15.1105 23.5 15.1213C23.5 15.132 23.5 15.1428 23.5 15.1536C23.5 15.1644 23.5 15.1752 23.5 15.1861C23.5 15.1969 23.5 15.2077 23.5 15.2185C23.5 15.2293 23.5 15.2402 23.5 15.251C23.5 15.2619 23.5 15.2727 23.5 15.2836C23.5 15.2944 23.5 15.3053 23.5 15.3162C23.5 15.327 23.5 15.3379 23.5 15.3488C23.5 15.3597 23.5 15.3706 23.5 15.3815C23.5 15.3924 23.5 15.4033 23.5 15.4142C23.5 15.4251 23.5 15.436 23.5 15.4469C23.5 15.4579 23.5 15.4688 23.5 15.4797C23.5 15.4907 23.5 15.5016 23.5 15.5126C23.5 15.5235 23.5 15.5345 23.5 15.5454C23.5 15.5564 23.5 15.5674 23.5 15.5783C23.5 15.5893 23.5 15.6003 23.5 15.6113C23.5 15.6223 23.5 15.6333 23.5 15.6443C23.5 15.6553 23.5 15.6663 23.5 15.6773C23.5 15.6883 23.5 15.6993 23.5 15.7103C23.5 15.7214 23.5 15.7324 23.5 15.7434C23.5 15.7545 23.5 15.7655 23.5 15.7766C23.5 15.7876 23.5 15.7987 23.5 15.8097C23.5 15.8208 23.5 15.8318 23.5 15.8429C23.5 15.854 23.5 15.8651 23.5 15.8761C23.5 15.8872 23.5 15.8983 23.5 15.9094C23.5 15.9205 23.5 15.9316 23.5 15.9427C23.5 15.9538 23.5 15.9649 23.5 15.976C23.5 15.9871 23.5 15.9982 23.5 16.0094C23.5 16.0205 23.5 16.0316 23.5 16.0427C23.5 16.0539 23.5 16.065 23.5 16.0762C23.5 16.0873 23.5 16.0984 23.5 16.1096C23.5 16.1208 23.5 16.1319 23.5 16.1431C23.5 16.1542 23.5 16.1654 23.5 16.1766C23.5 16.1877 23.5 16.1989 23.5 16.2101C23.5 16.2213 23.5 16.2325 23.5 16.2437C23.5 16.2548 23.5 16.266 23.5 16.2772C23.5 16.2884 23.5 16.2996 23.5 16.3108C23.5 16.322 23.5 16.3333 23.5 16.3445C23.5 16.3557 23.5 16.3669 23.5 16.3781C23.5 16.3894 23.5 16.4006 23.5 16.4118C23.5 16.423 23.5 16.4343 23.5 16.4455C23.5 16.4568 23.5 16.468 23.5 16.4793C23.5 16.4905 23.5 16.5018 23.5 16.513C23.5 16.5243 23.5 16.5355 23.5 16.5468C23.5 16.558 23.5 16.5693 23.5 16.5806C23.5 16.5918 23.5 16.6031 23.5 16.6144C23.5 16.6257 23.5 16.637 23.5 16.6482C23.5 16.6595 23.5 16.6708 23.5 16.6821C23.5 16.6934 23.5 16.7047 23.5 16.716C23.5 16.7273 23.5 16.7386 23.5 16.7499C23.5 16.7612 23.5 16.7725 23.5 16.7838C23.5 16.7951 23.5 16.8064 23.5 16.8177C23.5 16.829 23.5 16.8404 23.5 16.8517C23.5 16.863 23.5 16.8743 23.5 16.8857C23.5 16.897 23.5 16.9083 23.5 16.9196C23.5 16.931 23.5 16.9423 23.5 16.9536C23.5 16.965 23.5 16.9763 23.5 16.9877C23.5 16.999 23.5 17.0104 23.5 17.0217C23.5 17.033 23.5 17.0444 23.5 17.0557C23.5 17.0671 23.5 17.0785 23.5 17.0898C23.5 17.1012 23.5 17.1125 23.5 17.1239C23.5 17.1352 23.5 17.1466 23.5 17.158C23.5 17.1693 23.5 17.1807 23.5 17.1921C23.5 17.2034 23.5 17.2148 23.5 17.2262C23.5 17.2376 23.5 17.2489 23.5 17.2603C23.5 17.2717 23.5 17.2831 23.5 17.2944C23.5 17.3058 23.5 17.3172 23.5 17.3286C23.5 17.34 23.5 17.3514 23.5 17.3627C23.5 17.3741 23.5 17.3855 23.5 17.3969C23.5 17.4083 23.5 17.4197 23.5 17.4311C23.5 17.4425 23.5 17.4539 23.5 17.4653C23.5 17.4767 23.5 17.4881 23.5 17.4994C23.5 17.5108 23.5 17.5222 23.5 17.5336C23.5 17.545 23.5 17.5564 23.5 17.5678C23.5 17.5792 23.5 17.5906 23.5 17.6021C23.5 17.6135 23.5 17.6249 23.5 17.6363C23.5 17.6477 23.5 17.6591 23.5 17.6705C23.5 17.6819 23.5 17.6933 23.5 17.7047C23.5 17.7161 23.5 17.7275 23.5 17.7389C23.5 17.7503 23.5 17.7617 23.5 17.7732C23.5 17.7846 23.5 17.796 23.5 17.8074C23.5 17.8188 23.5 17.8302 23.5 17.8416C23.5 17.853 23.5 17.8644 23.5 17.8759C23.5 17.8873 23.5 17.8987 23.5 17.9101C23.5 17.9215 23.5 17.9329 23.5 17.9443C23.5 17.9557 23.5 17.9672 23.5 17.9786C23.5 17.99 23.5 18.0014 23.5 18.0128C23.5 18.0242 23.5 18.0356 23.5 18.047C23.5 18.0585 23.5 18.0699 23.5 18.0813C23.5 18.0927 23.5 18.1041 23.5 18.1155C23.5 18.1269 23.5 18.1383 23.5 18.1497C23.5 18.1612 23.5 18.1726 23.5 18.184C23.5 18.1954 23.5 18.2068 23.5 18.2182C23.5 18.2296 23.5 18.241 23.5 18.2524C23.5 18.2638 23.5 18.2752 23.5 18.2866C23.5 18.298 23.5 18.3094 23.5 18.3208C23.5 18.3322 23.5 18.3436 23.5 18.355C23.5 18.3664 23.5 18.3778 23.5 18.3892C23.5 18.4006 23.5 18.412 23.5 18.4234C23.5 18.4348 23.5 18.4462 23.5 18.4576C23.5 18.469 23.5 18.4804 23.5 18.4918C23.5 18.5032 23.5 18.5146 23.5 18.526C23.5 18.5373 23.5 18.5487 23.5 18.5601C23.5 18.5715 23.5 18.5829 23.5 18.5943C23.5 18.6056 23.5 18.617 23.5 18.6284C23.5 18.6398 23.5 18.6512 23.5 18.6625C23.5 18.6739 23.5 18.6853 23.5 18.6966C23.5 18.708 23.5 18.7194 23.5 18.7307C23.5 18.7421 23.5 18.7535 23.5 18.7648C23.5 18.7762 23.5 18.7876 23.5 18.7989C23.5 18.8103 23.5 18.8216 23.5 18.833C23.5 18.8443 23.5 18.8557 23.5 18.867C23.5 18.8784 23.5 18.8897 23.5 18.9011C23.5 18.9124 23.5 18.9238 23.5 18.9351C23.5 18.9464 23.5 18.9578 23.5 18.9691C23.5 18.9804 23.5 18.9918 23.5 19.0031C23.5 19.0144 23.5 19.0258 23.5 19.0371C23.5 19.0484 23.5 19.0597 23.5 19.071C23.5 19.0824 23.5 19.0937 23.5 19.105C23.5 19.1163 23.5 19.1276 23.5 19.1389C23.5 19.1502 23.5 19.1615 23.5 19.1728C23.5 19.1841 23.5 19.1954 23.5 19.2067C23.5 19.218 23.5 19.2293 23.5 19.2406C23.5 19.2519 23.5 19.2631 23.5 19.2744C23.5 19.2857 23.5 19.297 23.5 19.3082C23.5 19.3195 23.5 19.3308 23.5 19.342C23.5 19.3533 23.5 19.3646 23.5 19.3758C23.5 19.3871 23.5 19.3983 23.5 19.4096C23.5 19.4208 23.5 19.4321 23.5 19.4433C23.5 19.4546 23.5 19.4658 23.5 19.477C23.5 19.4883 23.5 19.4995 23.5 19.5107C23.5 19.522 23.5 19.5332 23.5 19.5444C23.5 19.5556 23.5 19.5668 23.5 19.578C23.5 19.5893 23.5 19.6005 23.5 19.6117C23.5 19.6229 23.5 19.6341 23.5 19.6453C23.5 19.6564 23.5 19.6676 23.5 19.6788C23.5 19.69 23.5 19.7012 23.5 19.7124C23.5 19.7235 23.5 19.7347 23.5 19.7459C23.5 19.757 23.5 19.7682 23.5 19.7793C23.5 19.7905 23.5 19.8017 23.5 19.8128C23.5 19.8239 23.5 19.8351 23.5 19.8462C23.5 19.8574 23.5 19.8685 23.5 19.8796C23.5 19.8907 23.5 19.9019 23.5 19.913C23.5 19.9241 23.5 19.9352 23.5 19.9463C23.5 19.9574 23.5 19.9685 23.5 19.9796C23.5 19.9907 23.5 20.0018 23.5 20.0129C23.5 20.024 23.5 20.0351 23.5 20.0461C23.5 20.0572 23.5 20.0683 23.5 20.0793C23.5 20.0904 23.5 20.1014 23.5 20.1125C23.5 20.1236 23.5 20.1346 23.5 20.1456C23.5 20.1567 23.5 20.1677 23.5 20.1787C23.5 20.1898 23.5 20.2008 23.5 20.2118C23.5 20.2228 23.5 20.2338 23.5 20.2448C23.5 20.2558 23.5 20.2668 23.5 20.2778C23.5 20.2888 23.5 20.2998 23.5 20.3108C23.5 20.3218 23.5 20.3328 23.5 20.3437C23.5 20.3547 23.5 20.3656 23.5 20.3766C23.5 20.3876 23.5 20.3985 23.5 20.4094C23.5 20.4204 23.5 20.4313 23.5 20.4423C23.5 20.4532 23.5 20.4641 23.5 20.475C23.5 20.4859 23.5 20.4969 23.5 20.5078C23.5 20.5187 23.5 20.5296 23.5 20.5404C23.5 20.5513 23.5 20.5622 23.5 20.5731C23.5 20.584 23.5 20.5948 23.5 20.6057C23.5 20.6166 23.5 20.6274 23.5 20.6383C23.5 20.6491 23.5 20.6599 23.5 20.6708C23.5 20.6816 23.5 20.6924 23.5 20.7033C23.5 20.7141 23.5 20.7249 23.5 20.7357C23.5 20.7465 23.5 20.7573 23.5 20.7681C23.5 20.7789 23.5 20.7897 23.5 20.8004C23.5 20.8112 23.5 20.822 23.5 20.8327C23.5 20.8435 23.5 20.8542 23.5 20.865C23.5 20.8757 23.5 20.8865 23.5 20.8972C23.5 20.9079 23.5 20.9186 23.5 20.9294C23.5 20.9401 23.5 20.9508 23.5 20.9615C23.5 20.9722 23.5 20.9829 23.5 20.9935C23.5 21.0042 23.5 21.0149 23.5 21.0256C23.5 21.0362 23.5 21.0469 23.5 21.0575C23.5 21.0682 23.5 21.0788 23.5 21.0895C23.5 21.1001 23.5 21.1107 23.5 21.1213C23.5 21.1319 23.5 21.1426 23.5 21.1531C23.5 21.1637 23.5 21.1743 23.5 21.1849C23.5 21.1955 23.5 21.2061 23.5 21.2166C23.5 21.2272 23.5 21.2378 23.5 21.2483C23.5 21.2589 23.5 21.2694 23.5 21.2799C23.5 21.2904 23.5 21.301 23.5 21.3115C23.5 21.322 23.5 21.3325 23.5 21.343C23.5 21.3535 23.5 21.364 23.5 21.3744C23.5 21.3849 23.5 21.3954 23.5 21.4058C23.5 21.4163 23.5 21.4267 23.5 21.4372C23.5 21.4476 23.5 21.458 23.5 21.4685C23.5 21.4789 23.5 21.4893 23.5 21.4997C23.5 21.5101 23.5 21.5205 23.5 21.5309C23.5 21.5413 23.5 21.5516 23.5 21.562C23.5 21.5724 23.5 21.5827 23.5 21.593C23.5 21.6034 23.5 21.6137 23.5 21.624C23.5 21.6344 23.5 21.6447 23.5 21.655C23.5 21.6653 23.5 21.6756 23.5 21.6859C23.5 21.6962 23.5 21.7064 23.5 21.7167C23.5 21.727 23.5 21.7372 23.5 21.7475C23.5 21.7577 23.5 21.7679 23.5 21.7782C23.5 21.7884 23.5 21.7986 23.5 21.8088C23.5 21.819 23.5 21.8292 23.5 21.8394C23.5 21.8496 23.5 21.8597 23.5 21.8699C23.5 21.88 23.5 21.8902 23.5 21.9003C23.5 21.9105 23.5 21.9206 23.5 21.9307C23.5 21.9408 23.5 21.9509 23.5 21.961C23.5 21.9711 23.5 21.9812 23.5 21.9913C23.5 22.0014 23.5 22.0114 23.5 22.0215C23.5 22.0315 23.5 22.0416 23.5 22.0516C23.5 22.0617 23.5 22.0717 23.5 22.0817C23.5 22.0917 23.5 22.1017 23.5 22.1117C23.5 22.1217 23.5 22.1316 23.5 22.1416C23.5 22.1516 23.5 22.1615 23.5 22.1715C23.5 22.1814 23.5 22.1913 23.5 22.2012C23.5 22.2112 23.5 22.2211 23.5 22.231C23.5 22.2409 23.5 22.2507 23.5 22.2606C23.5 22.2705 23.5 22.2804 23.5 22.2902C23.5 22.3 23.5 22.3099 23.5 22.3197C23.5 22.3295 23.5 22.3393 23.5 22.3491C23.5 22.3589 23.5 22.3687 23.5 22.3785C23.5 22.3883 23.5 22.3981 23.5 22.4078C23.5 22.4176 23.5 22.4273 23.5 22.437C23.5 22.4468 23.5 22.4565 23.5 22.4662C23.5 22.4759 23.5 22.4856 23.5 22.4953C23.5 22.5049 23.5 22.5146 23.5 22.5243C23.5 22.5339 23.5 22.5436 23.5 22.5532C23.5 22.5628 23.5 22.5724 23.5 22.582C23.5 22.5916 23.5 22.6012 23.5 22.6108C23.5 22.6204 23.5 22.63 23.5 22.6395C23.5 22.6491 23.5 22.6586 23.5 22.6681C23.5 22.6777 23.5 22.6872 23.5 22.6967C23.5 22.7062 23.5 22.7157 23.5 22.7251C23.5 22.7346 23.5 22.7441 23.5 22.7535C23.5 22.763 23.5 22.7724 23.5 22.7818C23.5 22.7912 23.5 22.8007 23.5 22.8101C23.5 22.8194 23.5 22.8288 23.5 22.8382C23.5 22.8476 23.5 22.8569 23.5 22.8663C23.5 22.8756 23.5 22.8849 23.5 22.8943C23.5 22.9036 23.5 22.9129 23.5 22.9222C23.5 22.9314 23.5 22.9407 23.5 22.95C23.5 22.9592 23.5 22.9685 23.5 22.9777C23.5 22.9869 23.5 22.9962 23.5 23.0054C23.5 23.0146 23.5 23.0238 23.5 23.0329C23.5 23.0421 23.5 23.0513 23.5 23.0604C23.5 23.0696 23.5 23.0787 23.5 23.0878C23.5 23.0969 23.5 23.1061 23.5 23.1151C23.5 23.1242 23.5 23.1333 23.5 23.1424C23.5 23.1514 23.5 23.1605 23.5 23.1695C23.5 23.1785 23.5 23.1876 23.5 23.1966C23.5 23.2056 23.5 23.2146 23.5 23.2235C23.5 23.2325 23.5 23.2415 23.5 23.2504C23.5 23.2594 23.5 23.2683 23.5 23.2772C23.5 23.2861 23.5 23.295 23.5 23.3039C23.5 23.3128 23.5 23.3217 23.5 23.3305C23.5 23.3394 23.5 23.3482 23.5 23.357C23.5 23.3659 23.5 23.3747 23.5 23.3835C23.5 23.3923 23.5 23.401 23.5 23.4098C23.5 23.4186 23.5 23.4273 23.5 23.4361C23.5 23.4448 23.5 23.4535 23.5 23.4622C23.5 23.4709 23.5 23.4796 23.5 23.4883C23.5 23.497 23.5 23.5056 23.5 23.5142C23.5 23.5229 23.5 23.5315 23.5 23.5401C23.5 23.5487 23.5 23.5573 23.5 23.5659C23.5 23.5745 23.5 23.583 23.5 23.5916C23.5 23.6001 23.5 23.6087 23.5 23.6172C23.5 23.6257 23.5 23.6342 23.5 23.6427C23.5 23.6511 23.5 23.6596 23.5 23.6681C23.5 23.6765 23.5 23.6849 23.5 23.6934C23.5 23.7018 23.5 23.7102 23.5 23.7186C23.5 23.7269 23.5 23.7353 23.5 23.7437C23.5 23.752 23.5 23.7604 23.5 23.7687C23.5 23.777 23.5 23.7853 23.5 23.7936C23.5 23.8019 23.5 23.8101 23.5 23.8184C23.5 23.8266 23.5 23.8349 23.5 23.8431C23.5 23.8513 23.5 23.8595 23.5 23.8677C23.5 23.8759 23.5 23.884 23.5 23.8922C23.5 23.9003 23.5 23.9085 23.5 23.9166C23.5 23.9247 23.5 23.9328 23.5 23.9409C23.5 23.949 23.5 23.957 23.5 23.9651C23.5 23.9731 23.5 23.9812 23.5 23.9892C23.5 23.9972 23.5 24.0052 23.5 24.0132C23.5 24.0211 23.5 24.0291 23.5 24.037C23.5 24.045 23.5 24.0529 23.5 24.0608C23.5 24.0687 23.5 24.0766 23.5 24.0845C23.5 24.0924 23.5 24.1002 23.5 24.108C23.5 24.1159 23.5 24.1237 23.5 24.1315C23.5 24.1393 23.5 24.1471 23.5 24.1549C23.5 24.1626 23.5 24.1704 23.5 24.1781C23.5 24.1858 23.5 24.1935 23.5 24.2012C23.5 24.2089 23.5 24.2166 23.5 24.2243C23.5 24.2319 23.5 24.2395 23.5 24.2472C23.5 24.2548 23.5 24.2624 23.5 24.27C23.5 24.2776 23.5 24.2851 23.5 24.2927C23.5 24.3002 23.5 24.3077 23.5 24.3153C23.5 24.3228 23.5 24.3303 23.5 24.3377C23.5 24.3452 23.5 24.3526 23.5 24.3601C23.5 24.3675 23.5 24.3749 23.5 24.3823C23.5 24.3897 23.5 24.3971 23.5 24.4045C23.5 24.4118 23.5 24.4192 23.5 24.4265C23.5 24.4338 23.5 24.4411 23.5 24.4484C23.5 24.4557 23.5 24.4629 23.5 24.4702C23.5 24.4774 23.5 24.4846 23.5 24.4919C23.5 24.4991 23.5 24.5062 23.5 24.5134C23.5 24.5206 23.5 24.5277 23.5 24.5349C23.5 24.542 23.5 24.5491 23.5 24.5562C23.5 24.5633 23.5 24.5703 23.5 24.5774C23.5 24.5844 23.5 24.5915 23.5 24.5985C23.5 24.6055 23.5 24.6125 23.5 24.6195C23.5 24.6264 23.5 24.6334 23.5 24.6403C23.5 24.6472 23.5 24.6542 23.5 24.661C23.5 24.6679 23.5 24.6748 23.5 24.6817C23.5 24.6885 23.5 24.6953 23.5 24.7022C23.5 24.709 23.5 24.7158 23.5 24.7225C23.5 24.7293 23.5 24.736 23.5 24.7428C23.5 24.7495 23.5 24.7562 23.5 24.7629C23.5 24.7696 23.5 24.7763 23.5 24.7829C23.5 24.7896 23.5 24.7962 23.5 24.8028C23.5 24.8094 23.5 24.816 23.5 24.8225C23.5 24.8291 23.5 24.8357 23.5 24.8422C23.5 24.8487 23.5 24.8552 23.5 24.8617C23.5 24.8682 23.5 24.8746 23.5 24.8811C23.5 24.8875 23.5 24.8939 23.5 24.9003C23.5 24.9067 23.5 24.9131 23.5 24.9195C23.5 24.9258 23.5 24.9321 23.5 24.9385C23.5 24.9448 23.5 24.9511 23.5 24.9573C23.5 24.9636 23.5 24.9699 23.5 24.9761C23.5 24.9823 23.5 24.9885 23.5 24.9947C23.5 25.0009 23.5 25.0071 23.5 25.0132C23.5 25.0193 23.5 25.0255 23.5 25.0316C23.5 25.0377 23.5 25.0437 23.5 25.0498C23.5 25.0558 23.5 25.0619 23.5 25.0679C23.5 25.0739 23.5 25.0799 23.5 25.0859C23.5 25.0918 23.5 25.0978 23.5 25.1037C23.5 25.1096 23.5 25.1155 23.5 25.1214C23.5 25.1273 23.5 25.1331 23.5 25.139C23.5 25.1448 23.5 25.1506 23.5 25.1564C23.5 25.1622 23.5 25.168 23.5 25.1737C23.5 25.1794 23.5 25.1852 23.5 25.1909C23.5 25.1966 23.5 25.2023 23.5 25.2079C23.5 25.2136 23.5 25.2192 23.5 25.2248C23.5 25.2304 23.5 25.236 23.5 25.2416C23.5 25.2471 23.5 25.2527 23.5 25.2582C23.5 25.2637 23.5 25.2692 23.5 25.2747C23.5 25.2802 23.5 25.2856 23.5 25.291C23.5 25.2965 23.5 25.3019 23.5 25.3072C23.5 25.3126 23.5 25.318 23.5 25.3233C23.5 25.3287 23.5 25.334 23.5 25.3393C23.5 25.3445 23.5 25.3498 23.5 25.355C23.5 25.3603 23.5 25.3655 23.5 25.3707C23.5 25.3759 23.5 25.3811 23.5 25.3862C23.5 25.3914 23.5 25.3965 23.5 25.4016C23.5 25.4067 23.5 25.4118 23.5 25.4168C23.5 25.4219 23.5 25.4269 23.5 25.4319C23.5 25.4369 23.5 25.4419 23.5 25.4469C23.5 25.4518 23.5 25.4567 23.5 25.4617C23.5 25.4666 23.5 25.4714 23.5 25.4763C23.5 25.4812 23.5 25.486 23.5 25.4908C23.5 25.4956 23.5 25.5004 23.5 25.5052C23.5 25.51 23.5 25.5147 23.5 25.5194C23.5 25.5241 23.5 25.5288 23.5 25.5335C23.5 25.5382 23.5 25.5428 23.5 25.5474C23.5 25.552 23.5 25.5566 23.5 25.5612C23.5 25.5658 23.5 25.5703 23.5 25.5748C23.5 25.5793 23.5 25.5838 23.5 25.5883C23.5 25.5928 23.5 25.5972 23.5 25.6017C23.5 25.6061 23.5 25.6105 23.5 25.6148C23.5 25.6192 23.5 25.6236 23.5 25.6279C23.5 25.6322 23.5 25.6365 23.5 25.6408C23.5 25.645 23.5 25.6493 23.5 25.6535C23.5 25.6577 23.5 25.6619 23.5 25.6661C23.5 25.6703 23.5 25.6744 23.5 25.6785C23.5 25.6826 23.5 25.6867 23.5 25.6908C23.5 25.6949 23.5 25.6989 23.5 25.7029C23.5 25.7069 23.5 25.7109 23.5 25.7149C23.5 25.7189 23.5 25.7228 23.5 25.7267C23.5 25.7306 23.5 25.7345 23.5 25.7384C23.5 25.7422 23.5 25.7461 23.5 25.7499C23.5 25.7537 23.5 25.7575 23.5 25.7612C23.5 25.765 23.5 25.7687 23.5 25.7724C23.5 25.7761 23.5 25.7798 23.5 25.7835C23.5 25.7871 23.5 25.7908 23.5 25.7944C23.5 25.798 23.5 25.8015 23.5 25.8051C23.5 25.8086 23.5 25.8122 23.5 25.8156C23.5 25.8191 23.5 25.8226 23.5 25.8261C23.5 25.8295 23.5 25.8329 23.5 25.8363C23.5 25.8397 23.5 25.8431 23.5 25.8464C23.5 25.8497 23.5 25.853 23.5 25.8563C23.5 25.8596 23.5 25.8629 23.5 25.8661C23.5 25.8693 23.5 25.8725 23.5 25.8757C23.5 25.8789 23.5 25.882 23.5 25.8851C23.5 25.8883 23.5 25.8913 23.5 25.8944C23.5 25.8975 23.5 25.9005 23.5 25.9035C23.5 25.9065 23.5 25.9095 23.5 25.9125C23.5 25.9154 23.5 25.9184 23.5 25.9213C23.5 25.9242 23.5 25.927 23.5 25.9299C23.5 25.9327 23.5 25.9356 23.5 25.9384C23.5 25.9411 23.5 25.9439 23.5 25.9466C23.5 25.9494 23.5 25.9521 23.5 25.9548C23.5 25.9575 23.5 25.9601 23.5 25.9627C23.5 25.9654 23.5 25.968 23.5 25.9705C23.5 25.9731 23.5 25.9756 23.5 25.9781C23.5 25.9807 23.5 25.9831 23.5 25.9856C23.5 25.9881 23.5 25.9905 23.5 25.9929C23.5 25.9953 23.5 25.9977 23.5 26H24.5ZM1 6H3.5V5H1V6ZM7.5 11.5H5V12.5H7.5V11.5ZM3.07417 5.76205L7.07417 12.262L7.92583 11.738L3.92583 5.23795L3.07417 5.76205ZM24.4258 12.262L28.4258 5.76205L27.5742 5.23795L23.5742 11.738L24.4258 12.262ZM28 5H25V6H28V5ZM24 11.5H21V12.5H24V11.5ZM24.5742 5.23795L20.5742 11.738L21.4258 12.262L25.4258 5.76205L24.5742 5.23795ZM21 11.5H16V12.5H21V11.5ZM16.5 27.5V12H15.5V27.5H16.5ZM16 11.5H13V12.5H16V11.5ZM13 11.5H7.5V12.5H13V11.5ZM12.5 12V27.5H13.5V12H12.5ZM18.4615 10.6923C18.8605 9.73481 19.6844 8.23074 20.8427 6.87474C22.0058 5.51311 23.4597 4.35449 25.1085 3.98809L24.8915 3.01191C22.9403 3.44551 21.3109 4.78689 20.0823 6.22526C18.8489 7.66926 17.9728 9.26519 17.5385 10.3077L18.4615 10.6923ZM0.574171 5.76205L4.57417 12.262L5.42583 11.738L1.42583 5.23795L0.574171 5.76205ZM11.4969 10.9448C11.3079 9.24381 9.54237 5.50733 4.20953 3.04602L3.79047 3.95398C8.85763 6.29267 10.3587 9.75619 10.5031 11.0552L11.4969 10.9448ZM6.5 28H22.5V27H6.5V28ZM13 28H16V27H13V28ZM24.5 26V12H23.5V26H24.5ZM16 28H22.5V27H16V28ZM6.5 28H13V27H6.5V28Z" fill="#FA305F"/>
<path d="M25 3C24.25 3 22 1.5 22 0C22 1.5 19.75 3 19 3C19.75 3 22 5.25 22 6C22 5.25 24.25 3 25 3Z" fill="#FFC231" stroke="#FFC231" stroke-width="0.75"/>
<path d="M19 8C18.5 8 17 7 17 6C17 7 15.5 8 15 8C15.5 8 17 9.5 17 10C17 9.5 18.5 8 19 8Z" fill="#FFC231" stroke="#FFC231" stroke-width="0.75"/>
<path d="M26 15C25.5 15 24 14 24 13C24 14 22.5 15 22 15C22.5 15 24 16.5 24 17C24 16.5 25.5 15 26 15Z" fill="#FFC231" stroke="#FFC231" stroke-width="0.75"/>
<path d="M21 24C20.25 24 18 22.5 18 21C18 22.5 15.75 24 15 24C15.75 24 18 26.25 18 27C18 26.25 20.25 24 21 24Z" fill="#FFC231" stroke="#FFC231" stroke-width="0.75"/>
<path d="M9 17C8.5 17 7 16 7 15C7 16 5.5 17 5 17C5.5 17 7 18.5 7 19C7 18.5 8.5 17 9 17Z" fill="#FFC231" stroke="#FFC231" stroke-width="0.75"/>
<path d="M10 2.5C9.375 2.5 7.5 1.25 7.5 0C7.5 1.25 5.625 2.5 5 2.5C5.625 2.5 7.5 4.375 7.5 5C7.5 4.375 9.375 2.5 10 2.5Z" fill="#FFC231" stroke="#FFC231" stroke-width="0.75"/>
</svg>
