<svg xmlns="http://www.w3.org/2000/svg" width="30" height="27" fill="none" xmlns:v="https://vecta.io/nano"><path d="M4.229 15.804v5.159l4.358-4.901.229-.258h11.697c.917 0 1.3-1.047 1.376-1.57l.101-7.85-.101-4.037C21.706 1.269 20.896 1 20.514 1H2.165c-1.101 0-1.223.897-1.147 1.346v11.888c0 1.077.765 1.495 1.147 1.57h2.064z" fill="#ffc231"/><path d="M4.229 20.963h-.75v1.972l1.31-1.474-.56-.498zm0-5.159h.75v-.75h-.75v.75zm-2.064 0l-.144.736.071.014h.073v-.75zM1.018 2.346h.75v-.063l-.011-.063-.739.126zm20.872 0l.739-.126-.739.126zm0 11.888l.742.109.007-.046.001-.046-.75-.016zm-13.073 1.57v-.75H8.48l-.224.252.56.498zm19.037-9.421v.75h.142l.132-.052-.273-.698zm-1.606 14.579v-.75h-.75v.75h.75zm0 4.037l-.495.563 1.245 1.096V25h-.75zm-4.587-4.037l.495-.563-.212-.187h-.283v.75zM9.337 15.804a.75.75 0 1 0-1.5 0h1.5zm-4.358 5.159v-5.159h-1.5v5.159h1.5zm-.75-5.909H2.165v1.5h2.064v-1.5zm-1.92.014c-.051-.01-.196-.064-.32-.193-.106-.11-.221-.299-.221-.641h-1.5c0 1.53 1.12 2.183 1.753 2.306l.288-1.472zm-.541-.834v-.026-.021-.022-.024-.025-.026-.027-.029-.03-.021-.021-.021-.022-.023-.023-.024-.024-.024-.025-.026-.026-.026-.027-.027-.028-.028-.029-.029-.03-.03-.031-.031-.031-.032-.032-.033-.033-.034-.034-.034-.035-.035-.036-.036-.036-.037-.037-.038-.038-.038-.039-.039-.039-.04-.02-.02-.02-.02-.02-.02-.021-.021-.021-.021-.021-.021-.021-.021-.021-.021-.021-.022-.022-.022-.022-.022-.022-.022-.022-.022-.022-.022-.022-.022-.023-.023-.023-.023-.023-.023-.023-.023-.023-.023-.023-.023-.023-.024-.024-.024-.024-.024-.024-.024-.024-.024-.024-.024-.024-.024-.024-.024-.024-.024-.025-.025-.025-.025-.025-.025-.025-.025-.025-.025-.025-.025-.025-.025-.026-.025-.026-.026-.026-.026-.026-.026-.026-.026-.026-.026-.026-.026-.026-.026-.026-.026-.026-.026-.026-.027-.026-.027-.027-.027-.027-.027-.027-.027-.027-.027-.027-.027-.027-.027-.027-.027-.027-.027-.027-.027-.027-.027-.027-.028-.028-.028-.028-.028-.028-.028-.028-.028-.028-.028V9.4v-.028-.028-.028-.028-.028-.028-.028-.028-.028-.028-.028-.028-.028-.028-.028-.028-.028-.028-.028-.028-.028-.028-.028-.028-.029-.029-.029-.029-.029-.029-.029-.029-.029-.029-.029-.029-.029-.029-.029-.029-.029-.029-.029-.029-.029-.029-.029-.029-.029-.029-.029-.029-.029-.029-.029-.029-.029-.029-.029-.029-.029-.029-.029-.029-.029-.029-.029-.029-.029-.029-.029-.029-.029-.029-.029-.029-.029-.029-.029-.029-.029-.029-.029-.029-.029-.029-.029-.029-.029-.029-.029-.029-.029-.029-.029-.029-.029-.029-.029-.029-.029-.029-.029-.029-.029-.029-.029V6.3v-.029-.029-.029-.029-.029-.029V6.1v-.029-.028-.028-.028-.028-.028-.028-.028-.028-.028-.028-.028-.028-.028-.028-.028-.028-.028-.028-.028-.028-.028-.028-.028-.028-.028-.028-.028-.028-.028-.028V5.2v-.028-.028-.028-.027-.027-.027-.027-.027-.027-.027-.027-.027-.027-.027-.027-.027-.027-.027-.027-.027-.027-.027-.027-.027-.027-.027-.027-.027-.026-.026-.026-.026-.026-.026-.026-.026-.026-.026-.026-.026-.026-.026-.026-.026-.026-.026-.026-.025-.025-.025-.025-.025-.025-.025-.025-.025-.025-.025-.025-.025-.025-.025-.025-.025-.024-.024-.024-.024-.024-.024-.024-.024-.024-.024-.024-.024-.024-.024-.024-.023-.023-.023-.023-.023-.023V3v-.023-.023-.023-.023-.023-.023-.022-.022-.022-.022-.022-.022-.022-.022-.022-.022-.022-.022-.022-.021-.021-.021-.021-.021-.021-.021-.021-.021-.021-.021h-1.5v.021.021.021.021.021.021.021.021.021.021.021.022.022.022.022.022.022.022.022.022.022.022.022.022.023.023.023.023.023V3v.023.023.023.023.023.023.023.024.024.024.024.024.024.024.024.024.024.024.024.024.024.024.025.025.025.025.025.025.025.025.025.025.025.025.025.025.025.025.025.026.026.026.026.026.026.026.026.026.026.026.026.026.026.026.026.026.026.026.027.027.027.027.027.027.027.027.027.027.027.027.027.027.027.027.027.027.027.027.027.027.027.027.027.028.028.028.028.028.028.028.028.028.028.028.028.028.028.028.028.028.028.028.028.028.028.028.028.028.028.028.028.028.028.028.028.028.028.029.029.029.029.029.029.029.029.029.029.029.029.029.029.029.029.029.029.029.029.029.029.029.029.029.029.029.029.029.029.029.029.029.029.029.029.029.029.029.029.029.029.029.029.029.029.029.029.029.029.029.029.029.029.029.029.029.029.029.029.029.029.029.029.029.029.029.029.029.029.029.029.029.029.029.029.029.029.029.029.029.029.029.029.029.029.029.029.029.029.029.029.028.028.028.028.028.028.028.028.028.028.028.028.028.028.028.028.028.028.028.028.028.028.028.028.028.028.028.028.028.028.028.028.028.028.028.028.027.027.027.027.027.027.027.027.027.027.027.027.027.027.027.027.027.027.027.027.027.027.026.027.026.026.026.026.026.026.026.026.026.026.026.026.026.026.026.026.026.026.026.025.026.025.025.025.025.025.025.025.025.025.025.025.025.025.025.024.024.024.024.024.024.024.024.024.024.024.024.024.024.024.024.024.023.023.023.023.023.023.023.023.023.023.023.023.023.022.022.022.022.022.022.022.022.022.022.022.022.022.021.021.021.021.021.021.021.021.021.021.021.02.02.02.02.02.02.04.039.039.039.038.038.038.037.037.036.036.036.035.035.034.034.034.033.033.032.032.031.031.031.03.03.029.029.028.028.027.027.026.026.026.025.024.024.024.023.023.022.021.021.021.03.029.027.026.025.024.022.021.026h1.5zM1.758 2.22c-.007-.044-.011-.111-.003-.183s.027-.126.048-.163a.17.17 0 0 1 .07-.07c.035-.019.12-.054.292-.054V.25C1.372.25.802.596.497 1.135c-.269.475-.276 1-.218 1.336l1.479-.252zm.407-.47h.02.023.025.027.029.02.021.022.023.024.025.026.027.028.028.029.03.031.032.033.033.034.035.036.037.037.038.039.04.02.02.021.021.021.021.021.022.022.022.022.022.022.023.023.023.023.023.024.024.024.024.024.024.025.025.025.025.025.026.026.026.026.026.026.027.027.027.027.027.027.028.028.028.028.028.028.028.029.029.029.029.029.029.03.03.03.03.03.03.03.031.031.031.031.031.031.032.032.032.032.032.032.032.033.033.033.033.033.033.033.033.034.034.034.034.034.034.034.035.035.035.035.035.035.035.035.036.036.036.036.036.036.036.036.036.037.037.037.037.037.037.037.037.038.038.038.038.038.038.038.038.038.038.039.039.039.039.039.039.039.039.039.039.04.04.04.04.04.04.04.04.04.04.04.041.041.041.041.041.041.041.041.041.041.041.041.042.042.042.042.042.042.042.042.042.042.042.042.042.043.043.043.043.043.043.043.043.043.043.043.043.043.043.043.043.043.044.044.044.044.044.044.044.044.044.044.044.044.044.044.044.044.044.045.044.044.045.045.045.045.045.045.045.045.045.045.045.045.045.045.045.045.045.045.045.045.045.045.045.045.045.045.045.045.045.045.045.046.046.046.045.046.046.045.046.046.046.046.046.046.046.046.046.046.046.046.046.046.046.046.046.046.046.046.046.046.046.046.046.046.046.046.046.046.046.046.046.046.046.046.046.046.046.046.045.046.046.045.046.045.045.045.045.045.045.045.045.045.045.045.045.045.045.045.045.045.045.045.045.045.045.045.045.045.045.045.045.045.045.045.045.044.044.044.044.044.044.044.044.044.044.044.044.044.044.044.044.044.044.043.044.043.043.043.043.043.043.043.043.043.043.043.043.043.043.043.043.043.042.042.042.042.042.042.042.042.042.042.042.041.041.041.041.041.041.041.041.041.041.041.041.041.04.04.04.04.04.04.04.04.04.04.04.04.039.039.039.039.039.039.039.039.039.038.038.038.038.038.038.038.038.038.038.037.037.037.037.037.037.037.037.037.036.036.036.036.036.036.036.036.035.035.035.035.035.035.035.034.034.034.034.034.034.034.034.034.033.033V.25h-.033-.033-.034-.034-.034-.034-.034-.034-.034-.034-.034-.035-.035-.035-.035-.035-.035-.035-.036-.036-.036-.036-.036-.036-.036-.036-.037-.037-.037-.037-.037-.037-.037-.037-.037-.038-.038-.038-.038-.038-.038-.038-.038-.038-.038-.039-.039-.039-.039-.039-.039-.039-.039-.039-.04-.04-.04-.04-.04-.04-.04-.04-.04-.04-.04-.04-.041-.041-.041-.041-.041-.041-.041-.041-.041-.041-.041-.041-.041-.042-.042-.042-.042-.042-.042-.042-.042-.042-.042-.042-.043-.043-.043-.043-.043-.043-.043-.043-.043-.043-.043-.043-.043-.043-.043-.043-.043-.044-.043-.044-.044-.044-.044-.044-.044-.044-.044-.044-.044-.044-.044-.044-.044-.044-.044-.044-.044-.045-.045-.045-.045-.045-.045-.045-.045-.045-.045-.045-.045-.045-.045-.045-.045-.045-.045-.045-.045-.045-.045-.045-.045-.045-.045-.045-.045-.045-.045-.045-.045-.046-.045-.046-.046-.045-.046-.046-.046-.046-.046-.046-.046-.046-.046-.046-.046-.046-.046-.046-.046-.046-.046-.046-.046-.046-.046-.046-.046-.046-.046-.046-.046-.046-.046-.046-.046-.046-.046-.046-.046-.046-.046-.046-.046-.046-.045-.046-.046-.045-.046-.046-.046-.045-.045-.045-.045-.045-.045-.045-.045-.045-.045-.045-.045-.045-.045-.045-.045-.045-.045-.045-.045-.045-.045-.045-.045-.045-.045-.045-.045-.045-.045-.045-.044-.044-.045-.044-.044-.044-.044-.044-.044-.044-.044-.044-.044-.044-.044-.044-.044-.044-.044-.044-.043-.043-.043-.043-.043-.043-.043-.043-.043-.043-.043-.043-.043-.043-.043-.043-.043-.042-.042-.042-.042-.042-.042-.042H8.3h-.042-.042-.042-.042-.042-.041-.041-.041-.041-.041-.041-.041-.041-.041-.041-.041-.041-.04-.04-.04-.04-.04-.04-.04-.04-.04-.04-.04-.039-.039-.039-.039-.039-.039-.039-.039-.039-.039-.038-.038-.038-.038-.038-.038-.038-.038-.038-.038-.037-.037-.037-.037-.037-.037-.037-.037-.036-.036-.036-.036-.036-.036-.036-.036-.036-.035-.035-.035-.035-.035-.035-.035-.035-.034-.034-.034-.034-.034-.034-.034-.033-.033-.033-.033-.033-.033-.033-.033-.032-.032-.032-.032-.032-.032-.032-.031-.031-.031-.031-.031-.031-.03-.03-.03-.03-.03-.03-.03-.029-.029-.029-.029-.029-.029-.028-.028-.028-.028-.028-.028-.028-.027-.027-.027-.027-.027-.027-.026-.026-.026-.026-.026-.026-.025-.025-.025-.025-.025-.024-.024-.024-.024-.024-.024-.023-.023-.023-.023-.023-.022-.022-.022-.022-.022-.022-.021-.021-.021-.021-.021-.02-.02-.02-.039-.039-.038-.037-.036-.035-.035-.034-.033-.032-.031-.031-.03-.029-.028-.027-.026-.025-.024-.024-.023-.022-.021-.03-.027-.025-.023-.021l-.007 1.5zm18.349 0a.61.61 0 0 1 .317.122c.114.084.26.248.32.599l1.479-.252C22.371.702 21.174.25 20.514.25v1.5zm.634 12.375a1.77 1.77 0 0 1-.253.671c-.135.2-.256.257-.381.257v1.5c.792 0 1.321-.467 1.626-.92.297-.442.442-.948.492-1.291l-1.484-.217zm-.634.928h-.023-.025-.02-.021-.023-.024-.025-.026-.028-.029-.03-.021-.021-.022-.022-.023-.023-.024-.024-.025-.025-.026-.026-.027-.027-.027-.028-.028-.029-.029-.03-.03-.031-.031-.032-.032-.032-.033-.033-.034-.034-.034-.035-.035-.036-.036-.036-.037-.037-.038-.038-.038-.039-.039-.04-.04-.04-.02-.02-.02-.021-.021-.021-.021-.021-.021-.021-.021-.021-.021-.021-.021-.021-.021-.022-.022-.022-.022-.022-.022-.022-.022-.022-.022-.022-.023-.023-.023-.023-.023-.023-.023-.023-.023-.023-.023-.023-.023-.023-.024-.024-.024-.024-.024-.024-.024-.024-.024-.024-.024-.024-.024-.024-.024-.024-.025-.025-.025-.025-.025-.025-.025-.025-.025-.025-.025-.025-.025-.025-.025-.025-.026-.025-.026-.026-.026-.026-.026-.026-.026-.026-.026-.026-.026-.026-.026-.026-.026-.026-.026-.026-.026-.026-.027-.027-.027-.027-.027-.027-.027-.027-.027-.027-.027-.027-.027-.027-.027-.027-.027-.027-.027-.027-.027-.027-.027-.027-.027-.027-.028-.028-.028-.028-.028-.028-.028-.028-.028-.028-.028-.028-.028-.028-.028-.028-.028-.028-.028-.028-.028-.028-.028-.028-.028-.028-.028-.028-.028-.028-.028-.028-.028-.028-.028-.028-.029-.028-.028-.029-.028-.029-.028-.029-.029-.029-.029-.029-.029-.029-.029-.029-.029-.029-.029-.029-.029-.029-.029-.029-.029-.029-.029-.029-.029-.029-.029-.029-.029-.029-.029-.029-.029-.029-.029-.029-.029-.029-.029-.029-.029-.029-.029-.029-.029-.029-.029-.029-.029-.029-.029-.029-.029-.029-.029-.029-.029-.029-.029-.029-.029-.029-.028-.029-.028-.028-.029-.028-.029-.028-.028-.028-.028-.028-.028-.028-.028-.028-.028-.028-.028-.028-.028-.028-.028-.028-.028-.028-.028-.028-.028-.028-.028-.028-.028-.028-.028-.028-.028-.028-.028-.028-.028-.028-.028-.028-.027-.027-.027-.027-.027-.027-.027-.027-.027-.027-.027-.027-.027-.027-.027-.027-.027-.027-.027-.027-.027-.027-.027-.027-.027-.027-.027-.026-.026-.026-.026-.026-.026-.026-.026-.026-.026-.026-.026-.026-.026-.026-.026-.026-.026-.026-.025-.026-.025-.025-.025-.025-.025-.025-.025-.025-.025-.025-.025-.025-.025-.025-.025-.025-.024-.024-.024-.024-.024-.024-.024-.024H9.8h-.024-.024-.024-.024-.024-.024-.024-.023-.023-.023-.023-.023-.023-.023-.023-.023-.023-.023-.023-.023-.022-.022-.022-.022-.022-.022-.022-.022-.022-.022-.022-.022-.022-.021-.021-.021-.021-.021-.021H8.9h-.021-.021-.021-.021v1.5h.021.021.021.021.021.021.021.021.021.021.021.022.022.022.022.022.022.022.022.022.022.022.022.022.023.023.023.023.023.023.023.023.023.023.023.023.023.024.024.024.024.024.024.024.024.024.024.024.024.024.024.024.024.025.025.025.025.025.025.025.025.025.025.025.025.025.025.025.025.026.025.026.026.026.026.026.026.026.026.026.026.026.026.026.026.026.026.026.026.026.027.027.027.027.027.027.027.027.027.027.027.027.027.027.027.027.027.027.027.027.027.027.027.027.027.027.027.028.028.028.028.028.028.028.028.028.028.028.028.028.028.028.028.028.028.028.028.028.028.028.028.028.028.028.028.028.028.028.028.028.028.028.028.028.029.028.029.028.028.029.028.029.029.029.029.029.029.029.029.029.029.029.029.029.029.029.029.029.029.029.029.029.029.029.029.029.029.029.029.029.029.029.029.029.029.029.029.029.029.029.029.029.029.029.029.029.029.029.029.029.029.029.029.029.029.029.029.029.029.029.028.029.028.029.028.028.029.028.028.028.028.028.028.028.028.028.028.028.028.028.028.028.028.028.028.028.028.028.028.028.028.028.028.028.028.028.028.028.028.028.028.028.028.027.027.027.027.027.027.027.027.027.027.027.027.027.027.027.027.027.027.027.027.027.027.027.027.027.027.026.026.026.026.026.026.026.026.026.026.026.026.026.026.026.026.026.026.026.026.025.026.025.025.025.025.025.025.025.025.025.025.025.025.025.025.025.025.024.024.024.024.024.024.024.024.024.024.024.024.024.024.024.024.023.023.023.023.023.023.023.023.023.023.023.023.023.023.022.022.022.022.022.022.022.022.022.022.022.021.021.021.021.021.021.021.021.021.021.021.021.021.021.02.02.02.02.04.04.039.039.039.038.038.037.037.037.036.036.035.035.035.034.034.034.033.033.032.032.031.031.03.03.03.029.029.028.028.027.027.026.026.025.025.024.024.023.023.022.022.021.021.02.03.028.027.026.025.024.022.021.026.024l.011-1.5zm.637-12.582c.028.166.055.624.071 1.346l.02 2.564 1.5.002-.02-2.6-.092-1.564-1.479.252zm.09 3.91l-.101 7.835 1.5.033.101-7.866-1.5-.002zm.75.751h5.862v-1.5h-5.862v1.5zm6.135-.052c-.022.001-.03 0-.038-.004s-.002.002.014.027a.64.64 0 0 1 .061.136c.046.138.087.363.087.712h1.5c0-.894-.207-1.591-.686-2.011-.501-.439-1.103-.407-1.484-.258l.546 1.397zm.124.872v.029.03.02.021.021.022.022.023.023.023.024.024.025.025.025.026.026.026.027.027.028.028.028.029.029.029.03.03.031.031.031.032.032.032.033.033.033.034.034.034.035.035.035.035.036.036.036.037.037.037.038.038.038.038.039.039.039.039.04.04.02.02.02.02.02.02.02.021.021.021.021.021.021.021.021.021.021.021.021.021.021.021.021.022.022.022.022.022.022.022.022.022.022.022.022.022.022.022.022.022.022.022.022.023.023.023.023.023.023.023.023.023.023.023.023.023.023.023.023.023.023.023.023.024.023.024.024.024.024.024.024.024.024.024.024.024.024.024.024.024.024.024.024.024.024.024.024.024.024.024.024.024.024.025.024.025.025.025.025.025.025.025.025.025.025.025.025.025.025.025.025.025.025.025.025.025.025.025.025.025.025.025.025.025.025.025.025.025.025.025.025.025.025.025.025.025.026.025.026.025.026.026.026.026.026.026.026.026.026.026.026.026.026.026.026.026.026.026.026.026.026.026.026.026.026.026.026.026.026.026.026.026.026.026.026.026.026.026.026.026.026.026.026.026.026.026.026.026.026.026.026.026.026.026.026.026.026.026.026.026.026.026.026.026.026.026.026.026.026.026.026.025.026.026.025.025.026.025.026.025.025.025.025.025.025.025.025.025.025.025.025.025.025.025.025.025.025.025.025.025.025.025.025.025.025.025.025.025.025.025.025.025.025.025.025.025.025.025.025.024.025.024.024.024.024.024.024.024.024.024.024.024.024.024.024.024.024.024.024.024.024.024.024.024.024.024.024.024.024.024.023.023.023.023.023.023.023.023.023.023.023.023.023.023.023.023.023.023.023.023.023.022.023.022.022.022.022.022.022.022.022.022.022.022.022.022.022.022.022.021.021.022.021.021.021.021.021.021.021.021.021.021.021.021.021.021.02.02.021.02.02.02.02.02.04.04.039.039.039.039.038.038.038.038.037.037.037.036.036.036.035.035h1.5v-.035-.035-.036-.036-.036-.037-.037-.037-.038-.038-.038-.038-.039-.039-.039-.039-.04-.04-.02-.02-.02-.02-.02-.021-.02-.02-.021-.021-.021-.021-.021-.021-.021-.021-.021-.021-.021-.021-.021-.021-.022-.021-.021-.022-.022-.022-.022-.022-.022-.022-.022-.022-.022-.022-.022-.022-.022-.022-.022-.023-.022-.023-.023-.023-.023-.023-.023-.023-.023-.023-.023-.023-.023-.023-.023-.023-.023-.023-.023-.023-.023-.023-.024-.024-.024-.024-.024-.024-.024-.024-.024-.024-.024-.024-.024-.024-.024-.024-.024-.024-.024-.024-.024-.024-.024-.024-.024-.024-.024-.024-.024-.025-.024-.025-.025-.025-.025-.025-.025-.025-.025-.025-.025-.025-.025-.025-.025-.025-.025-.025-.025-.025-.025-.025-.025-.025-.025-.025-.025-.025-.025-.025-.025-.025-.025-.025-.025-.025-.025-.025-.025-.025-.025-.026-.025-.026-.025-.025-.026-.026-.025-.026-.026-.026-.026-.026-.026-.026-.026-.026-.026-.026-.026-.026-.026-.026-.026-.026-.026-.026-.026-.026-.026-.026-.026-.026-.026-.026-.026-.026-.026-.026-.026-.026-.026-.026-.026-.026-.026-.026-.026-.026-.026-.026-.026-.026-.026-.026-.026-.026-.026-.026-.026-.026-.026-.026-.026-.026-.026-.026-.026-.026-.026-.026-.026-.026-.026-.026-.026-.026-.026-.026-.025-.026-.025-.026-.025-.025-.025-.025-.025-.025-.025-.025-.025-.025-.025-.025-.025-.025-.025-.025-.025-.025-.025-.025-.025-.025-.025-.025-.025-.025-.025-.025-.025-.025-.025-.025-.025-.025-.025-.025-.025-.025-.025-.025-.025-.024-.025-.024-.024-.024-.024-.024-.024-.024-.024-.024-.024-.024-.024-.024-.024-.024-.024-.024-.024-.024-.024-.024-.024-.024-.024-.024-.024-.024-.024-.023-.024-.023-.023-.023-.023-.023-.023-.023-.023-.023-.023-.023-.023-.023-.023-.023-.023-.023-.023-.023-.023-.022-.022-.022-.022-.022-.022-.022-.022-.022-.022-.022-.022-.022-.022-.022-.022-.022-.022-.022-.022-.021-.021-.021-.021-.021-.021-.021-.021-.021-.021-.021-.021-.021-.021-.021-.021-.02-.02-.02-.02-.02-.02-.02-.02-.04-.04-.039-.039-.039-.039-.038-.038-.038-.037-.037-.037-.037-.036-.036-.036-.035-.035-.035-.034-.034-.034-.033-.033-.033-.032-.032-.032-.031-.031-.031-.03-.03-.03-.029-.029-.029-.028-.028-.027-.027-.027-.026-.026-.026-.025-.025-.024-.024-.024-.023-.023-.022-.022-.022-.021-.021-.02-.03l-1.5-.019zm0 10.991a2.83 2.83 0 0 1-.174.978c-.061.148-.121.229-.161.265-.026.023-.036.026-.062.026v1.5c.919 0 1.398-.7 1.612-1.223.221-.539.285-1.148.285-1.546h-1.5zm-.397 1.269h-.021-.021-.021-.021-.021-.021-.021-.02-.02-.02-.025-.025-.025-.024-.024-.024-.024-.023-.023-.023-.023-.023-.022-.022-.022-.022-.021-.021-.021-.021-.021-.02-.02-.024-.024-.023-.023-.023-.022-.022-.022-.021-.021-.021-.021-.02-.023-.023-.022-.022-.021-.021-.021-.02-.023-.022-.021-.021-.02-.022-.021-.021-.022-.021-.021-.021-.02-.021-.021-.021-.021-.02-.021l-.014 1.5h.021.021.021.02.02.022.021.021.022.021.021.02.021.022.022.02.021.021.022.023.02.021.021.022.022.022.023.023.02.021.021.021.022.022.022.022.023.023.023.024.024.02.021.021.021.021.021.022.022.022.022.023.023.023.023.023.024.024.024.024.024.025.025.02.02.02.021.021.021.021.021.021.021l.016-1.5zm-2.356.75V25h1.5v-4.037h-1.5zm1.246 3.474L22.156 20.4l-.991 1.126 4.587 4.037.991-1.126zm-5.083-4.224H10.154v1.5h11.507v-1.5zm-11.507 0a1 1 0 0 1-.54-.172c-.133-.096-.276-.264-.276-.648h-1.5c0 .872.379 1.489.899 1.864.481.347 1.037.456 1.418.456v-1.5zM4.79 21.461l4.358-4.901-1.121-.997-4.358 4.901 1.121.997zm4.358-4.901l.229-.258-1.121-.997-.229.258 1.121.997zm-.331-.006h11.697v-1.5H8.817v1.5zM20.514.25H2.165v1.5h18.349V.25zM.268 2.346v11.888h1.5V2.346h-1.5zm9.069 17.047v-.026-.026-.026-.027-.027-.02-.02-.02-.02-.02-.02-.02-.02-.02-.021-.021-.021-.021-.021-.021-.021-.021-.021-.021-.021-.021-.021-.021-.021-.021-.021-.021-.021-.021-.021-.021-.021-.021-.021-.021-.021-.021-.021-.021-.021-.021-.021-.021-.021-.021-.021-.021-.021-.021-.021-.021-.021-.021-.021-.022-.021-.021-.021-.021-.021-.021-.021-.021-.021-.021-.021-.021-.021-.021-.021-.021-.021-.021-.021-.021-.021-.021-.021-.021-.021-.021-.021-.021-.021-.021-.021-.021-.021-.021-.021-.02-.02-.02-.02-.02-.02-.02-.027-.027-.026-.027-.026-.026-.026-.026-.026-.026-.026-.026-.025-.025-.025-.025-.025-.025-.024-.024-.024-.024-.024-.024-.023-.023-.023-.023-.023-.023-.022-.022-.022-.022-.022-.021-.021-.021-.021-.021-.02-.02-.025-.025-.024-.024-.024-.023l-1.5-.014v.023.023.024.024.024.025.02.02.02.021.021.021.021.021.022.022.022.022.023.023.023.023.023.023.024.024.024.024.024.024.024.025.025.025.025.025.025.025.026.026.026.026.026.026.026.026.027.027.027.02.02.02.02.02.02.021.02.021.021.021.021.021.021.021.021.021.021.021.021.021.021.021.021.021.021.021.021.021.021.021.021.021.021.021.021.021.021.021.021.021.021.021.021.021.021.022.021.021.021.021.021.021.021.021.021.021.021.021.021.021.021.021.021.021.021.021.021.021.021.021.021.021.021.021.021.021.021.021.021.021.021.021.021.021.021.021.02.021.02.02.02.02.02.02.02.02.027.026.026.026l1.5.02zm0-3.331v-.02-.02-.02-.02-.021-.02-.02-.02-.02-.02-.02-.02l-1.5-.014v.02.02.02.02.02.02.02.02.02.02.02.021l1.5.015zm-1.5 0v3.331h1.5v-3.331h-1.5zm18.411 5.651h1.606v-1.5h-1.606v1.5zm3.502-2.769V7.953h-1.5v10.991h1.5z" fill="#f8d255"/><g stroke="#6d43ec"><path d="M11 13h-1v.5.5h1v-1z" fill="#6d43ec" stroke-width=".5"/><path d="M9.018 6.569c-.356-2.829 4.626-3.975 4.982 0C14 9.892 9.716 8.341 10.513 11" stroke-linecap="round"/></g></svg>