<svg viewBox="128.667 133.84 214.864 190.94" xmlns="http://www.w3.org/2000/svg">
  <defs></defs>
  <path style="fill:#FFA800;" d="M 240.646 301.086 C 244.999 301.086 248.56 298.015 248.56 294.262 L 248.56 215.793 L 266.759 215.793 C 271.506 215.793 273.88 210.676 270.319 207.946 L 236.295 169.053 C 234.316 167.347 233.13 165.983 232.338 165.301 C 237.877 163.936 243.812 165.301 248.164 169.053 L 282.583 207.606 C 286.144 210.335 283.77 215.453 279.023 215.453 L 260.824 215.453 L 260.824 293.921 C 260.824 297.674 257.263 300.745 252.911 300.745" transform="matrix(-1, 0, 0, -1, 516.635605, 465.869629)"></path>
  <path style="fill:#FFFFFF;" d="M 190.592 296.25 C 186.241 296.25 182.68 293.18 182.68 289.427 L 182.68 210.958 L 164.085 210.958 C 159.337 210.958 156.963 205.841 160.524 203.111 L 194.944 164.218 C 196.922 162.512 198.11 161.147 198.9 160.465 C 193.361 159.101 187.427 160.465 183.075 164.218 L 148.655 203.111 C 145.49 205.841 147.863 210.958 152.612 210.958 L 170.811 210.958 L 170.811 289.427 C 170.811 293.18 174.371 296.25 178.723 296.25"></path>
  <path style="fill: rgb(255, 99, 0);" d="M 154.731 210.958 L 173.326 210.958 L 173.326 289.427 C 173.326 293.18 176.887 296.25 181.238 296.25 L 201.021 296.25 C 205.372 296.25 208.933 293.18 208.933 289.427 L 208.933 210.958 L 227.528 210.958 C 232.275 210.958 234.649 205.841 231.089 203.111 L 196.669 164.218 C 190.734 158.078 191.526 158.078 185.591 164.218 L 151.171 202.771 C 147.609 205.841 149.984 210.958 154.731 210.958"></path>
  <path style="fill: rgb(255, 194, 49);" d="M 313.699 216.129 L 295.501 216.129 L 295.501 294.598 C 295.501 298.35 291.94 301.421 287.588 301.421 L 267.806 301.421 C 263.454 301.421 259.893 298.35 259.893 294.598 L 259.893 216.129 L 241.299 216.129 C 236.551 216.129 234.177 211.012 237.738 208.282 L 272.157 169.389 C 278.092 163.248 277.301 163.248 283.236 169.389 L 317.655 207.941 C 320.821 211.012 318.447 216.129 313.699 216.129" transform="matrix(-1, 0, 0, -1, 555.120193, 466.204239)"></path>
  <path d="M 206.813 299.662 L 175.163 299.662 C 168.436 299.662 163.294 295.227 163.294 289.427 L 163.294 282.603 C 163.294 280.557 164.877 279.192 167.25 279.192 C 169.624 279.192 171.207 280.557 171.207 282.603 L 171.207 289.427 C 171.207 291.474 173.185 292.838 175.162 292.838 L 206.813 292.838 C 209.187 292.838 210.769 291.132 210.769 289.427 L 210.769 210.958 C 210.769 208.911 212.352 207.547 214.725 207.547 L 233.32 207.547 C 234.112 207.547 234.508 207.206 234.508 206.864 C 234.508 206.523 234.902 206.182 234.112 205.5 L 233.716 205.158 L 199.296 166.607 C 197.318 164.559 194.153 163.195 190.988 163.195 C 187.823 163.195 184.658 164.559 182.68 166.607 L 148.26 205.158 L 147.864 205.5 C 147.468 205.841 147.468 206.523 147.468 206.864 C 147.468 207.205 147.864 207.547 148.656 207.547 L 167.25 207.547 C 169.624 207.547 171.207 208.911 171.207 210.958 L 171.207 255.31 C 171.207 257.357 169.624 258.722 167.25 258.722 C 164.877 258.722 163.294 257.357 163.294 255.31 L 163.294 214.369 L 149.051 214.369 C 145.095 214.369 141.929 212.323 140.348 209.252 C 138.765 206.523 139.556 203.111 142.326 200.723 L 176.35 162.513 C 180.306 158.419 185.449 156.372 190.988 156.372 C 196.527 156.372 201.67 158.419 205.23 162.171 L 239.651 200.724 C 242.024 203.112 242.816 206.183 241.629 209.252 C 240.047 212.323 236.882 214.37 232.925 214.37 L 218.683 214.37 L 218.683 289.427 C 218.682 295.227 213.538 299.662 206.813 299.662 Z"></path>
  <path d="M 171.207 268.957 C 171.207 266.91 169.624 265.545 167.25 265.545 C 164.877 265.545 163.294 266.91 163.294 268.957 C 163.294 271.004 164.877 272.368 167.25 272.368 C 169.624 272.368 171.207 271.004 171.207 268.957"></path>
  <path d="M 292.295 304.662 L 260.645 304.662 C 253.919 304.662 248.776 300.227 248.776 294.427 L 248.776 219.37 L 234.534 219.37 C 230.577 219.37 227.412 217.323 225.83 214.252 C 224.643 211.183 225.038 208.112 227.808 205.724 L 262.227 167.171 C 265.788 163.419 270.932 161.372 276.471 161.372 C 282.01 161.372 287.152 163.419 290.713 167.171 L 325.134 205.724 C 327.507 208.112 328.298 211.183 327.112 214.252 C 325.529 217.323 322.363 219.37 318.408 219.37 L 304.165 219.37 L 304.165 294.427 C 304.165 300.227 298.626 304.662 292.295 304.662 Z M 276.471 168.195 C 273.306 168.195 270.141 169.559 268.162 171.607 L 233.742 210.158 L 233.347 210.5 C 232.951 210.841 232.951 211.523 232.951 211.864 C 232.951 212.205 233.347 212.547 234.138 212.547 L 252.733 212.547 C 255.107 212.547 256.688 213.911 256.688 215.958 L 256.688 294.427 C 256.688 296.474 258.667 297.838 260.645 297.838 L 292.295 297.838 C 294.67 297.838 296.252 296.132 296.252 294.427 L 296.252 215.958 C 296.252 213.911 297.835 212.547 300.208 212.547 L 318.803 212.547 C 319.594 212.547 319.989 212.206 319.989 211.864 C 319.989 211.523 320.385 211.182 319.594 210.5 L 319.199 210.158 L 284.779 171.607 C 282.801 169.559 279.636 168.195 276.471 168.195 Z" transform="matrix(-1, 0, 0, -1, 552.855682, 466.033981)"></path>
</svg>