<svg height="512px" viewBox="56 56 400 400" width="512px" xmlns="http://www.w3.org/2000/svg">
<circle  cx="256" cy="256" r="187" fill="#ffffff" data-original="#ffffff" class=""/>
<path fill="#b83cfa" d="m394.335938 117.664062c-37.183594-37.183593-86.3125-57.664062-138.335938-57.664062s-101.152344 20.480469-138.335938 57.664062c-37.183593 37.183594-57.664062 86.3125-57.664062 138.335938s20.480469 101.152344 57.664062 138.335938c37.183594 37.183593 86.3125 57.664062 138.335938 57.664062s101.152344-20.480469 138.335938-57.664062c37.183593-37.183594 57.664062-86.3125 57.664062-138.335938s-20.480469-101.152344-57.664062-138.335938zm-48.335938 48.335938h-60c6.601562 8.699219 11.101562 18.898438 13.5 30h46.5v30h-46.5c-5.699219 27.300781-25.5 48.898438-51.898438 57l93.296876 81.601562-19.796876 22.796876-115.800781-101.398438h-39.300781v-30h60c19.5 0 36.300781-12.601562 42.300781-30h-102.300781v-30h102.300781c-6-17.398438-22.800781-30-42.300781-30h-60v-30h180zm0 0"/></svg>