<svg id="logosandtypes_com" data-name="logosandtypes com" viewBox="0 0 150 150" xmlns="http://www.w3.org/2000/svg">
  <defs>
    <style>.cls-1{fill:none;}.cls-2{fill:#ff562d;}</style>
  </defs>
  <path class="cls-1" d="M0,.2H150v150H0Z" transform="translate(0 -0.2)"></path>
  <ellipse style="fill: rgb(255, 255, 255);" cx="75.268" cy="74.194" rx="73.121" ry="73.121"></ellipse>
  <path class="cls-2" d="M51.84,62.82c-.19,5.15-7.46,5.08-7.79,0,.28-5.07,8-5.3,7.79,0Z" transform="translate(0 -0.2)"></path>
  <path class="cls-2" d="M65.11,69.46c-.09,5-7.63,4.87-7.77-.06.23-5.05,7.7-5,7.77.06Z" transform="translate(0 -0.2)"></path>
  <path class="cls-2" d="M34.91,72.21c5.08.4,4.59,7.79-.44,7.72-5.11-.48-4.82-7.93.44-7.68Z" transform="translate(0 -0.2)"></path>
  <path class="cls-2" d="M114.6,27.13s0,0,0-.07a16.49,16.49,0,0,0-33,.18v64.7c.77,6.31-6.35,11.36-12.06,8.63a8.63,8.63,0,0,1-5.11-8.63V83.06a3.16,3.16,0,0,0-5.26-2.7A3.31,3.31,0,0,0,58.1,82.6c-.39,3-2.73,4.28-5.09,3.17a3.66,3.66,0,0,1-2-3.65V75.86a3,3,0,0,0-3.89-3,3.14,3.14,0,0,0-2.29,3.43V88.63c0,2.4-1.06,3.84-3.17,4-3,.21-3.5-2-4.12-4.78-1.11-2.52-5.24-2.2-5.92.48A53.31,53.31,0,0,0,32,98.27c2.72,21.53,23.8,38,45.36,35.62,20.31-1.76,37.15-19.91,37.29-40.3Z" transform="translate(0 -0.2)"></path>
</svg>