<svg viewBox="103.451 139.658 74.557 75.852" xmlns="http://www.w3.org/2000/svg">
  <defs></defs>
  <circle style="fill: rgb(255, 194, 49);" cx="286.854" cy="176.615" r="28" transform="matrix(1, 0, 0, 1, -146.417171, 0.746987)"></circle>
  <ellipse style="fill:#ECF0F1;" cx="280.854" cy="172.115" rx="16" ry="15.5" transform="matrix(1, 0, 0, 1, -146.417171, 0.746987)"></ellipse>
  <path style="fill:#38454F;" d="M 281.354 172.615 L 278.354 172.615 C 275.321 172.615 272.854 170.148 272.854 167.115 C 272.854 164.082 275.321 161.615 278.354 161.615 L 281.354 161.615 C 284.387 161.615 286.854 164.082 286.854 167.115 C 286.854 170.148 284.387 172.615 281.354 172.615 Z M 278.354 163.615 C 276.424 163.615 274.854 165.185 274.854 167.115 C 274.854 169.045 276.424 170.615 278.354 170.615 L 281.354 170.615 C 283.284 170.615 284.854 169.045 284.854 167.115 C 284.854 165.185 283.284 163.615 281.354 163.615 L 278.354 163.615 Z" transform="matrix(1, 0, 0, 1, -146.417171, 0.746987)"></path>
  <path style="fill:#38454F;" d="M 281.354 181.615 L 278.354 181.615 C 275.321 181.615 272.854 179.148 272.854 176.115 C 272.854 173.082 275.321 170.615 278.354 170.615 L 281.354 170.615 C 284.387 170.615 286.854 173.082 286.854 176.115 C 286.854 179.148 284.387 181.615 281.354 181.615 Z M 278.354 172.615 C 276.424 172.615 274.854 174.185 274.854 176.115 C 274.854 178.045 276.424 179.615 278.354 179.615 L 281.354 179.615 C 283.284 179.615 284.854 178.045 284.854 176.115 C 284.854 174.185 283.284 172.615 281.354 172.615 L 278.354 172.615 Z" transform="matrix(1, 0, 0, 1, -146.417171, 0.746987)"></path>
</svg>