<svg height="512px" viewBox="56 56 400 400" width="512px" xmlns="http://www.w3.org/2000/svg">
<circle  cx="256" cy="256" r="187" fill="#ffffff" data-original="#ffffff" class=""/>
<path fill='#0fab8b' d="m394.335938 117.664062c-37.183594-37.183593-86.3125-57.664062-138.335938-57.664062s-101.152344 20.480469-138.335938 57.664062c-37.183593 37.183594-57.664062 86.3125-57.664062 138.335938s20.480469 101.152344 57.664062 138.335938c37.183594 37.183593 86.3125 57.664062 138.335938 57.664062s101.152344-20.480469 138.335938-57.664062c37.183593-37.183594 57.664062-86.3125 57.664062-138.335938s-20.480469-101.152344-57.664062-138.335938zm-48.335938 63.335938h-75v30h75v30h-75v120h30v30h-90v-30h30v-120h-75v-30h75v-30h-75v-30h180zm0 0"/></svg>