<svg width="24" height="30" viewBox="0 0 24 30" fill="none" xmlns="http://www.w3.org/2000/svg">
<path fill-rule="evenodd" clip-rule="evenodd" d="M5.985 20.8746C6.599 21.6886 7.423 22.4136 8.458 23.0486C9.521 23.7016 10.707 24.1476 11.819 24.3906C11.563 24.5566 9.552 24.9956 7.859 23.9526C6.73 23.2576 6.105 22.2306 5.984 20.8736L5.985 20.8746ZM20.844 1.09164C20.978 1.16264 21.081 1.26964 21.147 1.39464L21.165 1.42564C21.958 2.82264 22.673 5.01164 22.849 6.79964C23.155 9.90164 22.922 10.4626 22.108 12.6246C22.101 12.6276 22.094 12.6316 22.087 12.6346C21.963 12.9396 21.822 13.2436 21.662 13.5436C21.445 13.9516 21.204 14.3356 20.942 14.6956C17.717 20.1236 15.614 23.0276 14.631 23.4056C13.887 23.7396 11.979 23.2886 9.85 22.1566C7.571 20.9446 6.021 19.4026 6.062 18.6076C5.917 17.4246 7.182 13.9596 9.857 8.21264L10.09 7.71464L10.224 7.46264C10.62 6.71864 11.096 6.05264 11.631 5.47464C12.46 4.38664 13.134 3.82464 15.275 2.66764C16.856 1.81364 18.739 1.12564 20.341 1.00164C20.385 0.998638 20.428 0.999638 20.471 1.00564C20.596 1.00064 20.724 1.02764 20.843 1.09064L20.844 1.09164ZM14.111 8.88364C12.746 8.30364 11.012 9.31464 10.238 11.1416C9.464 12.9686 9.942 14.9206 11.307 15.5006C12.672 16.0806 14.406 15.0696 15.18 13.2426C15.954 11.4156 15.476 9.46364 14.111 8.88364ZM12.943 10.1796L12.773 10.4996L13.401 10.3436L13.441 10.3346C13.508 10.3226 13.57 10.3276 13.625 10.3476L13.657 10.3616C13.708 10.3876 13.75 10.4286 13.779 10.4836L14.332 11.6546L14.344 11.6866C14.39 11.8316 14.36 12.0266 14.264 12.2066L13.395 13.8406L13.372 13.8816C13.269 14.0546 13.122 14.1736 12.98 14.1966L11.726 14.3436H11.69C11.631 14.3406 11.578 14.3186 11.532 14.2826L11.506 14.2586C11.464 14.2156 11.43 14.1586 11.409 14.0896L10.928 12.7276C10.882 12.5826 10.9 12.4106 10.977 12.2646L12.532 9.34064L12.539 9.33164C12.554 9.31564 12.584 9.29864 12.595 9.30064C12.651 9.30864 12.703 9.32064 12.749 9.33464L12.784 9.34564C13.109 9.46264 13.17 9.75364 12.943 10.1796ZM13.247 11.2046L13.213 11.1906C12.746 11.0106 12.132 11.3186 11.824 11.8966C11.509 12.4886 11.597 13.2106 12.021 13.5086L12.059 13.5336C12.254 13.6516 12.486 13.6516 12.716 13.5526L12.723 13.5486C12.735 13.5396 12.751 13.5176 12.749 13.4976L12.747 13.4756C12.733 13.3046 12.686 12.8216 12.658 12.5646L12.638 12.3966V12.3816C12.64 12.3626 12.651 12.3486 12.668 12.3396L12.687 12.3296C12.889 12.2246 13.601 11.8386 13.623 11.8266L13.634 11.8186C13.65 11.8036 13.653 11.7826 13.651 11.7726L13.641 11.7206C13.585 11.4826 13.451 11.2966 13.245 11.2056L13.247 11.2046ZM12.707 11.5446C12.82 11.6216 12.774 11.8086 12.687 11.9176C12.6 12.0266 12.449 12.1266 12.325 12.0426C12.2 11.9586 12.282 11.7616 12.377 11.6506C12.472 11.5396 12.594 11.4676 12.707 11.5446Z" fill="#FFC231"/>
<path d="M19.189 22.0236C19.327 21.3376 19.268 20.1016 19.189 19.5556C18.725 20.4026 17.877 21.7936 16.989 22.7756C16.131 23.7236 15.433 24.4006 14.796 24.5366C14.785 24.5856 14.914 24.8956 14.796 26.1356C14.717 26.9626 14.478 27.8036 14.079 28.6606L14.796 29.0006L15.164 28.6956C17.327 26.8446 18.669 24.6206 19.189 22.0236Z" fill="#FA305F"/>
<path d="M4.944 17.4706C5.523 15.3156 6.339 13.2316 7.391 11.2196C6.474 11.4596 5.513 12.1086 4.511 13.1686C3.573 14.1606 1.783 16.3606 1 18.0426C1.037 18.1696 1.179 18.3976 1.429 18.7276C2.578 17.8016 3.75 17.3826 4.944 17.4706Z" fill="#FA305F"/>
<path d="M5.985 20.8746L6.38418 20.5735L6.36319 20.5457L6.33855 20.5211L5.985 20.8746ZM8.458 23.0486L8.71971 22.6226L8.71947 22.6225L8.458 23.0486ZM11.819 24.3906L12.091 24.8102L13.0967 24.158L11.9257 23.9022L11.819 24.3906ZM7.859 23.9526L8.12126 23.5269L8.12111 23.5268L7.859 23.9526ZM5.984 20.8736L6.33755 20.5201L5.36365 19.5462L5.48598 20.918L5.984 20.8736ZM20.844 1.09164L20.4903 1.44507L20.5435 1.49825L20.6099 1.53345L20.844 1.09164ZM21.147 1.39464L20.7048 1.62809L20.7096 1.637L20.7146 1.6457L21.147 1.39464ZM21.165 1.42564L21.5998 1.1788L21.5974 1.17457L21.165 1.42564ZM22.849 6.79964L22.3514 6.84862L22.3514 6.84872L22.849 6.79964ZM22.108 12.6246L22.305 13.0842L22.5008 13.0003L22.5759 12.8008L22.108 12.6246ZM22.087 12.6346L21.89 12.1751L21.7012 12.256L21.6238 12.4463L22.087 12.6346ZM21.662 13.5436L21.2208 13.3083L21.2206 13.3088L21.662 13.5436ZM20.942 14.6956L20.5377 14.4014L20.524 14.4202L20.5121 14.4402L20.942 14.6956ZM14.631 23.4056L14.4515 22.939L14.4387 22.9439L14.4262 22.9495L14.631 23.4056ZM9.85 22.1566L9.61523 22.5981L9.61527 22.5981L9.85 22.1566ZM6.062 18.6076L6.56134 18.6334L6.56358 18.59L6.55829 18.5468L6.062 18.6076ZM9.857 8.21264L9.40412 8.00075L9.4037 8.00164L9.857 8.21264ZM10.09 7.71464L9.64853 7.47989L9.64253 7.49117L9.63712 7.50275L10.09 7.71464ZM10.224 7.46264L9.78263 7.22771L9.78253 7.22789L10.224 7.46264ZM11.631 5.47464L11.9979 5.81428L12.0142 5.79671L12.0287 5.77767L11.631 5.47464ZM15.275 2.66764L15.0374 2.22772L15.0373 2.22776L15.275 2.66764ZM20.341 1.00164L20.307 0.502775L20.3024 0.503129L20.341 1.00164ZM20.471 1.00564L20.4019 1.50084L20.4462 1.50703L20.491 1.50524L20.471 1.00564ZM20.843 1.09064L21.1967 0.737211L21.1435 0.683964L21.0769 0.648744L20.843 1.09064ZM12.943 10.1796L12.5017 9.9445L12.5014 9.94506L12.943 10.1796ZM12.773 10.4996L12.3314 10.2651L11.8054 11.2552L12.8935 10.9849L12.773 10.4996ZM13.401 10.3436L13.2912 9.85572L13.2805 9.85839L13.401 10.3436ZM13.441 10.3346L13.3528 9.84247L13.342 9.84441L13.3312 9.84684L13.441 10.3346ZM13.625 10.3476L13.8254 9.88956L13.8108 9.88318L13.7959 9.87774L13.625 10.3476ZM13.657 10.3616L13.8841 9.91619L13.8709 9.90948L13.8574 9.90356L13.657 10.3616ZM13.779 10.4836L14.2311 10.2701L14.2264 10.2602L14.2213 10.2504L13.779 10.4836ZM14.332 11.6546L14.8002 11.4791L14.7929 11.4598L14.7841 11.4411L14.332 11.6546ZM14.344 11.6866L14.8206 11.5354L14.8167 11.5232L14.8122 11.5111L14.344 11.6866ZM14.264 12.2066L13.8228 11.9713L13.8225 11.9719L14.264 12.2066ZM13.395 13.8406L13.8312 14.0853L13.8365 14.0754L13.395 13.8406ZM13.372 13.8816L13.8018 14.1375L13.8081 14.1263L13.372 13.8816ZM12.98 14.1966L13.0382 14.6932L13.0491 14.692L13.0599 14.6902L12.98 14.1966ZM11.726 14.3436V14.8436H11.7552L11.7842 14.8402L11.726 14.3436ZM11.69 14.3436L11.6646 14.843L11.6773 14.8436H11.69V14.3436ZM11.532 14.2826L11.1929 14.65L11.2078 14.6638L11.2238 14.6764L11.532 14.2826ZM11.506 14.2586L11.1483 14.608L11.1574 14.6173L11.1669 14.626L11.506 14.2586ZM11.409 14.0896L11.8873 13.9441L11.8841 13.9335L11.8805 13.9231L11.409 14.0896ZM10.928 12.7276L10.4514 12.8788L10.4538 12.8865L10.4565 12.8941L10.928 12.7276ZM10.977 12.2646L10.5355 12.0299L10.5347 12.0314L10.977 12.2646ZM12.532 9.34064L12.1373 9.03366L12.1108 9.06775L12.0905 9.10587L12.532 9.34064ZM12.539 9.33164L12.1742 8.98967L12.1585 9.00648L12.1443 9.02466L12.539 9.33164ZM12.595 9.30064L12.5056 9.79257L12.5149 9.79427L12.5243 9.79561L12.595 9.30064ZM12.749 9.33464L12.8989 8.85762L12.8946 8.8563L12.749 9.33464ZM12.784 9.34564L12.9534 8.87519L12.9437 8.87172L12.9339 8.86864L12.784 9.34564ZM13.247 11.2046L13.4706 11.6519L14.4531 11.1606L13.4374 10.7423L13.247 11.2046ZM13.213 11.1906L13.4034 10.7282L13.3928 10.7241L13.213 11.1906ZM11.824 11.8966L11.3827 11.6615L11.3826 11.6618L11.824 11.8966ZM12.021 13.5086L11.7335 13.9177L11.7398 13.9221L11.7462 13.9263L12.021 13.5086ZM12.059 13.5336L11.7842 13.9513L11.7921 13.9565L11.8001 13.9614L12.059 13.5336ZM12.716 13.5526L12.9137 14.0119L12.9396 14.0008L12.9641 13.9868L12.716 13.5526ZM12.723 13.5486L12.9711 13.9828L12.9981 13.9673L13.023 13.9486L12.723 13.5486ZM12.749 13.4976L12.251 13.5429L12.2515 13.5474L12.749 13.4976ZM12.747 13.4756L12.2486 13.5164L12.2491 13.5209L12.747 13.4756ZM12.658 12.5646L13.1551 12.5105L13.1545 12.5055L12.658 12.5646ZM12.638 12.3966H12.138V12.4263L12.1415 12.4557L12.638 12.3966ZM12.638 12.3816L12.1407 12.3293L12.138 12.3554V12.3816H12.638ZM12.668 12.3396L12.4351 11.8972L12.4341 11.8977L12.668 12.3396ZM12.687 12.3296L12.4564 11.886L12.4541 11.8872L12.687 12.3296ZM13.623 11.8266L13.8624 12.2656L13.8909 12.2501L13.9171 12.231L13.623 11.8266ZM13.634 11.8186L13.9281 12.223L13.9533 12.2047L13.976 12.1834L13.634 11.8186ZM13.651 11.7726L13.16 11.8671L13.1607 11.8707L13.651 11.7726ZM13.641 11.7206L14.132 11.6262L14.1301 11.6161L14.1277 11.6061L13.641 11.7206ZM13.245 11.2056L13.0214 10.7584L12.071 11.2336L13.043 11.663L13.245 11.2056ZM12.325 12.0426L12.6054 11.6287L12.6039 11.6276L12.325 12.0426ZM19.189 19.5556L19.6839 19.484L19.4695 18.0028L18.7505 19.3154L19.189 19.5556ZM19.189 22.0236L18.6988 21.925L18.6987 21.9255L19.189 22.0236ZM15.164 28.6956L15.4831 29.0806L15.4891 29.0755L15.164 28.6956ZM14.796 29.0006L14.5818 29.4524L14.8697 29.589L15.1151 29.3856L14.796 29.0006ZM14.079 28.6606L13.6257 28.4496L13.4162 28.8997L13.8648 29.1124L14.079 28.6606ZM14.796 26.1356L15.2937 26.1832L15.2938 26.183L14.796 26.1356ZM14.796 24.5366L14.6916 24.0477L14.3783 24.1145L14.3082 24.4271L14.796 24.5366ZM16.989 22.7756L17.3597 23.1112L17.3599 23.111L16.989 22.7756ZM7.391 11.2196L7.83409 11.4513L8.35776 10.4498L7.2644 10.7359L7.391 11.2196ZM4.944 17.4706L4.90725 17.9693L5.31959 17.9997L5.42687 17.6004L4.944 17.4706ZM1.429 18.7276L1.03045 19.0296L1.34158 19.4403L1.74275 19.1169L1.429 18.7276ZM1 18.0426L0.546709 17.8316L0.467382 18.002L0.519958 18.1825L1 18.0426ZM4.511 13.1686L4.8743 13.5122L4.87435 13.5121L4.511 13.1686ZM5.58583 21.1757C6.24382 22.0481 7.11796 22.8131 8.19653 23.4748L8.71947 22.6225C7.72804 22.0142 6.95418 21.3292 6.38418 20.5735L5.58583 21.1757ZM8.19629 23.4747C9.31177 24.1599 10.5511 24.6254 11.7123 24.8791L11.9257 23.9022C10.8629 23.6699 9.73023 23.2434 8.71971 22.6226L8.19629 23.4747ZM11.547 23.9711C11.5751 23.9529 11.5703 23.9617 11.4958 23.985C11.4341 24.0042 11.3467 24.0266 11.236 24.0479C11.0151 24.0903 10.7183 24.125 10.3778 24.125C9.6933 24.1251 8.86626 23.9859 8.12126 23.5269L7.59674 24.3783C8.54474 24.9624 9.5697 25.1251 10.378 25.125C10.7838 25.1249 11.1436 25.0839 11.4246 25.0299C11.565 25.003 11.6898 24.972 11.7938 24.9395C11.8849 24.9111 11.999 24.8699 12.091 24.8102L11.547 23.9711ZM8.12111 23.5268C7.13099 22.9173 6.58947 22.0343 6.48202 20.8292L5.48598 20.918C5.62053 22.427 6.32901 23.5979 7.59689 24.3784L8.12111 23.5268ZM5.63045 21.2272L5.63145 21.2282L6.33855 20.5211L6.33755 20.5201L5.63045 21.2272ZM20.6099 1.53345C20.6527 1.5561 20.6843 1.58926 20.7048 1.62809L21.5892 1.16118C21.4777 0.950014 21.3033 0.769173 21.0781 0.649825L20.6099 1.53345ZM20.7146 1.6457L20.7326 1.6767L21.5974 1.17457L21.5794 1.14357L20.7146 1.6457ZM20.7302 1.67247C21.4886 3.00861 22.1823 5.1302 22.3514 6.84862L23.3466 6.75066C23.1637 4.89307 22.4274 2.63667 21.5998 1.17881L20.7302 1.67247ZM22.3514 6.84872C22.5036 8.39167 22.5161 9.25573 22.4042 9.98925C22.292 10.7252 22.0524 11.3534 21.6401 12.4485L22.5759 12.8008C22.9776 11.7339 23.2615 11.0005 23.3928 10.14C23.5244 9.27705 23.5004 8.30961 23.3466 6.75055L22.3514 6.84872ZM21.911 12.1651C21.9003 12.1697 21.8914 12.1738 21.8856 12.1767C21.8801 12.1793 21.8751 12.1818 21.8739 12.1824C21.8716 12.1836 21.8731 12.1828 21.8751 12.1818C21.8774 12.1807 21.8828 12.1782 21.89 12.1751L22.284 13.0942C22.2947 13.0896 22.3036 13.0854 22.3094 13.0826C22.3149 13.0799 22.3199 13.0774 22.3211 13.0768C22.3234 13.0757 22.3219 13.0764 22.3199 13.0774C22.3176 13.0786 22.3122 13.0811 22.305 13.0842L21.911 12.1651ZM21.6238 12.4463C21.506 12.7362 21.3722 13.0245 21.2208 13.3083L22.1032 13.7789C22.2718 13.4628 22.42 13.1431 22.5502 12.8229L21.6238 12.4463ZM21.2206 13.3088C21.0146 13.6961 20.786 14.0603 20.5377 14.4014L21.3463 14.9899C21.622 14.611 21.8754 14.2071 22.1034 13.7784L21.2206 13.3088ZM20.5121 14.4402C18.9025 17.1494 17.5795 19.2174 16.5408 20.651C16.0211 21.3685 15.5793 21.9176 15.214 22.306C14.834 22.7101 14.584 22.888 14.4515 22.939L14.8105 23.8723C15.1695 23.7343 15.551 23.4074 15.9425 22.9911C16.3488 22.559 16.8187 21.972 17.3507 21.2377C18.4155 19.7679 19.7565 17.6698 21.3719 14.951L20.5121 14.4402ZM14.4262 22.9495C14.3411 22.9877 14.1711 23.0225 13.89 23.011C13.6174 22.9998 13.2783 22.9467 12.883 22.8463C12.0933 22.6456 11.1215 22.2664 10.0847 21.7152L9.61527 22.5981C10.7075 23.1788 11.7542 23.5912 12.6367 23.8155C13.0776 23.9275 13.488 23.9953 13.849 24.0102C14.2014 24.0246 14.5489 23.9906 14.8358 23.8618L14.4262 22.9495ZM10.0848 21.7152C8.97812 21.1267 8.05981 20.4636 7.43108 19.8639C7.116 19.5634 6.88465 19.2893 6.73795 19.0587C6.58276 18.8148 6.55907 18.6774 6.56134 18.6334L5.56266 18.5819C5.54443 18.9354 5.69911 19.2888 5.89424 19.5955C6.09785 19.9155 6.38875 20.2517 6.74092 20.5876C7.44669 21.2607 8.44288 21.9746 9.61523 22.5981L10.0848 21.7152ZM6.55829 18.5468C6.53348 18.3444 6.56654 17.9789 6.70371 17.4096C6.83758 16.8541 7.05885 16.15 7.37168 15.2931C7.99704 13.5802 8.97521 11.2919 10.3103 8.42363L9.4037 8.00164C8.06379 10.8803 7.07196 13.1981 6.43232 14.9502C6.11265 15.8258 5.87767 16.5689 5.73154 17.1754C5.58871 17.7681 5.51802 18.2794 5.56571 18.6685L6.55829 18.5468ZM10.3099 8.42453L10.5429 7.92653L9.63712 7.50275L9.40412 8.00075L10.3099 8.42453ZM10.5315 7.94938L10.6655 7.69738L9.78253 7.22789L9.64853 7.47989L10.5315 7.94938ZM10.6654 7.69756C11.0414 6.991 11.4926 6.36029 11.9979 5.81428L11.2641 5.135C10.6994 5.74499 10.1986 6.44628 9.78263 7.22771L10.6654 7.69756ZM12.0287 5.77767C12.4252 5.25727 12.7717 4.87888 13.2686 4.49122C13.7745 4.09652 14.4484 3.68268 15.5127 3.10752L15.0373 2.22776C13.9606 2.8096 13.227 3.25526 12.6534 3.7028C12.0708 4.15739 11.6658 4.60401 11.2333 5.17161L12.0287 5.77767ZM15.5126 3.10756C17.0586 2.27248 18.8721 1.61683 20.3796 1.50015L20.3024 0.503129C18.6059 0.634446 16.6534 1.3548 15.0374 2.22772L15.5126 3.10756ZM20.375 1.50048C20.389 1.49953 20.3972 1.50018 20.4019 1.50084L20.5401 0.510436C20.4588 0.499097 20.381 0.497751 20.307 0.502796L20.375 1.50048ZM20.491 1.50524C20.5299 1.50368 20.57 1.51185 20.6091 1.53253L21.0769 0.648744C20.878 0.543423 20.6621 0.497594 20.451 0.506038L20.491 1.50524ZM20.4893 1.44407L20.4903 1.44507L21.1977 0.738211L21.1967 0.737211L20.4893 1.44407ZM14.3065 8.42346C13.446 8.05779 12.5041 8.20985 11.701 8.67806C10.8981 9.1462 10.2026 9.94349 9.77761 10.9466L10.6984 11.3367C11.0474 10.5128 11.6059 9.89108 12.2047 9.54196C12.8034 9.19293 13.411 9.12948 13.9155 9.34382L14.3065 8.42346ZM9.77761 10.9466C9.35267 11.9496 9.26332 13.0045 9.48475 13.9078C9.7062 14.8112 10.2509 15.5951 11.1115 15.9608L11.5025 15.0405C10.9981 14.8261 10.6213 14.3441 10.456 13.6697C10.2907 12.9953 10.3493 12.1606 10.6984 11.3367L9.77761 10.9466ZM11.1115 15.9608C11.972 16.3265 12.9139 16.1744 13.717 15.7062C14.5199 15.2381 15.2154 14.4408 15.6404 13.4377L14.7196 13.0476C14.3706 13.8715 13.8121 14.4932 13.2133 14.8423C12.6146 15.1913 12.007 15.2548 11.5025 15.0405L11.1115 15.9608ZM15.6404 13.4377C16.0653 12.4346 16.1547 11.3798 15.9332 10.4765C15.7118 9.57308 15.1671 8.78913 14.3065 8.42346L13.9155 9.34382C14.4199 9.55815 14.7967 10.0402 14.962 10.7146C15.1273 11.389 15.0687 12.2236 14.7196 13.0476L15.6404 13.4377ZM12.5014 9.94506L12.3314 10.2651L13.2146 10.7342L13.3846 10.4142L12.5014 9.94506ZM12.8935 10.9849L13.5215 10.8289L13.2805 9.85839L12.6525 10.0144L12.8935 10.9849ZM13.5108 10.8314L13.5508 10.8224L13.3312 9.84684L13.2912 9.85584L13.5108 10.8314ZM13.5292 10.8268C13.5182 10.8288 13.4901 10.8306 13.4541 10.8175L13.7959 9.87774C13.6499 9.82468 13.4978 9.81651 13.3528 9.84247L13.5292 10.8268ZM13.4246 10.8057L13.4566 10.8197L13.8574 9.90356L13.8254 9.88956L13.4246 10.8057ZM13.4299 10.8071C13.3866 10.785 13.3546 10.7507 13.3367 10.7168L14.2213 10.2504C14.1454 10.1066 14.0294 9.99024 13.8841 9.91619L13.4299 10.8071ZM13.3269 10.6971L13.8799 11.8681L14.7841 11.4411L14.2311 10.2701L13.3269 10.6971ZM13.8638 11.8302L13.8758 11.8622L14.8122 11.5111L14.8002 11.4791L13.8638 11.8302ZM13.8674 11.8378C13.8622 11.8213 13.8679 11.8261 13.8631 11.8575C13.8585 11.8869 13.8464 11.9271 13.8228 11.9713L14.7052 12.4419C14.8422 12.1851 14.9197 11.8479 14.8206 11.5354L13.8674 11.8378ZM13.8225 11.9719L12.9535 13.6059L13.8365 14.0754L14.7055 12.4414L13.8225 11.9719ZM12.9589 13.596L12.9359 13.637L13.8081 14.1263L13.8311 14.0853L12.9589 13.596ZM12.9424 13.6259C12.9177 13.6673 12.8929 13.6932 12.877 13.7059C12.8595 13.72 12.8656 13.7087 12.9001 13.7031L13.0599 14.6902C13.4014 14.6349 13.6559 14.3821 13.8016 14.1374L12.9424 13.6259ZM12.9218 13.7L11.6678 13.847L11.7842 14.8402L13.0382 14.6932L12.9218 13.7ZM11.726 13.8436H11.69V14.8436H11.726V13.8436ZM11.7154 13.8443C11.7711 13.8471 11.8148 13.8691 11.8402 13.8889L11.2238 14.6764C11.3412 14.7682 11.4909 14.8342 11.6646 14.843L11.7154 13.8443ZM11.8711 13.9152L11.8451 13.8912L11.1669 14.626L11.1929 14.65L11.8711 13.9152ZM11.8637 13.9093C11.882 13.928 11.8869 13.9426 11.8873 13.9441L10.9307 14.2352C10.9731 14.3747 11.046 14.5033 11.1483 14.608L11.8637 13.9093ZM11.8805 13.9231L11.3995 12.5611L10.4565 12.8941L10.9375 14.2561L11.8805 13.9231ZM11.4046 12.5764C11.4043 12.5754 11.4018 12.566 11.4036 12.549C11.4054 12.5322 11.4107 12.5141 11.4193 12.4979L10.5347 12.0314C10.4008 12.2853 10.3615 12.5954 10.4514 12.8788L11.4046 12.5764ZM11.4185 12.4994L12.9735 9.57541L12.0905 9.10587L10.5355 12.0299L11.4185 12.4994ZM12.9267 9.64761L12.9337 9.63861L12.1443 9.02466L12.1373 9.03366L12.9267 9.64761ZM12.9038 9.67361C12.867 9.71278 12.8333 9.73419 12.8122 9.74599C12.7997 9.75297 12.7767 9.76488 12.7447 9.77576C12.7286 9.78125 12.7025 9.7891 12.6691 9.79445C12.6393 9.79923 12.5797 9.80604 12.5056 9.79257L12.6844 8.8087C12.55 8.78425 12.4436 8.82192 12.4227 8.82902C12.3816 8.84302 12.3481 8.85981 12.3248 8.87279C12.2822 8.89659 12.226 8.9345 12.1742 8.98967L12.9038 9.67361ZM12.5243 9.79561C12.5543 9.7999 12.5813 9.80623 12.6034 9.81297L12.8946 8.8563C12.8247 8.83505 12.7477 8.81738 12.6657 8.80566L12.5243 9.79561ZM12.5991 9.81163L12.6341 9.82263L12.9339 8.86864L12.8989 8.85764L12.5991 9.81163ZM12.6146 9.81608C12.6392 9.82493 12.6322 9.82746 12.6154 9.80979C12.5958 9.78915 12.5837 9.76285 12.5798 9.74272C12.5768 9.72727 12.582 9.73337 12.5731 9.77061C12.5643 9.80792 12.5439 9.86546 12.5017 9.9445L13.3843 10.4148C13.5203 10.1595 13.6209 9.85597 13.5612 9.5508C13.4928 9.20114 13.2433 8.97957 12.9534 8.87519L12.6146 9.81608ZM13.4374 10.7423L13.4034 10.7283L13.0226 11.653L13.0566 11.667L13.4374 10.7423ZM13.3928 10.7241C12.6031 10.4197 11.7598 10.9539 11.3827 11.6615L12.2653 12.1318C12.5042 11.6834 12.8889 11.6016 13.0332 11.6572L13.3928 10.7241ZM11.3826 11.6618C11.178 12.0463 11.1007 12.4778 11.1491 12.8735C11.1969 13.2653 11.3761 13.6665 11.7335 13.9177L12.3085 13.0996C12.2419 13.0527 12.1651 12.944 12.1417 12.7523C12.1188 12.5645 12.155 12.3389 12.2654 12.1315L11.3826 11.6618ZM11.7462 13.9263L11.7842 13.9513L12.3338 13.1159L12.2958 13.0909L11.7462 13.9263ZM11.8001 13.9614C12.1624 14.1806 12.5695 14.16 12.9137 14.0119L12.5183 13.0934C12.4025 13.1432 12.3456 13.1227 12.3179 13.1059L11.8001 13.9614ZM12.9641 13.9868L12.9711 13.9828L12.4749 13.1145L12.4679 13.1185L12.9641 13.9868ZM13.023 13.9486C13.0887 13.8993 13.1392 13.8382 13.1746 13.7766C13.2082 13.7183 13.2618 13.6009 13.2465 13.4479L12.2515 13.5474C12.2382 13.4143 12.2848 13.318 12.3079 13.2779C12.3328 13.2346 12.3692 13.189 12.423 13.1486L13.023 13.9486ZM13.2469 13.4524L13.2449 13.4304L12.2491 13.5209L12.2511 13.5429L13.2469 13.4524ZM13.2453 13.4348C13.2309 13.2581 13.1834 12.7704 13.1551 12.5105L12.1609 12.6188C12.1886 12.8729 12.2351 13.3512 12.2487 13.5164L13.2453 13.4348ZM13.1545 12.5055L13.1345 12.3375L12.1415 12.4557L12.1615 12.6237L13.1545 12.5055ZM13.138 12.3966V12.3816H12.138V12.3966H13.138ZM13.1353 12.434C13.1272 12.5103 13.0991 12.5863 13.0508 12.6523C13.004 12.7161 12.9486 12.7568 12.9019 12.7815L12.4341 11.8977C12.2959 11.9709 12.163 12.1175 12.1407 12.3293L13.1353 12.434ZM12.9009 12.7821L12.9199 12.7721L12.4541 11.8872L12.4351 11.8972L12.9009 12.7821ZM12.9176 12.7733C13.1249 12.6655 13.8415 12.277 13.8624 12.2656L13.3836 11.3877C13.3836 11.3877 13.3835 11.3877 13.3833 11.3878C13.3831 11.3879 13.3829 11.3881 13.3826 11.3882C13.382 11.3885 13.3813 11.3889 13.3803 11.3895C13.3784 11.3905 13.3758 11.3919 13.3726 11.3936C13.3662 11.3971 13.3574 11.4019 13.3465 11.4078C13.3246 11.4197 13.2943 11.4361 13.2579 11.4558C13.185 11.4953 13.0879 11.5478 12.9851 11.6032C12.7778 11.715 12.5532 11.8357 12.4564 11.886L12.9176 12.7733ZM13.9171 12.231L13.9281 12.223L13.3399 11.4143L13.3289 11.4223L13.9171 12.231ZM13.976 12.1834C14.1291 12.0399 14.1741 11.8389 14.1413 11.6746L13.1607 11.8707C13.1428 11.781 13.154 11.7049 13.1701 11.6507C13.1887 11.5885 13.2256 11.5162 13.292 11.4539L13.976 12.1834ZM14.142 11.6782L14.132 11.6262L13.15 11.8151L13.16 11.8671L14.142 11.6782ZM14.1277 11.6061C14.0439 11.2501 13.826 10.9157 13.447 10.7483L13.043 11.663C13.076 11.6776 13.1261 11.7152 13.1543 11.8352L14.1277 11.6061ZM13.4686 11.6529L13.4706 11.6519L13.0234 10.7574L13.0214 10.7584L13.4686 11.6529ZM12.4254 11.9578C12.3564 11.9108 12.312 11.8444 12.2904 11.781C12.2709 11.7238 12.2732 11.6797 12.2754 11.6606C12.2792 11.6286 12.2877 11.6164 12.2962 11.6057L13.0778 12.2295C13.1733 12.1099 13.2483 11.9497 13.2686 11.7777C13.2888 11.6063 13.258 11.3151 12.9886 11.1314L12.4254 11.9578ZM12.2962 11.6057C12.2872 11.617 12.2885 11.608 12.319 11.5946C12.3376 11.5865 12.3771 11.5728 12.4328 11.574C12.4934 11.5753 12.5547 11.5943 12.6054 11.6287L12.0446 12.4566C12.2894 12.6225 12.5502 12.5852 12.7207 12.5104C12.8795 12.4408 12.9998 12.3273 13.0778 12.2295L12.2962 11.6057ZM12.6039 11.6276C12.6783 11.6776 12.7296 11.7544 12.7506 11.8346C12.7687 11.9034 12.7594 11.9531 12.756 11.9677C12.7522 11.9844 12.7485 11.9894 12.7513 11.9843C12.7521 11.9827 12.7533 11.9807 12.7547 11.9787C12.7562 11.9766 12.757 11.9756 12.7569 11.9758L11.9971 11.3255C11.9106 11.4266 11.8199 11.5749 11.781 11.7458C11.7419 11.9176 11.7382 12.2507 12.0461 12.4576L12.6039 11.6276ZM12.7569 11.9758C12.7777 11.9514 12.7685 11.9727 12.7185 11.9924C12.6886 12.0041 12.6407 12.0163 12.5806 12.0115C12.5181 12.0064 12.4646 11.9845 12.4254 11.9578L12.9886 11.1314C12.7769 10.9872 12.5406 10.9876 12.352 11.0619C12.189 11.1261 12.0713 11.2389 11.9971 11.3255L12.7569 11.9758ZM18.6942 19.6272C18.7298 19.8738 18.7633 20.2972 18.7705 20.7451C18.7777 21.1988 18.757 21.636 18.6988 21.925L19.6792 22.1222C19.759 21.7253 19.7778 21.2014 19.7703 20.7292C19.7627 20.2511 19.7272 19.7835 19.6839 19.484L18.6942 19.6272ZM18.6987 21.9255C18.2024 24.4042 16.9237 26.5317 14.8389 28.3157L15.4891 29.0755C17.7303 27.1576 19.1356 24.8371 19.6793 22.1218L18.6987 21.9255ZM14.845 28.3107L14.477 28.6157L15.1151 29.3856L15.4831 29.0806L14.845 28.3107ZM15.0102 28.5489L14.2932 28.2089L13.8648 29.1124L14.5818 29.4524L15.0102 28.5489ZM14.5323 28.8717C14.952 27.9702 15.2086 27.0741 15.2937 26.1832L14.2983 26.0881C14.2254 26.8511 14.004 27.637 13.6257 28.4496L14.5323 28.8717ZM15.2938 26.183C15.3547 25.5425 15.3533 25.1272 15.335 24.8558C15.3257 24.7189 15.3124 24.6218 15.3019 24.5551C15.2953 24.5129 15.2945 24.5106 15.2926 24.4973C15.2921 24.4938 15.2937 24.5037 15.2946 24.5195C15.2952 24.5293 15.2986 24.5806 15.2839 24.6462L14.3082 24.4271C14.2921 24.4988 14.2952 24.5583 14.2964 24.5786C14.2979 24.6049 14.3011 24.6277 14.3028 24.6398C14.3054 24.6577 14.312 24.6973 14.314 24.7105C14.3209 24.7544 14.3304 24.8215 14.3373 24.9232C14.3512 25.1291 14.3553 25.4888 14.2983 26.0883L15.2938 26.183ZM14.9004 25.0256C15.3391 24.932 15.749 24.6659 16.132 24.3429C16.5208 24.0149 16.9288 23.5873 17.3597 23.1112L16.6183 22.4401C16.1912 22.912 15.8212 23.2968 15.4873 23.5784C15.1476 23.8649 14.8899 24.0053 14.6916 24.0477L14.9004 25.0256ZM17.3599 23.111C18.2872 22.0855 19.1573 20.6541 19.6275 19.7959L18.7505 19.3154C18.2927 20.1511 17.4669 21.5017 16.6182 22.4403L17.3599 23.111ZM6.94791 10.988C5.87928 13.0318 5.04979 15.1499 4.46112 17.3409L5.42687 17.6004C5.99621 15.4814 6.79872 13.4315 7.83409 11.4513L6.94791 10.988ZM4.98075 16.972C3.63248 16.8726 2.33891 17.3522 1.11525 18.3383L1.74275 19.1169C2.81709 18.2511 3.86752 17.8927 4.90725 17.9693L4.98075 16.972ZM1.82755 18.4257C1.70749 18.2672 1.61911 18.1407 1.55855 18.0439C1.49216 17.9377 1.4784 17.8971 1.48004 17.9028L0.519958 18.1825C0.558603 18.3151 0.634339 18.452 0.710705 18.5741C0.792888 18.7055 0.90051 18.858 1.03045 19.0296L1.82755 18.4257ZM1.45329 18.2537C2.20225 16.6448 3.94854 14.4912 4.8743 13.5122L4.1477 12.8251C3.19746 13.8301 1.36375 16.0765 0.546709 17.8316L1.45329 18.2537ZM4.87435 13.5121C5.84364 12.4867 6.72706 11.9102 7.5176 11.7033L7.2644 10.7359C6.22094 11.009 5.18236 11.7305 4.14765 12.8252L4.87435 13.5121Z" fill="#371699"/>
</svg>
