<svg width="34" height="32" viewBox="0 0 34 32" fill="none" xmlns="http://www.w3.org/2000/svg">
<mask id="path-1-inside-1_288_24" fill="white">
<path d="M17.9004 6.6292L18.8921 3.4709C15.7334 2.47903 12.5982 2.79566 10.0047 4.14984L11.6198 7.17396C13.4915 6.20587 15.731 5.94798 17.9004 6.6292Z"/>
<path d="M7.52602 12.0458L4.36772 11.054C3.25813 14.5876 3.71157 17.5696 4.97581 19.9193L8.09992 18.3833C7.10776 16.5002 6.8379 14.2371 7.52602 12.0458Z"/>
<path d="M22.7424 10.6666C21.76 8.80233 20.0697 7.31041 17.9004 6.6292C15.731 5.94798 13.4915 6.20587 11.6198 7.17396C9.72927 8.15186 8.21413 9.85444 7.52602 12.0458C6.8379 14.2371 7.10776 16.5002 8.09992 18.3833C9.08213 20.2476 10.7722 21.7394 12.9416 22.4207L22.7424 10.6666Z"/>
<path d="M17.9004 6.6292C20.0697 7.31041 21.76 8.80233 22.7424 10.6666L25.9952 9.1711C24.6484 6.51493 22.1581 4.49647 18.8921 3.4709L17.9004 6.6292Z"/>
<path d="M7.52602 12.0458C8.21413 9.85444 9.72927 8.15186 11.6198 7.17396L10.0047 4.14984C7.41124 5.50401 5.35948 7.89573 4.36772 11.054L7.52602 12.0458Z"/>
<path d="M12.9416 22.4207C10.7722 21.7394 9.08213 20.2476 8.09992 18.3833L4.97581 19.9193C6.53653 22.82 9.33295 24.7572 11.9498 25.5789L12.9416 22.4207Z"/>
</mask>
<path d="M17.9004 6.6292L18.8921 3.4709C15.7334 2.47903 12.5982 2.79566 10.0047 4.14984L11.6198 7.17396C13.4915 6.20587 15.731 5.94798 17.9004 6.6292Z" fill="#FFC231"/>
<path d="M7.52602 12.0458L4.36772 11.054C3.25813 14.5876 3.71157 17.5696 4.97581 19.9193L8.09992 18.3833C7.10776 16.5002 6.8379 14.2371 7.52602 12.0458Z" fill="#FFC231"/>
<path d="M22.7424 10.6666C21.76 8.80233 20.0697 7.31041 17.9004 6.6292C15.731 5.94798 13.4915 6.20587 11.6198 7.17396C9.72927 8.15186 8.21413 9.85444 7.52602 12.0458C6.8379 14.2371 7.10776 16.5002 8.09992 18.3833C9.08213 20.2476 10.7722 21.7394 12.9416 22.4207L22.7424 10.6666Z" fill="#FFC231"/>
<path d="M17.9004 6.6292C20.0697 7.31041 21.76 8.80233 22.7424 10.6666L25.9952 9.1711C24.6484 6.51493 22.1581 4.49647 18.8921 3.4709L17.9004 6.6292Z" fill="#FA305F"/>
<path d="M7.52602 12.0458C8.21413 9.85444 9.72927 8.15186 11.6198 7.17396L10.0047 4.14984C7.41124 5.50401 5.35948 7.89573 4.36772 11.054L7.52602 12.0458Z" fill="#FA305F"/>
<path d="M12.9416 22.4207C10.7722 21.7394 9.08213 20.2476 8.09992 18.3833L4.97581 19.9193C6.53653 22.82 9.33295 24.7572 11.9498 25.5789L12.9416 22.4207Z" fill="#FA305F"/>
<path d="M11.6198 7.17396L11.7347 7.39601L11.6198 7.17396ZM8.09992 18.3833L8.3211 18.2668L8.09992 18.3833ZM17.8255 6.86771C19.9294 7.52837 21.5683 8.97486 22.5212 10.7832L22.9636 10.5501C21.9517 8.6298 20.2101 7.09245 17.9753 6.39068L17.8255 6.86771ZM18.1389 6.70409L19.1306 3.5458L18.6536 3.396L17.6618 6.5543L18.1389 6.70409ZM7.76453 12.1207C8.43189 9.99546 9.9009 8.34455 11.7347 7.39601L11.505 6.95191C9.55765 7.95917 7.99638 9.71342 7.2875 11.9709L7.76453 12.1207ZM11.7347 7.39601C13.5501 6.457 15.7216 6.20706 17.8255 6.86771L17.9753 6.39068C15.7404 5.68891 13.4328 5.95474 11.505 6.95191L11.7347 7.39601ZM11.8404 7.05619L10.2253 4.03206L9.78421 4.26761L11.3993 7.29174L11.8404 7.05619ZM7.60091 11.8073L4.44262 10.8155L4.29283 11.2925L7.45112 12.2843L7.60091 11.8073ZM13.0165 22.1821C10.9126 21.5215 9.27381 20.0751 8.3211 18.2668L7.87874 18.4999C8.89045 20.4201 10.6319 21.9574 12.8667 22.6592L13.0165 22.1821ZM8.3211 18.2668C7.35873 16.4402 7.09718 14.2459 7.76453 12.1207L7.2875 11.9709C6.57862 14.2283 6.85679 16.5602 7.87874 18.4999L8.3211 18.2668ZM7.98962 18.159L4.86551 19.6949L5.08611 20.1436L8.21022 18.6077L7.98962 18.159ZM12.9416 22.4207L12.5576 22.1005L12.4942 22.1765L12.4646 22.2709L12.9416 22.4207ZM11.9498 25.5789L11.8 26.056L12.2771 26.2058L12.4269 25.7287L11.9498 25.5789ZM22.7424 10.6666L22.5335 10.2123L22.4308 10.2596L22.3584 10.3464L22.7424 10.6666ZM25.9952 9.1711L26.204 9.62538L26.6761 9.40835L26.4411 8.94498L25.9952 9.1711ZM10.0047 4.14984L9.77331 3.70662L10.0047 4.14984ZM4.97581 19.9193L5.41612 19.6824L4.97581 19.9193ZM18.7423 3.94794C21.8978 4.93882 24.2714 6.87703 25.5492 9.39722L26.4411 8.94498C25.0254 6.15284 22.4183 4.05412 19.0419 2.99387L18.7423 3.94794ZM22.9513 11.1209L26.204 9.62538L25.7863 8.71681L22.5335 10.2123L22.9513 11.1209ZM4.84476 11.2038C5.79807 8.16796 7.76393 5.88391 10.2362 4.59306L9.77331 3.70662C7.05855 5.12411 4.92089 7.6235 3.89069 10.9042L4.84476 11.2038ZM10.2362 4.59306C12.7084 3.3022 15.7061 2.99452 18.7423 3.94794L19.0419 2.99387C15.7608 1.96353 12.4881 2.28912 9.77331 3.70662L10.2362 4.59306ZM12.0996 25.1019C9.58597 24.3126 6.90524 22.45 5.41612 19.6824L4.5355 20.1562C6.16783 23.19 9.07993 25.2018 11.8 26.056L12.0996 25.1019ZM5.41612 19.6824C4.21755 17.4547 3.77439 14.6125 4.84476 11.2038L3.89069 10.9042C2.74188 14.5627 3.20559 17.6844 4.5355 20.1562L5.41612 19.6824ZM12.4646 22.2709L11.4728 25.4291L12.4269 25.7287L13.4186 22.5705L12.4646 22.2709ZM13.3256 22.7409L23.1264 10.9868L22.3584 10.3464L12.5576 22.1005L13.3256 22.7409Z" fill="#371699" mask="url(#path-1-inside-1_288_24)"/>
<mask id="path-3-inside-2_288_24" fill="white">
<path d="M22.4135 12.1379C24.6873 12.1379 26.7469 13.0549 28.2428 14.5393L30.8981 12.1379C28.8173 10.0073 25.8367 8.82759 22.4135 8.82759V12.1379Z"/>
<path d="M34.0005 20.4138H30.6894C30.6894 22.7062 29.7573 24.781 28.2514 26.2797L30.5734 29.0076C32.7124 27.0045 34.0005 24.0669 34.0005 20.4138Z"/>
<path d="M22.4135 28.6897C20.1397 28.6897 18.0803 27.7727 16.5847 26.2883L14.0642 28.6897C16.4223 30.9896 19.6707 32 22.4135 32V28.6897Z"/>
<path d="M14.1385 20.4138C14.1385 18.117 15.0739 16.0387 16.5847 14.5393L14.1378 12.1379C12.0691 14.2069 10.8281 17.1035 10.8281 20.4138L14.1385 20.4138Z"/>
<path fill-rule="evenodd" clip-rule="evenodd" d="M22.4135 32C25.6625 32 28.5127 30.9374 30.5734 29.0076L28.2514 26.2797L28.2428 26.2883C26.7469 27.7727 24.6873 28.6897 22.4135 28.6897V32ZM16.5847 26.2883C15.0739 24.7889 14.1385 22.7106 14.1385 20.4138L10.8281 20.4138C10.8281 24.1175 12.1541 26.8266 14.0642 28.6897L16.5847 26.2883ZM16.5847 14.5393C18.0803 13.0549 20.1397 12.1379 22.4135 12.1379V8.82759C19.1028 8.82759 16.2064 10.069 14.1378 12.1379L16.5847 14.5393ZM30.8981 12.1379L28.2428 14.5393C29.7537 16.0387 30.6894 18.117 30.6894 20.4138H34.0005C34.0005 16.9494 32.8421 14.1286 30.8981 12.1379Z"/>
<path d="M28.2428 14.5393C26.7469 13.0549 24.6873 12.1379 22.4135 12.1379C20.1397 12.1379 18.0803 13.0549 16.5847 14.5393C15.0739 16.0387 14.1385 18.117 14.1385 20.4138C14.1385 22.7106 15.0739 24.7889 16.5847 26.2883C18.0803 27.7727 20.1397 28.6897 22.4135 28.6897C24.6873 28.6897 26.7469 27.7727 28.2428 26.2883L28.2514 26.2797C29.7573 24.781 30.6894 22.7062 30.6894 20.4138C30.6894 18.117 29.7537 16.0387 28.2428 14.5393Z"/>
</mask>
<path d="M22.4135 12.1379C24.6873 12.1379 26.7469 13.0549 28.2428 14.5393L30.8981 12.1379C28.8173 10.0073 25.8367 8.82759 22.4135 8.82759V12.1379Z" fill="#5BB300"/>
<path d="M34.0005 20.4138H30.6894C30.6894 22.7062 29.7573 24.781 28.2514 26.2797L30.5734 29.0076C32.7124 27.0045 34.0005 24.0669 34.0005 20.4138Z" fill="#5BB300"/>
<path d="M22.4135 28.6897C20.1397 28.6897 18.0803 27.7727 16.5847 26.2883L14.0642 28.6897C16.4223 30.9896 19.6707 32 22.4135 32V28.6897Z" fill="#5BB300"/>
<path d="M14.1385 20.4138C14.1385 18.117 15.0739 16.0387 16.5847 14.5393L14.1378 12.1379C12.0691 14.2069 10.8281 17.1035 10.8281 20.4138L14.1385 20.4138Z" fill="#5BB300"/>
<path fill-rule="evenodd" clip-rule="evenodd" d="M22.4135 32C25.6625 32 28.5127 30.9374 30.5734 29.0076L28.2514 26.2797L28.2428 26.2883C26.7469 27.7727 24.6873 28.6897 22.4135 28.6897V32ZM16.5847 26.2883C15.0739 24.7889 14.1385 22.7106 14.1385 20.4138L10.8281 20.4138C10.8281 24.1175 12.1541 26.8266 14.0642 28.6897L16.5847 26.2883ZM16.5847 14.5393C18.0803 13.0549 20.1397 12.1379 22.4135 12.1379V8.82759C19.1028 8.82759 16.2064 10.069 14.1378 12.1379L16.5847 14.5393ZM30.8981 12.1379L28.2428 14.5393C29.7537 16.0387 30.6894 18.117 30.6894 20.4138H34.0005C34.0005 16.9494 32.8421 14.1286 30.8981 12.1379Z" fill="#FFC231"/>
<path d="M28.2428 14.5393C26.7469 13.0549 24.6873 12.1379 22.4135 12.1379C20.1397 12.1379 18.0803 13.0549 16.5847 14.5393C15.0739 16.0387 14.1385 18.117 14.1385 20.4138C14.1385 22.7106 15.0739 24.7889 16.5847 26.2883C18.0803 27.7727 20.1397 28.6897 22.4135 28.6897C24.6873 28.6897 26.7469 27.7727 28.2428 26.2883L28.2514 26.2797C29.7573 24.781 30.6894 22.7062 30.6894 20.4138C30.6894 18.117 29.7537 16.0387 28.2428 14.5393Z" fill="#FAE0A3"/>
<path d="M28.2428 14.5393L28.0667 14.7167L28.2428 14.5393ZM16.5847 14.5393L16.7608 14.7167L16.5847 14.5393ZM16.5847 26.2883L16.7608 26.1109L16.5847 26.2883ZM31.2419 29.7931L31.052 29.9556L31.4323 29.6311L31.2419 29.7931ZM30.5734 29.0076L30.7637 28.8456L30.7637 28.8456L30.5734 29.0076ZM30.6894 20.6638H34.0005V20.1638H30.6894V20.6638ZM22.4135 12.3879C24.6187 12.3879 26.6158 13.277 28.0667 14.7167L28.4189 14.3618C26.8781 12.8329 24.7559 11.8879 22.4135 11.8879V12.3879ZM28.0667 14.7167C29.5323 16.1711 30.4394 18.1863 30.4394 20.4138H30.9394C30.9394 18.0476 29.9752 15.9062 28.4189 14.3618L28.0667 14.7167ZM28.4104 14.7247L31.0657 12.3234L30.7304 11.9525L28.0751 14.3539L28.4104 14.7247ZM22.6635 12.1379V8.82759H22.1635V12.1379H22.6635ZM14.3885 20.4138C14.3885 18.1863 15.2954 16.1711 16.7608 14.7167L16.4086 14.3618C14.8525 15.9062 13.8885 18.0477 13.8885 20.4138H14.3885ZM16.7608 14.7167C18.2115 13.277 20.2083 12.3879 22.4135 12.3879V11.8879C20.0711 11.8879 17.9491 12.8329 16.4086 14.3618L16.7608 14.7167ZM16.7598 14.3608L14.3129 11.9595L13.9627 12.3164L16.4096 14.7177L16.7598 14.3608ZM14.1385 20.1638L10.8281 20.1638L10.8281 20.6638L14.1385 20.6638L14.1385 20.1638ZM22.4135 28.4397C20.2083 28.4397 18.2115 27.5506 16.7608 26.1109L16.4086 26.4658C17.9491 27.9947 20.0711 28.9397 22.4135 28.9397V28.4397ZM16.7608 26.1109C15.2954 24.6565 14.3885 22.6413 14.3885 20.4138H13.8885C13.8885 22.7799 14.8525 24.9214 16.4086 26.4658L16.7608 26.1109ZM16.4123 26.1073L13.8918 28.5087L14.2367 28.8707L16.7571 26.4693L16.4123 26.1073ZM22.1635 28.6897V32H22.6635V28.6897H22.1635ZM28.0667 26.1109C26.6158 27.5506 24.6187 28.4397 22.4135 28.4397V28.9397C24.7559 28.9397 26.8781 27.9947 28.4189 26.4658L28.0667 26.1109ZM28.0528 26.4509L31.052 29.9556L31.4319 29.6306L28.4327 26.1258L28.0528 26.4509ZM30.4394 20.4138C30.4394 22.637 29.5357 24.6488 28.0751 26.1025L28.4278 26.4569C29.9789 24.9132 30.9394 22.7754 30.9394 20.4138H30.4394ZM28.0751 26.1025C28.0723 26.1053 28.0695 26.1081 28.0667 26.1109L28.4189 26.4658C28.4218 26.4628 28.4248 26.4599 28.4278 26.4569L28.0751 26.1025ZM28.0611 26.4417L30.383 29.1697L30.7637 28.8456L28.4418 26.1177L28.0611 26.4417ZM30.383 29.1697L31.0515 29.9551L31.4323 29.6311L30.7637 28.8456L30.383 29.1697ZM28.0752 26.1024L28.0665 26.111L28.419 26.4656L28.4277 26.457L28.0752 26.1024ZM30.8981 12.1379L31.2558 11.7886L30.8981 12.1379ZM14.1378 12.1379L13.7842 11.7844L14.1378 12.1379ZM14.0642 28.6897L14.4134 28.3317L14.0642 28.6897ZM30.5734 29.0076L30.9151 29.3726L30.5734 29.0076ZM22.4135 9.32759C25.721 9.32759 28.5661 10.4657 30.5403 12.4873L31.2558 11.7886C29.0685 9.54886 25.9525 8.32759 22.4135 8.32759V9.32759ZM30.5403 12.4873C32.3832 14.3744 33.5005 17.0651 33.5005 20.4138H34.5005C34.5005 16.8337 33.3009 13.8828 31.2558 11.7886L30.5403 12.4873ZM11.3281 20.4138C11.3281 17.2318 12.5194 14.4637 14.4913 12.4915L13.7842 11.7844C11.6188 13.9501 10.3281 16.9751 10.3281 20.4138H11.3281ZM14.4913 12.4915C16.4633 10.5192 19.2312 9.32759 22.4135 9.32759V8.32759C18.9744 8.32759 15.9496 9.61869 13.7842 11.7844L14.4913 12.4915ZM22.4135 31.5C19.7788 31.5 16.6632 30.5261 14.4134 28.3317L13.7151 29.0476C16.1814 31.4531 19.5625 32.5 22.4135 32.5V31.5ZM14.4134 28.3317C12.6024 26.5655 11.3281 23.9866 11.3281 20.4138H10.3281C10.3281 24.2484 11.7058 27.0878 13.7151 29.0476L14.4134 28.3317ZM30.2316 28.6427C28.2755 30.4745 25.5528 31.5 22.4135 31.5V32.5C25.7721 32.5 28.75 31.4002 30.9151 29.3726L30.2316 28.6427ZM33.5005 20.4138C33.5005 23.9442 32.2588 26.7442 30.2316 28.6427L30.9151 29.3726C33.1659 27.2647 34.5005 24.1897 34.5005 20.4138H33.5005Z" fill="#371699" mask="url(#path-3-inside-2_288_24)"/>
<path d="M10.2761 27.5862C9.72437 27.5862 8.0692 26.4828 8.0692 25.3793C8.0692 26.4828 6.41403 27.5862 5.8623 27.5862C6.41403 27.5862 8.0692 29.2414 8.0692 29.7931C8.0692 29.2414 9.72437 27.5862 10.2761 27.5862Z" stroke="#FFC231" stroke-width="0.75"/>
<path d="M31.7937 5.51724C31.242 5.51724 29.5868 4.41379 29.5868 3.31034C29.5868 4.41379 27.9316 5.51724 27.3799 5.51724C27.9316 5.51724 29.5868 7.17241 29.5868 7.72414C29.5868 7.17241 31.242 5.51724 31.7937 5.51724Z" stroke="#FFC231" stroke-width="0.75"/>
<path d="M24.9823 17.2008H21.3672C19.0846 17.2008 19.0847 20.1217 21.3672 20.1217H23.4603C25.7432 20.1217 25.7433 23.4663 23.4603 23.4663H19.6553M22.1287 15.4483V25.3793" stroke="black" stroke-width="0.75"/>
</svg>
