<svg width="32" height="32" viewBox="0 0 32 32" fill="none" xmlns="http://www.w3.org/2000/svg">
    <path fill="white" d="M20.974 13.004c0.18 0.88 0.341 1.758 0.476 2.567l1.117-0.001c3.253 0 5.89 2.637 5.89 5.89 0 0.157-0.006 0.314-0.018 0.469l-0.018 0.177 0.037 0.001v2.524l-0.005-0.001-0.002 0.105c-0.14 2.931-2.56 5.264-5.525 5.264h-13.85c-3 0-5.443-2.389-5.53-5.368h-0.003v-2.524l0.035-0.001-0.017-0.177c-0.012-0.155-0.018-0.311-0.018-0.469 0-3.253 2.637-5.89 5.89-5.89h1.719c0.045 0.114 0.094 0.225 0.147 0.331-0.004-0.376-0.007-0.724-0.008-1.048l0.001-0.559c0.003-0.444 0.011-0.834 0.025-1.169l-0.002-0.082c0.205 0.29 0.895 0.408 1.078 0.74 0.192 0.346-0.066 0.575-0.168 1.395-0.087 0.7 0.311 1.279 0.638 1.622l-0.070 0.703c0.821 0.477 1.89 0.716 3.207 0.716 1.814 0 3.157-0.453 4.025-1.359l-0.113-0.749-0.075-0.354c0.011-0.1 0.012-0.206 0.003-0.32-0.069-0.853-0.456-1.173-0.213-1.599 0.201-0.351 0.957-0.51 1.326-0.76l0.022-0.073zM10.447 16.695l-1.013 0.001c-2.55 0-4.632 2.002-4.759 4.52l-0.006 0.245c0 2.55 2.002 4.632 4.52 4.759l0.245 0.006h13.133c2.632 0 4.765-2.134 4.765-4.765 0-2.55-2.002-4.632-4.52-4.759l-0.245-0.006h-0.927l0.011 0.060-0.017-0.001 0.012 0.089 0.512 0.001c2.427 0 4.396 1.967 4.396 4.396s-1.967 4.396-4.396 4.396h-12.294c-2.427 0-4.396-1.967-4.396-4.396s1.967-4.396 4.396-4.396l0.674-0.001-0.092-0.149zM18.178 3.572l0.011 0.067c0.25 0.056 0.517 0.287 0.623 0.898 0.13 0.745-0.123 1.629-0.759 2.654 0.009-0.055 0.016-0.109 0.022-0.163-0.035 0.251-0.094 0.507-0.194 0.757-0.136 0.343-0.399 0.778-0.707 1.163-0.033 0.825 0.116 1.361 0.448 1.606 0.626 0.463 2.381 0.079 2.869 0.722-0.369-0.025-1.154 0.253-2.050 0.706-0.705 0.357-1.449 1.027-2.232 2.010-0.672-0.726-1.311-1.239-1.918-1.54-0.184-0.091-0.393-0.185-0.627-0.283l-0.011 0.066c0 0.46 0.216 0.937 0.647 1.432-0.192-0.035-0.426-0.134-0.701-0.294-0.414-0.241-0.512-0.52-0.742-0.443-0.153 0.052-0.153 0.177 0 0.379-0.576-0.009-0.971-0.32-1.183-0.936-0.318-0.923-0.059-1.841 0.223-2.273s0.268-0.686-0.223-1.405c-0.491-0.719-0.313-1.699 0.223-2.245s-0.351-2.461 1.702-3.897c2.054-1.437 4.466 0.293 4.579 1.019zM15.918 3.905c-0.552 0-0.278 1.039-0.504 1.401s-1.24-0.362-1.674 0.153c-0.435 0.515 0.317 1.364 0.156 2.139-0.108 0.517 0.252 1.16 1.079 1.93-0.672-0.786-0.938-1.43-0.8-1.93 0.207-0.75-0.301-1.199-0.207-1.883s0.834-0.083 1.447-0.083c0.613 0 0.192-0.888 0.586-1.357s0.77 0.569 1.174 0.669c0.269 0.066 0.516 0 0.74-0.2-0.090-0.048-0.298-0.048-0.625 0-0.49 0.073-0.819-0.839-1.371-0.839z"></path>
</svg>
