<svg width="24" height="24" viewBox="0 0 24 24" fill="none" xmlns="http://www.w3.org/2000/svg">
<g opacity="0.7" clip-path="url(#clip0_1871_8889)">
<path fill-rule="evenodd" clip-rule="evenodd" d="M19.4026 2.29279L20.0817 6.39009L23.9889 8.29014L22.0185 12.0053L24 15.7205L20.0594 17.6205L19.3803 21.7178L15.0501 21.0704L11.9666 24L8.87201 21.0278L4.57514 21.7072L3.88497 17.5781L0 15.6887L1.98145 11.9735L0.0111317 8.29014L3.91837 6.36886L4.59741 2.3034L8.90538 2.98275L12 0L15.0835 2.94029L19.4026 2.29279ZM6.4401 17.25L7.64156 7.39499H10.4091L11.9886 13.74H12.0156L13.5951 7.39499H16.3626L17.5641 17.25H15.2556L14.7426 10.581H14.7156L13.1631 16.17H10.8411L9.28856 10.581H9.26156L8.74856 17.25H6.4401Z" fill="white"/>
</g>
<defs>
<clipPath id="clip0_1871_8889">
<rect width="24" height="24" fill="white"/>
</clipPath>
</defs>
</svg>
