<svg width="26" height="32" viewBox="0 0 26 32" fill="none" xmlns="http://www.w3.org/2000/svg">
<path fill-rule="evenodd" clip-rule="evenodd" d="M9.30036 6.15987L5.99736 9.13287L4.25936 10.6989L1.35336 13.3159C1.14284 13.5057 1.01627 13.7714 1.00146 14.0545C0.986651 14.3376 1.0848 14.6151 1.27436 14.8259L3.26936 17.0419C2.82121 18.8273 2.81933 20.6956 3.26386 22.4819C3.70839 24.2682 4.58569 25.9177 5.81836 27.2849C9.96836 31.8939 17.0684 32.2659 21.6774 28.1159C26.2864 23.9659 26.6584 16.8659 22.5084 12.2569C21.3181 10.9331 19.8298 9.91167 18.1666 9.27699C16.5033 8.6423 14.7129 8.4126 12.9434 8.60687L10.8104 6.23887C10.6205 6.02835 10.3548 5.90178 10.0717 5.88697C9.78859 5.87216 9.51117 5.97031 9.30036 6.15987ZM14.0925 11.369C14.2929 11.1685 14.5648 11.0559 14.8484 11.0559L14.8474 11.0549C17.1166 11.0549 19.2928 11.9563 20.8974 13.5609C22.5019 15.1654 23.4034 17.3417 23.4034 19.6109C23.4034 19.7513 23.3757 19.8903 23.322 20.02C23.2683 20.1497 23.1895 20.2675 23.0903 20.3668C22.991 20.466 22.8731 20.5448 22.7434 20.5985C22.6138 20.6522 22.4747 20.6799 22.3344 20.6799C22.194 20.6799 22.055 20.6522 21.9253 20.5985C21.7956 20.5448 21.6777 20.466 21.5785 20.3668C21.4792 20.2675 21.4005 20.1497 21.3467 20.02C21.293 19.8903 21.2654 19.7513 21.2654 19.6109C21.2654 17.909 20.5893 16.2768 19.3859 15.0734C18.1824 13.8699 16.5503 13.1939 14.8484 13.1939C14.5648 13.1939 14.2929 13.0812 14.0925 12.8808C13.892 12.6803 13.7794 12.4084 13.7794 12.1249C13.7794 11.8414 13.892 11.5694 14.0925 11.369Z" fill="#FFC231"/>
<path d="M8.95023 1.82314C8.91775 1.68653 8.85867 1.55765 8.77636 1.44387C8.69411 1.33005 8.59024 1.23255 8.47068 1.15889C8.35113 1.08522 8.21823 1.03584 8.07958 1.01355C7.94094 0.991262 7.79925 0.99651 7.66264 1.02899C7.52602 1.06148 7.39714 1.12056 7.28336 1.20287C3.87336 3.66887 2.87336 6.91487 4.25936 10.6989L5.99736 9.13287C5.35536 6.62987 6.20736 4.62087 8.53636 2.93687C8.65018 2.85462 8.74668 2.75075 8.82034 2.63119C8.894 2.51164 8.94339 2.37874 8.96568 2.24009C8.98797 2.10144 8.98272 1.95976 8.95023 1.82314Z" fill="#FA305F"/>
<path d="M8.77636 1.44387L8.3711 1.73673L8.37125 1.73693L8.77636 1.44387ZM8.53636 2.93687L8.2435 2.53161L8.24339 2.53169L8.53636 2.93687ZM9.30036 6.15987L8.96604 5.78807L8.96586 5.78824L9.30036 6.15987ZM10.8104 6.23887L11.1819 5.90423L11.1816 5.90399L10.8104 6.23887ZM12.9434 8.60687L12.5719 8.94151L12.7433 9.13184L12.9979 9.10388L12.9434 8.60687ZM22.5084 12.2569L22.1366 12.5912L22.1368 12.5914L22.5084 12.2569ZM5.81836 27.2849L6.18993 26.9503L6.1897 26.9501L5.81836 27.2849ZM3.26936 17.0419L3.75432 17.1636L3.81916 16.9053L3.64096 16.7073L3.26936 17.0419ZM1.27436 14.8259L0.902565 15.1602L0.902763 15.1604L1.27436 14.8259ZM1.35336 13.3159L1.01876 12.9443L1.01848 12.9446L1.35336 13.3159ZM4.25936 10.6989L4.59396 11.0704L4.59405 11.0703L4.25936 10.6989ZM7.28336 1.20287L7.57636 1.60803L7.57642 1.60798L7.28336 1.20287ZM14.8484 11.0559V11.5559H16.0563L15.2017 10.7021L14.8484 11.0559ZM13.7794 12.1249H13.2794H13.7794ZM14.8484 13.1939V12.6939V13.1939ZM21.2654 19.6109H21.7654H21.2654ZM22.3344 20.6799V21.1799V20.6799ZM23.4034 19.6109H22.9034H23.4034ZM14.8474 11.0549V10.5549H13.6394L14.494 11.4086L14.8474 11.0549ZM8.37125 1.73693C8.41506 1.79749 8.44651 1.86609 8.4638 1.93881L9.43667 1.70748C9.389 1.50697 9.30228 1.3178 9.18147 1.15081L8.37125 1.73693ZM8.4638 1.93881C8.48109 2.01152 8.48388 2.08694 8.47202 2.16073L9.45934 2.31945C9.49205 2.11595 9.48435 1.908 9.43667 1.70748L8.4638 1.93881ZM8.47202 2.16073C8.46015 2.23453 8.43387 2.30527 8.39466 2.36891L9.24602 2.89348C9.35414 2.718 9.42663 2.52294 9.45934 2.31945L8.47202 2.16073ZM8.39466 2.36891C8.35545 2.43254 8.30408 2.48783 8.2435 2.53161L8.82922 3.34213C8.99627 3.2214 9.13791 3.06895 9.24602 2.89348L8.39466 2.36891ZM8.24339 2.53169C7.02751 3.41084 6.15968 4.40187 5.69064 5.53677C5.21913 6.67767 5.16963 7.91824 5.51304 9.25709L6.48168 9.00864C6.18309 7.8445 6.23859 6.82907 6.61483 5.91872C6.99354 5.00236 7.71621 4.14689 8.82933 3.34205L8.24339 2.53169ZM6.33186 9.5045L9.63486 6.5315L8.96586 5.78824L5.66286 8.76124L6.33186 9.5045ZM9.63468 6.53166C9.74698 6.43068 9.89476 6.3784 10.0456 6.38629L10.0978 5.38765C9.68242 5.36592 9.27536 5.50993 8.96604 5.78807L9.63468 6.53166ZM10.0456 6.38629C10.1964 6.39418 10.3379 6.4616 10.4391 6.57375L11.1816 5.90399C10.903 5.59509 10.5132 5.40939 10.0978 5.38765L10.0456 6.38629ZM10.4389 6.57351L12.5719 8.94151L13.3149 8.27223L11.1819 5.90423L10.4389 6.57351ZM12.9979 9.10388C14.6886 8.91827 16.3992 9.13774 17.9883 9.74413L18.3448 8.80984C16.6075 8.14687 14.7373 7.90693 12.8888 8.10985L12.9979 9.10388ZM17.9883 9.74413C19.5774 10.3505 20.9993 11.3264 22.1366 12.5912L22.8802 11.9226C21.6368 10.5398 20.0822 9.47282 18.3448 8.80984L17.9883 9.74413ZM22.1368 12.5914C26.102 16.9952 25.7466 23.7791 21.3428 27.7443L22.0119 28.4874C26.8261 24.1527 27.2147 16.7365 22.8799 11.9223L22.1368 12.5914ZM21.3428 27.7443C16.939 31.7095 10.1552 31.3541 6.18993 26.9503L5.44679 27.6194C9.78157 32.4337 17.1977 32.8222 22.0119 28.4874L21.3428 27.7443ZM6.1897 26.9501C5.01197 25.6438 4.17378 24.0679 3.74906 22.3612L2.77866 22.6026C3.243 24.4686 4.1594 26.1916 5.44702 27.6197L6.1897 26.9501ZM3.74906 22.3612C3.32434 20.6544 3.32615 18.8694 3.75432 17.1636L2.7844 16.9201C2.31628 18.7851 2.31431 20.7367 2.77866 22.6026L3.74906 22.3612ZM3.64096 16.7073L1.64596 14.4913L0.902763 15.1604L2.89776 17.3764L3.64096 16.7073ZM1.64616 14.4915C1.54517 14.3792 1.49289 14.2315 1.50078 14.0806L0.502146 14.0284C0.480412 14.4438 0.624427 14.8509 0.902565 15.1602L1.64616 14.4915ZM1.50078 14.0806C1.50867 13.9298 1.57609 13.7883 1.68824 13.6872L1.01848 12.9446C0.709584 13.2232 0.523879 13.613 0.502146 14.0284L1.50078 14.0806ZM1.68796 13.6874L4.59396 11.0704L3.92476 10.3273L1.01876 12.9443L1.68796 13.6874ZM4.72886 10.5269C4.06573 8.71646 3.9864 7.07406 4.44965 5.60719C4.91329 4.13907 5.93736 2.7933 7.57636 1.60803L6.99036 0.79771C5.21936 2.07844 4.03843 3.58866 3.49607 5.30605C2.95332 7.02468 3.06699 8.89728 3.78986 10.8708L4.72886 10.5269ZM7.57642 1.60798C7.63698 1.56417 7.70558 1.53272 7.7783 1.51543L7.54698 0.542555C7.34646 0.590233 7.1573 0.676951 6.9903 0.797755L7.57642 1.60798ZM7.7783 1.51543C7.85102 1.49814 7.92643 1.49535 8.00023 1.50721L8.15894 0.519887C7.95544 0.487175 7.74749 0.494878 7.54698 0.542555L7.7783 1.51543ZM8.00023 1.50721C8.07402 1.51908 8.14476 1.54536 8.2084 1.58457L8.73297 0.733204C8.55749 0.625085 8.36244 0.552599 8.15894 0.519887L8.00023 1.50721ZM8.2084 1.58457C8.27053 1.62285 8.32627 1.67469 8.3711 1.73673L9.18162 1.15101C9.06194 0.985405 8.90995 0.842248 8.73297 0.733204L8.2084 1.58457ZM14.8484 10.5559C14.4322 10.5559 14.0332 10.7212 13.7389 11.0154L14.446 11.7225C14.5527 11.6158 14.6975 11.5559 14.8484 11.5559V10.5559ZM13.7389 11.0154C13.4447 11.3097 13.2794 11.7087 13.2794 12.1249H14.2794C14.2794 11.974 14.3393 11.8292 14.446 11.7225L13.7389 11.0154ZM13.2794 12.1249C13.2794 12.541 13.4447 12.9401 13.7389 13.2343L14.446 12.5272C14.3393 12.4205 14.2794 12.2758 14.2794 12.1249H13.2794ZM13.7389 13.2343C14.0332 13.5286 14.4322 13.6939 14.8484 13.6939V12.6939C14.6975 12.6939 14.5527 12.6339 14.446 12.5272L13.7389 13.2343ZM14.8484 13.6939C16.4176 13.6939 17.9227 14.3173 19.0323 15.4269L19.7394 14.7198C18.4422 13.4226 16.6829 12.6939 14.8484 12.6939V13.6939ZM19.0323 15.4269C20.142 16.5366 20.7654 18.0416 20.7654 19.6109H21.7654C21.7654 17.7764 21.0366 16.017 19.7394 14.7198L19.0323 15.4269ZM20.7654 19.6109C20.7654 19.8169 20.8059 20.0209 20.8848 20.2113L21.8087 19.8286C21.7801 19.7596 21.7654 19.6856 21.7654 19.6109H20.7654ZM20.8848 20.2113C20.9636 20.4017 21.0792 20.5746 21.2249 20.7203L21.932 20.0132C21.8792 19.9604 21.8373 19.8977 21.8087 19.8286L20.8848 20.2113ZM21.2249 20.7203C21.3706 20.866 21.5436 20.9816 21.7339 21.0604L22.1166 20.1366C22.0476 20.108 21.9849 20.066 21.932 20.0132L21.2249 20.7203ZM21.7339 21.0604C21.9243 21.1393 22.1283 21.1799 22.3344 21.1799V20.1799C22.2596 20.1799 22.1856 20.1652 22.1166 20.1366L21.7339 21.0604ZM22.3344 21.1799C22.5404 21.1799 22.7444 21.1393 22.9348 21.0604L22.5521 20.1366C22.4831 20.1652 22.4091 20.1799 22.3344 20.1799V21.1799ZM22.9348 21.0604C23.1251 20.9816 23.2981 20.866 23.4438 20.7203L22.7367 20.0132C22.6839 20.066 22.6211 20.108 22.5521 20.1366L22.9348 21.0604ZM23.4438 20.7203C23.5895 20.5746 23.7051 20.4017 23.7839 20.2113L22.86 19.8286C22.8315 19.8977 22.7895 19.9604 22.7367 20.0132L23.4438 20.7203ZM23.7839 20.2113C23.8628 20.0209 23.9034 19.8169 23.9034 19.6109H22.9034C22.9034 19.6856 22.8886 19.7596 22.86 19.8286L23.7839 20.2113ZM23.9034 19.6109C23.9034 17.2091 22.9492 14.9056 21.2509 13.2073L20.5438 13.9144C22.0546 15.4252 22.9034 17.4743 22.9034 19.6109H23.9034ZM21.2509 13.2073C19.5526 11.509 17.2492 10.5549 14.8474 10.5549V11.5549C16.9839 11.5549 19.033 12.4036 20.5438 13.9144L21.2509 13.2073ZM14.494 11.4086L14.495 11.4096L15.2017 10.7021L15.2007 10.7011L14.494 11.4086ZM4.59405 11.0703L6.33205 9.50432L5.66266 8.76141L3.92467 10.3274L4.59405 11.0703Z" fill="#371699"/>
</svg>
