<svg width="64" height="64" viewBox="0 0 64 64" fill="none" xmlns="http://www.w3.org/2000/svg">
<path d="M64 32C64 49.6731 49.6731 64 32 64C14.3269 64 0 49.6731 0 32C0 14.3269 14.3269 0 32 0C49.6731 0 64 14.3269 64 32Z" fill="#8EC849"/>
<path fill-rule="evenodd" clip-rule="evenodd" d="M32 58C46.3594 58 58 46.3594 58 32C58 17.6406 46.3594 6 32 6C17.6406 6 6 17.6406 6 32C6 46.3594 17.6406 58 32 58ZM32 64C49.6731 64 64 49.6731 64 32C64 14.3269 49.6731 0 32 0C14.3269 0 0 14.3269 0 32C0 49.6731 14.3269 64 32 64Z" fill="#9DE352"/>
<path d="M39.0176 24.2578C37.752 23.25 36.3691 22.7461 34.8691 22.7461C32.0449 22.7461 30.6328 23.8184 30.6328 25.9629C30.6328 26.9121 31.3828 27.9551 32.8828 29.0918C34.7344 30.4863 36.0234 31.5059 36.75 32.1504C37.4766 32.7832 38.0801 33.6094 38.5605 34.6289C39.0527 35.6367 39.2988 36.75 39.2988 37.9688C39.2988 40.0898 38.6484 41.7949 37.3477 43.084C36.0469 44.3613 34.2363 45.1465 31.916 45.4395L31.4062 48.1816H27.416L27.9258 45.3516C26.3555 45.1055 24.9141 44.666 23.6016 44.0332L25.0781 39.4805C26.6484 40.6758 28.4707 41.2734 30.5449 41.2734C33.2168 41.2734 34.5527 40.2363 34.5527 38.1621C34.5527 37.5879 34.3711 37.0195 34.0078 36.457C33.6445 35.8828 33.123 35.3262 32.4434 34.7871C31.7754 34.248 30.3457 33.1348 28.1543 31.4473C26.6543 29.9824 25.9043 28.3125 25.9043 26.4375C25.9043 24.4336 26.4785 22.7637 27.627 21.4277C28.7754 20.0801 30.3633 19.2246 32.3906 18.8613L33.041 15.3633H37.0312L36.3984 18.7734C38.1914 18.9023 39.5332 19.1895 40.4238 19.6348L39.0176 24.2578Z" fill="white"/>
<path fill-rule="evenodd" clip-rule="evenodd" d="M39.5458 25.9569L38.3944 25.0401C37.291 24.1614 36.1243 23.7461 34.8689 23.7461C33.5549 23.7461 32.7524 24.0005 32.2964 24.3467C31.8925 24.6535 31.6326 25.13 31.6326 25.9629C31.6326 26.3978 32.0127 27.1776 33.4854 28.2939C35.3339 29.6862 36.6502 30.7257 37.4101 31.3994C38.2541 32.1355 38.9336 33.077 39.462 34.1964C40.0245 35.3507 40.2986 36.6138 40.2986 37.9688C40.2986 40.3109 39.5718 42.2875 38.0513 43.7943L38.0481 43.7975C36.7011 45.1202 34.9174 45.9428 32.7689 46.3218L32.2373 49.1816H26.2196L26.7651 46.1533C25.4869 45.8791 24.2865 45.4737 23.167 44.934L22.3809 44.5549L24.5617 37.8308L25.6836 38.6848C27.0705 39.7405 28.6773 40.2734 30.5447 40.2734C31.7789 40.2734 32.5207 40.0292 32.9373 39.7057C33.3059 39.4195 33.5525 38.9679 33.5525 38.1621C33.5525 37.8106 33.4441 37.4278 33.1676 36.9996L33.1625 36.9917C32.8733 36.5345 32.4366 36.0583 31.8217 35.5706L31.8151 35.5653C31.1576 35.0347 29.7373 33.9286 27.544 32.2396L27.4974 32.2037L27.4554 32.1627C25.7877 30.5341 24.9041 28.6149 24.9041 26.4375C24.9041 24.2302 25.5422 22.3194 26.867 20.7775C28.0505 19.3894 29.624 18.4807 31.5296 18.0205L32.2096 14.3633H38.2337L37.5807 17.8818C38.9157 18.0438 40.0278 18.3188 40.8708 18.7403L41.6261 19.118L39.5458 25.9569ZM37.3979 18.8672C38.6985 19.0206 39.7071 19.2765 40.4236 19.6348L39.0174 24.2578C38.7354 24.0333 38.4477 23.8338 38.1542 23.6593C37.1299 23.0505 36.0348 22.7461 34.8689 22.7461C32.0447 22.7461 30.6326 23.8184 30.6326 25.9629C30.6326 26.9121 31.3826 27.9551 32.8826 29.0918C34.7342 30.4863 36.0232 31.5059 36.7498 32.1504C37.4763 32.7832 38.0799 33.6094 38.5603 34.6289C39.0525 35.6367 39.2986 36.75 39.2986 37.9688C39.2986 40.0898 38.6482 41.7949 37.3474 43.084C36.0467 44.3613 34.2361 45.1465 31.9158 45.4395L31.406 48.1816H27.4158L27.9256 45.3516C27.659 45.3098 27.3962 45.2625 27.1371 45.2095C25.8697 44.9507 24.6911 44.5586 23.6013 44.0332L25.0779 39.4805C25.3575 39.6933 25.645 39.8871 25.9406 40.0621C27.305 40.8696 28.8398 41.2734 30.5447 41.2734C33.2166 41.2734 34.5525 40.2363 34.5525 38.1621C34.5525 37.5879 34.3709 37.0195 34.0076 36.457C33.6443 35.8828 33.1228 35.3262 32.4431 34.7871C31.7752 34.248 30.3455 33.1348 28.1541 31.4473C26.6541 29.9824 25.9041 28.3125 25.9041 26.4375C25.9041 24.4336 26.4783 22.7637 27.6267 21.4277C28.7752 20.0801 30.3631 19.2246 32.3904 18.8613L33.0408 15.3633H37.031L36.3982 18.7734C36.7487 18.7986 37.0819 18.8299 37.3979 18.8672Z" fill="#7DB13F"/>
</svg>
