<svg width="25" height="28" viewBox="0 0 25 28" fill="none" xmlns="http://www.w3.org/2000/svg">
<path d="M12.5 13.5L24 7L12.5 1L1 7L12.5 13.5Z" fill="#FFC231"/>
<path d="M12.5 27L24 20V7L12.5 13.5V27Z" fill="#FFD97E"/>
<path d="M1 7V20L12.5 27V13.5L1 7Z" fill="#FAE0A3"/>
<path d="M1 7L0.768717 6.55671L0.5 6.69691V7H1ZM1 20H0.5V20.281L0.740027 20.4271L1 20ZM12.5 27L12.24 27.4271L12.5 27.5853L12.76 27.4271L12.5 27ZM24 20L24.26 20.4271L24.5 20.281V20H24ZM24 7H24.5V6.69691L24.2313 6.55671L24 7ZM12.5 1L12.7313 0.556708L12.5 0.436038L12.2687 0.556708L12.5 1ZM0.5 7V20H1.5V7H0.5ZM0.740027 20.4271L12.24 27.4271L12.76 26.5729L1.25997 19.5729L0.740027 20.4271ZM12.76 27.4271L24.26 20.4271L23.74 19.5729L12.24 26.5729L12.76 27.4271ZM24.5 20V7H23.5V20H24.5ZM23.754 6.56472L12.254 13.0647L12.746 13.9353L24.246 7.43528L23.754 6.56472ZM12.746 13.0647L1.24603 6.56472L0.753971 7.43528L12.254 13.9353L12.746 13.0647ZM24.2313 6.55671L12.7313 0.556708L12.2687 1.44329L23.7687 7.44329L24.2313 6.55671ZM12.2687 0.556708L0.768717 6.55671L1.23128 7.44329L12.7313 1.44329L12.2687 0.556708ZM12 13.5V27H13V13.5H12Z" fill="#DD622D"/>
<path d="M15.6413 16.9985C14.7871 16.2796 16.8934 13.0672 18 14C19.1066 14.9328 16.6693 17.8635 15.6413 16.9985Z" fill="#DD622D" stroke="#DD622D"/>
<path d="M10.2201 7.1544C10.1212 5.72244 14.6495 5.78305 14.5686 7.35777C14.4877 8.9325 10.339 8.87751 10.2201 7.1544Z" fill="#DD622D" stroke="#DD622D"/>
<path d="M19.6407 18.9985C18.7852 18.2782 20.9465 15.7129 21.801 16.4328C22.6556 17.1527 20.4964 19.7191 19.6407 18.9985Z" fill="#DD622D" stroke="#DD622D"/>
<path d="M6.61216 18.532C5.97924 18.7204 4.41087 16.4771 5.23176 16.2336C6.05265 15.9901 7.37377 18.3053 6.61216 18.532Z" fill="#DD622D" stroke="#DD622D"/>
<path d="M9.42159 16.3908C8.71922 16.6365 7.58092 14.4342 8.28279 14.1889C8.9847 13.9436 10.1242 16.145 9.42159 16.3908Z" fill="#FA305F" stroke="#DD622D"/>
<path d="M3.92159 20.3908C3.21922 20.6365 2.08092 18.4342 2.78279 18.1889C3.4847 17.9436 4.62423 20.145 3.92159 20.3908Z" fill="#FA305F" stroke="#DD622D"/>
</svg>
