<svg viewBox="170.417 116.823 183.855 214.566" xmlns="http://www.w3.org/2000/svg">
  <defs></defs>
  <g>
    <path style="fill:#E04332;" d="M 310.247 192.008 L 325.305 161.893 C 325.983 160.536 325.911 158.925 325.113 157.635 C 324.315 156.344 322.907 155.559 321.389 155.559 L 233.191 155.559 C 230.774 155.559 228.814 157.519 228.814 159.936 L 228.814 224.08 C 228.814 226.497 230.774 228.457 233.191 228.457 L 321.39 228.457 C 322.907 228.457 324.315 227.671 325.113 226.381 C 325.911 225.091 325.983 223.48 325.305 222.122 L 310.247 192.008 Z"></path>
    <path style="fill: rgb(191, 44, 33);" d="M 316.211 192.008 L 333.662 161.893 C 334.448 160.536 334.364 158.925 333.44 157.635 C 332.515 156.344 330.883 155.559 329.124 155.559 L 272.73 155.559 C 272.73 179.858 272.73 204.157 272.73 228.457 L 329.124 228.457 C 330.882 228.457 332.515 227.672 333.44 226.382 C 334.363 225.092 334.448 223.48 333.662 222.123 L 316.211 192.008 Z"></path>
    <path style="fill:#FFCF6D;" d="M 233.191 147.541 L 209.137 147.541 C 206.72 147.541 204.76 149.5 204.76 151.918 L 204.76 296.242 C 204.76 298.659 206.72 300.619 209.137 300.619 L 233.191 300.619 C 235.608 300.619 237.568 298.659 237.568 296.242 L 237.568 151.918 C 237.567 149.5 235.608 147.541 233.191 147.541 Z"></path>
  </g>
</svg>