<svg height="512" viewBox="0 0 512 512" width="512" xmlns="http://www.w3.org/2000/svg"><g id="Layer_2" data-name="Layer 2"><g id="Layer_1-2" data-name="Layer 1"><g id="Currency"><g id="Base"><circle cx="256" cy="256" fill="#fdc667" r="256"/><circle cx="256" cy="256" fill="#fcaa3d" r="208.97"/><circle cx="256" cy="256" fill="#ffbb47" r="184.24"/></g><g fill="#c17d2b"><path d="m157.78 336.79a91 91 0 0 1 -21.16-7.23 90 90 0 0 1 -18.39-12.06l15.32-18.81a69.26 69.26 0 0 0 22.06 13 76.85 76.85 0 0 0 26.17 4.34q19 0 29.54-7.05t10.49-20v-.12q0-9.17-4.76-14.53a28.43 28.43 0 0 0 -12.3-8 135.36 135.36 0 0 0 -19.47-4.76 2.52 2.52 0 0 0 -.79-.12 2.45 2.45 0 0 1 -.78-.12l-1.81-.37a187.14 187.14 0 0 1 -28.64-6.81 40.32 40.32 0 0 1 -18.87-13.87q-7.83-10.06-7.84-28.63v-.12q0-16.29 7.3-27.8t21.28-17.54q14-6 33.64-6a83.74 83.74 0 0 1 18.51 2.05 91.12 91.12 0 0 1 18 6.09 103.29 103.29 0 0 1 17.43 10.19l-14 19.53a82 82 0 0 0 -20-11 57.22 57.22 0 0 0 -20-3.68q-18 0-27.91 7.17t-10 20.32v.14q0 9 5.13 14.23a30.93 30.93 0 0 0 12.78 7.66 190.48 190.48 0 0 0 21.39 5.11 8.58 8.58 0 0 0 .91.18c.28 0 .58.11.9.18s.84.17 1.33.25l1.32.24a145.85 145.85 0 0 1 26.59 7.71 41.56 41.56 0 0 1 17.85 14.44q7.17 10 7.17 27.19v.25q0 16-7.59 27.43t-22 17.36q-14.41 6-34.79 6a115 115 0 0 1 -24.01-2.44z"/><path d="m281.74 370.67h-23.51l81.39-229.34h23.52z"/><path d="m368 311.59h25.81v25.8h-25.81z"/></g></g></g></g></svg>