<svg height="512px" viewBox="56 56 400 400" width="512px" xmlns="http://www.w3.org/2000/svg">
<circle  cx="256" cy="256" r="187" fill="#ffffff" data-original="#ffffff" class=""/>
<path fill='#906399' d="m256 166h-45v15h78.300781c-8.101562-9.300781-20.101562-15-33.300781-15zm0 0"/>
<path fill='#906399' d="m211 211h90v15h-90zm0 0"/>
<path fill='#906399' d="m211 271h45c13.199219 0 25.199219-5.699219 33.300781-15h-78.300781zm0 0"/>
<path fill='#906399' d="m394.335938 117.664062c-37.183594-37.183593-86.3125-57.664062-138.335938-57.664062s-101.152344 20.480469-138.335938 57.664062c-37.183593 37.183594-57.664062 86.3125-57.664062 138.335938s20.480469 101.152344 57.664062 138.335938c37.183594 37.183593 86.3125 57.664062 138.335938 57.664062s101.152344-20.480469 138.335938-57.664062c37.183593-37.183594 57.664062-86.3125 57.664062-138.335938s-20.480469-101.152344-57.664062-138.335938zm-33.335938 93.335938h-30v15h30v30h-36.300781c-11.398438 26.398438-37.796875 45-68.699219 45h-45v75h-30v-120h-30v-30h30v-15h-30v-30h30v-45h75c30.902344 0 57.300781 18.601562 68.699219 45h36.300781zm0 0"/>
</svg>