<svg width="33" height="25" viewBox="0 0 33 25" fill="none" xmlns="http://www.w3.org/2000/svg">
<path fill-rule="evenodd" clip-rule="evenodd" d="M11.277 3.99965C16.953 3.99965 21.554 8.60062 21.554 14.2766C21.554 19.9526 16.953 24.5536 11.277 24.5536C5.601 24.5536 1 19.9526 1 14.2766C1 8.60062 5.601 3.99965 11.277 3.99965ZM8.59 6.72164C7.605 6.72164 6.807 7.51964 6.807 8.50464C6.807 9.48964 7.605 10.2876 8.59 10.2876C9.575 10.2876 10.373 9.48964 10.373 8.50464C10.373 7.51964 9.575 6.72164 8.59 6.72164Z" fill="#FA305F"/>
<path d="M22.594 11.988L28.481 6.145L22.101 10.419L22.594 11.988Z" fill="#FEDF00"/>
<path d="M21.55 8.841L32.471 1L20.753 7.474L21.55 8.841Z" fill="#FEDF00"/>
<path d="M19.479 6.309L25.439 2.455L18.282 5.173L19.479 6.309Z" fill="#FEDF00"/>
<path d="M28.481 6.145L28.7276 6.39341L28.2862 5.85422L28.481 6.145ZM22.594 11.988L22.2601 12.0929L22.4325 12.6415L22.8406 12.2364L22.594 11.988ZM22.101 10.419L21.9062 10.1282L21.6886 10.274L21.7671 10.5239L22.101 10.419ZM32.471 1L32.6751 1.28431L32.3017 0.693646L32.471 1ZM21.55 8.841L21.2476 9.01729L21.4415 9.34978L21.7541 9.12531L21.55 8.841ZM20.753 7.474L20.5837 7.16765L20.2702 7.34086L20.4506 7.65029L20.753 7.474ZM25.439 2.455L25.6291 2.74891L25.3147 2.1278L25.439 2.455ZM19.479 6.309L19.2381 6.56287L19.4378 6.75244L19.6691 6.60291L19.479 6.309ZM18.282 5.173L18.1577 4.8458L17.6371 5.04351L18.0411 5.42687L18.282 5.173ZM11.277 4.34965C16.7597 4.34965 21.204 8.79392 21.204 14.2766H21.904C21.904 8.40732 17.1463 3.64965 11.277 3.64965V4.34965ZM21.204 14.2766C21.204 19.7593 16.7597 24.2036 11.277 24.2036V24.9036C17.1463 24.9036 21.904 20.1459 21.904 14.2766H21.204ZM11.277 24.2036C5.7943 24.2036 1.35 19.7593 1.35 14.2766H0.65C0.65 20.1459 5.4077 24.9036 11.277 24.9036V24.2036ZM1.35 14.2766C1.35 8.79392 5.7943 4.34965 11.277 4.34965V3.64965C5.4077 3.64965 0.65 8.40732 0.65 14.2766H1.35ZM8.59 6.37164C7.4117 6.37164 6.457 7.32633 6.457 8.50464H7.157C7.157 7.71294 7.7983 7.07164 8.59 7.07164V6.37164ZM6.457 8.50464C6.457 9.68294 7.4117 10.6376 8.59 10.6376V9.93763C7.7983 9.93763 7.157 9.29633 7.157 8.50464H6.457ZM8.59 10.6376C9.7683 10.6376 10.723 9.68294 10.723 8.50464H10.023C10.023 9.29633 9.3817 9.93763 8.59 9.93763V10.6376ZM10.723 8.50464C10.723 7.32633 9.7683 6.37164 8.59 6.37164V7.07164C9.3817 7.07164 10.023 7.71294 10.023 8.50464H10.723ZM28.2344 5.89659L22.3474 11.7396L22.8406 12.2364L28.7276 6.39341L28.2344 5.89659ZM22.9279 11.8831L22.4349 10.3141L21.7671 10.5239L22.2601 12.0929L22.9279 11.8831ZM22.2958 10.7098L28.6758 6.43578L28.2862 5.85422L21.9062 10.1282L22.2958 10.7098ZM32.2669 0.71569L21.3459 8.55669L21.7541 9.12531L32.6751 1.28431L32.2669 0.71569ZM21.8524 8.66471L21.0554 7.29772L20.4506 7.65029L21.2476 9.01729L21.8524 8.66471ZM20.9223 7.78035L32.6403 1.30635L32.3017 0.693646L20.5837 7.16765L20.9223 7.78035ZM25.249 2.16109L19.289 6.01509L19.6691 6.60291L25.6291 2.74891L25.249 2.16109ZM19.7199 6.05513L18.5229 4.91913L18.0411 5.42687L19.2381 6.56287L19.7199 6.05513ZM18.4063 5.5002L25.5633 2.7822L25.3147 2.1278L18.1577 4.8458L18.4063 5.5002Z" fill="#371699"/>
</svg>
