<svg width="30" height="28" viewBox="0 0 30 28" fill="none" xmlns="http://www.w3.org/2000/svg">
<path d="M18.5 3.88117L23 15L25.0679 20.1464C26.5 22.0098 29 21.0098 28.6543 18.7621L21.7407 2.15083C21 0.00984228 17.5 1.00984 18.5 3.88117Z" fill="#FFA031"/>
<path d="M5.83951 22.9149L3.88744 18.7621L3.07407 17.0318L2.7284 16.3396C2.26749 15.9936 1.27654 15.6475 1 17.0318L4.45679 24.2992C4.9177 24.6453 5.90864 24.9913 6.18519 23.6071L5.83951 22.9149Z" fill="#F8D255"/>
<path d="M18.5 3.88117L3.07407 17.0318L3.88744 18.7621C6.87352 15.8414 12.5511 11.5 14.5 11.5C16.5 11.5 16.6283 11.2094 19 12C21.3717 12.7906 20.5091 12.3557 23 15L18.5 3.88117Z" fill="#F8D255"/>
<path d="M5.83951 22.9149L6.18519 22.8688L7.91358 22.6381L9.64198 22.4074L15.8642 21.5768L16.5 21.5L25.0679 20.1464L23 15C20.5091 12.3557 21.3717 12.7906 19 12C16.6283 11.2094 16.5 11.5 14.5 11.5C12.5511 11.5 6.87352 15.8414 3.88744 18.7621L5.83951 22.9149Z" fill="#FFC231"/>
<path d="M5.83951 22.9149L5.38688 23.1277L5.39219 23.1383L5.83951 22.9149ZM28.6543 18.7621L29.1485 18.6861L29.1393 18.6261L29.1159 18.57L28.6543 18.7621ZM21.7407 2.15083L21.2682 2.31431L21.2732 2.3288L21.2791 2.34295L21.7407 2.15083ZM2.7284 16.3396L3.17571 16.1162L3.12298 16.0107L3.02861 15.9398L2.7284 16.3396ZM1 17.0318L0.509688 16.9338L0.477165 17.0966L0.548476 17.2465L1 17.0318ZM4.45679 24.2992L4.00527 24.514L4.05814 24.6251L4.15657 24.699L4.45679 24.2992ZM6.18519 23.6071L6.6755 23.705L6.70907 23.537L6.6325 23.3837L6.18519 23.6071ZM16.5 21.5L16.56 21.9964L16.569 21.9953L16.578 21.9939L16.5 21.5ZM9.64198 22.4074L9.57582 21.9118H9.57582L9.64198 22.4074ZM15.8642 21.5768L15.8042 21.0804L15.798 21.0812L15.8642 21.5768ZM3.88744 18.7621L3.43493 18.9748L3.88744 18.7621ZM23 15L23.4639 14.8136L23.4635 14.8124L23 15ZM6.18519 22.8688L6.25134 23.3644L6.18519 22.8688ZM29.1159 18.57L22.2024 1.95871L21.2791 2.34295L28.1927 18.9542L29.1159 18.57ZM22.2133 1.98735C21.7324 0.597603 20.3375 0.244547 19.2799 0.672956C18.7462 0.88913 18.2759 1.30673 18.0208 1.90127C17.7644 2.49913 17.7441 3.23109 18.0278 4.04562L18.9722 3.71672C18.7559 3.09559 18.7981 2.6258 18.9398 2.2955C19.0829 1.96189 19.3464 1.72493 19.6553 1.59981C20.2828 1.34563 21.0083 1.56307 21.2682 2.31431L22.2133 1.98735ZM24.6715 20.4511C25.5081 21.5397 26.72 21.8494 27.7102 21.4615C28.7061 21.0713 29.354 20.0223 29.1485 18.6861L28.1601 18.8381C28.3003 19.7497 27.871 20.3245 27.3454 20.5304C26.8139 20.7386 26.0598 20.6165 25.4643 19.8417L24.6715 20.4511ZM3.39845 17.4123L18.8244 4.26167L18.1756 3.50067L2.7497 16.6513L3.39845 17.4123ZM3.52139 16.8084L3.17571 16.1162L2.28108 16.563L2.62676 17.2552L3.52139 16.8084ZM3.02861 15.9398C2.75377 15.7334 2.25958 15.4737 1.73194 15.5408C1.44789 15.577 1.17105 15.7074 0.947739 15.9593C0.732147 16.2025 0.589986 16.5319 0.509688 16.9338L1.49031 17.1297C1.54829 16.8395 1.6337 16.693 1.69609 16.6226C1.75076 16.5609 1.80232 16.5399 1.85818 16.5328C2.01038 16.5135 2.24211 16.5998 2.42818 16.7395L3.02861 15.9398ZM0.548476 17.2465L4.00527 24.514L4.90831 24.0844L1.45152 16.817L0.548476 17.2465ZM4.15657 24.699C4.43141 24.9054 4.9256 25.1652 5.45325 25.098C5.7373 25.0619 6.01413 24.9315 6.23745 24.6795C6.45304 24.4363 6.5952 24.107 6.6755 23.705L5.69487 23.5091C5.6369 23.7993 5.55149 23.9458 5.4891 24.0162C5.43443 24.0779 5.38286 24.0989 5.327 24.106C5.17481 24.1254 4.94307 24.0391 4.75701 23.8994L4.15657 24.699ZM6.6325 23.3837L6.28682 22.6915L5.39219 23.1383L5.73787 23.8305L6.6325 23.3837ZM24.9899 19.6525L16.422 21.0061L16.578 21.9939L25.1459 20.6403L24.9899 19.6525ZM9.57582 21.9118L7.84743 22.1425L7.97974 23.1337L9.70813 22.903L9.57582 21.9118ZM16.44 21.0036L15.8042 21.0804L15.9242 22.0732L16.56 21.9964L16.44 21.0036ZM15.798 21.0812L9.57582 21.9118L9.70813 22.903L15.9304 22.0724L15.798 21.0812ZM6.29201 22.7022L4.33994 18.5494L3.43493 18.9748L5.387 23.1276L6.29201 22.7022ZM4.33994 18.5494L3.52658 16.8191L2.62157 17.2445L3.43493 18.9748L4.33994 18.5494ZM4.23705 19.1196C5.71036 17.6785 7.85614 15.8795 9.87273 14.443C10.8811 13.7248 11.8473 13.1043 12.6739 12.6656C13.0872 12.4463 13.4577 12.2767 13.7754 12.163C14.0993 12.0471 14.339 12 14.5 12V11C14.1738 11 13.8097 11.0886 13.4384 11.2215C13.061 11.3566 12.6448 11.549 12.2051 11.7823C11.3257 12.249 10.3204 12.8964 9.29256 13.6285C7.23662 15.093 5.05059 16.925 3.53782 18.4047L4.23705 19.1196ZM18.0365 4.06875L22.5365 15.1876L23.4635 14.8124L18.9635 3.69359L18.0365 4.06875ZM22.5361 15.1864L24.604 20.3328L25.5318 19.96L23.4639 14.8136L22.5361 15.1864ZM14.5 12C15.0125 12 15.4057 11.9813 15.7359 11.9664C16.0688 11.9514 16.3247 11.9411 16.588 11.953C17.0995 11.9762 17.6741 12.0851 18.8419 12.4743L19.1581 11.5257C17.9542 11.1243 17.2788 10.9833 16.6332 10.954C16.318 10.9398 16.0186 10.9527 15.6908 10.9675C15.3603 10.9824 14.9875 11 14.5 11V12ZM18.8419 12.4743C19.4515 12.6775 19.8185 12.7908 20.0964 12.8973C20.3554 12.9966 20.4963 13.0754 20.6388 13.1919C20.7987 13.3226 20.9717 13.5091 21.2846 13.8598C21.5902 14.2022 22.0079 14.676 22.636 15.3428L23.364 14.6572C22.7467 14.0019 22.3381 13.5384 22.0307 13.1939C21.7307 12.8577 21.5041 12.6077 21.2718 12.4178C21.0221 12.2136 20.7783 12.0877 20.4542 11.9635C20.1489 11.8466 19.7344 11.7177 19.1581 11.5257L18.8419 12.4743ZM7.84743 22.1425L6.11903 22.3732L6.25134 23.3644L7.97974 23.1337L7.84743 22.1425ZM6.11903 22.3732L5.77335 22.4193L5.90566 23.4105L6.25134 23.3644L6.11903 22.3732Z" fill="#F8D255"/>
<path d="M6.5 22.5L3.5 16.5" stroke="#FFA031" stroke-width="0.75" stroke-linecap="round"/>
<path d="M8.5 23C9 24.5 9.35542 24.8554 9.5 25C10.5 26 10.4943 26.2762 11.3956 26.7094C12 27 13.4809 27.2748 14.7557 26C15.2557 25.5 16 25 17 22M9.49993 23C9.49993 24 9.49993 25 10.4999 26C11.2905 26.7906 12.1504 27.4106 13.9999 26.5C16.0311 25.5 16.1666 23.1667 15.9999 22" stroke="#FF1422" stroke-width="1.25"/>
</svg>
