<svg xmlns="http://www.w3.org/2000/svg" width="18" height="18" viewBox="0 0 18 18" fill="none">
<path d="M9.25311 17.0182C8.68648 17.0182 8.1531 16.9182 7.61973 16.7182C6.51973 16.2848 5.61973 15.4515 5.15311 14.3515C4.68648 13.2515 4.65311 12.0515 5.08648 10.9515C5.95311 8.71817 11.4865 5.81811 11.7199 5.68497C11.8199 5.6516 11.9199 5.61834 11.9865 5.68497C12.0865 5.71834 12.1532 5.78497 12.1865 5.88497C12.2865 6.11834 14.2865 12.0184 13.4199 14.2184C12.7199 15.8849 11.0865 17.0183 9.25305 17.0183L9.25311 17.0182ZM11.6531 6.41817C9.91973 7.3848 6.28653 9.61817 5.68653 11.1516C5.31991 12.085 5.31991 13.1182 5.71991 14.0516C6.11991 14.985 6.85328 15.685 7.81991 16.0516C8.28653 16.2182 8.75328 16.3182 9.21991 16.3182C10.7865 16.3182 12.1865 15.3849 12.7533 13.9182C13.3866 12.4182 12.2866 8.31823 11.6532 6.41823L11.6531 6.41817Z" fill="#808A97"/>
<path d="M11.6531 6.41817C9.91973 7.3848 6.28653 9.61817 5.68653 11.1516C5.31991 12.085 5.31991 13.1182 5.71991 14.0516C6.11991 14.985 6.85328 15.685 7.81991 16.0516C8.28653 16.2182 8.75328 16.3182 9.21991 16.3182C10.7865 16.3182 12.1865 15.3849 12.7533 13.9182C13.3866 12.4182 12.2866 8.31823 11.6532 6.41823L11.6531 6.41817Z" fill="#808A97"/>
<path d="M3.8545 8.35132C3.48787 8.35132 3.1545 8.28469 2.82113 8.15132C1.32125 7.58469 0.621246 5.98469 1.18787 4.48474C1.72125 3.15137 4.9213 1.41817 5.28788 1.21817C5.38788 1.1848 5.48787 1.15154 5.5545 1.21817C5.6545 1.25154 5.72113 1.31817 5.7545 1.41817C5.88788 1.81817 7.0545 5.2516 6.52113 6.58474C6.08787 7.65137 5.02125 8.35137 3.8545 8.35137V8.35132ZM5.22125 2.01817C5.22123 2.01818 5.22121 2.01819 5.2212 2.0182C4.15444 2.61821 2.12124 3.88481 1.78782 4.75143C1.35445 5.8848 1.88782 7.11806 3.02119 7.55143C3.28782 7.65143 3.55456 7.6848 3.82119 7.6848C4.72119 7.6848 5.52119 7.15143 5.85456 6.31817C6.22119 5.48481 5.6212 3.18478 5.2212 2.0182C5.2212 2.01819 5.22119 2.01818 5.22119 2.01817H5.22125Z" fill="#808A97"/>
<path d="M5.2212 2.0182C4.15444 2.61821 2.12124 3.88481 1.78782 4.75143C1.35445 5.8848 1.88782 7.11806 3.02119 7.55143C3.28782 7.65143 3.55456 7.6848 3.82119 7.6848C4.72119 7.6848 5.52119 7.15143 5.85456 6.31817C6.22119 5.48481 5.6212 3.18478 5.2212 2.0182Z" fill="#808A97"/>
<path d="M14.6561 6.88482C14.3561 6.88482 14.0894 6.81819 13.7894 6.71819C13.2228 6.48482 12.7561 6.05156 12.4894 5.48482C12.2561 4.91819 12.2228 4.28482 12.4561 3.68482C12.9227 2.55145 15.4895 1.15145 15.7895 1.01819C15.8895 0.984821 15.9895 0.984821 16.0895 1.01819C16.1895 1.05156 16.2561 1.11819 16.2895 1.21819C16.3895 1.51819 17.3229 4.28476 16.8895 5.41819C16.4895 6.31819 15.6229 6.88482 14.6561 6.88482H14.6561ZM15.7561 1.81825C14.7227 2.41825 13.3561 3.35162 13.0894 3.95162C12.9228 4.35162 12.9228 4.81825 13.1228 5.21825C13.2894 5.61825 13.6228 5.95162 14.0562 6.11825C14.2562 6.18488 14.4562 6.21825 14.6562 6.21825C15.3562 6.21825 15.9895 5.78488 16.2562 5.15162C16.4894 4.55151 16.1228 2.91825 15.7561 1.81819V1.81825Z" fill="#808A97"/>
<path d="M15.7561 1.81825C14.7227 2.41825 13.3561 3.35162 13.0894 3.95162C12.9228 4.35162 12.9228 4.81825 13.1228 5.21825C13.2894 5.61825 13.6228 5.95162 14.0562 6.11825C14.2562 6.18488 14.4562 6.21825 14.6562 6.21825C15.3562 6.21825 15.9895 5.78488 16.2562 5.15162C16.4894 4.55151 16.1228 2.91825 15.7561 1.81819V1.81825Z" fill="#808A97"/>
</svg>