<svg width="19" height="19" viewBox="0 0 19 19" fill="none" xmlns="http://www.w3.org/2000/svg">
<g clip-path="url(#clip0_336_466)">
<path d="M7.62407 18.0689H16.0199H16.1106C16.8246 18.0689 17.3245 17.4793 17.3029 16.7604C17.2821 16.0656 16.7525 15.53 16.0574 15.53H17.114C17.8258 15.53 18.3454 14.9475 18.3318 14.2359C18.3186 13.5462 17.8319 12.9911 17.1391 12.9911H17.7306C18.4234 12.9911 18.9101 12.4362 18.9233 11.7465C18.937 11.0348 18.4173 10.4523 17.7055 10.4523H17.3268C18.0219 10.4523 18.5516 9.91669 18.5724 9.22191C18.5939 8.50296 18.094 7.91343 17.38 7.91343H10.8626L11.3418 2.83824C11.4533 1.82007 10.7324 0.930664 9.70815 0.930664C9.2669 0.930664 8.90445 1.27305 8.87199 1.71311C8.46974 7.17147 3.95041 9.61059 3.95041 9.61059V16.6171L7.62407 18.0689Z" fill="#FED2A4"/>
<path d="M3.49165 17.8748H0.382295C0.171153 17.8748 0 17.7037 0 17.4926V8.73483C0 8.52369 0.171153 8.35254 0.382295 8.35254H3.49165C3.70279 8.35254 3.87394 8.52369 3.87394 8.73483V17.4926C3.87394 17.7037 3.70275 17.8748 3.49165 17.8748Z" fill="#685E68"/>
<path d="M3.56811 8.35254H2.53592C2.74706 8.35254 2.91821 8.52369 2.91821 8.73483V17.4926C2.91821 17.7037 2.74706 17.8748 2.53592 17.8748H3.56811C3.77926 17.8748 3.95041 17.7037 3.95041 17.4926V8.73483C3.95041 8.52369 3.77922 8.35254 3.56811 8.35254Z" fill="#554E56"/>
<path d="M1.97521 16.7281C2.37514 16.7281 2.69935 16.4039 2.69935 16.0039C2.69935 15.604 2.37514 15.2798 1.97521 15.2798C1.57528 15.2798 1.25107 15.604 1.25107 16.0039C1.25107 16.4039 1.57528 16.7281 1.97521 16.7281Z" fill="#FED402"/>
<path d="M10.2714 2.83824L9.8317 6.85367C9.76976 7.41931 10.2127 7.91343 10.7818 7.91343H10.8626L11.4183 2.83824C11.5297 1.82007 10.7324 0.930664 9.70814 0.930664C9.5366 0.930664 9.37738 0.982886 9.24442 1.072C9.91324 1.3617 10.3564 2.06237 10.2714 2.83824Z" fill="#FFBD86"/>
<path d="M4.715 9.10596C4.25605 9.44566 3.95041 9.61085 3.95041 9.61085V16.6174L4.715 16.9195V9.10596Z" fill="#FFBD86"/>
<path d="M14.9637 18.069H16.0199H16.1106C16.8246 18.069 17.401 17.4795 17.3794 16.7605C17.3586 16.0658 16.7525 15.5301 16.0574 15.5301H17.114C17.8258 15.5301 18.4219 14.9476 18.4083 14.236C18.3951 13.5463 17.8319 12.9913 17.1391 12.9913H17.7306C18.4234 12.9913 18.9866 12.4363 18.9998 11.7466C19.0134 11.035 18.4173 10.4524 17.7055 10.4524H17.3268C18.0219 10.4524 18.6281 9.91684 18.6489 9.22205C18.6704 8.50311 18.0941 7.91357 17.38 7.91357H16.2332C16.9472 7.91357 17.5236 8.50311 17.502 9.22205C17.5014 9.24136 17.5004 9.26059 17.4989 9.27967C17.4599 9.7838 17.0247 10.1657 16.5191 10.1657H14.0129C13.8559 10.1657 13.719 10.2867 13.7143 10.4437C13.7095 10.606 13.8397 10.7392 14.0009 10.7392H16.8691C17.3817 10.7392 17.8177 11.1317 17.8506 11.6432C17.8528 11.6774 17.8536 11.7119 17.8529 11.7467C17.8526 11.7661 17.8518 11.7855 17.8505 11.8048C17.8176 12.3147 17.3803 12.7046 16.8694 12.7046H14.013C13.856 12.7046 13.7191 12.8256 13.7144 12.9825C13.7095 13.1449 13.8397 13.278 14.001 13.278H16.2779C16.7889 13.278 17.2261 13.668 17.259 14.1779C17.2602 14.1972 17.261 14.2165 17.2614 14.236C17.2621 14.2708 17.2613 14.3053 17.2591 14.3394C17.2262 14.851 16.7902 15.2435 16.2776 15.2435H14.0129C13.8559 15.2435 13.719 15.3645 13.7143 15.5214C13.7095 15.6837 13.8397 15.8169 14.0009 15.8169H15.2496C15.7553 15.8169 16.1904 16.1988 16.2294 16.7029C16.2309 16.722 16.2319 16.7413 16.2325 16.7606C16.2541 17.4795 15.6777 18.069 14.9637 18.069Z" fill="#FFBD86"/>
</g>
<defs>
<clipPath id="clip0_336_466">
<rect width="19" height="19" fill="white"/>
</clipPath>
</defs>
</svg>
