<svg width="512" height="512" viewBox="0 0 512 512" fill="none" xmlns="http://www.w3.org/2000/svg">
<path d="M256.073 472C375.326 472 472 375.326 472 256.073C472 136.82 375.326 40.1465 256.073 40.1465C136.82 40.1465 40.1465 136.82 40.1465 256.073C40.1465 375.326 136.82 472 256.073 472Z" fill="#FFC000"/>
<path d="M256.073 472C375.326 472 472 375.326 472 256.073C472 136.82 375.326 40.1465 256.073 40.1465C136.82 40.1465 40.1465 136.82 40.1465 256.073C40.1465 375.326 136.82 472 256.073 472Z" fill="url(#paint0_linear_461_2354)"/>
<path d="M256.073 472C375.326 472 472 375.326 472 256.073C472 136.82 375.326 40.1465 256.073 40.1465C136.82 40.1465 40.1465 136.82 40.1465 256.073C40.1465 375.326 136.82 472 256.073 472Z" fill="url(#paint1_linear_461_2354)"/>
<path d="M70.7115 275.906C68.0901 251.555 70.2928 226.925 77.1939 203.425C84.095 179.925 95.5591 158.015 110.931 138.947C126.303 119.88 145.282 104.028 166.783 92.2981C188.284 80.5682 211.885 73.19 236.239 70.5851C338.602 59.6355 427.075 147.389 437.993 249.752C448.912 352.116 387.656 427.23 285.199 438.18C182.742 449.13 81.6924 378.238 70.7115 275.906Z" fill="url(#paint2_linear_461_2354)"/>
<path d="M279.999 423.888C372.693 410.679 437.128 324.828 423.919 232.135C410.71 139.442 324.86 75.0066 232.166 88.2153C139.473 101.424 75.0379 187.275 88.2466 279.968C101.455 372.661 187.306 437.096 279.999 423.888Z" fill="white"/>
<path d="M258.953 285.575L258.961 288.575C259.797 288.573 260.621 288.383 261.373 288.019C262.123 287.655 262.783 287.127 263.302 286.474C263.303 286.473 263.304 286.472 263.305 286.471L341.135 189.121L341.142 189.112C342.057 187.959 342.478 186.49 342.312 185.028C342.148 183.569 341.413 182.235 340.27 181.316C339.701 180.855 339.046 180.511 338.343 180.305C337.636 180.098 336.896 180.033 336.164 180.116C335.432 180.199 334.724 180.427 334.082 180.787C333.445 181.143 332.886 181.621 332.435 182.195L258.03 275.247L211.752 238.886L211.63 238.789L211.497 238.706C210.328 237.97 208.926 237.695 207.565 237.935C206.203 238.175 204.98 238.914 204.134 240.006C203.287 241.098 202.877 242.467 202.983 243.845C203.09 245.223 203.705 246.512 204.71 247.461L204.81 247.555L204.917 247.64L255.492 287.361C256.474 288.148 257.697 288.577 258.957 288.575L258.953 285.575Z" fill="#522D34" stroke="#522D34" stroke-width="6"/>
<mask id="path-5-outside-1_461_2354" maskUnits="userSpaceOnUse" x="234.547" y="102.538" width="16" height="46" fill="black">
<rect fill="white" x="234.547" y="102.538" width="16" height="46"/>
<path d="M243.905 144.135C243.483 144.137 243.075 143.981 242.763 143.697C242.45 143.413 242.255 143.023 242.216 142.602L238.556 108.408C238.51 107.96 238.644 107.512 238.929 107.163C239.213 106.814 239.625 106.592 240.073 106.547C240.521 106.501 240.969 106.635 241.318 106.92C241.667 107.205 241.889 107.616 241.934 108.064L245.595 142.258C245.621 142.48 245.602 142.705 245.541 142.92C245.479 143.135 245.376 143.336 245.236 143.511C245.096 143.685 244.923 143.83 244.727 143.938C244.531 144.045 244.315 144.112 244.093 144.135H243.905Z"/>
</mask>
<path d="M243.905 144.135C243.483 144.137 243.075 143.981 242.763 143.697C242.45 143.413 242.255 143.023 242.216 142.602L238.556 108.408C238.51 107.96 238.644 107.512 238.929 107.163C239.213 106.814 239.625 106.592 240.073 106.547C240.521 106.501 240.969 106.635 241.318 106.92C241.667 107.205 241.889 107.616 241.934 108.064L245.595 142.258C245.621 142.48 245.602 142.705 245.541 142.92C245.479 143.135 245.376 143.336 245.236 143.511C245.096 143.685 244.923 143.83 244.727 143.938C244.531 144.045 244.315 144.112 244.093 144.135H243.905Z" fill="#522D34"/>
<path d="M243.905 144.135V140.135H243.897L243.888 140.135L243.905 144.135ZM242.216 142.602L246.199 142.232L246.196 142.204L246.193 142.177L242.216 142.602ZM238.556 108.408L234.576 108.814L234.577 108.824L234.578 108.834L238.556 108.408ZM241.934 108.064L237.955 108.469L237.956 108.48L237.957 108.49L241.934 108.064ZM245.595 142.258L241.617 142.684L241.62 142.704L241.622 142.725L245.595 142.258ZM244.093 144.135V148.135H244.302L244.51 148.114L244.093 144.135ZM243.888 140.135C244.466 140.133 245.023 140.347 245.451 140.735L240.075 146.659C241.128 147.615 242.501 148.141 243.922 148.135L243.888 140.135ZM245.451 140.735C245.878 141.123 246.145 141.657 246.199 142.232L238.233 142.973C238.365 144.388 239.022 145.704 240.075 146.659L245.451 140.735ZM246.193 142.177L242.533 107.983L234.578 108.834L238.239 143.028L246.193 142.177ZM242.535 108.003C242.597 108.61 242.415 109.217 242.029 109.691L235.828 104.636C234.874 105.807 234.423 107.31 234.576 108.814L242.535 108.003ZM242.029 109.691C241.644 110.164 241.086 110.464 240.478 110.526L239.668 102.567C238.164 102.721 236.783 103.465 235.828 104.636L242.029 109.691ZM240.478 110.526C239.871 110.588 239.264 110.406 238.791 110.02L243.845 103.819C242.674 102.865 241.171 102.414 239.668 102.567L240.478 110.526ZM238.791 110.02C238.317 109.635 238.017 109.077 237.955 108.469L245.914 107.659C245.761 106.155 245.017 104.774 243.845 103.819L238.791 110.02ZM237.957 108.49L241.617 142.684L249.572 141.833L245.912 107.638L237.957 108.49ZM241.622 142.725C241.586 142.421 241.611 142.113 241.695 141.819L249.386 144.022C249.594 143.298 249.655 142.54 249.567 141.792L241.622 142.725ZM241.695 141.819C241.78 141.525 241.921 141.251 242.113 141.012L248.359 146.009C248.83 145.421 249.179 144.745 249.386 144.022L241.695 141.819ZM242.113 141.012C242.304 140.773 242.54 140.574 242.809 140.428L246.646 147.447C247.306 147.086 247.889 146.597 248.359 146.009L242.113 141.012ZM242.809 140.428C243.077 140.281 243.372 140.189 243.676 140.157L244.51 148.114C245.259 148.035 245.985 147.809 246.646 147.447L242.809 140.428ZM244.093 140.135H243.905V148.135H244.093V140.135Z" fill="#522D34" mask="url(#path-5-outside-1_461_2354)"/>
<path d="M272.287 411.149L272.447 411.148L272.604 411.122L272.758 411.096C273.702 410.967 274.561 410.48 275.158 409.735C275.764 408.976 276.05 408.011 275.955 407.044L275.954 407.036L275.953 407.028L272.293 372.869C272.293 372.868 272.293 372.868 272.293 372.867C272.19 371.892 271.706 370.996 270.946 370.376C270.189 369.757 269.219 369.462 268.246 369.553C267.755 369.597 267.279 369.739 266.845 369.971C266.407 370.204 266.022 370.525 265.712 370.912C265.402 371.299 265.174 371.746 265.042 372.224C264.913 372.691 264.878 373.178 264.939 373.658L268.566 407.827L268.566 407.834C268.667 408.749 269.103 409.594 269.79 410.207C270.477 410.819 271.367 411.155 272.287 411.149Z" fill="#522D34" stroke="#522D34" stroke-width="4"/>
<path d="M371.531 249.185L371.599 249.189H371.668H372.012H372.119L372.226 249.178L406.154 245.526C406.632 245.506 407.101 245.395 407.537 245.197C408.007 244.984 408.428 244.675 408.773 244.289C409.118 243.904 409.378 243.451 409.538 242.96C409.698 242.469 409.754 241.949 409.702 241.435C409.65 240.921 409.492 240.423 409.237 239.973C408.982 239.524 408.636 239.132 408.221 238.824C407.807 238.515 407.333 238.296 406.829 238.181C406.357 238.074 405.87 238.059 405.394 238.138L371.267 241.791L371.196 241.798L371.125 241.811C370.232 241.972 369.429 242.454 368.866 243.166C368.303 243.878 368.02 244.771 368.07 245.677C368.12 246.583 368.499 247.44 369.137 248.086C369.774 248.732 370.626 249.123 371.531 249.185Z" fill="#522D34" stroke="#522D34" stroke-width="4"/>
<mask id="path-9-outside-2_461_2354" maskUnits="userSpaceOnUse" x="100.957" y="264.484" width="46" height="16" fill="black">
<rect fill="white" x="100.957" y="264.484" width="46" height="16"/>
<path d="M106.658 275.563C106.238 275.558 105.834 275.399 105.523 275.117C105.211 274.834 105.014 274.448 104.969 274.03C104.942 273.808 104.961 273.583 105.022 273.368C105.084 273.153 105.188 272.952 105.327 272.778C105.467 272.603 105.64 272.458 105.836 272.351C106.032 272.244 106.248 272.176 106.47 272.153L140.664 268.493C141.111 268.449 141.558 268.581 141.909 268.861C142.259 269.142 142.486 269.549 142.541 269.994C142.586 270.445 142.455 270.895 142.175 271.251C141.895 271.607 141.488 271.84 141.04 271.903L106.846 275.532L106.658 275.563Z"/>
</mask>
<path d="M106.658 275.563C106.238 275.558 105.834 275.399 105.523 275.117C105.211 274.834 105.014 274.448 104.969 274.03C104.942 273.808 104.961 273.583 105.022 273.368C105.084 273.153 105.188 272.952 105.327 272.778C105.467 272.603 105.64 272.458 105.836 272.351C106.032 272.244 106.248 272.176 106.47 272.153L140.664 268.493C141.111 268.449 141.558 268.581 141.909 268.861C142.259 269.142 142.486 269.549 142.541 269.994C142.586 270.445 142.455 270.895 142.175 271.251C141.895 271.607 141.488 271.84 141.04 271.903L106.846 275.532L106.658 275.563Z" fill="#522D34"/>
<path d="M106.658 275.563L106.609 279.563L106.965 279.567L107.316 279.509L106.658 275.563ZM104.969 274.03L108.945 273.594L108.943 273.579L108.941 273.564L104.969 274.03ZM106.47 272.153L106.887 276.131L106.896 276.13L106.47 272.153ZM140.664 268.493L140.271 264.512L140.255 264.514L140.239 264.515L140.664 268.493ZM142.541 269.994L146.522 269.599L146.517 269.552L146.511 269.505L142.541 269.994ZM141.04 271.903L141.462 275.88L141.527 275.874L141.592 275.865L141.04 271.903ZM106.846 275.532L106.423 271.554L106.305 271.567L106.187 271.586L106.846 275.532ZM106.707 271.563C107.264 271.57 107.798 271.781 108.211 272.155L102.835 278.079C103.869 279.018 105.212 279.546 106.609 279.563L106.707 271.563ZM108.211 272.155C108.623 272.529 108.884 273.041 108.945 273.594L100.992 274.466C101.145 275.855 101.8 277.14 102.835 278.079L108.211 272.155ZM108.941 273.564C108.977 273.868 108.952 274.176 108.868 274.469L101.177 272.267C100.97 272.99 100.908 273.748 100.996 274.496L108.941 273.564ZM108.868 274.469C108.784 274.763 108.642 275.038 108.451 275.277L102.204 270.279C101.733 270.867 101.384 271.543 101.177 272.267L108.868 274.469ZM108.451 275.277C108.26 275.516 108.023 275.714 107.755 275.861L103.917 268.841C103.257 269.202 102.674 269.691 102.204 270.279L108.451 275.277ZM107.755 275.861C107.486 276.007 107.192 276.099 106.887 276.131L106.053 268.175C105.304 268.253 104.578 268.48 103.917 268.841L107.755 275.861ZM106.896 276.13L141.09 272.47L140.239 264.515L106.044 268.176L106.896 276.13ZM141.058 272.473C140.466 272.532 139.874 272.357 139.41 271.985L144.407 265.738C143.241 264.805 141.757 264.365 140.271 264.512L141.058 272.473ZM139.41 271.985C138.945 271.613 138.644 271.074 138.571 270.484L146.511 269.505C146.329 268.023 145.574 266.671 144.407 265.738L139.41 271.985ZM138.561 270.39C138.504 269.812 138.672 269.234 139.031 268.777L145.318 273.725C146.238 272.556 146.669 271.078 146.522 269.599L138.561 270.39ZM139.031 268.777C139.391 268.321 139.912 268.021 140.488 267.941L141.592 275.865C143.064 275.659 144.399 274.892 145.318 273.725L139.031 268.777ZM140.618 267.925L106.423 271.554L107.268 279.509L141.462 275.88L140.618 267.925ZM106.187 271.586L106 271.618L107.316 279.509L107.504 279.477L106.187 271.586Z" fill="#522D34" mask="url(#path-9-outside-2_461_2354)"/>
<defs>
<linearGradient id="paint0_linear_461_2354" x1="85.836" y1="209.432" x2="417.181" y2="380.624" gradientUnits="userSpaceOnUse">
<stop stop-color="#FFD463"/>
<stop offset="1" stop-color="#FFC531"/>
</linearGradient>
<linearGradient id="paint1_linear_461_2354" x1="312.532" y1="504.919" x2="21.6705" y2="114.322" gradientUnits="userSpaceOnUse">
<stop offset="0.17" stop-color="#FFC420"/>
<stop offset="1" stop-color="#FFB820"/>
</linearGradient>
<linearGradient id="paint2_linear_461_2354" x1="69.679" y1="254.33" x2="439.246" y2="254.33" gradientUnits="userSpaceOnUse">
<stop stop-color="#FFA91F"/>
<stop offset="1" stop-color="#FF8C2E"/>
</linearGradient>
</defs>
</svg>
