<?xml version="1.0" standalone="no"?>
<!DOCTYPE svg PUBLIC "-//W3C//DTD SVG 20010904//EN"
 "http://www.w3.org/TR/2001/REC-SVG-20010904/DTD/svg10.dtd">
<svg version="1.0" xmlns="http://www.w3.org/2000/svg"
 width="1000.000000pt" height="1000.000000pt" viewBox="0 0 1000.000000 1000.000000"
 preserveAspectRatio="xMidYMid meet">
<metadata>
Created by potrace 1.14, written by Peter Selinger 2001-2017
</metadata>
<g transform="translate(0.000000,1000.000000) scale(0.100000,-0.100000)"
fill="#000000" stroke="none">
<path d="M4885 9923 c-124 -22 -187 -40 -274 -79 -148 -68 -122 -42 -2021
-1941 -1004 -1004 -1847 -1852 -1875 -1885 -27 -33 -55 -65 -60 -72 -10 -10
-69 -90 -130 -173 -129 -177 -287 -488 -367 -723 -34 -101 -97 -337 -104 -393
-2 -22 -7 -43 -9 -47 -2 -3 -7 -35 -11 -71 -3 -35 -8 -67 -10 -70 -10 -18 -19
-189 -19 -369 0 -232 10 -380 35 -500 5 -25 12 -61 14 -80 19 -129 107 -419
179 -585 33 -76 108 -233 127 -265 5 -8 35 -58 66 -110 121 -205 301 -428 490
-610 388 -373 874 -636 1389 -750 72 -16 146 -31 165 -34 65 -11 135 -19 153
-20 16 0 17 -6 12 -36 -8 -42 -7 -205 1 -257 37 -235 156 -440 343 -595 77
-63 260 -149 369 -173 12 -3 32 -8 45 -12 12 -4 724 -9 1582 -10 1648 -2 1628
-3 1760 42 299 103 525 341 604 637 32 120 42 252 27 355 -8 47 -7 47 84 58
328 39 736 176 1044 352 85 49 296 188 333 219 12 11 50 42 85 69 137 109 305
278 447 450 60 74 174 238 238 345 53 89 173 323 173 339 0 4 11 34 25 65 50
113 130 387 149 513 4 21 8 45 11 53 2 8 6 31 9 50 14 104 17 128 22 165 9 70
12 497 4 565 -4 36 -11 94 -14 130 -4 36 -18 121 -32 190 -28 141 -27 134 -49
215 -9 33 -22 77 -27 98 l-11 39 -392 -392 -393 -393 -1 -146 c-1 -80 -3 -159
-5 -176 -28 -237 -69 -405 -142 -582 -112 -271 -236 -456 -449 -669 -188 -188
-331 -290 -559 -399 -114 -55 -300 -124 -376 -140 -144 -30 -223 -44 -278 -51
-89 -10 -341 -11 -422 -1 -138 16 -196 26 -280 46 -25 7 -54 14 -64 16 -149
35 -408 153 -572 261 -78 51 -230 168 -259 199 -67 70 -65 57 10 -90 115 -225
296 -578 445 -870 73 -143 175 -343 227 -443 52 -101 92 -187 88 -190 -9 -9
-2875 -8 -2875 2 0 4 47 99 104 210 57 110 153 298 214 416 60 118 156 305
212 415 56 110 150 292 208 405 84 164 99 200 76 179 -223 -198 -411 -321
-636 -413 -92 -38 -269 -93 -328 -102 -19 -3 -38 -8 -41 -10 -8 -4 -119 -22
-199 -31 -88 -9 -328 -9 -420 0 -765 81 -1433 602 -1698 1327 -38 103 -75 238
-88 315 -3 22 -7 42 -9 45 -2 3 -6 35 -10 70 -3 36 -8 79 -10 95 -5 36 -5 293
-1 350 32 397 201 807 463 1122 37 46 863 878 1836 1850 l1767 1768 545 -545
545 -545 -1577 -1577 c-1479 -1479 -1579 -1577 -1617 -1583 -23 -4 -53 -9 -68
-11 -49 -8 -156 -50 -214 -85 -120 -72 -228 -203 -278 -337 -32 -87 -38 -120
-41 -215 -11 -335 226 -621 565 -683 59 -11 187 -5 258 11 222 51 421 237 486
455 23 75 30 124 29 196 l0 62 1556 1556 1556 1556 683 -683 c375 -375 682
-685 682 -689 0 -3 -255 -261 -566 -572 -486 -485 -571 -566 -595 -566 -35 0
-25 2 -106 -24 -113 -36 -191 -84 -279 -171 -141 -140 -202 -300 -191 -504 8
-164 50 -266 172 -419 18 -23 129 -108 175 -134 43 -25 153 -62 215 -73 68
-12 193 -5 266 14 205 53 363 185 449 374 42 92 57 161 58 265 l1 93 860 859
860 859 -127 126 c-70 69 -932 931 -1917 1914 -984 984 -1815 1806 -1845 1827
-159 114 -345 173 -540 172 -52 -1 -104 -3 -115 -5z"/>
</g>
</svg>
