<svg width="191" height="191" viewBox="0 0 191 191" fill="none" xmlns="http://www.w3.org/2000/svg">
<path d="M191 95.5C191 148.243 148.243 191 95.5 191C42.7568 191 0 148.243 0 95.5C0 42.7568 42.7568 0 95.5 0C148.243 0 191 42.7568 191 95.5Z" fill="#C87700"/>
<path d="M159.174 122.814C159.174 120.458 158.988 116.8 158.12 111.964C157.438 108.244 156.508 104.4 155.33 100.618C153.904 96.092 152.106 91.628 149.936 87.288L149.502 86.42L149.874 85.552C149.874 85.552 151.238 82.514 152.664 77.802C153.532 75.012 154.214 72.222 154.834 69.494C155.578 66.022 156.074 62.674 156.322 59.388L156.384 58.954C156.942 51.948 157.5 45.314 157.314 40.23C157.128 35.146 156.136 31.984 154.4 30.496C153.966 30.124 153.408 30 152.664 30C151.61 30 150.308 30.31 148.758 30.93C147.456 31.488 145.968 32.232 144.418 33.162C141.69 34.836 139.644 36.51 139.582 36.51C139.582 36.51 136.792 38.804 133.196 42.09C127.244 47.608 123.648 51.762 121.664 54.304L120.734 55.482L119.37 54.986C116.084 53.808 112.426 52.816 108.396 52.196C104.242 51.514 99.8401 51.142 95.3761 51.142C90.9121 51.142 86.5101 51.514 82.3561 52.196C78.3881 52.878 74.6681 53.808 71.3821 54.986L70.0181 55.482L69.0881 54.304C65.4921 49.716 60.8421 45.128 57.5561 42.09C53.9601 38.804 51.2321 36.51 51.1701 36.51C51.1701 36.51 49.0621 34.774 46.3341 33.162C44.7841 32.232 43.2961 31.426 41.9941 30.93C40.4441 30.31 39.1421 30 38.0881 30C37.3441 30 36.7241 30.186 36.3521 30.496C34.6161 31.922 33.6241 35.084 33.4381 40.23C33.2521 45.314 33.7481 51.948 34.3681 58.954L34.4301 59.388C34.6781 62.612 35.2361 66.022 35.9181 69.494C36.4761 72.284 37.2201 75.074 38.0881 77.802C39.5141 82.514 40.8781 85.552 40.8781 85.552L41.2501 86.42L40.8161 87.288C38.6461 91.628 36.8481 96.154 35.4221 100.618C34.2441 104.4 33.2521 108.244 32.6321 111.964C31.7641 116.8 31.5781 120.458 31.5781 122.814C31.5781 123.62 31.5781 124.302 31.6401 124.798C31.6401 124.86 31.6401 124.922 31.6401 124.984C31.6401 125.108 31.6401 125.232 31.6401 125.356C31.6401 125.418 31.6401 125.418 31.6401 125.48C31.6401 125.604 31.6401 125.666 31.6401 125.728C31.7641 126.906 32.0121 128.518 32.6321 130.378C32.6321 130.44 32.6941 130.502 32.6941 130.502C32.7561 130.626 32.7561 130.688 32.8181 130.812C32.8181 130.874 32.8801 130.936 32.8801 131.06C32.9421 131.246 33.0041 131.432 33.1281 131.618C33.1901 131.742 33.1901 131.804 33.2521 131.928C33.3141 131.99 33.3141 132.114 33.3761 132.176C33.8721 133.416 34.4921 134.718 35.2981 136.082C38.6461 141.786 43.9781 147.304 51.1701 152.512C52.1621 153.256 53.1541 153.938 54.1461 154.62C57.3081 156.79 60.4701 158.712 63.5701 160.448C66.7321 162.184 69.8321 163.734 72.8701 165.036C73.6761 165.346 74.4201 165.718 75.2261 165.966C78.8841 167.392 82.4181 168.446 85.7661 169.19C88.9901 169.872 92.0901 170.244 94.8801 170.244H94.9421H95.1901H95.4381H95.5001C98.3521 170.244 101.39 169.872 104.614 169.19C107.962 168.446 111.558 167.392 115.154 165.966C115.898 165.656 116.642 165.408 117.386 165.036C120.486 163.734 123.648 162.184 126.81 160.386C129.104 159.146 131.398 157.72 133.692 156.232C133.816 156.108 134.002 156.046 134.126 155.922C134.374 155.798 134.622 155.612 134.808 155.488C136.296 154.496 137.722 153.504 139.21 152.45C142.496 150.094 145.348 147.676 147.828 145.196C147.89 145.134 148.014 145.01 148.076 144.948C148.262 144.762 148.386 144.638 148.572 144.452C148.696 144.328 148.82 144.204 148.944 144.018C149.006 143.956 149.068 143.832 149.192 143.77C149.316 143.646 149.44 143.46 149.564 143.336C149.75 143.088 149.998 142.902 150.184 142.654C150.928 141.848 151.61 140.98 152.23 140.174C152.416 139.988 152.54 139.74 152.726 139.554C152.788 139.492 152.788 139.492 152.85 139.43C153.656 138.314 154.4 137.198 155.082 136.082C155.64 135.09 156.136 134.098 156.57 133.23C157.996 130.068 158.554 127.526 158.678 125.79C158.74 125.418 158.802 124.488 158.802 122.938L159.174 122.814Z" fill="#FEA31C"/>
<path d="M159.112 125.728C158.864 128.022 158.058 131.618 155.454 136.082C152.106 141.786 146.774 147.304 139.582 152.512C135.428 155.488 131.274 158.154 127.182 160.448C124.02 162.184 120.858 163.734 117.758 165.098C117.014 165.408 116.27 165.718 115.526 166.028C111.868 167.454 108.334 168.508 104.986 169.252C101.762 169.934 98.6622 170.306 95.8722 170.306H95.8102H95.5622H95.3142H95.2522C92.4002 170.306 89.3622 169.934 86.1382 169.252C82.7902 168.508 79.1942 167.454 75.5982 166.028C74.8542 165.718 74.0482 165.408 73.2422 165.098C70.2042 163.796 67.0422 162.246 63.9422 160.51C59.8502 158.216 55.6342 155.55 51.5422 152.574C44.3502 147.366 39.0182 141.848 35.6702 136.144C33.0662 131.68 32.2602 128.084 32.0122 125.79C31.9502 125.418 31.8882 124.426 31.8882 122.876C34.6782 122.194 37.5922 121.822 40.6302 121.822C51.9762 121.822 62.0822 126.906 68.4062 134.718C71.0722 121.636 82.1702 111.778 95.5002 111.778C108.83 111.778 119.99 121.636 122.594 134.718C128.918 126.906 139.024 121.822 150.37 121.822C153.47 121.822 156.446 122.194 159.236 122.876C159.236 124.426 159.174 125.418 159.112 125.728Z" fill="white"/>
<path d="M31.8262 122.814C31.8262 124.364 31.8882 125.356 31.9502 125.728C32.1982 128.022 33.0042 131.618 35.6082 136.082C38.9562 141.786 44.2882 147.304 51.4802 152.512C55.6342 155.488 59.7882 158.154 63.8802 160.448C67.0422 162.184 70.1422 163.734 73.1802 165.036L31.8262 122.876V122.814Z" fill="white"/>
<path d="M159.174 122.814C159.174 124.364 159.112 125.356 159.05 125.666C158.802 127.96 157.996 131.556 155.392 136.02C152.044 141.724 146.712 147.242 139.52 152.45C135.366 155.426 131.212 158.092 127.12 160.386C123.958 162.122 120.796 163.672 117.696 165.036L159.174 122.876V122.814Z" fill="white"/>
<path d="M59.7262 84.8082C59.7262 84.8082 60.9662 79.7242 65.4302 79.5382C69.8942 79.3522 71.6922 81.8322 72.9942 83.5062C74.2342 85.1802 76.2802 89.8302 72.1262 90.4502C67.9722 91.1322 61.2762 91.6282 60.2842 90.6362C58.6102 89.0242 59.7262 84.8082 59.7262 84.8082Z" fill="#FFFFF2"/>
<path d="M131.088 84.8082C131.088 84.8082 129.848 79.7242 125.384 79.5382C120.92 79.3522 119.122 81.8322 117.82 83.5062C116.58 85.1802 114.534 89.8302 118.688 90.4502C122.842 91.1322 129.538 91.6282 130.53 90.6362C132.204 89.0242 131.088 84.8082 131.088 84.8082Z" fill="#FFFFF2"/>
<path d="M56.0684 98.2619C56.0684 98.2619 55.9444 94.3559 58.4864 94.9759C61.0284 95.5959 74.7924 102.54 77.3964 105.392C79.9384 108.182 82.1084 110.972 79.6904 111.096C77.3344 111.22 67.5384 110.538 62.1444 107.314C56.7504 104.09 56.0684 104.834 56.0684 98.3239V98.2619Z" fill="#151110"/>
<path d="M134.808 98.2619C134.808 98.2619 134.932 94.3559 132.39 94.9759C129.848 95.5959 116.084 102.54 113.48 105.392C110.938 108.182 108.768 110.972 111.186 111.096C113.542 111.22 123.338 110.538 128.732 107.314C134.126 104.09 134.808 104.834 134.808 98.3239V98.2619Z" fill="#151110"/>
<path d="M143.964 48.2287C140.616 51.8247 136.1 57.2862 133 62.0602C139.944 68.1982 144.94 74.4942 147.172 78.2142C150.086 70.5882 153.744 52.4222 153.248 45.1062C153.186 44.3622 153.124 43.6802 153 43.0602C150.706 43.4942 147.312 44.6327 143.964 48.2287Z" fill="url(#paint0_linear_649_75)"/>
<path d="M141.814 43.2681C137.536 46.2441 132.576 50.4601 126.562 57.0321C129.104 58.7681 131.398 60.6281 133.506 62.4881C136.668 57.7761 140.822 52.3821 144.108 48.7241C147.456 45.1281 150.644 43.4942 153 43.0602C151.822 36.9222 147.518 39.2381 141.752 43.2681H141.814Z" fill="url(#paint1_linear_649_75)"/>
<path d="M47.3293 48.4948C50.6773 52.0908 55.1935 57.5524 58.2935 62.3264C51.3495 68.4644 46.3535 74.7604 44.1215 78.4804C41.2075 70.8544 37.5495 52.6884 38.0455 45.3724C38.1075 44.6284 38.1695 43.9464 38.2935 43.3264C40.5875 43.7604 43.9813 44.8988 47.3293 48.4948Z" fill="url(#paint2_linear_649_75)"/>
<path d="M49.4794 43.5342C53.7574 46.5102 58.7174 50.7262 64.7314 57.2982C62.1894 59.0342 59.8954 60.8942 57.7874 62.7542C54.6254 58.0422 50.4714 52.6482 47.1854 48.9902C43.8374 45.3942 40.6495 43.7604 38.2935 43.3264C39.4715 37.1884 43.7754 39.5042 49.5414 43.5342H49.4794Z" fill="url(#paint3_linear_649_75)"/>
<path d="M99.9639 148.234H95.8099H95.0039H90.8499C90.8499 148.234 89.8579 147.986 89.8579 148.73C89.8579 149.474 90.9119 150.094 91.3459 150.094C91.7799 150.094 92.5239 149.164 93.0819 149.164C93.6399 149.164 94.6939 151.396 95.4379 151.396C96.1819 151.396 97.2359 149.164 97.7939 149.164C98.3519 149.164 99.0959 150.094 99.5299 150.094C99.9639 150.094 101.018 149.474 101.018 148.73C101.018 147.986 100.026 148.234 100.026 148.234H99.9639Z" fill="#151110"/>
<path d="M112.488 142.778C107.59 142.716 107.28 143.088 106.722 143.336C106.102 143.584 102.568 143.46 100.522 143.522C98.4759 143.584 99.0339 142.53 98.2899 141.724C97.6699 141.104 96.8639 141.228 96.8019 140.67V138.128C96.8019 138.128 96.8639 137.446 98.1039 137.074C101.886 135.896 103.87 132.548 103.87 132.548C106.226 127.526 105.11 122.69 103.746 121.45C102.382 120.21 99.4679 120.458 99.4679 120.458H91.4079C91.4079 120.458 88.4939 120.21 87.1299 121.45C85.7659 122.69 84.6499 127.526 87.0059 132.548C87.0059 132.548 89.0519 135.896 92.7719 137.074H92.7099C93.9499 137.446 94.0119 138.128 94.0119 138.128V140.67C93.9499 141.29 93.1439 141.104 92.5239 141.724C91.7799 142.53 92.3379 143.522 90.2919 143.522C88.2459 143.46 84.7119 143.646 84.0919 143.336C83.5339 143.088 83.2239 142.716 78.3259 142.778C78.0779 142.778 77.9539 143.088 78.0779 143.274C78.3879 143.646 78.7599 144.08 79.0079 144.576C79.4419 145.444 79.5039 147.366 79.6899 147.552C79.8759 147.738 80.8679 147.552 81.1159 147.8C81.3019 148.048 83.0379 153.318 83.7819 153.318C84.5259 153.318 84.2159 145.444 84.2159 145.444C84.2159 145.444 93.0199 146.064 95.3759 146.064C97.7319 146.064 106.536 145.444 106.536 145.444C106.536 145.444 106.226 153.318 106.97 153.318C107.714 153.318 109.45 148.048 109.636 147.8C109.822 147.552 110.814 147.676 111.062 147.552C111.248 147.366 111.31 145.444 111.744 144.576C111.992 144.08 112.364 143.584 112.674 143.274C112.86 143.088 112.674 142.778 112.426 142.778H112.488Z" fill="#151110"/>
<defs>
<linearGradient id="paint0_linear_649_75" x1="136.5" y1="45.5601" x2="149.5" y2="78.0601" gradientUnits="userSpaceOnUse">
<stop stop-color="#FF8E06"/>
<stop offset="1" stop-color="#FF8000"/>
</linearGradient>
<linearGradient id="paint1_linear_649_75" x1="136.5" y1="45.5601" x2="149.5" y2="78.0601" gradientUnits="userSpaceOnUse">
<stop stop-color="#FF8E06"/>
<stop offset="1" stop-color="#FF8000"/>
</linearGradient>
<linearGradient id="paint2_linear_649_75" x1="54.7935" y1="45.8262" x2="41.7935" y2="78.3262" gradientUnits="userSpaceOnUse">
<stop stop-color="#FF8E06"/>
<stop offset="1" stop-color="#FF8000"/>
</linearGradient>
<linearGradient id="paint3_linear_649_75" x1="54.7935" y1="45.8262" x2="41.7935" y2="78.3262" gradientUnits="userSpaceOnUse">
<stop stop-color="#FF8E06"/>
<stop offset="1" stop-color="#FF8000"/>
</linearGradient>
</defs>
</svg>
