<svg xmlns="http://www.w3.org/2000/svg" viewBox="245.089 172.225 39.932 29.092" xmlns:v="https://vecta.io/nano"><path d="M264.006 186.319c-1.452-.937-2.904-2.341-3.872-3.278-.806.937-1.936 1.873-3.871 3.278-1.291.937 0 3.278 1.452 2.81.735-.237 1.936-.937 2.42-1.405.645.468 2.226 1.405 3.388 1.405 1.452 0 1.384-2.229.484-2.81h-.001zm-2.42 5.151c-.894-.577-1.272-1.931-1.399-2.951-.148 1.062-.997 2.336-1.505 2.951.774-.375 2.258-.156 2.904 0z" fill="#371699"/><g fill-rule="evenodd"><path d="M266.425 176.954h-12.092c-1.936 0-3.388 2.341-3.388 2.341v8.195 8.106.089c0 1.873 2.258 2.654 3.388 2.81h12.576c1.936 0 2.42-1.873 2.42-2.81v-4.461-8.183-3.746c-.235-2.341-1.936-2.341-2.904-2.341zm-12.098 16.389v-11.707c0-1.124.968-2.341 2.42-2.341h7.259c1.161 0 2.42.937 2.42 2.341v11.707c0 1.405-.968 2.341-2.42 2.341h-7.259c-1.936 0-2.42-1.405-2.42-2.341z" fill="#ff1422"/><path d="M254.327 181.636v11.707c0 .937.484 2.341 2.42 2.341h7.259c1.452 0 2.42-.937 2.42-2.341v-11.707c0-1.405-1.258-2.341-2.42-2.341h-7.259a2.42 2.42 0 0 0-2.42 2.341zm5.807 1.405c.968.937 2.42 2.341 3.872 3.278.9.581.968 2.81-.484 2.81-1.162 0-2.742-.937-3.388-1.405.082.239.093.509.053.796.127 1.02.504 2.374 1.399 2.951-.645-.156-2.129-.375-2.904 0 .508-.615 1.357-1.888 1.505-2.951-.038-.305-.053-.58-.053-.796-.484.468-1.685 1.168-2.42 1.405-1.452.468-2.742-1.873-1.452-2.81 1.936-1.405 3.065-2.341 3.871-3.278z" fill="#ffd36b"/></g><path d="M269.329 191.224c1.452.082 4.355-.596 4.355-3.968s-2.904-4.215-4.355-4.215v8.183z" fill="#6038d7"/><g fill="#ffc231"><path d="M250.946 187.49v-8.195c-1.44.78-4.321 3.512-4.321 8.195s2.881 7.355 4.321 8.106v-8.106zm18.383-8.195c.063.628 0 2.555 0 3.746 1.452 0 4.355.843 4.355 4.215.067-1.531-.71-6.016-4.355-7.961z"/><path d="M269.329 191.224v4.461c1.452-1.07 4.355-4.255 4.355-8.429 0 3.372-2.904 4.05-4.355 3.968z"/></g><path d="M275.859 178.86c0-1.271.763-3.813 3.813-3.813s3.813 2.542 3.813 3.813-.763 3.813-3.813 3.813-3.813-2.542-3.813-3.813z" fill="#ff1422"/><path d="M254.333 198.494l-.034.248.017.002h.017v-.25zm5.801-15.453l.174-.18-.19-.184-.173.201.189.163zm3.872 3.278l-.136.21.136-.21zm-3.872 1.405l.147-.202-.17-.123-.151.146.174.18v-.001zm-2.42 1.405l-.077-.238.077.238zm-1.452-2.81l.147.202-.147-.202zm5.323 5.151l-.059.243.194-.453-.136.21h.001zm-2.904 0l-.193-.159.302.384-.109-.225zm-4.348-14.266h12.092v-.5h-12.092v.5zm12.092 0c.493 0 1.099.004 1.613.265.487.248.931.75 1.042 1.851l.498-.05c-.125-1.241-.649-1.909-1.313-2.247-.637-.324-1.364-.32-1.84-.32v.5.001zm2.654 18.481c0 .435-.114 1.088-.446 1.624a1.9 1.9 0 0 1-1.723.935v.5a2.4 2.4 0 0 0 2.148-1.172 3.75 3.75 0 0 0 .521-1.888h-.5v.001zm-2.17 2.56h-.022-.022-.022-.021-.021-.02-.03-.029-.028-.027-.026-.026-.025-.024-.024-.023-.022-.022-.021-.021-.026-.026-.025-.024-.023-.023-.022-.022-.021-.021-.02-.02-.025-.024-.024-.024-.025-.025-.02-.02-.021-.021-.022-.022-.023-.024-.024-.025-.026-.027-.021-.021-.022-.023-.023-.024-.024-.025-.026-.027-.027-.028-.029-.03-.021-.021-.021-.022-.022-.023-.023-.024-.024-.025-.025-.026-.026-.026-.027-.027-.028-.029-.029-.03-.03-.031-.031-.032-.033-.033-.034-.034-.035-.035-.036-.037-.038-.038-.039-.04-.04-.02-.02-.021-.021-.021-.021-.021-.022-.022-.022-.022-.022-.022-.023-.023-.023-.023-.023-.024-.024-.024-.024-.024-.024-.025-.025-.025-.025-.026-.026-.026-.026-.026-.027-.027-.027-.027-.027-.028-.028-.028-.028-.028-.029-.029-.029-.029-.029-.03-.03-.03-.03-.03-.031-.031-.031-.032-.032-.032-.032-.032-.033-.033-.033-.033-.034-.034-.034-.034-.034-.035-.035-.035-.035-.036-.036-.036-.036-.037-.037-.037-.037-.038-.038-.038-.038-.039-.039-.039-.039-.037-.04-.04-.04-.041-.041-.041-.041-.042-.042-.042-.043-.043-.043-.043-.044-.044-.044-.044-.045-.045-.045-.046-.046-.046-.046-.047-.047-.047-.047-.048-.048-.048-.049-.049-.049-.05-.05-.05-.05-.051-.051-.051-.052-.052-.052-.053-.053-.053-.053-.054-.054-.054-.055-.055-.055-.055-.056-.056-.056-.057-.057-.057-.058-.058-.058-.059-.059-.059-.06-.06-.06-.061-.061-.061-.062-.062-.062-.063-.063-.063-.063-.064-.064-.065-.065-.065-.066-.066-.066-.067-.067-.067-.068-.068-.068-.069-.069-.069-.07-.07-.07-.071-.071-.072-.072-.072-.072-.073-.073-.074-.074-.074-.075-.075-.075-.076-.076-.077-.077-.077-.078-.078-.078-.079-.079v.5h.079.079.078.078.078.077.077.077.076.076.075.075.075.074.074.074.073.073.072.072.072.072.071.071.07.07.07.069.069.069.068.068.068.067.067.067.066.066.066.065.065.065.064.064.063.063.063.063.062.062.062.061.061.061.06.06.06.059.059.059.058.058.058.057.057.057.056.056.056.055.055.055.055.054.054.054.053.053.053.053.052.052.052.051.051.051.05.05.05.05.049.049.049.048.048.048.047.047.047.047.046.046.046.046.045.045.045.044.044.044.044.043.043.043.043.042.042.042.041.041.041.041.04.04.04.04.039.039.039.039.038.038.038.038.037.037.037.037.036.036.036.036.035.035.035.035.034.034.034.034.034.033.033.033.033.032.032.032.032.032.031.031.031.03.03.03.03.03.029.029.029.029.029.028.028.028.028.028.027.027.027.027.027.026.026.026.026.026.025.025.025.025.024.024.024.024.024.024.023.023.023.023.023.022.022.022.022.022.022.021.021.021.021.021.02.02.02.04.039.038.038.037.037.036.035.035.034.033.033.032.032.031.03.03.029.029.028.028.027.027.026.026.025.025.024.024.023.023.023.022.022.021.021.02.03.029.028.027.026.026.025.024.024.023.022.022.021.021.026.026.025.024.023.023.022.022.021.021.02.02.025.024.024.024.025.025.02.02.021.021.022.022.023.023.024.025.026.027.021.021.022.022.023.024.024.025.026.027.028.028.029.03.021.021.021.022.022l.011-.5zm-12.541.002a5.39 5.39 0 0 1-2.017-.724c-.666-.423-1.154-1.019-1.154-1.838h-.5c0 1.054.64 1.786 1.386 2.26.677.413 1.431.684 2.217.798l.068-.495v-.001zm-3.422-18.952l.212.132.014-.022.046-.07.183-.255a6.73 6.73 0 0 1 .685-.776c.59-.571 1.377-1.1 2.246-1.1v-.5c-1.067 0-1.974.641-2.594 1.241a7.38 7.38 0 0 0-.736.834l-.198.276-.052.079-.014.022c-.005.009-.006.009.207.14l.001-.001zm3.131 2.341v11.707h.5v-11.707h-.5zm0 11.707c0 .505.129 1.15.536 1.675.416.536 1.097.916 2.133.916v-.5c-.9 0-1.428-.322-1.738-.723-.319-.412-.432-.937-.432-1.369h-.5l.001.001zm2.67 2.591h7.259v-.5h-7.259v.5zm7.259 0c.78 0 1.451-.253 1.928-.714s.742-1.116.742-1.877h-.5c0 .643-.22 1.161-.589 1.518s-.909.574-1.58.574v.5l-.001-.001zm2.67-2.591v-11.707h-.5v11.707h.5zm0-11.707c0-1.569-1.398-2.591-2.67-2.591v.5c1.051 0 2.17.851 2.17 2.091h.5zm-2.67-2.591h-7.259v.5h7.259v-.5zm-7.259 0a2.67 2.67 0 0 0-2.67 2.591h.5c0-.998.867-2.091 2.17-2.091v-.5zm3.214 4.176c.964.933 2.434 2.356 3.91 3.308l.271-.42c-1.427-.921-2.862-2.308-3.833-3.247l-.348.359zm3.91 3.308c.167.108.312.305.41.563a1.95 1.95 0 0 1 .116.829c-.023.279-.11.522-.251.689-.135.16-.332.268-.623.268v.5c.435 0 .773-.17 1.006-.446.226-.268.338-.62.367-.97.028-.356-.022-.714-.147-1.048-.123-.323-.323-.623-.607-.806l-.271.42v.001zm-.348 2.35c-.524 0-1.169-.215-1.781-.503a9.69 9.69 0 0 1-1.46-.854l-.294.405c.334.242.904.602 1.54.902.63.297 1.357.551 1.994.551v-.5l.001-.001zm-3.561-1.335c-.22.213-.621.493-1.068.753s-.912.483-1.255.594l.153.476c.391-.126.893-.37 1.353-.637s.9-.57 1.164-.826l-.348-.359.001-.001zm-2.323 1.347c-.565.182-1.145-.172-1.457-.758s-.277-1.245.229-1.612l-.294-.405c-.785.57-.752 1.546-.376 2.251s1.165 1.285 2.052.999l-.153-.476-.001.001zm-1.228-2.37c1.937-1.406 3.087-2.357 3.914-3.317l-.379-.326c-.786.913-1.895 1.835-3.829 3.239l.294.405v-.001zm3.475 1.203c0 .227.016.512.055.826l.496-.061c-.033-.254-.05-.509-.051-.765h-.5zm.055.826c.065.524.195 1.141.428 1.706s.576 1.097 1.083 1.424l.271-.42c-.387-.25-.679-.68-.892-1.194s-.333-1.081-.394-1.577l-.496.061zm1.705 2.677a8.36 8.36 0 0 0-1.45-.206c-.556-.028-1.175.007-1.622.224l.218.45c.327-.158.838-.201 1.379-.174a7.77 7.77 0 0 1 1.357.192l.117-.486h.001zm-2.77.402a9.36 9.36 0 0 0 .913-1.345c.3-.539.566-1.155.647-1.73l-.495-.069c-.068.487-.3 1.039-.588 1.556s-.617.973-.862 1.27l.385.319v-.001zm1.56-3.075c.043-.312.034-.625-.065-.912l-.473.163c.066.19.078.419.042.68l.495.069h.001zm8.644 2.67v.03.03.03.03.03.03.03.03.03.03.03.03.03.03.03.03.029.029.029.029.029.029.029.029.029.029.029.029.029.029.029.029.029.029.029.029.029.029.029.029.029.029.028.029.028.028.028.028.028.028.028.028.028.028.028.028.028.028.028.028.028.028.028.028.028.027.027.027.027.027.027.027.027.027.027.027.027.027.027.027.027.027.027.027.027.027.026.026.026.026.026.026.026.026.026.026.026.026.026.026.026.026.026.026.025.025.025.025.025.025.025.025.025.025.025.025.025.025.024.025.024.024.024.024.024.024.024.024.024.024.024.024.024.024.023.023.023.023.023.023.023.023.023.023.023.023.023.023.023.022.022.022.022.022.022.022.022.022.022.022.022.021.021.021.021.021.021.021.021.021l.5.014v-.021-.021-.021-.021-.021-.021-.021-.021-.021-.021-.021-.022-.022-.022-.022-.022-.022-.022-.022-.022-.022-.022-.023-.023-.023-.023-.023-.023-.023-.023-.023-.023-.023-.023-.023-.023-.023-.024-.024-.024-.024-.024-.024-.024-.024-.024-.024-.024-.024-.024-.024-.024-.025-.025-.025-.025-.025-.025-.025-.025-.025-.025-.025-.025-.025-.025-.025-.026-.026-.026-.026-.026-.026-.026-.026-.026-.026-.026-.026-.026-.026-.026-.026-.026-.026-.026-.027-.027-.027-.027-.027-.027-.027-.027-.027-.027-.027-.027-.027-.027-.027-.027-.027-.027-.027-.027-.028-.028-.028-.028-.028-.028-.028-.028-.028-.028-.028-.028-.028-.028-.028-.028-.028-.028-.028-.029-.028-.029-.029-.029-.029-.029-.029-.029-.029-.029-.029-.029-.029-.029-.029-.029-.029-.029-.029-.029-.029-.029-.029-.029-.029-.029-.029-.03-.029-.03-.03-.03-.03-.03-.03-.03-.03-.03-.03-.03-.03-.03-.03-.03l-.5-.02v-.002zm.236.25c.764.043 1.908-.112 2.871-.728.979-.626 1.749-1.718 1.749-3.49h-.5c0 1.6-.682 2.533-1.518 3.069-.852.546-1.885.689-2.573.65l-.028.499h-.001zm-.235-12.153c.03.297.03.919.022 1.634l-.024 2.087h.5l.024-2.082-.025-1.689-.498.05h.001zm-.001 3.721v.027.027.027.027.028.028.028.028.028.028.028.028.028.028.028.028.028.028.028.029.029.029.029.029.029.029.029.029.029.029.029.029.029.029.029.029.03.03.03.03.03.03.03.03.03.03.03.03.03.03.03.03.03.03.03.031.031.031.031.031.031.031.031.031.031.031.031.031.031.031.031.031.031.031.031.031.032.032.032.032.032.032.032.032.032.032.032.032.032.032.032.032.032.032.032.032.032.032.032.032.032.032.032.033.033.032.033.033.033.033.033.033.033.033.033.033.033.033.033.033.033.033.033.033.033.033.033.033.033.033.033.033.033.033.033.033.033.033.033.033.033.033.033.033.033.033.033.033.033.033.033.034.033.033.034.033.034.034.033.034.034.034.034.033.034.033.034.034.034.034.034.033.034.034.033.034.033.034.034.034.034.034.034.034.034.034.034.034.034.034.034.034.034.033.034.034.034.034.034.033.034.033.033.033.033.033.033.033.033.033.033.033.033.033.033.033.033.033.033.033.033.033.033.033.033.033.033.033.033.033.033.033.033.033.033.033.033.033.033.033.033.033.033.033.033.033.033.033.032.033.032.032.032.032.032.032h.5v-.032-.032-.032-.032-.032-.032-.033-.032-.033-.033-.033-.033-.033-.033-.033-.033-.033-.033-.033-.033-.033-.033-.033-.033-.033-.033-.033-.033-.033-.033-.033-.033-.033-.033-.033-.033-.033-.033-.033-.033-.033-.033-.033-.033-.033-.033-.033-.033-.033-.033-.033-.033-.033-.033-.033-.034-.033-.034-.034-.034-.034-.034-.033-.034-.034-.034-.034-.034-.034-.034-.034-.034-.034-.034-.034-.034-.034-.034-.034-.033-.034-.033-.034-.034-.033-.034-.034-.034-.034-.034-.033-.034-.033-.034-.034-.034-.034-.033-.034-.034-.033-.034-.033-.033-.034-.033-.033-.033-.033-.033-.033-.033-.033-.033-.033-.033-.033-.033-.033-.033-.033-.033-.033-.033-.033-.033-.033-.033-.033-.033-.033-.033-.033-.033-.033-.033-.033-.033-.033-.033-.033-.033-.033-.033-.033-.033-.033-.033-.033-.033-.032-.033-.033-.032-.032-.032-.032-.032-.032-.032-.032-.032-.032-.032-.032-.032-.032-.032-.032-.032-.032-.032-.032-.032-.032-.032-.032-.032-.032-.032-.031-.031-.031-.031-.031-.031-.031-.031-.031-.031-.031-.031-.031-.031-.031-.031-.031-.031-.031-.031-.031-.03-.03-.03-.03-.03-.03-.03-.03-.03-.03-.03-.03-.03-.03-.03-.03-.03-.03-.03-.029-.029-.029-.029-.03-.029-.029-.029-.029-.029-.029-.029-.029-.029-.029-.029-.029-.028-.028-.028-.028-.028-.028-.028-.028-.028-.028-.028-.028-.028-.028-.028-.027-.027-.027-.027h-.5v.001zm4.855 4.215c0-1.771-.768-2.9-1.74-3.577-.959-.668-2.101-.888-2.865-.888v.5c.688 0 1.723.202 2.579.798.843.587 1.526 1.566 1.526 3.167h.5zm-19.602 11.487h12.576v-.5h-12.576v.5zm15.245-3.06v-4.461h-.5v4.461h.5zm0-4.461v-8.182h-.5v8.183h.5v-.001zm0-8.183v-3.745h-.5v3.746h.5v-.001zm-18.882-3.745v8.195h.5v-8.195h-.5zm.131-.22c-1.505.816-4.452 3.623-4.452 8.415h.5c0-4.574 2.814-7.23 4.19-7.975l-.238-.44zm-.131 8.415v8.106h.5v-8.106h-.5zm0 8.106v.089h.5v-.089h-.5zm.5.089v-.02-.02-.02-.02l-.5-.009v.02.02.02.02l.5.009zm0-.089v-.026-.027-.029-.03-.031-.032-.033-.034-.035-.036-.037-.038-.039-.04-.02-.02-.021-.021-.021-.021-.022-.022-.022-.022-.022-.023-.023-.023-.023-.024-.024-.024-.024-.024-.025-.025-.025-.025-.026-.026-.026-.026-.026-.027-.027-.027-.027-.027-.028-.028-.028-.028-.028-.029-.029-.029-.029-.029-.03-.03-.03-.03-.03-.03-.031-.031-.031-.031-.031-.032-.032-.032-.032-.032-.032-.033-.033-.033-.033-.033-.034-.034-.034-.034-.034-.034-.034-.035-.035-.035-.035-.035-.035-.035-.036-.036-.036-.036-.036-.036-.037-.037-.037-.037-.037-.037-.037-.037-.038-.038-.038-.038-.038-.038-.038-.038-.039-.039-.039-.039-.039-.039-.039-.039-.04-.04-.04-.04-.04-.04-.04-.04-.04-.04-.041-.041-.041-.041-.041-.041-.041-.041-.041-.041-.041-.042-.042-.042-.042-.042-.042-.042-.042-.042-.042-.042-.042-.042-.043-.043-.043-.043-.043-.043-.043-.043-.043-.043-.043-.043-.043-.043-.043-.043-.044-.044-.044-.044-.044-.044-.044-.044-.044-.044-.044-.044-.044-.044-.044-.044-.044-.044-.044-.044-.044-.045-.044-.044-.045-.044-.045-.045-.045-.045-.045-.045-.045-.045-.045-.045-.045-.045-.045-.045-.045-.045-.045-.045-.045-.045-.045-.045-.045-.045-.045-.045-.045-.045-.045-.045-.045-.045-.045-.045-.045-.045-.045-.045-.045-.045-.045-.044-.045-.044-.045-.044-.044-.044-.044-.044-.044-.044-.044-.044-.044-.044-.044-.044-.044-.044-.044-.044-.044-.044-.044-.044-.044-.043-.043-.043-.043-.043-.043-.043-.043-.043-.043-.043-.043-.043-.043-.043-.043-.042-.043-.042-.042-.042-.042-.042-.042-.042-.042-.042-.042-.042-.041-.041-.041-.041-.041-.041-.041-.041-.041-.041-.04-.04-.04-.04-.04-.04-.04-.04-.04-.04-.039-.039-.039-.039-.039-.039-.039-.039-.038-.038-.038-.038-.038-.038-.038-.038-.037-.037-.037-.037-.037-.037-.037-.037-.036-.036-.036-.036-.036-.036-.036-.035-.035-.035-.035-.035-.035-.034-.034-.034-.034-.034-.034-.034-.033-.033-.033-.033-.033-.033-.032-.032-.032-.032-.032-.032-.031-.031-.031-.031-.031-.03-.03-.03-.03-.03-.03-.029-.029-.021-.029-.029-.028-.028-.028-.028-.028-.027-.027-.027-.027-.027-.026-.026-.026-.026-.026-.025-.025-.025-.025-.024-.024-.024-.024-.024-.023-.023-.023-.023-.022-.022-.022-.022-.022-.021-.021-.021-.021-.02-.02-.039-.039-.038-.037-.036-.035-.034-.032-.031-.03-.029-.028-.027-.026-.025-.024-.023-.022-.021-.029-.026-.024-.021-.024-.023-.02c0-.003 0-.003-.25-.003h-.25v.023.023.024.021.024.026.029.021.022.023.024.025.026.027.028.029.03.031.032.034.035.036.037.038.039.039.02.02.021.021.021.021.022.022.022.022.022.023.023.023.023.024.024.024.024.024.025.025.025.025.026.026.026.026.026.027.027.027.027.027.028.028.028.028.028.029.029.029.029.029.03.03.03.03.03.03.031.031.031.031.031.032.032.032.032.032.032.033.033.033.033.033.033.034.034.034.034.034.034.034.035.035.035.035.035.035.036.036.036.036.036.036.036.037.037.037.037.037.037.037.037.038.038.038.038.038.038.038.038.039.039.039.039.039.039.039.039.04.04.04.04.04.04.04.04.04.04.041.041.041.041.041.041.041.041.041.041.042.042.042.042.042.042.042.042.042.042.042.043.042.043.043.043.043.043.043.043.043.043.043.043.043.043.043.043.043.044.044.044.044.044.044.044.044.044.044.044.044.044.044.044.044.044.044.044.044.044.044.045.044.045.044.045.045.045.045.045.045.045.045.045.045.045.045.045.045.045.045.045.045.045.045.045.045.045.045.045.045.045.045.045.045.045.045.045.045.045.045.045.045.045.045.045.044.045.044.044.045.044.044.044.044.044.044.044.044.044.044.044.044.044.044.044.044.044.044.044.044.044.043.043.043.043.043.043.043.043.043.043.043.043.043.043.043.043.042.042.042.042.042.042.042.042.042.042.042.042.042.041.041.041.041.041.041.041.041.041.041.041.04.04.04.04.04.04.04.04.04.04.039.039.039.039.039.039.039.039.038.038.038.038.038.038.038.038.037.037.037.037.037.037.037.037.036.036.036.036.036.036.035.035.035.035.035.035.035.034.034.034.034.034.034.034.033.033.033.033.033.032.032.032.032.032.032.031.031.031.031.031.03.03.03.03.03.03.029.029.029.029.029.028.028.028.028.028.027.027.027.027.027.026.026.026.026.026.025.025.025.025.024.024.024.024.024.023.023.023.023.022.022.022.022.022.021.021.021.021.02.02.04.039.038.037.036.035.034.033.032.031.03.029.027.026h.5v-.008zm-4.821-8.106c0 4.792 2.948 7.542 4.455 8.327l.231-.443c-1.373-.716-4.186-3.311-4.186-7.884h-.5zm23.102 8.396c1.486-1.095 4.457-4.346 4.457-8.63h-.5c0 4.064-2.836 7.183-4.254 8.228l.297.402zm4.457-8.619c.035-.804-.15-2.344-.804-3.932s-1.794-3.253-3.683-4.261l-.235.441c1.756.937 2.829 2.49 3.456 4.01s.799 2.992.767 3.719l.5.022-.001.001zm2.175-8.406c0-.596.181-1.494.715-2.237.526-.73 1.404-1.326 2.848-1.326v-.5c-1.607 0-2.635.675-3.253 1.534-.518.742-.8 1.624-.81 2.529h.5zm3.563-3.563c1.444 0 2.322.596 2.848 1.326a4.01 4.01 0 0 1 .715 2.237h.5c-.01-.905-.293-1.787-.81-2.529-.618-.86-1.646-1.535-3.253-1.535v.5.001zm3.563 3.563c0 .596-.181 1.494-.715 2.237-.526.73-1.404 1.326-2.848 1.326v.5c1.607 0 2.635-.675 3.253-1.534.517-.743.8-1.624.81-2.529h-.5zm-3.563 3.563c-1.444 0-2.322-.596-2.848-1.326a4.01 4.01 0 0 1-.715-2.237h-.5a4.51 4.51 0 0 0 .81 2.529c.618.859 1.647 1.534 3.253 1.534v-.5z" fill="#6038d7"/><path d="M273.953 187.757c1.271-.212 5.72 4.449 5.72-.636v-3.812" stroke="#ffa031" stroke-width="1.5" stroke-linecap="round"/></svg>