<svg xmlns="http://www.w3.org/2000/svg" width="18" height="18" viewBox="0 0 18 18" fill="none">
<path fill-rule="evenodd" clip-rule="evenodd" d="M9 1.6875C4.96055 1.6875 1.6875 4.96055 1.6875 9C1.6875 13.0395 4.96055 16.3125 9 16.3125C13.0395 16.3125 16.3125 13.0395 16.3125 9C16.3125 4.96055 13.0395 1.6875 9 1.6875ZM11.7563 11.1832C11.2219 11.7598 10.3078 12.375 9 12.375C7.69219 12.375 6.77813 11.7598 6.24375 11.1832C5.93086 10.8422 5.39648 10.8176 5.05195 11.134C4.6793 11.4504 4.68984 11.9848 5.00625 12.3258C5.77617 13.166 7.11211 14.0625 9 14.0625C10.8879 14.0625 12.2238 13.166 12.9938 12.3258C13.3102 11.9848 13.2891 11.4504 12.948 11.134C12.6035 10.8176 12.0691 10.8422 11.7563 11.1832ZM6.20156 8.4375C6.82031 8.4375 7.32656 7.93477 7.32656 7.3125C7.32656 6.69023 6.82031 6.1875 6.20156 6.1875C5.5793 6.1875 5.07656 6.69023 5.07656 7.3125C5.07656 7.93477 5.5793 8.4375 6.20156 8.4375ZM11.8266 6.1875C11.2043 6.1875 10.7016 6.69023 10.7016 7.3125C10.7016 7.93477 11.2043 8.4375 11.8266 8.4375C12.4453 8.4375 12.9516 7.93477 12.9516 7.3125C12.9516 6.69023 12.4453 6.1875 11.8266 6.1875Z" fill="#808A97"/>
<path fill-rule="evenodd" clip-rule="evenodd" d="M9 18C13.9711 18 18 13.9711 18 9C18 4.02891 13.9711 0 9 0C4.02891 0 0 4.02891 0 9C0 13.9711 4.02891 18 9 18ZM1.6875 9C1.6875 4.96055 4.96055 1.6875 9 1.6875C13.0395 1.6875 16.3125 4.96055 16.3125 9C16.3125 13.0395 13.0395 16.3125 9 16.3125C4.96055 16.3125 1.6875 13.0395 1.6875 9Z" fill="#808A97"/>
</svg>