<svg width="22" height="22" viewBox="0 0 22 22" fill="none" xmlns="http://www.w3.org/2000/svg">
<path d="M11.6475 1.25057V20.7497C11.6475 21.1088 11.3563 21.3968 11.0004 21.3968C10.6413 21.3968 10.3533 21.1088 10.3533 20.7497V1.25057C10.3533 0.894661 10.6413 0.603516 11.0004 0.603516C11.3563 0.603516 11.6475 0.894661 11.6475 1.25057Z" fill="#5CBEFF"/>
<path d="M10.9999 3.91322C10.8284 3.91322 10.6638 3.84505 10.5424 3.72365L8.85259 2.03373C8.59984 1.78105 8.59984 1.37135 8.85259 1.11867C9.10503 0.866069 9.51513 0.86599 9.76757 1.11875L10.9999 2.3511L12.2324 1.11867C12.4849 0.866069 12.895 0.86599 13.1474 1.11875C13.4002 1.37143 13.4002 1.78113 13.1474 2.03381L11.4574 3.72373C11.3361 3.84505 11.1715 3.91322 10.9999 3.91322Z" fill="#5CBEFF"/>
<path d="M10.9999 6.63528C10.8284 6.63528 10.6638 6.56711 10.5424 6.44571L8.09985 4.00297C7.84709 3.75029 7.84709 3.34059 8.09985 3.08791C8.3526 2.83531 8.76239 2.83523 9.01483 3.08799L10.9999 5.07316L12.9852 3.08791C13.2376 2.83531 13.6477 2.83531 13.9002 3.08791C14.1529 3.34066 14.1529 3.75029 13.9002 4.00305L11.4574 6.44579C11.3361 6.56711 11.1715 6.63528 10.9999 6.63528Z" fill="#5CBEFF"/>
<path d="M12.6899 21.0718C12.5244 21.0718 12.3588 21.0086 12.2324 20.8823L10.9999 19.6499L9.76757 20.8822C9.51513 21.135 9.10535 21.1349 8.85259 20.8823C8.59984 20.6296 8.59984 20.2199 8.85259 19.9672L10.5424 18.2773C10.7851 18.0345 11.2148 18.0346 11.4574 18.2772L13.1474 19.9671C13.4002 20.2198 13.4002 20.6295 13.1474 20.8822C13.0212 21.0086 12.8555 21.0718 12.6899 21.0718Z" fill="#5CBEFF"/>
<path d="M13.4427 19.1023C13.2771 19.1023 13.1116 19.0391 12.9852 18.9128L10.9999 16.9277L9.01483 18.9128C8.76239 19.1654 8.3526 19.1654 8.09985 18.9128C7.84709 18.6602 7.84709 18.2505 8.09985 17.9977L10.5424 15.555C10.7851 15.3124 11.2148 15.3124 11.4574 15.555L13.9002 17.9977C14.1529 18.2504 14.1529 18.6601 13.9002 18.9128C13.7739 19.0391 13.6082 19.1023 13.4427 19.1023Z" fill="#5CBEFF"/>
<path d="M19.7875 6.6502L14.3522 9.78849L12.2622 10.9953L11.6474 11.3512L10.9681 11.7426L10.3533 12.0952L8.27628 13.2955L2.9025 16.3981C2.79895 16.4564 2.68892 16.4856 2.57897 16.4856C2.35568 16.4856 2.13894 16.369 2.0192 16.1621C1.83808 15.8514 1.94479 15.4567 2.25544 15.2787L7.61951 12.1826L9.67395 10.9953L10.3533 10.6038L10.9681 10.2479L11.6474 9.85642L13.7116 8.66262L19.1404 5.52764C19.451 5.3496 19.8457 5.45639 20.0237 5.76381C20.2048 6.07438 20.0981 6.469 19.7875 6.6502Z" fill="#5CBEFF"/>
<path d="M3.70533 17.786C3.64988 17.786 3.59348 17.7789 3.5374 17.7638C3.19223 17.6714 2.98734 17.3165 3.07991 16.9714L3.53093 15.2879L1.84741 14.8368C1.50223 14.7443 1.29734 14.3895 1.38991 14.0443C1.48233 13.699 1.83714 13.4941 2.18231 13.5867L4.49077 14.2053C4.83594 14.2978 5.04084 14.6526 4.94826 14.9977L4.3298 17.3063C4.25239 17.5954 3.99095 17.786 3.70533 17.786Z" fill="#5CBEFF"/>
<path d="M5.78711 17.4535C5.73166 17.4535 5.67526 17.4463 5.61918 17.4313C5.27401 17.3388 5.06912 16.984 5.16169 16.6388L5.88821 13.927L3.1766 13.2005C2.83143 13.108 2.62654 12.7531 2.71911 12.408C2.81152 12.0627 3.16633 11.858 3.5115 11.9504L6.84822 12.8445C7.01393 12.8888 7.15532 12.9973 7.24109 13.1459C7.32687 13.2946 7.35025 13.4712 7.30571 13.6369L6.41158 16.9737C6.33417 17.2628 6.07272 17.4535 5.78711 17.4535Z" fill="#5CBEFF"/>
<path d="M20.0286 8.36206C19.9731 8.36206 19.9167 8.35487 19.8606 8.33986L17.5522 7.72132C17.3865 7.67693 17.2451 7.56848 17.1593 7.41982C17.0735 7.27117 17.0501 7.09456 17.0947 6.92884L17.7133 4.62038C17.8057 4.27513 18.1605 4.0704 18.5057 4.16281C18.8509 4.2553 19.0558 4.61011 18.9632 4.95528L18.5122 6.63873L20.1955 7.08982C20.5407 7.18231 20.7456 7.53712 20.653 7.88229C20.5756 8.17138 20.3142 8.36206 20.0286 8.36206Z" fill="#5CBEFF"/>
<path d="M18.6994 9.99887C18.6439 9.99887 18.5875 9.99168 18.5314 9.97668L15.1947 9.08255C14.8496 8.99005 14.6447 8.63524 14.7372 8.29007L15.6314 4.95336C15.7238 4.60811 16.0787 4.40345 16.4238 4.49579C16.7689 4.58828 16.9738 4.94309 16.8812 5.28826L16.1547 8.00003L18.8663 8.72663C19.2115 8.81913 19.4164 9.17393 19.3238 9.51911C19.2464 9.8082 18.985 9.99887 18.6994 9.99887Z" fill="#5CBEFF"/>
<path d="M19.9816 16.1976C19.8619 16.4079 19.6451 16.5211 19.4219 16.5211C19.3118 16.5211 19.1986 16.4952 19.0983 16.4369L13.676 13.3053L11.6474 12.134L10.9681 11.7426L10.3533 11.3867L9.67395 10.9952L7.60008 9.79809L2.2101 6.68586C1.90277 6.50783 1.79598 6.11305 1.97393 5.80247C2.15189 5.4919 2.54983 5.38511 2.85716 5.56646L8.24074 8.67222L10.3533 9.89193L10.9681 10.2478L11.6474 10.6393L12.2622 10.9952L14.336 12.1922L19.7454 15.3144C20.056 15.4922 20.1595 15.8902 19.9816 16.1976Z" fill="#5CBEFF"/>
<path d="M18.2946 17.8231C18.009 17.8231 17.7476 17.6324 17.6702 17.3433L17.0517 15.0348C16.9591 14.6896 17.164 14.3348 17.5092 14.2423L19.8176 13.6238C20.1623 13.5313 20.5176 13.7361 20.61 14.0813C20.7026 14.4265 20.4977 14.7813 20.1525 14.8738L18.469 15.3249L18.92 17.0084C19.0126 17.3536 18.8077 17.7084 18.4625 17.8009C18.4065 17.8159 18.3501 17.8231 18.2946 17.8231Z" fill="#5CBEFF"/>
<path d="M16.2129 17.4906C15.9272 17.4906 15.6658 17.2999 15.5884 17.0108L14.6943 13.674C14.6497 13.5083 14.6731 13.3317 14.7589 13.183C14.8447 13.0344 14.986 12.9259 15.1518 12.8815L18.4885 11.9875C18.8332 11.8952 19.1884 12.0998 19.2809 12.4451C19.3734 12.7902 19.1685 13.145 18.8234 13.2375L16.1118 13.9641L16.8383 16.6759C16.9308 17.0211 16.726 17.3759 16.3808 17.4684C16.3247 17.4834 16.2683 17.4906 16.2129 17.4906Z" fill="#5CBEFF"/>
<path d="M1.97141 8.39912C1.6858 8.39912 1.42435 8.20844 1.34695 7.91935C1.25437 7.57418 1.45926 7.21937 1.80444 7.12688L3.4878 6.67579L3.03679 4.99234C2.94421 4.64717 3.14911 4.29236 3.49428 4.19987C3.83898 4.10761 4.19426 4.31211 4.28667 4.65744L4.9053 6.9659C4.94984 7.13162 4.92646 7.30823 4.84068 7.45689C4.7549 7.60554 4.61352 7.71399 4.4478 7.75838L2.13934 8.37692C2.08326 8.39193 2.02686 8.39912 1.97141 8.39912Z" fill="#5CBEFF"/>
<path d="M3.30045 10.036C3.01484 10.036 2.75339 9.84528 2.67599 9.55619C2.58341 9.21102 2.78831 8.85621 3.13348 8.76371L5.84525 8.03704L5.11873 5.32535C5.02616 4.98017 5.23105 4.62537 5.57622 4.53287C5.92076 4.44062 6.2762 4.64519 6.36861 4.99044L7.26274 8.32716C7.30729 8.49287 7.28391 8.66948 7.19813 8.81814C7.11235 8.96679 6.97097 9.07524 6.80525 9.11963L3.46838 10.0138C3.4123 10.0288 3.3559 10.036 3.30045 10.036Z" fill="#5CBEFF"/>
<path d="M12.2622 10.9953L14.336 12.1922C14.184 12.6033 13.9607 12.9785 13.676 13.3053L11.6475 12.1341V14.4764C11.4307 14.5152 11.2075 14.5378 10.9778 14.5378C10.7642 14.5378 10.5572 14.5186 10.3533 14.4829V12.0952L8.2763 13.2955C7.99163 12.9688 7.76834 12.5935 7.61953 12.1826L9.67397 10.9953L7.6001 9.79815C7.74567 9.38079 7.96249 9.00228 8.24076 8.67228L10.3533 9.89199V7.44941C10.5572 7.41054 10.7642 7.39111 10.9778 7.39111C11.2075 7.39111 11.4307 7.41386 11.6475 7.45588V9.85645L13.7116 8.66264C13.9898 8.99265 14.2098 9.37115 14.3522 9.78852L12.2622 10.9953Z" fill="#079CFF"/>
<path d="M10.9787 13.8898C12.5948 13.8898 13.905 12.5796 13.905 10.9634C13.905 9.34727 12.5948 8.03711 10.9787 8.03711C9.3625 8.03711 8.05234 9.34727 8.05234 10.9634C8.05234 12.5796 9.3625 13.8898 10.9787 13.8898Z" fill="#5CBEFF"/>
<path d="M13.9251 10.9631C13.9251 12.5807 12.6148 13.891 11.0004 13.891C10.3339 13.891 9.72245 13.6711 9.23068 13.2926L12.6569 8.55273C13.4204 9.08021 13.9251 9.96344 13.9251 10.9631Z" fill="#079CFF"/>
<path opacity="0.3" d="M9.49162 10.1628C9.6651 9.79126 9.65559 9.41995 9.47037 9.33347C9.28515 9.247 8.99437 9.47811 8.82089 9.84968C8.64741 10.2212 8.65692 10.5926 8.84214 10.679C9.02736 10.7655 9.31814 10.5344 9.49162 10.1628Z" fill="white"/>
</svg>
