<svg id="solana" enable-background="new 0 0 360 360" height="512" viewBox="0 0 360 360" width="512" xmlns="http://www.w3.org/2000/svg"><circle cx="180" cy="180" fill="#262964" r="168"/><circle cx="180" cy="180" fill="#555abe" r="144"/><g fill="#fff"><path d="m115.194 219.608c1.159-1.159 2.752-1.834 4.441-1.834h153.218c2.8 0 4.2 3.379 2.221 5.358l-30.267 30.267c-1.159 1.159-2.752 1.834-4.441 1.834h-153.219c-2.8 0-4.2-3.379-2.221-5.358z"/><path d="m115.194 106.601c1.207-1.159 2.8-1.834 4.441-1.834h153.218c2.8 0 4.2 3.379 2.221 5.358l-30.267 30.267c-1.159 1.159-2.752 1.834-4.441 1.834h-153.219c-2.8 0-4.2-3.379-2.221-5.358z"/><path d="m244.806 162.743c-1.159-1.159-2.752-1.834-4.441-1.834h-153.218c-2.8 0-4.2 3.379-2.221 5.358l30.267 30.267c1.159 1.159 2.752 1.834 4.441 1.834h153.218c2.8 0 4.2-3.379 2.221-5.358z"/></g></svg>