<svg width="256" height="256" viewBox="0 0 256 256" fill="none" xmlns="http://www.w3.org/2000/svg">
<g clip-path="url(#clip0_457_2050)">
<path d="M27.5519 70.4431C42.7645 70.4431 55.1018 58.0535 55.1018 42.8932C55.1018 27.7329 42.7645 15.291 27.5519 15.291C12.3393 15.291 0.00195312 27.6806 0.00195312 42.8409C0.00195312 58.0012 12.3916 70.4431 27.5519 70.4431ZM27.5519 28.0989C35.7071 28.0989 42.294 34.738 42.294 42.8409C42.294 50.9439 35.6548 57.583 27.5519 57.583C19.449 57.583 12.8098 50.9439 12.8098 42.8409C12.8098 34.738 19.449 28.0989 27.5519 28.0989Z" fill="#00DA6C"/>
<path d="M27.5519 70.4431C42.7645 70.4431 55.1018 58.0535 55.1018 42.8932C55.1018 27.7329 42.7645 15.291 27.5519 15.291C12.3393 15.291 0.00195312 27.6806 0.00195312 42.8409C0.00195312 58.0012 12.3916 70.4431 27.5519 70.4431ZM27.5519 28.0989C35.7071 28.0989 42.294 34.738 42.294 42.8409C42.294 50.9439 35.6548 57.583 27.5519 57.583C19.449 57.583 12.8098 50.9439 12.8098 42.8409C12.8098 34.738 19.449 28.0989 27.5519 28.0989Z" fill="#FFA800"/>
<path d="M27.5519 155.55C42.7645 155.55 55.1018 143.16 55.1018 128C55.1018 112.84 42.7645 100.45 27.5519 100.45C12.3393 100.45 0.00195312 112.788 0.00195312 128C0.00195312 143.213 12.3916 155.55 27.5519 155.55ZM27.5519 113.258C35.7071 113.258 42.294 119.897 42.294 128C42.294 136.103 35.6548 142.742 27.5519 142.742C19.449 142.742 12.8098 136.155 12.8098 128C12.8098 119.845 19.449 113.258 27.5519 113.258Z" fill="#00DA6C"/>
<path d="M27.5519 155.55C42.7645 155.55 55.1018 143.16 55.1018 128C55.1018 112.84 42.7645 100.45 27.5519 100.45C12.3393 100.45 0.00195312 112.788 0.00195312 128C0.00195312 143.213 12.3916 155.55 27.5519 155.55ZM27.5519 113.258C35.7071 113.258 42.294 119.897 42.294 128C42.294 136.103 35.6548 142.742 27.5519 142.742C19.449 142.742 12.8098 136.155 12.8098 128C12.8098 119.845 19.449 113.258 27.5519 113.258Z" fill="#FFA800"/>
<path d="M27.5519 240.709C42.7645 240.709 55.1018 228.32 55.1018 213.159C55.1018 197.947 42.7122 185.609 27.5519 185.609C12.3916 185.609 0.00195312 197.999 0.00195312 213.159C0.00195312 228.32 12.3916 240.709 27.5519 240.709ZM27.5519 198.365C35.7071 198.365 42.294 205.004 42.294 213.107C42.294 221.262 35.6548 227.849 27.5519 227.849C19.449 227.849 12.8098 221.21 12.8098 213.107C12.8098 205.004 19.449 198.365 27.5519 198.365Z" fill="#00DA6C"/>
<path d="M27.5519 240.709C42.7645 240.709 55.1018 228.32 55.1018 213.159C55.1018 197.947 42.7122 185.609 27.5519 185.609C12.3916 185.609 0.00195312 197.999 0.00195312 213.159C0.00195312 228.32 12.3916 240.709 27.5519 240.709ZM27.5519 198.365C35.7071 198.365 42.294 205.004 42.294 213.107C42.294 221.262 35.6548 227.849 27.5519 227.849C19.449 227.849 12.8098 221.21 12.8098 213.107C12.8098 205.004 19.449 198.365 27.5519 198.365Z" fill="#FFA800"/>
<path d="M91.9574 49.2713H249.572C253.127 49.2713 256.002 46.396 256.002 42.8412C256.002 39.2864 253.127 36.4111 249.572 36.4111H91.9574C88.4026 36.4111 85.5273 39.2864 85.5273 42.8412C85.5273 46.396 88.4026 49.2713 91.9574 49.2713Z" fill="#FFE100"/>
<path d="M91.9574 134.43H249.572C253.127 134.43 256.002 131.555 256.002 128C256.002 124.446 253.127 121.57 249.572 121.57H91.9574C88.4026 121.57 85.5273 124.446 85.5273 128C85.5273 131.555 88.4026 134.43 91.9574 134.43Z" fill="#FFE100"/>
<path d="M91.9574 219.537H249.572C253.127 219.537 256.002 216.662 256.002 213.107C256.002 209.552 253.127 206.677 249.572 206.677H91.9574C88.4026 206.677 85.5273 209.552 85.5273 213.107C85.5273 216.662 88.4026 219.537 91.9574 219.537Z" fill="#FFE100"/>
</g>
<defs>
<clipPath id="clip0_457_2050">
<rect width="256" height="256" fill="white"/>
</clipPath>
</defs>
</svg>
