<svg width="256" height="256" viewBox="0 0 256 256" fill="none" xmlns="http://www.w3.org/2000/svg">
<g clip-path="url(#clip0_457_2059)">
<path d="M175.504 78.0827C195.558 78.0827 211.872 61.7683 211.872 41.7142C211.872 21.6601 195.558 5.3457 175.504 5.3457C155.451 5.3457 139.137 21.6601 139.137 41.7142C139.137 61.7683 155.451 78.0827 175.504 78.0827ZM175.504 24.038C185.251 24.038 193.18 31.9675 193.18 41.7142C193.18 51.4609 185.251 59.3904 175.504 59.3904C165.757 59.3904 157.829 51.4609 157.829 41.7142C157.829 31.9675 165.757 24.038 175.504 24.038Z" fill="#FFE100"/>
<path d="M253.307 94.5534C249.684 90.8777 243.766 90.8323 240.091 94.4572C239.874 94.6735 214.967 114.515 140.836 82.832C108.773 69.1292 82.9927 67.8368 64.2083 78.988C41.2782 92.6 38.4677 119.357 38.3596 120.489C37.8695 125.607 41.6093 130.134 46.7243 130.652C47.0421 130.684 47.3585 130.7 47.671 130.7C52.3934 130.7 56.4497 127.115 56.961 122.321C56.9811 122.135 59.1173 103.639 73.8936 94.9766C87.0743 87.2487 107.684 88.9924 133.487 100.021C168.51 114.988 194.276 119.614 212.757 119.613C239.92 119.612 251.338 109.615 253.21 107.77C256.887 104.147 256.93 98.2291 253.307 94.5534Z" fill="#63D3FD"/>
<path d="M134.535 123.179C130.974 119.457 125.075 119.317 121.342 122.865C76.6421 165.353 8.51813 229.881 3.62744 233.915C-0.407425 237.033 -1.20185 242.824 1.86903 246.917C3.70487 249.364 6.51139 250.655 9.35261 250.655C11.3033 250.655 13.2726 250.045 14.9536 248.785C19.2101 245.591 95.0794 173.602 127.466 142.831L172.509 189.923C174.507 192.011 173.843 194.295 173.464 195.181C173.086 196.066 171.895 198.125 169.006 198.125H107.35C102.188 198.125 98.0034 202.309 98.0034 207.471C98.0034 212.632 102.188 216.817 107.35 216.817H169.005C178.591 216.817 186.886 211.34 190.652 202.525C194.418 193.709 192.642 183.93 186.016 177.004L134.535 123.179Z" fill="#FFA800"/>
</g>
<defs>
<clipPath id="clip0_457_2059">
<rect width="256" height="256" fill="white"/>
</clipPath>
</defs>
</svg>
