<svg width="256" height="256" viewBox="0 0 256 256" fill="none" xmlns="http://www.w3.org/2000/svg">
<path d="M143.393 202.444C146.137 202.444 148.697 203.844 150.177 206.148C153.537 211.372 156.081 215.004 157.825 217.028C159.569 219.052 161.225 220.796 162.713 222.3L164.801 224.38C167.713 227.252 169.593 229.084 169.593 230.556C169.593 236.548 159.521 239.7 139.369 240.004C137.841 240.004 136.641 238.804 136.641 237.316V205.132C136.641 203.644 137.841 202.444 139.329 202.444H143.393ZM116.673 202.444C118.161 202.444 119.361 203.644 119.361 205.132V237.316C119.361 238.804 118.161 240.004 116.673 240.004H116.633C96.4808 239.7 86.4088 236.556 86.4088 230.556C86.4088 229.084 88.2808 227.26 91.2008 224.38L93.2888 222.3C94.7688 220.796 96.4248 219.06 98.1768 217.028C99.9288 214.996 102.473 211.372 105.825 206.148C107.305 203.836 109.865 202.444 112.609 202.444H116.673V202.444ZM229.457 183.412C226.577 192.244 208.017 220.052 189.305 218.724C170.593 217.396 162.713 202.492 166.649 197.732C170.585 192.972 191.161 196.46 209.017 185.108C226.873 173.756 232.345 174.572 229.465 183.404L229.457 183.412ZM26.5448 183.412C23.6648 174.58 29.1368 173.772 46.9928 185.116C64.8488 196.46 85.4248 192.972 89.3608 197.74C93.2968 202.5 85.4248 217.412 66.7048 218.732C47.9848 220.052 29.4328 192.252 26.5528 183.42L26.5448 183.412ZM141.809 16.0039L142.777 16.0599L146.409 16.6279C186.977 23.3239 208.841 38.6279 212.009 62.5479C217.129 101.212 177.737 127.524 164.169 143.996C150.601 160.468 148.505 188.908 147.833 189.556C147.161 190.204 137.465 190.596 136.641 189.556C136.401 189.252 136.265 177.924 136.233 155.572V134.556C136.257 107.1 136.385 69.3639 136.609 21.3559C136.609 21.0999 136.633 20.8439 136.665 20.5879C137.105 17.6519 139.833 15.6199 142.769 16.0599L141.809 16.0039ZM119.329 20.5959C119.369 20.8519 119.385 21.1079 119.385 21.3639C119.609 69.3799 119.737 107.108 119.761 134.564V155.58C119.729 177.932 119.593 189.26 119.353 189.564C118.529 190.604 108.841 190.212 108.161 189.564C107.481 188.916 105.393 160.476 91.8248 144.004C78.2568 127.532 38.8568 101.22 43.9848 62.5559C47.1528 38.6359 69.0248 23.3239 109.585 16.6359L113.217 16.0679C116.153 15.6279 118.889 17.6599 119.321 20.5959H119.329ZM235.129 83.4759C235.129 83.9959 250.569 140.516 226.481 155.796C213.193 164.228 200.113 165.932 187.929 172.852C181.761 176.364 174.553 182.412 171.481 183.996C168.409 185.58 163.073 185.836 162.953 183.996C162.825 182.156 162.825 167.428 174.561 151.948C186.297 136.468 196.417 136.26 212.473 114.94C228.537 93.6199 227.417 83.9959 227.417 83.4759C227.417 82.9559 235.129 82.9559 235.129 83.4759V83.4759ZM20.8728 83.4759C20.8728 82.9559 28.5848 82.9559 28.5848 83.4759C28.5848 83.9959 27.4728 93.6279 43.5288 114.94C59.5928 136.26 69.7128 136.468 81.4408 151.948C93.1688 167.428 93.1688 182.156 93.0488 183.996C92.9208 185.836 87.5928 185.58 84.5208 183.996C81.4488 182.412 74.2408 176.356 68.0728 172.852C55.8968 165.932 42.8168 164.228 29.5208 155.796C5.43284 140.524 20.8728 84.0039 20.8728 83.4759V83.4759Z" fill="white"/>
<path d="M143.393 202.444C146.137 202.444 148.697 203.844 150.177 206.148C153.537 211.372 156.081 215.004 157.825 217.028C159.569 219.052 161.225 220.796 162.713 222.3L164.801 224.38C167.713 227.252 169.593 229.084 169.593 230.556C169.593 236.548 159.521 239.7 139.369 240.004C137.841 240.004 136.641 238.804 136.641 237.316V205.132C136.641 203.644 137.841 202.444 139.329 202.444H143.393ZM116.673 202.444C118.161 202.444 119.361 203.644 119.361 205.132V237.316C119.361 238.804 118.161 240.004 116.673 240.004H116.633C96.4808 239.7 86.4088 236.556 86.4088 230.556C86.4088 229.084 88.2808 227.26 91.2008 224.38L93.2888 222.3C94.7688 220.796 96.4248 219.06 98.1768 217.028C99.9288 214.996 102.473 211.372 105.825 206.148C107.305 203.836 109.865 202.444 112.609 202.444H116.673V202.444ZM229.457 183.412C226.577 192.244 208.017 220.052 189.305 218.724C170.593 217.396 162.713 202.492 166.649 197.732C170.585 192.972 191.161 196.46 209.017 185.108C226.873 173.756 232.345 174.572 229.465 183.404L229.457 183.412ZM26.5448 183.412C23.6648 174.58 29.1368 173.772 46.9928 185.116C64.8488 196.46 85.4248 192.972 89.3608 197.74C93.2968 202.5 85.4248 217.412 66.7048 218.732C47.9848 220.052 29.4328 192.252 26.5528 183.42L26.5448 183.412ZM141.809 16.0039L142.777 16.0599L146.409 16.6279C186.977 23.3239 208.841 38.6279 212.009 62.5479C217.129 101.212 177.737 127.524 164.169 143.996C150.601 160.468 148.505 188.908 147.833 189.556C147.161 190.204 137.465 190.596 136.641 189.556C136.401 189.252 136.265 177.924 136.233 155.572V134.556C136.257 107.1 136.385 69.3639 136.609 21.3559C136.609 21.0999 136.633 20.8439 136.665 20.5879C137.105 17.6519 139.833 15.6199 142.769 16.0599L141.809 16.0039ZM119.329 20.5959C119.369 20.8519 119.385 21.1079 119.385 21.3639C119.609 69.3799 119.737 107.108 119.761 134.564V155.58C119.729 177.932 119.593 189.26 119.353 189.564C118.529 190.604 108.841 190.212 108.161 189.564C107.481 188.916 105.393 160.476 91.8248 144.004C78.2568 127.532 38.8568 101.22 43.9848 62.5559C47.1528 38.6359 69.0248 23.3239 109.585 16.6359L113.217 16.0679C116.153 15.6279 118.889 17.6599 119.321 20.5959H119.329ZM235.129 83.4759C235.129 83.9959 250.569 140.516 226.481 155.796C213.193 164.228 200.113 165.932 187.929 172.852C181.761 176.364 174.553 182.412 171.481 183.996C168.409 185.58 163.073 185.836 162.953 183.996C162.825 182.156 162.825 167.428 174.561 151.948C186.297 136.468 196.417 136.26 212.473 114.94C228.537 93.6199 227.417 83.9959 227.417 83.4759C227.417 82.9559 235.129 82.9559 235.129 83.4759V83.4759ZM20.8728 83.4759C20.8728 82.9559 28.5848 82.9559 28.5848 83.4759C28.5848 83.9959 27.4728 93.6279 43.5288 114.94C59.5928 136.26 69.7128 136.468 81.4408 151.948C93.1688 167.428 93.1688 182.156 93.0488 183.996C92.9208 185.836 87.5928 185.58 84.5208 183.996C81.4488 182.412 74.2408 176.356 68.0728 172.852C55.8968 165.932 42.8168 164.228 29.5208 155.796C5.43284 140.524 20.8728 84.0039 20.8728 83.4759V83.4759Z" fill="url(#paint0_linear_457_2048)"/>
<defs>
<linearGradient id="paint0_linear_457_2048" x1="50.9843" y1="149.037" x2="14.0456" y2="43.5581" gradientUnits="userSpaceOnUse">
<stop stop-color="#FFA800"/>
<stop offset="1" stop-color="#FFE100"/>
</linearGradient>
</defs>
</svg>
