<svg width="50" height="50" viewBox="0 0 50 50" fill="none" xmlns="http://www.w3.org/2000/svg">
<path d="M40.1011 20.5717C40.1011 28.9158 32.2349 35.4966 25.2808 35.4966C15.6956 35.4966 9.74864 29.4095 7.87276 20.9376C7.72042 20.2494 7.63116 19.0564 7.7128 18.3736C8.66563 10.4063 15.0162 4.09736 23.0029 3.2083C23.6403 3.1373 24.7255 3.30635 25.3591 3.47734C34.4421 5.92812 40.1011 10.9865 40.1011 20.5717Z" fill="#D3B5F2"/>
<path d="M24.9446 3.10089C24.2398 3.10089 23.5449 3.14405 22.862 3.2257C29.4182 4.11945 34.4704 9.74005 34.4704 16.5415C34.4704 23.9646 28.4528 29.9821 21.0298 29.9821C14.2283 29.9821 8.60782 24.9299 7.71398 18.3737C7.63234 19.0567 7.58917 19.7515 7.58917 20.4564C7.58917 30.0415 15.3595 37.8118 24.9446 37.8118C34.5298 37.8118 42.3 30.0415 42.3 20.4564C42.3 10.8712 34.5298 3.10089 24.9446 3.10089Z" fill="#D088F3"/>
<path d="M34.1736 36.7734L30.4327 35.8332H15.4762C14.2413 35.8332 13.0851 36.4394 12.3827 37.4551L8.9057 42.483L16.9911 46.2273L35.6803 43.0435L34.1736 36.7734Z" fill="#FFE35C"/>
<path d="M40.9305 42.4924L37.4741 37.4639C36.7724 36.4431 35.6131 35.8332 34.3745 35.8332H30.4326L31.8876 37.9499C33.2642 39.9525 31.8304 42.6778 29.4004 42.6778H10.3051C9.81809 42.6778 9.3722 42.5669 8.97981 42.3758L8.90569 42.483C7.06341 45.1471 8.97024 48.7839 12.2092 48.7839H37.6205C40.8543 48.784 42.7622 45.1573 40.9305 42.4924Z" fill="#FFAC62"/>
<path d="M41.1031 49.2129H8.43019C7.42286 49.2129 6.60626 48.3963 6.60626 47.389C6.60626 46.3817 7.42286 45.5651 8.43019 45.5651H41.1031C42.1105 45.5651 42.9271 46.3817 42.9271 47.389C42.9271 48.3963 42.1105 49.2129 41.1031 49.2129Z" fill="#FFF2A5"/>
<path d="M34.117 21.9073C33.7938 21.9073 33.5318 21.6452 33.5318 21.3221V20.2493C33.5318 19.9262 33.7938 19.6642 34.117 19.6642C34.4401 19.6642 34.7021 19.9262 34.7021 20.2493V21.3221C34.7021 21.6452 34.4401 21.9073 34.117 21.9073Z" fill="#B366D9"/>
<path d="M32.235 29.3635C31.9119 29.3635 31.6498 29.1015 31.6498 28.7783V27.7055C31.6498 27.3823 31.9119 27.1203 32.235 27.1203C32.5581 27.1203 32.8202 27.3823 32.8202 27.7055V28.7783C32.8202 29.1015 32.5581 29.3635 32.235 29.3635Z" fill="#B366D9"/>
<path d="M12.6778 20.5593C12.6548 20.5593 12.6318 20.5585 12.6085 20.5569C12.0712 20.5192 11.6662 20.053 11.7038 19.5157C11.8879 16.8899 12.8394 14.402 14.4555 12.3211C14.7859 11.8956 15.3986 11.8187 15.824 12.149C16.2494 12.4794 16.3264 13.0921 15.996 13.5175C14.6179 15.2919 13.8065 17.4133 13.6496 19.6522C13.6136 20.1663 13.1853 20.5593 12.6778 20.5593Z" fill="white"/>
<path d="M19.6244 10.341C19.2612 10.341 18.9125 10.1372 18.7447 9.78791C18.5114 9.30246 18.7158 8.71974 19.2013 8.48644C19.6507 8.27043 20.117 8.07814 20.5874 7.91467C21.0963 7.7381 21.652 8.00715 21.8288 8.51584C22.0056 9.02473 21.7365 9.58039 21.2277 9.75724C20.8267 9.8965 20.4291 10.0605 20.0461 10.2445C19.91 10.3101 19.7661 10.341 19.6244 10.341Z" fill="white"/>
<path d="M23.4317 16.632C23.7495 15.8654 23.3856 14.9864 22.6191 14.6686C21.8525 14.3509 20.9735 14.7147 20.6558 15.4813C20.338 16.2479 20.7019 17.1269 21.4684 17.4446C22.235 17.7624 23.114 17.3985 23.4317 16.632Z" fill="white"/>
</svg>
