<svg style="display: none;" xmlns="http://www.w3.org/2000/svg" xmlns:xlink="http://www.w3.org/1999/xlink" version="1.1">
    <symbol id="icon-vote" viewBox="0 0 16 16" xmlns="http://www.w3.org/2000/svg">
        <path d="M2.1875 0.5C1.26219 0.5 0.5 1.26219 0.5 2.1875V11.9375C0.5 12.8628 1.26219 13.625 2.1875 13.625H11.9375C12.8628 13.625 13.625 12.8628 13.625 11.9375V2.1875C13.625 1.26219 12.8628 0.5 11.9375 0.5H2.1875ZM2.1875 1.625H11.9375C12.2549 1.625 12.5 1.87006 12.5 2.1875V11.9375C12.5 12.2549 12.2549 12.5 11.9375 12.5H2.1875C1.87006 12.5 1.625 12.2549 1.625 11.9375V2.1875C1.625 1.87006 1.87006 1.625 2.1875 1.625ZM14.375 2.47827V12.3125C14.375 13.4495 13.4499 14.375 12.3125 14.375H2.47827C2.71115 15.0283 3.33013 15.5 4.0625 15.5H12.3125C14.0701 15.5 15.5 14.0701 15.5 12.3125V4.0625C15.5 3.33013 15.0283 2.71152 14.375 2.47827ZM9.67651 4.61987C9.53043 4.62413 9.39174 4.68507 9.2898 4.7898L6.3125 7.76709L5.21021 6.6648C5.15837 6.61081 5.09629 6.56771 5.02759 6.53802C4.9589 6.50833 4.88497 6.49265 4.81013 6.49189C4.7353 6.49113 4.66106 6.5053 4.59178 6.53359C4.52249 6.56188 4.45954 6.60371 4.40663 6.65663C4.35371 6.70955 4.31188 6.77249 4.28359 6.84178C4.2553 6.91106 4.24113 6.9853 4.24189 7.06013C4.24265 7.13497 4.25833 7.2089 4.28802 7.2776C4.31771 7.34629 4.36081 7.40837 4.4148 7.46021L5.9148 8.96021C6.02029 9.06566 6.16334 9.12489 6.3125 9.12489C6.46166 9.12489 6.60471 9.06566 6.71021 8.96021L10.0852 5.58521C10.1664 5.50617 10.2218 5.40448 10.2442 5.29344C10.2666 5.1824 10.2549 5.06719 10.2108 4.96287C10.1666 4.85856 10.092 4.77001 9.99664 4.70881C9.90132 4.64761 9.78974 4.61661 9.67651 4.61987V4.61987Z" />
    </symbol>
    <symbol id="icon-lock-vault" viewBox="0 0 16 16" xmlns="http://www.w3.org/2000/svg">
        <path fill-rule="evenodd" clip-rule="evenodd" d="M4 6.67v-2a4 4 0 118 0v2h.15c1.14 0 1.85 1.08 1.85 2.12v5.09c0 1.04-.7 2.12-1.85 2.12h-8.3C2.71 16 2 14.92 2 13.88v-5.1c0-1.03.7-2.11 1.85-2.11H4zm2.11-3.89a2.67 2.67 0 014.56 1.89v2H5.33v-2c0-.71.28-1.39.78-1.89z" />
    </symbol>
    <symbol id="icon-livechat" viewBox="0 0 24 23">
        <path d="M4.06 14.08h-1.1c-.36 0-.74.02-1.1 0a11.06 11.06 0 00.1-.02l.27.11a.88.88 0 01-.16-.09l.23.17a.91.91 0 01-.13-.12l.17.22a.8.8 0 01-.09-.16l.11.27a10.52 10.52 0 010 .11c-.02-.2-.01-.42-.01-.62v-1.38-3.09c0-.25-.02-.51 0-.77a10.53 10.53 0 00.01.12l-.1.26.08-.16-.17.22a.91.91 0 01.13-.12l-.23.17a.8.8 0 01.16-.09l-.26.11a10.48 10.48 0 01-.11 0c.37-.04.76-.01 1.14-.01.37 0 .76-.03 1.14 0a10.49 10.49 0 00-.12.01l-.26-.1.16.08-.22-.17.12.12-.17-.22.09.16-.11-.26.05.17-.04-.29v5.1c0 .25.02.5 0 .76a10.52 10.52 0 00-.01-.11l.1-.27a490.6 490.6 0 01-.04.06l.23-.17a.8.8 0 01-.16.1l.26-.12a10.26 10.26 0 01.04.01 1.1 1.1 0 00-1.1 1.1c.03.58.49 1.11 1.1 1.1a1.8 1.8 0 001.77-1.8v-.57-2.38-2.26-.46a1.8 1.8 0 00-1.8-1.77H2c-.35 0-.7.07-.99.27-.52.33-.82.88-.83 1.5V14.43c0 .81.53 1.6 1.36 1.77.35.08.72.05 1.08.05h1.45c.57 0 1.12-.5 1.1-1.09-.03-.6-.49-1.1-1.1-1.1zM22.07 14.08H21c-.36 0-.74.02-1.1 0a11.06 11.06 0 00.11-.02l.26.11a.89.89 0 01-.15-.09l.22.17a1497.22 1497.22 0 00-.04-.06l.1.27a10.26 10.26 0 010 .11c-.02-.2 0-.42 0-.62v-1.38-3.09c0-.25-.03-.51 0-.77a10.64 10.64 0 000 .12l-.1.26c.02-.06.05-.1.09-.16l-.18.22a.91.91 0 01.13-.12l-.22.17a.8.8 0 01.15-.09l-.26.11a10.5 10.5 0 01-.11 0c.37-.04.75-.01 1.13-.01.37 0 .76-.03 1.13 0a10.49 10.49 0 00-.11.01l-.27-.1.16.08-.22-.17.12.12-.17-.22.1.16-.12-.26.05.17-.04-.29c.02.2 0 .42 0 .63V13.8c0 .25.02.5 0 .76a11.05 11.05 0 000-.11l.1-.27a.88.88 0 01-.09.16l.17-.22a.91.91 0 01-.12.12l.22-.17a.8.8 0 01-.16.1l.27-.12a10.26 10.26 0 01.11 0l-.08.02c-.28 0-.57.11-.77.32-.2.19-.34.5-.32.77.02.58.48 1.11 1.1 1.1a1.8 1.8 0 001.75-1.8v-.57-2.35-2.3-.45a1.8 1.8 0 00-1.78-1.77h-2.02c-.35 0-.7.07-1 .27-.51.33-.81.88-.83 1.5v5.64c0 .8.52 1.58 1.33 1.77.35.08.73.05 1.1.05h1.44c.57 0 1.12-.5 1.1-1.1-.03-.58-.49-1.08-1.1-1.08zM12.6 19.8h-.67c-.24 0-.49.02-.73 0l.3.03a1.52 1.52 0 01-.36-.1l.26.12-.3-.18.21.17c-.1-.08-.2-.17-.28-.28l.18.22c-.07-.1-.13-.2-.18-.31l.1.26a1.6 1.6 0 01-.09-.35l.04.29a1.45 1.45 0 010-.38l-.04.29c.02-.12.05-.24.1-.35l-.11.26c.05-.11.1-.21.18-.31l-.18.22c.09-.1.18-.2.28-.28l-.22.17c.1-.07.2-.13.31-.18l-.26.11.35-.1-.29.04c.26-.03.53 0 .8 0 .26 0 .53-.03.79 0-.1 0-.2-.02-.29-.03.12.02.24.05.35.1l-.26-.12c.11.05.21.11.31.18l-.22-.17c.1.08.2.17.28.28l-.17-.22c.07.1.13.2.18.31l-.11-.26c.04.11.08.23.1.35l-.04-.29v.38l.03-.3c-.01.13-.04.25-.1.36l.12-.26c-.05.11-.1.21-.18.31l.17-.22c-.08.1-.17.2-.28.28l.22-.17-.3.18.25-.11a1.6 1.6 0 01-.35.1 10.27 10.27 0 01.1-.03c-.28 0-.57.12-.77.32-.19.19-.33.5-.32.77.03.59.48 1.1 1.1 1.1.42-.01.8-.11 1.19-.3.36-.2.64-.49.88-.81a2.48 2.48 0 00-1.11-3.72c-.42-.18-.85-.2-1.3-.2h-.86A2.55 2.55 0 009 18.75a2.49 2.49 0 001.15 2.9c.75.44 1.63.35 2.46.35.58 0 1.13-.5 1.1-1.1-.03-.6-.48-1.1-1.1-1.1z" />
        <path d="M14.02 20.57h3.31a2.9 2.9 0 003.04-2.9v-.3-3.44-4.18c0-1.07.03-2.12-.2-3.17A8.4 8.4 0 009.78.3a8.47 8.47 0 00-6.12 7.46c-.03.46-.02.91-.02 1.37V13.32c0 .57.5 1.12 1.1 1.1.59-.03 1.09-.49 1.09-1.1v-1.93-2.72a9.5 9.5 0 01.02-.95c.09-.64.26-1.26.5-1.86l-.1.27c.24-.58.56-1.13.94-1.63L7 4.72c.39-.5.84-.95 1.34-1.34l-.22.17c.5-.38 1.05-.7 1.63-.94l-.27.1a7.25 7.25 0 011.56-.46 7.37 7.37 0 011.61-.04c.64.09 1.26.26 1.86.5l-.27-.1c.58.24 1.13.56 1.63.94l-.22-.17a7.55 7.55 0 011.17 1.12c.38.5.7 1.05.95 1.63l-.11-.27a7.25 7.25 0 01.46 1.57c.07.52.06 1.05.06 1.57v8.7l-.01.23.04-.3c-.03.17-.07.32-.13.47l.1-.26c-.05.14-.13.28-.23.4l.17-.22c-.09.11-.19.22-.3.3.07-.05.15-.1.22-.17-.12.1-.26.18-.4.24l.26-.1c-.15.05-.3.1-.46.12l.29-.04c-.43.05-.88.01-1.32.01h-2.39c-.57 0-1.12.5-1.1 1.1.03.6.48 1.1 1.1 1.1z" />
    </symbol>
    <symbol id="icon-battle-number" viewBox="0 0 24 31">
        <path d="M11.94 22.38a10.69 10.69 0 100-21.38 10.69 10.69 0 000 21.38z" stroke-width="1.3" stroke-linecap="round" stroke-linejoin="round" />
        <path d="M7.44 22.39L6 29.5l5.94-3.54 5.94 3.54-1.44-7.13" stroke-width="1.3" stroke-linecap="round" stroke-linejoin="round" />
    </symbol>
    <symbol id="icon-dollar" viewBox="0 0 512 512">
        <path d="M279 224V110c24 4 47 14 67 29 3 3 8 4 13 5 15 0 27-13 28-28 0-6-3-13-8-17-28-25-63-39-101-41V20c0-11-9-20-19-20h-1c-11 0-20 9-20 20v37c-73 5-123 50-123 109 0 74 63 94 123 110v130c-32-5-62-18-86-38-5-4-10-6-16-6-15 1-27 14-26 28 0 7 2 13 7 18 33 30 76 47 121 49v36c0 11 10 20 21 19 11 0 20-9 20-20v-36c88-6 123-59 123-116 0-77-64-100-123-116zm-41-10c-35-11-63-21-63-51s25-52 63-55v106zm41 192V289c36 10 65 24 64 58 0 24-17 53-64 59z" />
    </symbol>
    <symbol id="icon-clock" viewBox="0 0 512 512">
        <path d="M347.2 301.2l-71.4-53.5v-109a19.8 19.8 0 10-39.6 0v118.9c0 6.2 2.9 12.1 7.9 15.9l79.3 59.4a19.7 19.7 0 0027.8-4 19.8 19.8 0 00-4-27.7z" />
        <path d="M256 0C114.8 0 0 114.8 0 256s114.8 256 256 256 256-114.8 256-256S397.2 0 256 0zm0 472.3c-119.3 0-216.3-97-216.3-216.3S136.7 39.7 256 39.7c119.3 0 216.3 97 216.3 216.3s-97 216.3-216.3 216.3z" />
    </symbol>
    <symbol id="icon-birthday" viewBox="0 0 21 26">
        <path d="M4.77812 18.368C6.18023 17.9091 7.69281 17.3482 9.18839 16.6599C11.0324 15.8187 12.8424 14.782 14.3974 13.5243L12.9868 10.1932C12.1201 10.7966 11.1938 11.3404 10.2591 11.8333C9.1544 12.4111 8.02422 12.9125 6.91103 13.3544L4.77812 18.368V18.368ZM12.4005 8.81663L11.6527 7.05762C11.3213 7.1596 10.9644 7.21908 10.599 7.21908C10.2506 7.21908 9.91069 7.16809 9.59628 7.07462L7.74379 11.4169C8.35562 11.1365 8.97595 10.8476 9.57928 10.5332C10.5565 10.0233 11.5082 9.44546 12.4005 8.81663ZM8.0922 23.713C9.68125 23.0416 11.2703 22.2429 12.7234 21.2826C14.1 20.3819 15.3492 19.3367 16.3519 18.13L14.9923 14.9264C13.4117 16.1586 11.6187 17.1698 9.80022 18.0026C7.80328 18.9203 5.78084 19.6171 4.01334 20.144L2.49226 23.713H8.0922V23.713ZM16.9892 19.6341C15.9865 20.7218 14.8053 21.6735 13.5307 22.5148C12.8849 22.9397 12.205 23.3391 11.5167 23.713H18.7142L16.9892 19.6341V19.6341ZM8.38112 25.183L8.32163 25.2085L8.30464 25.183H1.37907C1.2771 25.183 1.18363 25.1661 1.09016 25.1236C0.71626 24.9706 0.53781 24.5372 0.699265 24.1633L8.30464 6.36082C8.23666 6.30134 8.17717 6.25035 8.12619 6.19087C7.48886 5.56204 7.09797 4.67829 7.09797 3.71806C7.09797 2.74933 7.48886 1.87408 8.12619 1.23675C8.76351 0.599432 9.63876 0.208542 10.599 0.208542C11.5677 0.208542 12.443 0.599432 13.0803 1.23675C13.7176 1.86558 14.1085 2.74933 14.1085 3.71806C14.1085 4.67829 13.7176 5.55355 13.0803 6.19087C13.0293 6.23335 12.9868 6.28434 12.9443 6.31833L20.4732 24.1039C20.5327 24.2058 20.5667 24.3248 20.5667 24.4523C20.5667 24.8601 20.2353 25.183 19.8274 25.183H8.38112V25.183ZM12.0351 2.28196C11.6697 1.90807 11.1598 1.68713 10.599 1.68713C10.0382 1.68713 9.52829 1.90807 9.1629 2.27346V2.28196C8.7975 2.64736 8.56806 3.14872 8.56806 3.71806C8.56806 4.2704 8.7975 4.78026 9.1629 5.14566C9.53679 5.51955 10.0382 5.74049 10.599 5.74049C11.1598 5.74049 11.6697 5.51955 12.0351 5.15416C12.4005 4.78026 12.6299 4.2789 12.6299 3.71806C12.6299 3.15722 12.4005 2.64736 12.0351 2.28196V2.28196Z" fill="#FED700"/>
    </symbol>
    <symbol id="icon-curve-arrow" viewBox="0 0 16 10">
        <path d="M15.86.16c-.1-.1-.24-.16-.42-.16h-.05c-.94.04-1.87.1-2.8.13-.13.01-.3.02-.43.16a.5.5 0 00-.1.15c-.14.3.05.5.15.6l.23.24.49.5-5.64 5.8-2.54-2.6a.8.8 0 00-1.14 0L.24 8.42a.84.84 0 000 1.17l.15.16a.8.8 0 001.14 0l2.65-2.72 2.54 2.6a.8.8 0 001.14 0l6.36-6.53.72.74c.09.08.2.2.39.2.07 0 .15-.02.23-.06l.14-.1a.7.7 0 00.17-.48l.09-1.86L16 .6c0-.2-.03-.34-.14-.45z" />
    </symbol>
    <symbol id="icon-all-games" viewBox="0 0 26 20">
        <path fill-rule="evenodd" clip-rule="evenodd" d="M14.14 5.22c.4-.1.96-.28 1.3-.47A5.66 5.66 0 0118.27 4c1.4 0 2.7.57 3.7 1.44.98.87 1.46 2.14 1.89 3.38l1.92 5.59.03.1c.12.38.18.78.18 1.2 0 2.23-1.2 3.74-3.43 3.87-.96.06-1.7-.42-2.62-1.02A11.25 11.25 0 0013 16.43c-3.7 0-5.55 1.2-6.95 2.12-.93.6-1.66 1.08-2.62 1.02C1.2 19.44 0 17.93 0 15.7a4.04 4.04 0 01.21-1.3l.91-2.47.08-.2c1.28-3.48 2.84-7.74 6.52-7.74 1.04 0 2 .28 2.85.76a4.65 4.65 0 003.57.47zm-2.87 1.65a6.35 6.35 0 01-1.56-.65 3.96 3.96 0 00-2-.53c-1.06 0-1.93.58-2.79 1.89a24.32 24.32 0 00-2.16 4.82l-.04.11-.9 2.46-.01.02V15c-.07.22-.11.45-.11.7 0 .82.22 1.32.47 1.61.23.27.63.52 1.37.57.16 0 .35-.03.73-.23.2-.1.42-.25.7-.43l.14-.1.83-.52A12.75 12.75 0 0113 14.73a12.75 12.75 0 017.89 2.4l.13.09c.29.18.5.32.7.43.39.2.58.24.74.23.74-.05 1.14-.3 1.37-.57.25-.29.47-.8.47-1.61 0-.25-.04-.48-.1-.7v-.01a.9.9 0 00-.02-.03v-.01l-1.92-5.59c-.44-1.28-.8-2.12-1.41-2.65a3.92 3.92 0 00-2.57-1.02c-.73 0-1.4.2-2 .53-.59.35-1.48.59-1.82.68h-.04a6.4 6.4 0 01-3.15-.03z" />
        <path d="M9.73 10.21H8.5V8.98a.52.52 0 10-1.03 0v1.23H6.23a.52.52 0 100 1.03h1.24v1.24a.52.52 0 001.03 0v-1.24h1.23a.52.52 0 000-1.03zM17.55 12.46a1.7 1.7 0 100-3.4 1.7 1.7 0 000 3.4z" />
        <path fill-rule="evenodd" clip-rule="evenodd" d="M11.47 1.13a.38.38 0 000 .75h.22c.94 0 1.71.76 1.71 1.71v.26h-1.13v-.26A.59.59 0 0011.7 3h-.22a1.5 1.5 0 010-3h3.2a.56.56 0 110 1.13h-3.2z" />
        <path d="M15.23 5.72h-4.7l.63-1.44c.11-.26.47-.43.88-.43h1.68c.4 0 .77.17.88.43l.63 1.44z" />
    </symbol>
    <symbol id="icon-all-games-full" viewBox="0 0 18 14">
        <path fill-rule="evenodd" clip-rule="evenodd" d="M8.15.75a.25.25 0 000 .5h.15c.63 0 1.14.52 1.14 1.15v.17H8.7V2.4a.4.4 0 00-.4-.4h-.14a1 1 0 110-2h2.14a.38.38 0 010 .75H8.15z" />
        <path fill-rule="evenodd" clip-rule="evenodd" d="M17.89 9.71a2.8 2.8 0 01-2.7 3.62 2.8 2.8 0 01-2-.82v-.01l-.02-.02-.06-.06-.06-.05-.05-.05a1.82 1.82 0 00-.03-.03h-.01v-.01l-.03-.02-.02-.02a6.6 6.6 0 00-.19-.16l-.01-.01-.03-.03h-.01a2.26 2.26 0 00-.06-.05l-.03-.02-.02-.02-.03-.02-.02-.01a1.22 1.22 0 00-.14-.1l-.02-.02h-.01l-.14-.1-.03-.02a.62.62 0 00-.05-.03l-.01-.01-.04-.02a1.15 1.15 0 00-.1-.06l-.02-.01-.01-.01a4.77 4.77 0 00-.23-.13c-.03 0-.05-.02-.07-.03a2.08 2.08 0 00-.1-.05h-.01l-.02-.01-.02-.01-.04-.02-.03-.01a.53.53 0 00-.06-.03l-.02-.01a1.35 1.35 0 01-.08-.03.37.37 0 00-.05-.02l-.05-.02h-.02l-.01-.02h-.01l-.03-.01-.06-.02H11a8.29 8.29 0 00-.12-.05l-.05-.02-.08-.02-.06-.02-.05-.02h-.04l-.02-.01a2.76 2.76 0 00-.09-.03l-.1-.02-.05-.01-.07-.02-.08-.02h-.06c-.03-.02-.07-.02-.1-.03H10a5.11 5.11 0 00-.39-.06h-.03a4.66 4.66 0 00-.4-.03h-.32-.03a1 1 0 00-.08 0h-.05l-.01.01h-.02-.08-.01l-.04.01h-.08l-.04.01h-.06-.02a4.54 4.54 0 00-.15.02h-.01v.01h-.03l-.05.01h-.03l-.04.01-.1.02H7.9h-.03l-.02.01a1.17 1.17 0 00-.09.02h-.01-.02l-.01.01h-.04l-.02.01h-.02v.01h-.02l-.04.01h-.01l-.05.02H7.5l-.16.05h-.02-.01l-.02.01a2.48 2.48 0 00-.12.04l-.1.03h-.02l-.02.02h-.02a1.03 1.03 0 00-.1.04l-.03.01h-.02v.01h-.02a.84.84 0 00-.08.04l-.03.01-.05.02h-.01l-.01.01h-.01l-.02.01-.02.01-.02.01a1.95 1.95 0 00-.14.07h-.01-.01a.5.5 0 00-.06.03l-.02.02h-.02l-.05.03a5.23 5.23 0 00-.27.15l-.02.01-.02.01-.01.01-.02.01-.02.01-.01.01-.03.02a1.95 1.95 0 00-.23.15 3.39 3.39 0 00-.1.07l-.04.03a4.86 4.86 0 00-.68.58l-.02.02-.01.01-.03.04.01-.02A2.82 2.82 0 01.15 9.6l1.43-4.43v-.01l.03-.08.01-.04.03-.09v-.01l.05-.1.04-.1v-.02a3.15 3.15 0 01.22-.4 3.96 3.96 0 015.4-1.43 3.24 3.24 0 003.28 0 3.94 3.94 0 015.7 2.05l.08.23.2.61 1.22 3.78v.01l.04.13v.01zM6.78 6.55h-.86v-.86a.36.36 0 10-.72 0v.86h-.86a.36.36 0 100 .72h.86v.86a.36.36 0 10.72 0v-.86h.86a.36.36 0 100-.72zm6.63.38a1.18 1.18 0 11-2.37 0 1.18 1.18 0 012.37 0z" />
    </symbol>
    <symbol id="icon-tourney" viewBox="0 0 18 18">
        <path d="M17.1.9h-2.7V0H3.6v.9H.9c-.54 0-.9.36-.9.9v2.16a4.08 4.08 0 003.6 4.05v.09c0 2.61 1.8 4.77 4.23 5.31L7.2 15.3H5.13a.86.86 0 00-.81.63L3.6 18h10.8l-.72-2.07a.86.86 0 00-.81-.63H10.8l-.63-1.89A5.41 5.41 0 0014.4 8.1v-.09A4.08 4.08 0 0018 3.96V1.8c0-.54-.36-.9-.9-.9zM3.6 6.21a2.4 2.4 0 01-1.8-2.25V2.7h1.8v3.51zM10.8 9L9 8.01 7.2 9l.45-1.8L6.3 5.4h1.89L9 3.6l.81 1.8h1.89l-1.35 1.8.45 1.8zm5.4-5.04c0 1.08-.81 2.07-1.8 2.25V2.7h1.8v1.26z" />
    </symbol>
    <symbol id="icon-chat" viewBox="0 0 18 18">
        <path d="M8.96.56C4.02.56 0 4.11 0 8.47c0 1.85.73 3.63 2.06 5.05a3.2 3.2 0 01-.85 3.02c-.33.33-.1.9.37.9 1.5 0 2.95-.6 4.03-1.63 1.06.38 2.2.57 3.35.57 4.95 0 9.04-3.55 9.04-7.9C18 4.1 13.9.55 8.96.55zm-4.14 9.5a1.58 1.58 0 110-3.17 1.58 1.58 0 010 3.16zm4.22 0a1.58 1.58 0 110-3.17 1.58 1.58 0 010 3.16zm4.21 0a1.58 1.58 0 110-3.17 1.58 1.58 0 010 3.16z" />
    </symbol>
    <symbol id="icon-casino" viewBox="0 0 16 16">
        <path d="M14.5 8.75a3.5 3.5 0 01-5.12 3.1l.75 2.24a.5.5 0 01-.48.66h-3.3a.5.5 0 01-.48-.66l.75-2.24a3.5 3.5 0 01-5.12-3.1c0-3.35 6.1-7.3 6.37-7.46a.25.25 0 01.26 0c.26.17 6.37 4.11 6.37 7.46z" />
    </symbol>
    <symbol id="icon-sport" viewBox="0 0 16 16">
        <path d="M7.63 4.64a12.64 12.64 0 00-5.29-1.95A7.74 7.74 0 019.51.39a9.36 9.36 0 01-1.88 4.25zm1.15.84a10.78 10.78 0 002.1-4.69 7.79 7.79 0 014.33 4.33 10.78 10.78 0 00-4.69 2.1C10 6.58 9.42 6 8.78 5.48zM.24 8c0-1.45.4-2.82 1.1-3.98 1.94.1 3.76.7 5.32 1.68A9.37 9.37 0 01.24 8.23V8zm13.07 5.66a12.64 12.64 0 00-1.95-5.3 9.36 9.36 0 014.25-1.87 7.8 7.8 0 01-2.3 7.17zM.41 9.65a10.8 10.8 0 007.42-3.11c.6.48 1.15 1.03 1.63 1.63a10.8 10.8 0 00-3.11 7.41A7.77 7.77 0 01.42 9.65zM8 15.76h-.23c0-2.48.96-4.74 2.53-6.42a11.22 11.22 0 011.68 5.32A7.72 7.72 0 018 15.76z" />
    </symbol>
    <symbol id="icon-bets" viewBox="0 0 16 18">
        <path d="M16.73 0H1.27C.57 0 0 .57 0 1.27v15.46C0 17.43.57 18 1.27 18h15.46c.7 0 1.27-.57 1.27-1.27V1.27C18 .57 17.43 0 16.73 0zM4.4 14.31a1.27 1.27 0 110-2.53 1.27 1.27 0 010 2.53zm0-3.8a1.27 1.27 0 110-2.53 1.27 1.27 0 010 2.54zm0-3.79a1.27 1.27 0 110-2.53 1.27 1.27 0 010 2.53zm10.7 6.78H7.77a.42.42 0 010-.84h7.33a.42.42 0 110 .84zm0-3.8H7.77a.42.42 0 010-.84h7.33a.42.42 0 110 .84zm0-3.8H7.77a.42.42 0 010-.84h7.33a.42.42 0 110 .85z" />
    </symbol>
    <symbol id="icon-settings" viewBox="0 0 18 18">
        <path d="M17.46 10.97l-1.65-1.3a6.51 6.51 0 000-1.35l1.65-1.3c.31-.24.4-.67.2-1.03l-1.72-2.98a.8.8 0 00-1-.35L13 3.44a6.7 6.7 0 00-1.17-.68L11.52.7a.8.8 0 00-.8-.69H7.29a.8.8 0 00-.8.68l-.3 2.08c-.39.18-.77.4-1.17.68l-1.95-.78a.81.81 0 00-1 .35L.36 5.99a.8.8 0 00.2 1.04l1.65 1.3a6.53 6.53 0 000 1.35l-1.66 1.3c-.3.24-.4.67-.2 1.03l1.73 2.97a.8.8 0 001 .36L5 14.56c.38.27.77.5 1.17.68l.3 2.07c.05.4.4.69.8.69h3.45c.4 0 .74-.3.8-.68l.29-2.08c.4-.18.78-.4 1.17-.68l1.96.78a.8.8 0 00.99-.35L17.65 12c.2-.35.11-.78-.2-1.03zM9 12a3 3 0 110-6 3 3 0 010 6z" />
    </symbol>
    <symbol id="icon-bell-full" viewBox="0 0 16 18">
        <path d="M15.05 12.68a5.02 5.02 0 01-1.79-3.84V6.75a5.25 5.25 0 00-4.5-5.19V.75a.75.75 0 10-1.5 0v.81a5.25 5.25 0 00-4.5 5.19v2.1c0 1.48-.65 2.88-1.79 3.84A1.31 1.31 0 001.82 15H14.2a1.31 1.31 0 00.85-2.32zM8.01 18c1.36 0 2.5-.97 2.76-2.25H5.26A2.82 2.82 0 008 18z" />
    </symbol>
    <symbol id="icon-fairness" viewBox="0 0 16 18">
        <path fill-rule="evenodd" clip-rule="evenodd" d="M12.34 15.4a9.08 9.08 0 002.18-3.38c.88-2.4.83-5.02.79-7.14v-.01l-.02-.56a1.9 1.9 0 00-1.8-1.87A7.4 7.4 0 018.47.32L8.45.3a1.15 1.15 0 00-1.57 0h-.01a7.4 7.4 0 01-5.04 2.13 1.9 1.9 0 00-1.8 1.87l-.01.56v.03c-.04 2.11-.1 4.74.79 7.12a9.06 9.06 0 002.17 3.39 11.38 11.38 0 004.43 2.57l.25.02h.02a1.33 1.33 0 00.41-.07c1.73-.6 3.16-1.45 4.25-2.52zm-1.32-7.2l-.76.79-2.3 2.44-.04.03-.63.67a.78.78 0 01-1.13 0l-.63-.67-.04-.04-.76-.8a.88.88 0 010-1.2.77.77 0 011.14 0l.06.07.38.4.23.25.18.19.04-.03.15-.16.23-.25 1.13-1.2.76-.8.8-.83.05-.06a.77.77 0 011.14 0c.29.3.3.8.05 1.12a.85.85 0 01-.05.07z" />
    </symbol>
    <symbol id="icon-fairness-2" viewBox="0 0 26 30">
        <path fill-rule="evenodd" clip-rule="evenodd" d="M12.347 2.105l-.008.008c-2.3 2.224-5.004 3.343-8.425 3.533-1.114.062-1.993.979-2.01 2.07m10.443-5.611a.962.962 0 01.665-.255h.002a.964.964 0 01.636.252l.008.008c2.302 2.225 5.006 3.346 8.428 3.536 1.115.062 1.994.98 2.01 2.071.005.321.013.612.026.89v.01c.064 3.313.128 7.243-1.186 10.785-.716 1.926-1.793 3.591-3.201 4.957-1.605 1.557-3.73 2.817-6.343 3.725a1.255 1.255 0 01-.374.066H13a1.227 1.227 0 01-.393-.067c-2.615-.906-4.742-2.165-6.348-3.722-1.408-1.366-2.486-3.03-3.2-4.954-1.31-3.534-1.244-7.457-1.18-10.765v-.038c.013-.279.021-.57.026-.887M13.036.15a2.661 2.661 0 00-1.834.698l-.028.026-.01.01C9.185 2.801 6.877 3.778 3.82 3.948 1.826 4.059.235 5.696.205 7.692c-.005.307-.013.583-.025.843v.01l-.002.062v.061c-.063 3.25-.144 7.47 1.288 11.33.798 2.153 2.012 4.035 3.61 5.584 1.817 1.761 4.173 3.137 6.976 4.108l.004.002c.12.04.248.076.381.103h.004c.183.036.37.055.56.055h.035c.176-.003.352-.02.524-.055h.003c.131-.027.261-.062.387-.105 2.8-.973 5.154-2.35 6.969-4.111 .597-1.55 2.81-3.431 3.61-5.585 1.437-3.871 1.356-8.1 1.294-11.357l-.001-.057-.001-.038v-.007c-.013-.258-.02-.533-.025-.843-.03-1.995-1.621-3.633-3.616-3.743-3.055-.17-5.363-1.147-7.345-3.066L14.83.878l-.024-.022-.008-.008A2.665 2.665 0 0013.036.15z" />
        <path fill-rule="evenodd" clip-rule="evenodd" d="M12.8 20.664a5.626 5.626 0 005.593-5.617A5.626 5.626 0 0012.8 9.431h-.022a5.625 5.625 0 00-5.617 5.616 5.625 5.625 0 005.617 5.617h.022zm.002 1.7c4.023-.015 7.291-3.291 7.291-7.317 0-4.025-3.268-7.302-7.29-7.316h-.026c-4.034 0-7.317 3.282-7.317 7.316s3.283 7.317 7.317 7.317h.025z" />
        <path d="M15.497 13.392h0L12.2 16.688h0l-.712.712-.003.002h0l-.005.001h-.005l-.001-.001s-.002 0-.003-.002c0 0 0 0 0 0l-1.53-1.531h0l-.003-.004v-.004-.005l.003-.004h0l.003-.002H9.954l.003.003.601-.601-.6.6.922.923.6.6.602-.6 3.398-3.398h0l.004-.003h0l.004-.001h.005l.003.003h0l.003.004h0V13.389h0l-.002.003z" stroke-width="1.7" />
    </symbol>
    <symbol id="icon-free-box" viewBox="0 0 24 24">
        <path fill-rule="evenodd" clip-rule="evenodd" d="M4.07 18.83v-5.27h1.56v5.27c0 .05.03.1.07.12l6.53 3.47c.04.03.1.03.13 0l6.53-3.47a.14.14 0 00.08-.12v-5.27h1.56v5.27c0 .63-.35 1.2-.9 1.5l-6.54 3.47c-.5.27-1.09.27-1.59 0l-6.53-3.47a1.7 1.7 0 01-.9-1.5z" />
        <path fill-rule="evenodd" clip-rule="evenodd" d="M1.07 10.99L6.95 7.7l.76 1.36-4.66 2.6 7.04 3.88 1.94-1.2c.27-.17.6-.16.86.02l1.64 1.16 7.01-3.86-4.45-2.5.76-1.36L23.53 11a.78.78 0 010 1.36l-8.67 4.78a.78.78 0 01-.83-.05l-1.62-1.14-1.89 1.17a.78.78 0 01-.78.02l-8.67-4.78a.78.78 0 010-1.36z" />
        <path fill-rule="evenodd" clip-rule="evenodd" d="M12.36 1.56a5.06 5.06 0 100 10.13 5.06 5.06 0 000-10.13zM5.74 6.62a6.62 6.62 0 1113.24 0 6.62 6.62 0 01-13.24 0z" fill="#FED700" />
        <path fill-rule="evenodd" clip-rule="evenodd" d="M13.12 9.82h-.2v.69h-1.28v-.7h-1.59V8.56h.44V4.73h-.44V3.46h1.59v-.69h1.29v.7a1.84 1.84 0 011.8 1.8c0 .37-.1.72-.3 1l.13.13c.39.38.6.88.6 1.41 0 1.1-.92 2-2.04 2zm-.2-4.08c.3 0 .56-.23.56-.51a.49.49 0 00-.17-.36.59.59 0 00-.4-.15h-1.14v1.02h1.14zM11.76 7.1h1.3c.2 0 .39.08.53.23.14.15.22.34.22.54 0 .42-.33.77-.74.77h-1.3V7.1z" fill="#FED700" />
    </symbol>
    <symbol id="icon-transactions" viewBox="0 0 25 18">
        <path fill-rule="evenodd" clip-rule="evenodd" d="M16.67 12.66a.92.92 0 000 1.85h3.6a.92.92 0 000-1.85h-3.6z" />
        <path fill-rule="evenodd" clip-rule="evenodd" d="M3 1.7h19c.72 0 1.3.58 1.3 1.3v2.83H1.7V3c0-.72.58-1.3 1.3-1.3zM1.7 7.53V15c0 .72.58 1.3 1.3 1.3h19c.72 0 1.3-.58 1.3-1.3V7.53H1.7zM0 3a3 3 0 013-3h19a3 3 0 013 3v12a3 3 0 01-3 3H3a3 3 0 01-3-3V3z" />
    </symbol>
    <symbol id="icon-sessions" viewBox="0 0 24 17">
        <path fill-rule="evenodd" clip-rule="evenodd" d="M23.0012 1.44912C23.0012 1.91856 22.6206 2.29912 22.1512 2.29912H6.77627C6.30683 2.29912 5.92627 1.91856 5.92627 1.44912C5.92627 0.979679 6.30683 0.599121 6.77627 0.599121H22.1512C22.6206 0.599121 23.0012 0.979679 23.0012 1.44912Z" />
        <path fill-rule="evenodd" clip-rule="evenodd" d="M23.0012 8.47988C23.0012 8.94932 22.6206 9.32988 22.1512 9.32988H6.77627C6.30683 9.32988 5.92627 8.94932 5.92627 8.47988C5.92627 8.01044 6.30683 7.62988 6.77627 7.62988H22.1512C22.6206 7.62988 23.0012 8.01044 23.0012 8.47988Z" />
        <path fill-rule="evenodd" clip-rule="evenodd" d="M23.0012 15.5109C23.0012 15.9803 22.6206 16.3609 22.1512 16.3609H6.77627C6.30683 16.3609 5.92627 15.9803 5.92627 15.5109C5.92627 15.0414 6.30683 14.6609 6.77627 14.6609H22.1512C22.6206 14.6609 23.0012 15.0414 23.0012 15.5109Z" />
        <circle cx="1.50758" cy="1.50661" r="1.50661" />
        <circle cx="1.50758" cy="8.49782" r="1.50661" />
        <circle cx="1.50758" cy="15.489" r="1.50661" />
    </symbol>
    <symbol id="icon-rating" viewBox="0 0 19 19">
        <path d="M13.1 3.01a.56.56 0 00-.45-.4l-2.1-.3L9.63.31a.55.55 0 00-.5-.32c-.2 0-.4.13-.5.32L7.7 2.3l-2.09.32a.56.56 0 00-.45.4.6.6 0 00.14.59l1.52 1.54-.36 2.17a.6.6 0 00.22.57.54.54 0 00.59.04l1.87-1.02L11 7.93c.08.05.17.07.25.07.31 0 .56-.26.56-.58a.6.6 0 00-.01-.13l-.36-2.14 1.52-1.54a.6.6 0 00.14-.6zM5.64 11.03c0-1.1.9-2 2-2h3.1a2 2 0 012 2v7.03h-7.1v-7.03zM13.74 12.9h2.51a2 2 0 012 2v3.16h-4.51V12.9zM.13 13.61c0-1.1.9-2 2-2h2.51v6.45H.13v-4.45z" />
    </symbol>
    <symbol id="icon-account" viewBox="0 0 25 25">
        <path fill-rule="evenodd" clip-rule="evenodd" d="M12.5 13.52a3.2 3.2 0 100-6.39 3.2 3.2 0 000 6.39zm4.9-3.2a4.9 4.9 0 11-9.79 0 4.9 4.9 0 019.78 0z" />
        <path fill-rule="evenodd" clip-rule="evenodd" d="M12.5 23.3a10.8 10.8 0 100-21.6 10.8 10.8 0 000 21.6zM25 12.5a12.5 12.5 0 11-25 0 12.5 12.5 0 0125 0z" />
        <path fill-rule="evenodd" clip-rule="evenodd" d="M18.67 21.06a.8.8 0 00-.1-1.29A11.3 11.3 0 0012.5 18c-2.24 0-4.32.65-6.06 1.75a.8.8 0 00-.1 1.28l.01.02a9.51 9.51 0 006.17 2.25c2.34 0 4.47-.83 6.12-2.21l.04-.03zM5.22 22.33a2.5 2.5 0 01.3-4.01 13 13 0 016.97-2.02 13 13 0 017 2.04 2.5 2.5 0 01.28 4.02l-.05.03a11.21 11.21 0 01-7.2 2.61c-2.78 0-5.32-1-7.27-2.65l-.03-.02z" />
    </symbol>
    <symbol id="icon-cashback" viewBox="0 0 25 24">
        <path d="M12.25 18.71h1.21v-1.48c1.9-.17 3.24-1.26 3.24-2.9 0-1.63-.97-2.55-3.25-3.12V8.36c.7.15 1.38.47 2.04.96l.84-1.4a5.9 5.9 0 00-2.87-1.15v-.9h-1.21v.87c-1.88.15-3.2 1.25-3.2 2.87 0 1.7 1.02 2.53 3.21 3.1v2.94a5.45 5.45 0 01-2.64-1.29l-.96 1.37a7.12 7.12 0 003.59 1.48v1.5zm.01-7.81c-1.15-.35-1.44-.75-1.44-1.37 0-.69.5-1.2 1.44-1.27v2.64zm1.19 4.81V13c1.17.34 1.48.75 1.48 1.4 0 .76-.54 1.24-1.48 1.31z" />
        <path fill-rule="evenodd" clip-rule="evenodd" d="M5.1 3.67A11.6 11.6 0 002.6 17.86l-.98-.15a.85.85 0 00-.25 1.68l2.85.43c.42.06.82-.2.94-.6l.75-2.54a.85.85 0 10-1.64-.48l-.22.77A9.9 9.9 0 0118.33 4.15c.39.26.92.21 1.22-.15a.8.8 0 00-.15-1.18 11.6 11.6 0 00-14.3.85zm15.07 17.06A11.6 11.6 0 0022.7 6.55l.97.14a.85.85 0 00.26-1.68l-2.85-.43a.85.85 0 00-.94.6l-.75 2.55a.85.85 0 001.63.48l.23-.77A9.9 9.9 0 016.99 20.28a.91.91 0 00-1.21.17.8.8 0 00.15 1.17 11.6 11.6 0 0014.24-.89z" />
    </symbol>
    <symbol id="icon-vault" viewBox="0 0 23 23">
        <path fill-rule="evenodd" clip-rule="evenodd" d="M16.23 14.92a5.66 5.66 0 00-.08-6.67l1.34-1.35-1.27-1.27-1.36 1.36a5.66 5.66 0 00-6.56 0L7.1 5.8 5.84 7.07 7 8.24a5.66 5.66 0 00-.08 6.68l-1.3 1.3 1.27 1.27 1.29-1.28a5.66 5.66 0 006.78 0l1.46 1.45 1.27-1.27-1.47-1.47zm-4.65.6a3.89 3.89 0 100-7.77 3.89 3.89 0 000 7.78z" />
        <path fill-rule="evenodd" clip-rule="evenodd" d="M5.63 0A5.63 5.63 0 000 5.63v11.74C0 20.47 2.52 23 5.63 23h11.74c3.1 0 5.63-2.52 5.63-5.63V5.63C23 2.53 20.48 0 17.37 0H5.63zm11.74 1.8H5.63A3.83 3.83 0 001.8 5.63v11.74a3.83 3.83 0 003.83 3.83h11.74a3.83 3.83 0 003.83-3.83V5.63a3.83 3.83 0 00-3.83-3.83z" />
    </symbol>
    <symbol id="icon-referral" viewBox="0 0 26 21">
        <path fill-rule="evenodd" clip-rule="evenodd" d="M4.57 5.822a3.78 3.78 0 117.559 0 3.78 3.78 0 01-7.56 0zM8.35.342a5.48 5.48 0 00-3.29 9.863 7.797 7.797 0 00-4.783 7.191v1.315a1.85 1.85 0 001.85 1.85h9.855v-.006c.048.004.096.006.145.006h11.889a1.85 1.85 0 001.85-1.85v-1.315a7.794 7.794 0 00-4.334-6.986 5.48 5.48 0 10-8.09-6.615A5.482 5.482 0 008.349.343zm6.83 9.814a5.495 5.495 0 01-1.738-2.307 5.499 5.499 0 01-2.017 2.509c.594.284 1.147.64 1.646 1.059a7.792 7.792 0 012.11-1.261zm-3.29 2.49a6.094 6.094 0 00-9.914 4.75v1.315c0 .083.068.15.15.15h8.157c-.004-.05-.006-.1-.006-.15v-1.315a7.76 7.76 0 011.614-4.75zm6.644-10.603a3.78 3.78 0 100 7.559 3.78 3.78 0 000-7.56zm-6.557 15.353a6.094 6.094 0 1112.189 0v1.315a.15.15 0 01-.15.15h-11.89a.15.15 0 01-.15-.15v-1.315z" />
    </symbol>
    <symbol id="icon-promotions" viewBox="0 0 26 26">
        <path fill-rule="evenodd" clip-rule="evenodd" d="M16 3.01l-1.62-.9a3.3 3.3 0 00-3.2 0l-1.62.9a6.7 6.7 0 01-1.4.59l-1.79.5a3.3 3.3 0 00-2.26 2.27L3.6 8.15c-.14.5-.34.96-.59 1.41l-.9 1.62a3.3 3.3 0 000 3.2l.9 1.62c.25.45.45.92.59 1.41l.5 1.78a3.3 3.3 0 002.27 2.27l1.78.5c.5.14.96.34 1.41.59l1.62.9c1 .55 2.2.55 3.2 0l1.62-.9a6.7 6.7 0 011.41-.59l1.78-.5a3.3 3.3 0 002.27-2.27l.5-1.78c.14-.49.34-.96.59-1.4l.9-1.63c.55-1 .55-2.2 0-3.2l-.9-1.62a6.7 6.7 0 01-.59-1.4l-.5-1.79a3.3 3.3 0 00-2.27-2.26l-1.78-.51a6.7 6.7 0 01-1.4-.59zM15.2.63a5 5 0 00-4.85 0l-1.61.9a5 5 0 01-1.06.43l-1.78.51A5 5 0 002.47 5.9l-.5 1.78a5 5 0 01-.44 1.06l-.9 1.61a5 5 0 000 4.86l.9 1.62a5 5 0 01.43 1.05l.51 1.78a5 5 0 003.43 3.43l1.78.5a5 5 0 011.06.44l1.61.9a5 5 0 004.86 0l1.62-.9a5 5 0 011.05-.43l1.78-.51a5 5 0 003.43-3.43l.5-1.78a5 5 0 01.44-1.05l.9-1.62a5 5 0 000-4.86l-.9-1.61a5 5 0 01-.43-1.06l-.51-1.78a5 5 0 00-3.43-3.43l-1.78-.5a5 5 0 01-1.05-.44L15.2.63z" />
        <path fill-rule="evenodd" clip-rule="evenodd" d="M7.72 16.97l9.24-9.23a.87.87 0 111.23 1.23L8.95 18.2a.87.87 0 11-1.23-1.24zM9.3 9.77a.48.48 0 100-.95.48.48 0 000 .95zm0 1.7a2.18 2.18 0 100-4.35 2.18 2.18 0 000 4.35zM16.26 16.74a.48.48 0 100-.95.48.48 0 000 .95zm0 1.7a2.18 2.18 0 100-4.35 2.18 2.18 0 000 4.35z" />
    </symbol>
    <symbol id="icon-bonuses" viewBox="0 0 26 27">
        <path fill-rule="evenodd" clip-rule="evenodd" d="M15 4.53c0-1.92 2.24-2.8 3.5-1.5.39.4.6.93.6 1.5a2.1 2.1 0 01-1.91 2.12H15V4.53zm4.71-2.7c-2.37-2.42-6.41-.67-6.41 2.7v2.14h-.27V4.53A3.8 3.8 0 009.28.71a3.79 3.79 0 00-3.76 3.82c0 .79.24 1.52.65 2.14H2.92a2.49 2.49 0 00-2.5 2.49v2.1c0 1.12.74 2.07 1.75 2.38v10.28a2.49 2.49 0 002.49 2.5h17a2.49 2.49 0 002.5-2.5V13.64c1-.31 1.73-1.26 1.73-2.37V9.16a2.49 2.49 0 00-2.48-2.5h-3.25a3.86 3.86 0 00-.45-4.82zM3.87 23.94V13.75h5.75V24.7H4.66a.79.79 0 01-.8-.79zm12.83.78h4.96c.44 0 .8-.35.8-.79V13.76H16.7V24.7zM15 13.76h-3.68V24.7H15V13.76zM7.22 4.53c0-1.2.94-2.12 2.06-2.12a2.1 2.1 0 012.05 2.12v2.12H9.28a2.1 2.1 0 01-2.06-2.12zm-4.3 3.84a.79.79 0 00-.8.79v2.1c0 .45.36.8.8.8H23.4c.43 0 .78-.35.78-.8v-2.1a.79.79 0 00-.78-.8H2.9z" />
    </symbol>
    <symbol id="icon-news" viewBox="0 0 27 25">
        <path fill-rule="evenodd" clip-rule="evenodd" d="M7.9.71a2.85 2.85 0 00-2.86 2.85v12.7H2.28c-1.02 0-1.85.83-1.85 1.85v4.34c0 .98.79 1.77 1.76 1.77h21.09a2.85 2.85 0 002.85-2.85V3.57A2.85 2.85 0 0023.28.7H7.89zM6.2 22.51h17.07c.63 0 1.15-.5 1.15-1.14V3.57c0-.64-.52-1.16-1.15-1.16H7.89c-.63 0-1.15.52-1.15 1.15V17.2h-.01v3.48c0 .68-.19 1.31-.52 1.85zm-4.08-4.4c0-.08.06-.15.15-.15h2.75v2.71c0 1.02-.83 1.85-1.85 1.85H2.2a.07.07 0 01-.06-.07v-4.34z" />
        <path fill-rule="evenodd" clip-rule="evenodd" d="M13.95 6.8h-3.37a.3.3 0 00-.3.3v3.38c0 .16.13.3.3.3h3.37a.3.3 0 00.3-.3V7.1a.3.3 0 00-.3-.3zm-3.37-1.7a2 2 0 00-2 2v3.38c0 1.1.9 2 2 2h3.37a2 2 0 002-2V7.1a2 2 0 00-2-2h-3.37z" />
        <rect x=".42" y="-.42" width="13.95" height=".85" rx=".42" transform="matrix(1 0 0 -1 8.42 19.46)" stroke-width=".85" />
        <rect x=".42" y="-.42" width="13.95" height=".85" rx=".42" transform="matrix(1 0 0 -1 8.42 15.89)" stroke-width=".85" />
    </symbol>
    <symbol id="icon-dividends" viewBox="0 0 26 24">
        <path fill-rule="evenodd" clip-rule="evenodd" d="M14.39 18.21a2.4 2.4 0 100-4.8 2.4 2.4 0 000 4.8zm0 1.7a4.1 4.1 0 100-8.2 4.1 4.1 0 000 8.2zM21.19 15.75a.06.06 0 100 .11.06.06 0 000-.11zm0 1.7a1.64 1.64 0 100-3.29 1.64 1.64 0 000 3.29zM7.51 15.75a.06.06 0 100 .11.06.06 0 000-.11zm0 1.7a1.64 1.64 0 100-3.29 1.64 1.64 0 000 3.29z" />
        <path fill-rule="evenodd" clip-rule="evenodd" d="M2.87 5.21a3.6 3.6 0 00-2.4 4.47l2.76 9.73v.78a3 3 0 003 3H22.4a3 3 0 003-3v-8.77c0-.6-.18-1.16-.48-1.63L23.24 2.8A3.6 3.6 0 0018.76.43L2.87 5.21zm20.05 3.26l-1.2-5.2a2 2 0 00-2.5-1.32L3.32 6.73a2 2 0 00-1.34 2.5l1.25 4.88v-2.69a3 3 0 013-3H22.4c.18 0 .36.02.53.05zM6.23 10.12H22.4c.72 0 1.3.58 1.3 1.3v8.77c0 .72-.58 1.3-1.3 1.3H6.23a1.3 1.3 0 01-1.3-1.3v-8.77c0-.72.58-1.3 1.3-1.3z" />
    </symbol>
    <symbol id="icon-about-bfg" viewBox="0 0 28 22">
        <path d="M14.7 5.47c-6.1 0-8.7 3.9-8.7 3.9.37-.13.77-.16 1.15-.1 0 0-2.27 2.3-3.4 5.4 0 0 2.81-.33 5.15 1.15-.57-4.86 3.9-6.6 5.53-5.45-.22-.64-1-1.68-3.06-1.23 1.83-1.9 5.47-1.08 7.33 1.22.13-.36.21-.73.25-1.11 0 0 1.06.55 1.36 1.44.07-.59.55-1.3.55-1.3s.4.52.66 1.41a1.81 1.81 0 011.72-.72s-2.43-4.6-8.54-4.6zM21.88 11.63c.33-.75.95-.78.95-.78-.05.47-.19.93-.42 1.34-.14-.22-.32-.4-.53-.56z" />
        <path d="M15.46 12.43c3.57.65 3.92 4.79 5.98 4.79 1.25 0 1.7-.73 1.7-.73-.8.1-1.39-.6-1.43-1.08-.04-.48.06-1.1.06-1.1s1.1.05 1.57.41c.43-.25 1-.3 1-.3s-.6-.93-2.13-1.38c-.2.45-.69.86-.69.86s-.97-1.53-3.3-2.09c.16.31.27.65.3 1 0 0-1.08-.86-3.06-.38z" />
        <path d="M15.33 14.36c-.42-.47-.33-.93-.33-.93s.2-.21.81-.21c1.3 0 2.46 2.3 3.5 3.27-1.49-.52-4.16 1.03-4.66-1.85.46.81 1.1.82 1.1.82-.09-.21-.12-.44-.1-.67.4.43 1.2.44 1.2.44a3.73 3.73 0 01-1.17-1.64c-.3.3-.35.77-.35.77z" />
        <path d="M14.98 12.63c-2.03.64-.85 4.78 1.88 4.46 2.73-.32 3.9.5 4.39 1.74a4.7 4.7 0 00-2.54-.74 1.51 1.51 0 01.87 1.08 2.62 2.62 0 00-1.82-.72c-1.46 0-2.96.54-4.2 0-1.34-1.8-.8-3.6-.8-3.6-.58.32-.7.97-.7.97s-.4-3.22 2.92-3.19zM15.15 9.35a7.38 7.38 0 001.04 1.75s.68.1 1.3-.19c0 0-.66-1.14-2.34-1.56z" />
        <path fill-rule="evenodd" clip-rule="evenodd" d="M20.58 0l.37.36c.5.47.93 1 1.31 1.56v.01h.01a10.53 10.53 0 01.78 1.54 9.3 9.3 0 01.6 2.75l.42.38a7.32 7.32 0 011.4 1.88c.2.36.35.73.47 1.12l.09.3-.07.3-.16.68-.2.69-.16.44a7.85 7.85 0 01.83.78l.22.26a6.57 6.57 0 011.21 2.22c.09.27.16.54.21.82v.01a6.18 6.18 0 01.08.66l.01.13v1.13l-.95.15a8.3 8.3 0 00-2.98 1.13l-.3.19a.8.8 0 01-1.06-.14.7.7 0 01.12-1 8.9 8.9 0 011.6-.9 9.8 9.8 0 012.09-.68 6.59 6.59 0 00-.06-.4c-.04-.23-.1-.44-.16-.65a5.1 5.1 0 00-.95-1.74v-.01h-.01a3.4 3.4 0 00-.15-.18l-.07-.08a6.4 6.4 0 00-.98-.85l-.5-.35.24-.55a9.9 9.9 0 00.63-2 5.3 5.3 0 00-.84-1.6A6.49 6.49 0 0022.5 7.2l-.31-.24V6.6 6.45a7.68 7.68 0 00-.12-1.07M20.58 0c-.37.18-1.47.74-1.82.96a11.12 11.12 0 00-1.86 1.55l-.37.4a28.61 28.61 0 00-1.33-.02c-.65 0-1.45.04-2.14.16-.4.07-.6.48-.48.87.13.38.55.6.95.54.5-.06 1.1-.1 1.69-.1a26.56 26.56 0 011.57.03h.03l.38.03.25-.3.15-.19v-.01a8.84 8.84 0 012.68-2.14 8.51 8.51 0 011.1 1.57 7.84 7.84 0 01.68 2.04" />
        <path d="M23.2 10l-.06-.1.05.1zM23.2 10.03V10v.03zM23.22 10.04l-.01-.01v.01zM23.23 10.08l-.02-.04.02.04z" />
        <path fill-rule="evenodd" clip-rule="evenodd" d="M7.79.35h.01l.03.01a4.39 4.39 0 01.45.21 9.9 9.9 0 013.6 3.17.7.7 0 01-.25.99.8.8 0 01-1.04-.25 8.44 8.44 0 00-2.97-2.6c-.39.32-.72.7-.99 1.12-.3.49-.55 1-.73 1.56a10.17 10.17 0 00-.54 3v.58l-.28.22a49.12 49.12 0 01-.18.15l-.34.3c-.23.2-.44.42-.65.64-.2.22-.4.45-.57.68l-.2.28 1.3-.1-.76 1.24a14.64 14.64 0 00-1.88 4.5 17.15 17.15 0 015.87.96 15.84 15.84 0 014.27 2.26c.25.19.49.39.72.6a.7.7 0 01-.01 1.02.79.79 0 01-1.06 0 12.7 12.7 0 00-1.75-1.26 14.37 14.37 0 00-5.48-1.92c-.96-.14-1.94-.2-2.91-.19H0l.28-1.41A16.81 16.81 0 011.73 12l-1.05.07.88-1.84c.17-.34.37-.67.6-.98a9.53 9.53 0 011.4-1.52l.33-.3.03-.42A11.65 11.65 0 014.5 4.1c.22-.67.52-1.3.9-1.89.39-.62.9-1.17 1.48-1.62L7.4.2l.39.16z" />
    </symbol>
    <symbol id="icon-live-casino" viewBox="0 0 25 31">
        <path d="M16.12 22.87l-3.3 2.59a.52.52 0 01-.63 0l-3.3-2.6a.43.43 0 01-.04-.62l.24-.3c.14-.19.39-.26.6-.18 1.82.69 3.83.69 5.63 0 .22-.08.46 0 .6.19l.24.28c.18.18.16.48-.04.64zm1.9.02a.52.52 0 00-.35.1l-4.84 3.8a.52.52 0 01-.64 0L7.34 23a.52.52 0 00-.35-.1 5.44 5.44 0 00-5.08 5.46v1.15c0 .29.23.53.52.53h20.16c.29 0 .52-.24.52-.53v-1.15c0-2.92-2.25-5.3-5.08-5.46zm.61-13.02c-.27.04-.8.05-1.3-.26-.98-.6-.7-1.62-.7-1.64 0-.44-.5-.69-.84-.42-2.83 2.2-6 3.07-9.4 2.61a.53.53 0 00-.6.53v3.43c0 3.91 2.86 6.8 6.72 6.8s6.71-2.89 6.71-6.8V10.4a.53.53 0 00-.59-.53z" />
        <path d="M7.74 1.17A8.58 8.58 0 0112.48.1c1.33 0 2.93.01 4.74 1.07 4.4 2.57 5.91 7.7 6.48 12.11.6 4.77.33 7.36-.44 9.06-.37.8-1.34 1.03-2.16.7l-4.03-1.66c-.24-.1-.26-.42-.05-.56a8.31 8.31 0 003.47-7V9.23c0-.4-.33-.7-.7-.65-.33.04-.96.06-1.56-.32-1.17-.74-.83-2-.83-2.02 0-.54-.6-.85-1-.52A14.29 14.29 0 015.17 8.94a.63.63 0 00-.71.65v4.22a8.31 8.31 0 003.47 7.01c.2.14.18.47-.05.56l-4.03 1.66c-.82.33-1.8.1-2.16-.7-.78-1.7-1.05-4.3-.44-9.06.56-4.41 2.08-9.54 6.48-12.11z" />
    </symbol>
    <symbol id="icon-table-games" viewBox="0 0 27 28">
        <path d="M26.4134 7.53986L22.6511 6.53174V19.5307C22.6511 20.6226 21.9095 21.5441 20.9038 21.8194L21.002 22.1859C21.3415 23.4528 20.5908 24.7528 19.324 25.0923L16.5562 25.8339L21.1797 27.0727C21.6017 27.1858 22.0354 26.9354 22.1485 26.5134L26.9728 8.50864C27.0858 8.08672 26.8354 7.65298 26.4134 7.53986Z" />
        <path d="M19.4739 22.5955L19.2886 21.9039H6.72185C5.41335 21.9039 4.3488 20.8393 4.3488 19.5308V6.53186L0.586469 7.53998C0.164488 7.65305 -0.0859472 8.08679 0.0271153 8.50877L4.85141 26.5135C4.96448 26.9355 5.39822 27.1859 5.8202 27.0729L18.9145 23.5643C19.3365 23.4512 19.5869 23.0174 19.4739 22.5955Z" />
        <path d="M6.72183 20.3219H20.278C20.7149 20.3219 21.0691 19.9677 21.0691 19.5309V0.890991C21.0691 0.45414 20.7149 0.0999756 20.278 0.0999756H6.72183C6.28498 0.0999756 5.93082 0.45414 5.93082 0.890991V19.5309C5.93082 19.9677 6.28498 20.3219 6.72183 20.3219ZM15.8779 15.5825L16.7251 14.7352C17.034 14.4263 17.5349 14.4263 17.8437 14.7352C17.8437 14.7352 18.691 15.5824 18.6911 15.5825C19 15.8914 19 16.3922 18.6911 16.7011C18.3821 17.01 17.8813 17.01 17.5725 16.7011L17.2845 16.4131L16.9965 16.7011C16.6876 17.01 16.1868 17.01 15.8779 16.7011C15.569 16.3922 15.569 15.8914 15.8779 15.5825ZM8.30877 3.72072C8.61769 3.4118 9.1185 3.4118 9.42737 3.72072L9.71535 4.0087L10.0033 3.72077C10.3122 3.41185 10.813 3.41185 11.1219 3.72077C11.4308 4.02969 11.4308 4.53051 11.1219 4.83937C11.1218 4.83948 10.2745 5.68666 10.2745 5.68666C9.96563 5.99557 9.46481 5.99557 9.15595 5.68666L8.30877 4.83937C7.9999 4.53045 7.9999 4.02964 8.30877 3.72072Z" />
    </symbol>
    <symbol id="icon-slots" viewBox="0 0 28 20">
        <path d="M22.06 2.13v2.55l-.85 1.06h2.88C21.74 8.2 18.9 13.13 18.9 17.4h5.06c0-4.07 1.68-8.86 4.03-11.81V2.13h-5.94zM0 2.13H5.94v3.61H4.09v.98H0V2.13zM8.7 17.4H3.63c0-3.7 2.11-7.9 4.2-10.54h3.99A20.95 20.95 0 008.69 17.4z" />
        <path d="M12.37.43h-5.6v5.61h4.61v-1.2h5.34c-2.65 3-5.84 9.03-5.84 14.26h5.7c0-4.98 1.9-10.84 4.55-14.44V.43h-8.76z" />
    </symbol>
    <symbol id="icon-inhouse" viewBox="0 0 27 28">
        <path fill-rule="evenodd" clip-rule="evenodd" d="M2.95 14.61v10.8c0 1.1.9 2 2 2h3.41a3.98 3.98 0 01-.81-2.42v-9.37a4 4 0 014-4h9.37a4 4 0 013.87 3h.4a1.8 1.8 0 001.26-3.1L15.43.88a2.77 2.77 0 00-3.86 0L.55 11.52a1.8 1.8 0 001.25 3.1h1.15z" />
        <path fill-rule="evenodd" clip-rule="evenodd" d="M20.86 12.75a3 3 0 013 3v9.16a3 3 0 01-3 3h-9.17a3 3 0 01-3-3v-9.16a3 3 0 013-3h9.17zm-3.3 10.5a1.73 1.73 0 113.47 0 1.73 1.73 0 01-3.47 0zm1.74-7.51a1.73 1.73 0 100 3.47 1.73 1.73 0 000-3.47zm-7.51 7.5a1.73 1.73 0 113.47.01 1.73 1.73 0 01-3.47 0zm1.73-7.5a1.73 1.73 0 100 3.47 1.73 1.73 0 000-3.47z" />
    </symbol>
    <symbol id="icon-eye" viewBox="0 0 17 13">
        <path fill-rule="evenodd" clip-rule="evenodd" d="M5.22748 6.42039C5.22748 4.68507 6.63716 3.27539 8.37248 3.27539C10.1078 3.27539 11.5175 4.68507 11.5175 6.42039C11.5175 8.15571 10.1078 9.56539 8.37248 9.56539C6.63716 9.56539 5.22748 8.15571 5.22748 6.42039ZM6.67248 6.42039C6.67248 5.48312 7.43521 4.72039 8.37248 4.72039C9.30974 4.72039 10.0725 5.48312 10.0725 6.42039C10.0725 7.35766 9.30974 8.12039 8.37248 8.12039C7.43521 8.12039 6.67248 7.35766 6.67248 6.42039Z" />
        <path fill-rule="evenodd" clip-rule="evenodd" d="M14.2684 2.63469C15.6821 3.88393 16.54 5.26202 16.8092 5.73055L16.8099 5.73163L16.8105 5.73271C17.063 6.17608 17.063 6.71905 16.8105 7.16242L16.8099 7.16335L16.8094 7.16428C16.4551 7.78164 15.6155 9.09437 14.2864 10.2737C12.9542 11.4557 11.0976 12.5311 8.72918 12.5915L8.72826 12.5915C8.65802 12.5932 8.58842 12.5941 8.51949 12.5941C6.00583 12.5941 4.04012 11.4333 2.66246 10.1993C1.28677 8.96702 0.455642 7.62624 0.190433 7.16444L0.189854 7.16343L0.189278 7.16242C-0.0632554 6.71905 -0.0632554 6.17608 0.189278 5.73271L0.189809 5.73178L0.190343 5.73085C0.54466 5.11349 1.3843 3.80076 2.71339 2.62145C4.04518 1.43975 5.90118 0.364629 8.26868 0.303685C10.8343 0.224015 12.8527 1.38367 14.2684 2.63469ZM13.401 3.6163C12.1375 2.4998 10.4302 1.54667 8.30776 1.61307L8.30587 1.61313L8.30398 1.61318C6.33645 1.66337 4.76363 2.55356 3.58282 3.6013C2.39989 4.65092 1.64332 5.83109 1.32723 6.38162C1.30406 6.42277 1.30405 6.47234 1.32722 6.51349C1.55721 6.91374 2.30654 8.1218 3.53648 9.22351C4.76591 10.3247 6.43361 11.2841 8.51949 11.2841C8.57742 11.2841 8.63625 11.2834 8.696 11.2819C10.6634 11.2317 12.2362 10.3415 13.4169 9.29383C14.5998 8.24425 15.3564 7.06413 15.6725 6.51356C15.6957 6.47244 15.6957 6.42288 15.6726 6.38173C15.4395 5.97633 14.6652 4.73351 13.401 3.6163Z" />
    </symbol>
    <symbol id="icon-eye-off" viewBox="0 0 17 13">
        <path fill-rule="evenodd" clip-rule="evenodd" d="M5.48596 6.27621C5.48596 4.61311 6.83687 3.26221 8.49996 3.26221C10.1631 3.26221 11.514 4.61311 11.514 6.27621C11.514 7.9393 10.1631 9.29021 8.49996 9.29021C6.83687 9.29021 5.48596 7.9393 5.48596 6.27621ZM6.93096 6.27621C6.93096 5.41117 7.63492 4.70721 8.49996 4.70721C9.36501 4.70721 10.069 5.41117 10.069 6.27621C10.069 7.14125 9.36501 7.84521 8.49996 7.84521C7.63492 7.84521 6.93096 7.14125 6.93096 6.27621Z" />
        <path fill-rule="evenodd" clip-rule="evenodd" d="M14.2685 2.46477C15.6822 3.71401 16.5401 5.09209 16.8094 5.56062L16.81 5.56171L16.8106 5.56279C17.0631 6.00616 17.0631 6.54913 16.8106 6.9925L16.8101 6.99343L16.8095 6.99436C16.4552 7.61171 15.6156 8.92445 14.2865 10.1038C12.9543 11.2858 11.0977 12.3612 8.7293 12.4216L8.72838 12.4216C8.65814 12.4233 8.58855 12.4241 8.51961 12.4241C6.00596 12.4241 4.04024 11.2634 2.66258 10.0293C1.28689 8.79709 0.455764 7.45631 0.190555 6.99451L0.189976 6.99351L0.1894 6.9925C-0.0631334 6.54913 -0.0631334 6.00616 0.1894 5.56279L0.189931 5.56186L0.190465 5.56093C0.544782 4.94357 1.38442 3.63084 2.71352 2.45152C4.0453 1.26983 5.9013 0.194708 8.2688 0.133763C10.8344 0.0540927 12.8529 1.21375 14.2685 2.46477ZM13.4011 3.44638C12.1376 2.32988 10.4303 1.37675 8.30788 1.44315L8.30599 1.44321L8.3041 1.44326C6.33657 1.49345 4.76376 2.38364 3.58294 3.43138C2.40001 4.481 1.64345 5.66116 1.32736 6.2117C1.30418 6.25285 1.30417 6.30242 1.32734 6.34356C1.55734 6.74382 2.30666 7.95188 3.5366 9.05358C4.76603 10.1548 6.43374 11.1142 8.51961 11.1142C8.57754 11.1142 8.63637 11.1135 8.69612 11.112C10.6635 11.0618 12.2363 10.1716 13.4171 9.12391C14.5999 8.07433 15.3565 6.8942 15.6726 6.34364C15.6958 6.30251 15.6958 6.25296 15.6727 6.21181C15.4396 5.80641 14.6653 4.56358 13.4011 3.44638Z" />
        <rect x="2.224" y="0.943359" width="1.33365" height="16.4745" rx="0.666826" transform="rotate(-45 2.224 0.943359)" />
    </symbol>
    <symbol id="icon-email" viewBox="0 0 512 512">
        <path d="M470 66H42C19 66 0 85 0 108v296c0 23 19 42 42 42h428c23 0 42-19 42-42V108c0-23-19-42-42-42zm6 338c0 3-3 6-6 6H42c-3 0-6-3-6-6V172l208 122c5 3 12 3 18 0l214-123v233zm0-274L253 257 36 130v-22c0-3 3-6 6-6h428c3 0 6 3 6 6v22z" />
    </symbol>
    <symbol id="icon-password" viewBox="0 0 17 17">
        <path d="M11.2936 7.10279C12.065 7.10279 12.6904 6.4774 12.6904 5.70594C12.6904 4.93447 12.065 4.30908 11.2936 4.30908C10.5221 4.30908 9.89673 4.93447 9.89673 5.70594C9.89673 6.4774 10.5221 7.10279 11.2936 7.10279Z" />
        <path fill-rule="evenodd" clip-rule="evenodd" d="M11.1203 1.63461C8.7781 1.63461 6.87512 3.53984 6.87512 5.89536C6.87512 6.36218 6.94962 6.8099 7.0867 7.22812C7.18343 7.52323 7.10455 7.84765 6.88314 8.06541L1.63461 13.2271V15.3654H3.61564V14.5959C3.61564 14.1446 3.98154 13.7786 4.43292 13.7786L5.19748 13.7786V13.0092C5.19748 12.5578 5.5634 12.1919 6.01478 12.1919H6.77932V11.534C6.77932 11.3126 6.86911 11.1007 7.02816 10.9467L8.20417 9.80832C8.45786 9.56273 8.84059 9.50783 9.15309 9.6722C9.74036 9.98108 10.4088 10.1561 11.1203 10.1561C13.4624 10.1561 15.3654 8.25087 15.3654 5.89536C15.3654 3.53984 13.4624 1.63461 11.1203 1.63461ZM5.24051 5.89536C5.24051 2.64181 7.87059 0 11.1203 0C14.3699 0 17 2.64181 17 5.89536C17 9.1489 14.3699 11.7907 11.1203 11.7907C10.3507 11.7907 9.61442 11.6421 8.93939 11.3716L8.41393 11.8803V12.4425C8.41393 13.2045 7.79746 13.8265 7.03168 13.8265H6.83209V14.0292C6.83209 14.7912 6.21563 15.4132 5.44986 15.4132C5.44986 15.4132 5.44985 15.4132 5.44984 15.4132L5.25025 15.4132V15.616C5.25025 16.378 4.63377 17 3.868 17H1.38225C0.616477 17 0 16.378 0 15.616V13.1226C0 12.7563 0.145004 12.4046 0.403966 12.1448L0.409696 12.1391L5.39375 7.23751C5.29343 6.80575 5.24051 6.35633 5.24051 5.89536Z" />
    </symbol>
    <symbol id="icon-hotkeys" viewBox="0 0 20 20">
        <rect x="0.34" width="5.40" height="5.40" rx="0.80" />
        <rect x="0.345" y="7.12" width="5.40" height="5.40" rx="0.804" />
        <rect x="7.29" width="5.40" height="5.40" rx="0.80" />
        <rect x="7.29" y="7.12" width="5.40" height="5.40" rx="0.80" />
        <rect x="14.24" width="5.40" height="5.40" rx="0.804" />
        <rect x="14.24" y="7.12" width="5.40" height="5.40" rx="0.80" />
        <rect x="0.34" y="14.36" width="19.30" height="5.63" rx="0.80" />
    </symbol>
    <symbol id="icon-sound-on" viewBox="0 0 18 17">
        <path d="M10.83.06a.58.58 0 00-.62.07l-5.7 4.55H1.8c-.65 0-1.18.53-1.18 1.18v4.68c0 .65.53 1.17 1.18 1.17h2.72l5.7 4.56a.6.6 0 00.61.07c.2-.1.33-.3.33-.53V.59a.59.59 0 00-.33-.53z" />
        <rect x="13.17" y="4.44" width="1.7" height="7.45" rx=".85" />
        <rect x="17.04" y="2.87" width="1.7" height="10.64" rx=".85" />
    </symbol>
    <symbol id="icon-sound-off" viewBox="0 0 19 17">
        <path d="M13.61.59a.59.59 0 00-.32-.53.57.57 0 00-.62.07L7.48 4.26l6.13 6.14V.59zM16.95 15.39L1.74.17A.59.59 0 00.9 1l3.68 3.68h-.34c-.36 0-.68.17-.89.43-.18.2-.28.46-.28.75v4.68c0 .64.53 1.17 1.17 1.17h2.71l5.7 4.55c.11.08.24.13.37.13a.59.59 0 00.59-.59v-2.1l2.5 2.52a.58.58 0 10.83-.83z" />
    </symbol>
    <symbol id="icon-datepicker" viewBox="0 0 16 16">
        <path d="M2.5 10h1.7c.2 0 .5-.2.5-.5V7.8c0-.2-.3-.5-.5-.5H2.5c-.3 0-.5.3-.5.5v1.7c0 .3.2.5.5.5zM2.5 14h1.7c.2 0 .5-.2.5-.5v-1.7c0-.2-.3-.5-.5-.5H2.5c-.3 0-.5.3-.5.5v1.7c0 .3.2.5.5.5zM7.2 10h1.6c.3 0 .5-.2.5-.5V7.8c0-.2-.2-.5-.5-.5H7.2c-.3 0-.5.3-.5.5v1.7c0 .3.2.5.5.5zM7.2 14h1.6c.3 0 .5-.2.5-.5v-1.7c0-.2-.2-.5-.5-.5H7.2c-.3 0-.5.3-.5.5v1.7c0 .3.2.5.5.5zM11.8 10h1.7c.3 0 .5-.2.5-.5V7.8c0-.2-.2-.5-.5-.5h-1.7c-.2 0-.5.3-.5.5v1.7c0 .3.3.5.5.5z" />
        <path d="M14 2h-.7V.7c0-.4-.3-.7-.6-.7H12c-.4 0-.7.3-.7.7V2H4.7V.7C4.7.3 4.4 0 4 0h-.7c-.3 0-.6.3-.6.7V2H2a2 2 0 00-2 2v10c0 1.1.9 2 2 2h12a2 2 0 002-2V4a2 2 0 00-2-2zm.7 12c0 .4-.3.7-.7.7H2a.7.7 0 01-.7-.7V6.7h13.4V14z" />
    </symbol>
    <symbol id="icon-locked" viewBox="0 0 13 17">
        <path d="M12.4 6.4h-1V5a5 5 0 00-10 0v1.4h-1c-.2 0-.4.1-.4.3v8.9c0 .8.6 1.4 1.4 1.4h10c.7 0 1.3-.6 1.3-1.4V6.7c0-.2-.1-.3-.3-.3zm-5 7.4a.4.4 0 01-.3.4H5.7a.4.4 0 01-.4-.4l.2-2c-.3-.3-.5-.7-.5-1.2a1.4 1.4 0 112.2 1.2l.2 2zm1.8-7.4H3.5V5a2.8 2.8 0 015.7 0v1.4z" />
    </symbol>
    <symbol id="icon-info" viewBox="0 0 5 9">
        <path d="M2.149 2.901h1.079c.26 0 .416.117.416.377 0 .208-.026.43-.065.637L3.15 6.268c-.052.26-.104.52-.13.78-.013.13 0 .26.039.377.039.17.169.26.338.234.143-.013.273-.065.416-.117.104-.039.208-.117.312-.156.156-.065.299.052.247.208a.54.54 0 01-.156.26c-.403.403-.884.65-1.456.65-.273 0-.533 0-.806-.039-.442-.065-1.001-.61-.923-1.183.052-.403.117-.793.182-1.183.117-.689.234-1.378.364-2.067.013-.039.013-.09.013-.13 0-.286-.091-.39-.377-.429-.117-.013-.247-.026-.364-.065-.143-.052-.208-.156-.195-.273.013-.117.091-.195.247-.22.078-.014.169-.014.247-.014h1.001zM2.787.197c.61 0 1.092.494 1.092 1.118 0 .611-.494 1.105-1.092 1.105a1.115 1.115 0 01-1.105-1.118c0-.611.494-1.105 1.105-1.105z" />
    </symbol>
    <symbol id="icon-star-full" viewBox="0 -10 512 511">
        <path d="M510.7 185.9a27.2 27.2 0 00-23.4-18.7l-147.8-13.4L281 17a27.2 27.2 0 00-50 0l-58.4 136.8-147.9 13.4a27.3 27.3 0 00-15.4 47.6l111.7 98-33 145a27.2 27.2 0 0040.6 29.5L256 411l127.4 76.2a27.2 27.2 0 0040.5-29.4l-33-145.1 111.8-98a27.2 27.2 0 008-29zM258.4 409.6" />
    </symbol>
    <symbol id="icon-star" viewBox="0 0 15 15">
        <path d="M3.36 14.7a.8.8 0 01-.78-.98l.97-4.25L.27 6.6a.8.8 0 01.45-1.4l4.33-.39 1.72-4a.8.8 0 011.46 0l1.72 4 4.32.4a.8.8 0 01.46 1.39l-3.28 2.87.97 4.25a.8.8 0 01-1.19.86L7.5 12.35l-3.73 2.23a.8.8 0 01-.41.12zm4.14-3.31a.8.8 0 01.4.11l3.53 2.11-.9-4.01a.8.8 0 01.24-.78l3.1-2.7-4.1-.38a.8.8 0 01-.66-.48L7.5 1.48 5.88 5.26a.8.8 0 01-.66.48l-4.09.37 3.1 2.71c.22.2.31.5.25.78l-.91 4 3.52-2.1a.8.8 0 01.41-.11zm-2.48-6.5zm4.96 0z" />
    </symbol>
    <symbol id="icon-copy" viewBox="0 0 23 25">
        <path d="M16.6137 0H2.97732C1.72732 0 0.70459 1.02273 0.70459 2.27273V18.1818H2.97732V2.27273H16.6137V0ZM20.0228 4.54545H7.52277C6.27277 4.54545 5.25004 5.56818 5.25004 6.81818V22.7273C5.25004 23.9773 6.27277 25 7.52277 25H20.0228C21.2728 25 22.2955 23.9773 22.2955 22.7273V6.81818C22.2955 5.56818 21.2728 4.54545 20.0228 4.54545ZM20.0228 22.7273H7.52277V6.81818H20.0228V22.7273Z" />
    </symbol>
    <symbol id="icon-share" viewBox="0 0 14 14">
        <path d="M13.88 4.07L10.08.13a.44.44 0 00-.75.3v1.9H9.2a5.7 5.7 0 00-5.69 5.7v.87a.43.43 0 00.44.43c.16 0 .32-.1.4-.25a4.78 4.78 0 014.3-2.66h.7v1.9a.44.44 0 00.75.3l3.79-3.94a.44.44 0 000-.6z" />
        <path d="M12.25 14H1.75C.79 14 0 13.21 0 12.25V4.08c0-.96.79-1.75 1.75-1.75H3.5a.58.58 0 110 1.17H1.75a.58.58 0 00-.58.58v8.17c0 .32.26.58.58.58h10.5c.32 0 .58-.26.58-.58V7.58a.58.58 0 111.17 0v4.67c0 .96-.79 1.75-1.75 1.75z" />
    </symbol>
    <symbol id="icon-close" viewBox="0 0 16 16">
        <path d="M9.14 7.99l6.62-6.64A.8.8 0 0014.63.2L8 6.84 1.37.21A.8.8 0 00.24 1.35l6.63 6.64-6.63 6.64a.8.8 0 000 1.14.8.8 0 001.13 0L8 9.1l6.63 6.66a.8.8 0 101.13-1.14L9.14 8z" />
    </symbol>
    <symbol id="icon-fullscreen" viewBox="0 0 16 16">
        <path d="M13.64 2.09H10.6a.22.22 0 00-.16.37l1.15 1.15-7.95 8-1.15-1.15a.22.22 0 00-.37.15v3.05c0 .12.1.22.22.22h3.04a.22.22 0 00.16-.38l-1.15-1.14 6.06-6.1 1.9-1.9 1.14 1.15a.22.22 0 00.37-.16V2.31c0-.12-.1-.22-.22-.22z" />
        <path d="M14.75 0H1.25C.56 0 0 .56 0 1.25v13.5C0 15.44.56 16 1.25 16h13.5c.69 0 1.25-.56 1.25-1.25V1.25C16 .56 15.44 0 14.75 0zm.18 14.75c0 .1-.08.18-.18.18H1.25a.19.19 0 01-.18-.18V1.25c0-.1.08-.18.18-.18h13.5c.1 0 .18.08.18.18v13.5z" />
    </symbol>
    <symbol id="icon-search" viewBox="0 0 448.1 448.1">
        <path d="M184 0a184 184 0 100 368 184 184 0 000-368zm0 304a120 120 0 110-240 120 120 0 010 240zM439 393l-64-64a32 32 0 10-46 46l64 64a32 32 0 1046-46z" />
    </symbol>
    <symbol id="icon-bell" viewBox="0 0 18 21">
        <path fill-rule="evenodd" clip-rule="evenodd" d="M9.48 2.26a.5.5 0 10-.99.2.5.5 0 001-.2zM8.55.19a2.2 2.2 0 012.47 3.03 5.99 5.99 0 014.01 5.65v1.96c0 .8.36 1.56.98 2.08l.35.3c.62.5.98 1.27.98 2.07v.02c0 1.48-1.2 2.68-2.69 2.68h-2.52a3.13 3.13 0 01-3.14 2.97 3.13 3.13 0 01-3.14-2.97H3.32a2.68 2.68 0 01-1.67-4.78l.36-.3a2.71 2.71 0 001.02-2.11V8.87a5.99 5.99 0 013.94-5.63A2.21 2.21 0 018.55.2zm-1 17.79c.08.7.69 1.27 1.44 1.27s1.36-.56 1.43-1.27H7.56zM4.74 8.87a4.3 4.3 0 018.6 0v1.96c0 1.3.59 2.55 1.6 3.39l.35.3a1 1 0 01.36.76v.02c0 .54-.44.98-.99.98H3.32a.98.98 0 01-.6-1.76l.36-.3a4.41 4.41 0 001.65-3.43V8.87z" />
    </symbol>
    <symbol id="icon-table-user" viewBox="0 0 16 16">
        <path d="M7.89 7.7c1.05 0 1.97-.37 2.72-1.12a3.73 3.73 0 001.13-2.73c0-1.06-.38-1.97-1.13-2.72A3.73 3.73 0 007.9 0C6.83 0 5.9.38 5.16 1.13a3.73 3.73 0 00-1.13 2.72c0 1.06.38 1.98 1.13 2.73A3.73 3.73 0 007.9 7.7zM14.63 12.3a9.5 9.5 0 00-.38-2.02c-.1-.33-.24-.65-.42-.95-.18-.32-.39-.6-.63-.82a2.78 2.78 0 00-.9-.57c-.35-.14-.74-.21-1.16-.21-.16 0-.32.07-.62.26l-.66.43A3.74 3.74 0 018 8.95a3.73 3.73 0 01-1.88-.54L5.46 8c-.3-.2-.47-.26-.63-.26-.41 0-.8.07-1.15.2-.36.15-.66.34-.91.58-.24.22-.45.5-.63.82-.17.3-.31.62-.42.95a7.98 7.98 0 00-.38 2.02c-.02.31-.03.63-.03.95 0 .83.27 1.51.8 2 .5.5 1.2.75 2.02.75h7.7c.84 0 1.52-.25 2.04-.74.53-.5.8-1.18.8-2.01 0-.32-.02-.64-.04-.95z" />
    </symbol>
    <symbol id="icon-question" viewBox="0 0 426.667 426.667">
        <path d="M192 298.667h42.667v42.667H192z" />
        <path d="M213.333 0C95.513 0 0 95.513 0 213.333s95.513 213.333 213.333 213.333 213.333-95.513 213.333-213.333S331.154 0 213.333 0zm0 388.053c-96.495 0-174.72-78.225-174.72-174.72s78.225-174.72 174.72-174.72c96.446.117 174.602 78.273 174.72 174.72 0 96.496-78.224 174.72-174.72 174.72z" />
        <path d="M296.32 150.4c-10.974-45.833-57.025-74.091-102.858-63.117-38.533 9.226-65.646 43.762-65.462 83.384h42.667c2.003-23.564 22.729-41.043 46.293-39.04s41.043 22.729 39.04 46.293c-4.358 21.204-23.38 36.169-45.013 35.413-10.486 0-18.987 8.501-18.987 18.987v45.013h42.667v-24.32c45.12-11.635 72.565-57.312 61.653-102.613z" />
    </symbol>
    <symbol id="icon-arrow" viewBox="0 0 15 9">
        <path d="M7.1 5.5L1.8.2a.8.8 0 00-.6-.2C1 0 .8 0 .7.2L.2.7l-.2.5c0 .3 0 .4.2.6L6.6 8c.1.2.3.3.5.3l.6-.3L14 1.8l.2-.6c0-.2 0-.4-.2-.5l-.5-.5a.8.8 0 00-1 0L7 5.5z" />
    </symbol>
    <symbol id="df-arrow" viewBox="0 0 9 13">
        <path d="M8.35 7.92H0l4.17 4.23 4.18-4.23zM8.35 4.23H0L4.17 0l4.18 4.23z" />
    </symbol>
    <symbol id="telegram" viewBox="0 0 16 16">
        <path d="M6.278 10.12l-.265 3.722c.38 0 .543-.162.74-.358l1.775-1.696 3.679 2.694c.675.376 1.15.178 1.332-.621l2.415-11.315c.214-.998-.36-1.388-1.018-1.143L.743 6.837c-.969.376-.954.916-.165 1.16l3.629 1.13 8.428-5.275c.397-.262.758-.117.461.146L6.278 10.12z" />
    </symbol>
    <symbol id="twitter" viewBox="0 0 16 16">
        <path d="M5.97 14.56c-.7 0-1.4-.05-2.12-.16a9.95 9.95 0 01-2.9-1.06L0 12.82l1.03-.34c1.12-.36 1.8-.6 2.65-.95a3.52 3.52 0 01-1.82-2.1l-.23-.73.2.03A3.56 3.56 0 01.8 6.18l.05-.64.38.15a3.54 3.54 0 01.04-3.42l.33-.61.44.53a8.12 8.12 0 005.27 2.96c-.09-.59-.03-1.16.19-1.67.24-.6.68-1.1 1.27-1.46.65-.4 1.44-.6 2.22-.54.83.05 1.58.36 2.18.9.29-.08.5-.16.8-.27l.61-.23.92-.31-.6 1.7a3 3 0 01.12 0l.98-.05-.58.79-.05.07c-.05.07-.1.16-.9 1.22-.2.26-.3.6-.28.97a9.19 9.19 0 01-.5 3.7 6.54 6.54 0 01-1.75 2.6 7.75 7.75 0 01-3.68 1.77c-.72.15-1.49.22-2.3.22z" />
    </symbol>
    <symbol id="instagram" viewBox="0 0 16 16">
        <path d="M11.669 0H4.33A4.336 4.336 0 000 4.331v7.338A4.336 4.336 0 004.331 16h7.338A4.336 4.336 0 0016 11.669V4.331A4.336 4.336 0 0011.669 0zM8 12.375A4.38 4.38 0 013.625 8 4.38 4.38 0 018 3.625 4.38 4.38 0 0112.375 8 4.38 4.38 0 018 12.375zm4.48-7.718c-.713 0-1.293-.58-1.293-1.293s.58-1.293 1.293-1.293c.712 0 1.292.58 1.292 1.293s-.58 1.293-1.293 1.293z" />
        <path d="M8 5C6.346 5 5 6.346 5 8s1.346 3 3 3 3-1.346 3-3-1.346-3-3-3z" />
    </symbol>
    <symbol id="steemit" viewBox="0 0 16 16">
        <path d="M14.1 4.83a6.58 6.58 0 00-2.3-1.47c.48-1.41 2.22-1.93 2.22-1.93S9.97-.63 5.49.2a6.91 6.91 0 00-3.97 2.32 6.02 6.02 0 00.68 8.66c.4.34 1.31.87 1.33.9-.6 1.48-2.5 1.89-2.5 1.89s2.51 1.54 5.9 1.94c.89.11 1.84.14 2.83.04a7.25 7.25 0 004.3-2.08 6.27 6.27 0 00.04-9.03zm-1.16 8.04a6.09 6.09 0 01-3.49 1.59c-.77.07-1.6.08-2.41-.01-1.18-.14-2.03-.46-2.87-.77.43-.4.85-.96 1.02-1.43.11-.29.1-.6-.03-.88A4.6 4.6 0 016.13 6a4.95 4.95 0 014.03-1.33c1.1.13 2.09.6 2.87 1.37a4.82 4.82 0 01-.09 6.84z" />
    </symbol>
    <symbol id="reddit" viewBox="0 0 16 16">
        <path d="M16 7.501a1.993 1.993 0 00-1.991-1.991c-.44 0-.857.143-1.197.403-1.111-.771-2.567-1.231-4.115-1.348l.835-1.96 2.43.568a1.49 1.49 0 001.48 1.341c.823 0 1.493-.67 1.493-1.493 0-.824-.67-1.494-1.494-1.494-.522 0-.98.27-1.247.677l-2.84-.664a.498.498 0 00-.573.29L7.626 4.538c-1.672.058-3.265.529-4.468 1.35A1.993 1.993 0 000 7.501c0 .727.397 1.385 1.007 1.723a2.964 2.964 0 00-.011.268c0 2.745 3.126 4.978 6.97 4.978 3.841 0 6.969-2.233 6.969-4.978a3.54 3.54 0 00-.008-.231A1.972 1.972 0 0016 7.502zm-2.559-4.978a.499.499 0 11-.001.997.499.499 0 01.001-.997zm-8.96 6.472c0-.549.446-.996.995-.996a.997.997 0 11-.996.996zm5.783 3.302a3.92 3.92 0 01-4.598 0 .497.497 0 11.584-.806 2.92 2.92 0 003.43 0 .498.498 0 11.584.806zm.19-2.307a.996.996 0 11.001-1.992.996.996 0 010 1.992z" />
    </symbol>
    <symbol id="tiktok" viewBox="0 0 16 16">
        <path d="M14.68 6.47a4.26 4.26 0 01-3.97-1.9v6.57a4.86 4.86 0 11-4.85-4.86l.3.01v2.4l-.3-.03a2.48 2.48 0 000 4.96c1.37 0 2.58-1.08 2.58-2.45L8.46 0h2.29a4.27 4.27 0 003.93 3.81v2.66" />
    </symbol>
    <symbol id="discord" viewBox="0 0 16 16">
        <path d="M13.54 3.01a13.2 13.2 0 00-3.25-1c-.02-.01-.04 0-.05.02-.15.25-.3.57-.41.83a12.18 12.18 0 00-3.66 0c-.1-.26-.27-.58-.41-.83A.05.05 0 005.71 2a13.16 13.16 0 00-3.28 1.03 13.5 13.5 0 00-2.34 9.14c1.37 1 2.7 1.62 4 2.02.01.01.04 0 .05-.02.3-.42.58-.86.82-1.32a.05.05 0 00-.03-.07 8.75 8.75 0 01-1.25-.6.05.05 0 010-.08l.24-.2a.05.05 0 01.05 0 9.46 9.46 0 008.05 0h.05l.25.2c.03.02.02.06 0 .08-.4.23-.82.43-1.26.6a.05.05 0 00-.02.07c.24.46.51.9.81 1.32.02.02.04.03.06.02a13.22 13.22 0 004.02-2.05A13.42 13.42 0 0013.54 3zm-8.2 7.3c-.78 0-1.43-.72-1.43-1.6 0-.9.64-1.62 1.44-1.62.8 0 1.45.73 1.43 1.62 0 .88-.63 1.6-1.43 1.6zm5.32 0c-.79 0-1.43-.72-1.43-1.6 0-.9.63-1.62 1.43-1.62.81 0 1.45.73 1.44 1.62 0 .88-.63 1.6-1.44 1.6z" />
    </symbol>
    <symbol id="bitcointalk" viewBox="0 0 16 16">
        <path d="M5.457 3.45h1.037a.531.531 0 01.535.535c0 .295-.24.535-.535.535H5.49l-.027.001h-.006V3.45zM5.49 5.455h1.004a.536.536 0 010 1.07H5.457V5.454h.006l.027.002z" />
        <path fill-rule="evenodd" clip-rule="evenodd" d="M11.76.725A2.46 2.46 0 0010.01 0H2.477A2.46 2.46 0 00.727.725 2.46 2.46 0 000 2.477v9.038a.469.469 0 00.8.331l1.871-1.871h7.337a2.48 2.48 0 002.477-2.477V2.477a2.46 2.46 0 00-.725-1.752zM7.969 5.992c0 .393-.154.763-.432 1.041a1.462 1.462 0 01-1.041.432H6.46V8a.469.469 0 11-.937 0v-.535H4.486a.469.469 0 010-.938h.034v-3.08h-.034a.469.469 0 110-.937h1.038v-.535a.469.469 0 11.937 0v.535h.034c.393 0 .763.154 1.041.432a1.467 1.467 0 01.035 2.045c.246.264.397.617.397 1.005z" />
        <path d="M13.423 4.52h.1A2.48 2.48 0 0116 6.997v8.535a.469.469 0 01-.8.332l-1.871-1.872H5.992a2.48 2.48 0 01-2.477-2.477v-.602h6.493A3.418 3.418 0 0013.423 7.5v-2.98z" />
    </symbol>
    <symbol id="youtube" viewBox="0 0 16 16">
        <path d="M4.5.88a1 1 0 00-1.5.86V14.3a1 1 0 001.49.87l10.98-6.13a1 1 0 00.02-1.74L4.5.88z" />
    </symbol>
    <symbol id="email" viewBox="0 0 16 16">
        <path d="M12.8 1.14H3.2A3.22 3.22 0 000 4.37v7.26a3.22 3.22 0 003.2 3.23h9.6c1.76 0 3.2-1.46 3.2-3.23V4.37a3.22 3.22 0 00-3.2-3.23zm.67 5.21L9.36 10.1c-.4.24-.88.4-1.36.4-.48 0-.96-.16-1.36-.4L2.6 6.35c-.32-.24-.4-.72-.16-1.13.24-.32.72-.4 1.12-.16L7.6 8.81c.24.16.64.16.88 0l4.1-3.75c.4-.24.89-.16 1.13.24.16.33.08.8-.24 1.05z" />
    </symbol>
    <symbol id="icon-chat-2" viewBox="0 0 20 20">
        <path fill-rule="evenodd" d="M0 4.22a4 4 0 014-4h12a4 4 0 014 4v8.25a4 4 0 01-4 4h-.11a1 1 0 00-.87.5l-1.46 2.51a.5.5 0 01-.87 0l-1.46-2.51a1 1 0 00-.87-.5H4a4 4 0 01-4-4V4.22zm6.36 5.32a1.36 1.36 0 100-2.73 1.36 1.36 0 000 2.73zm5-1.36a1.36 1.36 0 11-2.72 0 1.36 1.36 0 012.72 0zm2.28 1.36a1.36 1.36 0 100-2.73 1.36 1.36 0 000 2.73z" />
    </symbol>
    <symbol id="speed" viewBox="0 0 16 16">
        <path fill-rule="evenodd" clip-rule="evenodd" d="M15.1988 1C15.1988 1 9.9565 0.987741 5.86961 5.07463C5.68061 5.26364 5.512 5.46646 5.36307 5.67939C4.63821 5.62264 3.53187 5.64592 2.96724 6.21093C1.64192 7.53625 1.19995 9.7455 1.19995 9.7455L4.12026 9.32832V10.329L5.87179 12.0806H6.87248L6.45542 15C6.45542 15 8.66468 14.558 9.99 13.2327C10.5556 12.6674 10.5783 11.5592 10.5213 10.8344C10.7336 10.6858 10.9357 10.5176 11.1242 10.3292C15.2111 6.24232 15.1988 1 15.1988 1ZM9.37266 5.65847C9.37266 5.01333 9.8952 4.49079 10.5403 4.49079C11.1855 4.49079 11.708 5.01333 11.708 5.65847C11.708 6.30362 11.1855 6.82616 10.5403 6.82616C9.8952 6.82616 9.37266 6.30362 9.37266 5.65847Z" />
        <path d="M4.99386 12.3222C5.00211 12.3077 5.01036 12.2931 5.02003 12.2794L5.28743 12.5462C5.22904 12.768 5.11811 12.9788 4.94471 13.1522C4.13667 13.9603 2.37581 13.823 2.37581 13.823C2.37581 13.823 2.24911 12.0517 3.04664 11.2541C3.22004 11.0807 3.43081 10.9698 3.65267 10.9114L3.91948 11.1788C3.90519 11.1891 3.89012 11.1977 3.87507 11.2062C3.85079 11.22 3.82654 11.2338 3.80563 11.2547C3.23581 11.824 3.52072 12.6781 3.52072 12.6781C3.52072 12.6781 4.37488 12.9625 4.94413 12.3932C4.96553 12.3722 4.9797 12.3472 4.99386 12.3222Z" />
    </symbol>
    <symbol id="rules" viewBox="0 0 16 16">
        <path d="M8 1C4.13396 1 1 4.13396 1 8C1 11.866 4.13396 15 8 15C11.866 15 15 11.866 15 8C15 4.13396 11.866 1 8 1ZM8.20592 11.6633C8.07437 11.8051 7.88771 11.876 7.64475 11.876C7.40208 11.876 7.21571 11.8068 7.08592 11.6683C6.95612 11.5297 6.89108 11.3358 6.89108 11.0864C6.89108 10.5702 7.14221 10.3123 7.64475 10.3123C7.89092 10.3123 8.07875 10.3797 8.20883 10.5148C8.33892 10.6498 8.40367 10.8403 8.40367 11.0864C8.40367 11.3291 8.33746 11.5213 8.20592 11.6633ZM10.0341 6.65921C9.95883 6.85929 9.84508 7.04975 9.69283 7.23088C9.54058 7.412 9.27867 7.64796 8.90621 7.93846C8.58829 8.18783 8.37537 8.39462 8.26775 8.55883C8.17675 8.69737 8.12687 8.8785 8.11287 9.09754C8.112 9.10221 8.11054 9.10367 8.10967 9.10833C8.04842 9.45337 7.64767 9.45104 7.64767 9.45104H7.43708C7.43708 9.45104 7.08854 9.39621 7.10167 9.12292C7.10167 8.74696 7.16992 8.43429 7.30671 8.18462C7.4435 7.93496 7.68296 7.67712 8.0245 7.41054C8.43137 7.08912 8.69329 6.83975 8.81112 6.66212C8.92896 6.4845 8.98817 6.27246 8.98817 6.02629C8.98817 5.73929 8.8925 5.51879 8.70117 5.36479C8.50983 5.21079 8.2345 5.13408 7.87575 5.13408C7.55083 5.13408 7.25012 5.18017 6.97333 5.27262C6.82225 5.32308 6.67379 5.38025 6.5265 5.44179C6.52329 5.44296 6.52212 5.44237 6.51862 5.44383C6.17854 5.57538 6.02075 5.30792 6.02075 5.30792L5.88717 5.02821C5.88658 5.02646 5.73667 4.68492 6.07092 4.53471C6.66679 4.26229 7.29708 4.12462 7.96267 4.12462C8.63233 4.12462 9.16404 4.28883 9.55692 4.61696C9.94979 4.94508 10.1464 5.39804 10.1464 5.97554C10.1467 6.23133 10.109 6.45942 10.0341 6.65921Z" />
    </symbol>
    <symbol id="animation" viewBox="0 0 16 16">
        <circle cx="9.6" cy="6.6" r="5.6" />
        <path opacity="0.5" fill-rule="evenodd" clip-rule="evenodd" d="M8.91948 13.4111C5.68241 13.0918 3.10781 10.5174 2.7883 7.28046C1.81838 8.0793 1.19995 9.28951 1.19995 10.6442C1.19995 13.0497 3.15 14.9997 5.55551 14.9997C6.91031 14.9997 8.12063 14.3812 8.91948 13.4111Z" />
    </symbol>
    <symbol id="hotkeys" viewBox="0 0 16 16">
        <path d="M5.32625 3.21051H3.41046V5.1263H5.32625V3.21051Z" />
        <path d="M3.41047 5.76492H5.32626V7.68071H3.41047V5.76492Z" />
        <path d="M5.32626 8.31931H3.41047V10.2351H5.32626V8.31931Z" />
        <path d="M8.51925 3.21052H10.435V5.12631H8.51925V3.21052Z" />
        <path d="M10.435 5.76492H8.51925V7.68071H10.435V5.76492Z" />
        <path d="M8.51925 8.31931H10.435V10.2351H8.51925V8.31931Z" />
        <path d="M7.88066 3.21052H5.96487V5.12631H7.88066V3.21052Z" />
        <path d="M5.96487 5.76492H7.88066V7.68071H5.96487V5.76492Z" />
        <path d="M7.88066 8.31931H5.96487V10.2351H7.88066V8.31931Z" />
        <path d="M5.96487 10.8737H10.435V12.7895H5.96487V10.8737Z" />
        <path d="M12.9894 3.21052H11.0736V5.12631H12.9894V3.21052Z" />
        <path d="M11.0736 5.76492H12.9894V7.68071H11.0736V5.76492Z" />
        <path d="M12.9894 8.31931H11.0736V10.2351H12.9894V8.31931Z" />
        <path fill-rule="evenodd" clip-rule="evenodd" d="M1.19995 3.21053C1.19995 1.98969 2.18964 1 3.41048 1H12.9894C14.2103 1 15.2 1.98969 15.2 3.21053V12.7895C15.2 14.0103 14.2103 15 12.9894 15H3.41048C2.18964 15 1.19995 14.0103 1.19995 12.7895V3.21053ZM3.41048 2.47368H12.9894C13.3964 2.47368 13.7263 2.80358 13.7263 3.21053V12.7895C13.7263 13.1964 13.3964 13.5263 12.9894 13.5263H3.41048C3.00353 13.5263 2.67364 13.1964 2.67364 12.7895V3.21053C2.67364 2.80358 3.00353 2.47368 3.41048 2.47368Z" />
    </symbol>
    <symbol id="calendar" viewBox="0 0 24 24">
        <path d="M7 9.6C7 9.26863 7.26863 9 7.6 9H8.4C8.73137 9 9 9.26863 9 9.6V10.4C9 10.7314 8.73137 11 8.4 11H7.6C7.26863 11 7 10.7314 7 10.4V9.6Z"/>
        <path d="M7.6 12C7.26863 12 7 12.2686 7 12.6V13.4C7 13.7314 7.26863 14 7.6 14H8.4C8.73137 14 9 13.7314 9 13.4V12.6C9 12.2686 8.73137 12 8.4 12H7.6Z"/>
        <path d="M7 15.6C7 15.2686 7.26863 15 7.6 15H8.4C8.73137 15 9 15.2686 9 15.6V16.4C9 16.7314 8.73137 17 8.4 17H7.6C7.26863 17 7 16.7314 7 16.4V15.6Z"/>
        <path d="M11.6 9C11.2686 9 11 9.26863 11 9.6V10.4C11 10.7314 11.2686 11 11.6 11H12.4C12.7314 11 13 10.7314 13 10.4V9.6C13 9.26863 12.7314 9 12.4 9H11.6Z"/>
        <path d="M11 12.6C11 12.2686 11.2686 12 11.6 12H12.4C12.7314 12 13 12.2686 13 12.6V13.4C13 13.7314 12.7314 14 12.4 14H11.6C11.2686 14 11 13.7314 11 13.4V12.6Z"/>
        <path d="M15.6 9C15.2686 9 15 9.26863 15 9.6V10.4C15 10.7314 15.2686 11 15.6 11H16.4C16.7314 11 17 10.7314 17 10.4V9.6C17 9.26863 16.7314 9 16.4 9H15.6Z"/>
        <path d="M15 12.6C15 12.2686 15.2686 12 15.6 12H16.4C16.7314 12 17 12.2686 17 12.6V13.4C17 13.7314 16.7314 14 16.4 14H15.6C15.2686 14 15 13.7314 15 13.4V12.6Z"/>
        <path fill-rule="evenodd" clip-rule="evenodd" d="M8 3.5C7.44772 3.5 7 3.94772 7 4.5V5.5H6C4.89543 5.5 4 6.39543 4 7.5V17.5C4 18.6046 4.89543 19.5 6 19.5H18C19.1046 19.5 20 18.6046 20 17.5V7.5C20 6.39543 19.1046 5.5 18 5.5H17V4.5C17 3.94772 16.5523 3.5 16 3.5C15.4477 3.5 15 3.94772 15 4.5V5.5H9V4.5C9 3.94772 8.55228 3.5 8 3.5ZM5 8.5C5 7.94771 5.44772 7.5 6 7.5H18C18.5523 7.5 19 7.94772 19 8.5V17.5C19 18.0523 18.5523 18.5 18 18.5H6C5.44772 18.5 5 18.0523 5 17.5V8.5Z"/>
    </symbol>
    <symbol id="campaign" viewBox="0 0 24 24">
        <path d="M4.7153 7.64224L11.5525 4.22361C11.8341 4.08285 12.1654 4.08285 12.447 4.22361L19.2842 7.64224C19.579 7.78965 19.579 8.21037 19.2842 8.35778L12.447 11.7764C12.1654 11.9172 11.8341 11.9172 11.5525 11.7764L4.7153 8.35778C4.42048 8.21037 4.42048 7.78965 4.7153 7.64224Z"/>
        <path d="M5.99971 11L4.71526 11.6422C4.42044 11.7896 4.42044 12.2104 4.71526 12.3578L11.5525 15.7764C11.834 15.9172 12.1654 15.9172 12.4469 15.7764L19.2842 12.3578C19.579 12.2104 19.579 11.7896 19.2842 11.6422L17.9997 11L12.4469 13.7764C12.1654 13.9172 11.834 13.9172 11.5525 13.7764L5.99971 11Z"/>
        <path d="M4.71526 15.6422L5.99971 15L11.5525 17.7764C11.834 17.9172 12.1654 17.9172 12.4469 17.7764L17.9997 15L19.2842 15.6422C19.579 15.7896 19.579 16.2104 19.2842 16.3578L12.4469 19.7764C12.1654 19.9172 11.834 19.9172 11.5525 19.7764L4.71526 16.3578C4.42044 16.2104 4.42044 15.7896 4.71526 15.6422Z"/>
    </symbol>
    <symbol id="plus-rounded" viewBox="0 0 16 16">
        <path fill-rule="evenodd" clip-rule="evenodd" d="M8 16C12.4183 16 16 12.4183 16 8C16 3.58172 12.4183 0 8 0C3.58172 0 0 3.58172 0 8C0 12.4183 3.58172 16 8 16ZM8 4C7.44771 4 7 4.44772 7 5L7 7L5 7C4.44771 7 4 7.44772 4 8C4 8.55229 4.44772 9 5 9H7V11C7 11.5523 7.44772 12 8 12C8.55229 12 9 11.5523 9 11L9 9H11C11.5523 9 12 8.55228 12 8C12 7.44771 11.5523 7 11 7H9V5C9 4.44771 8.55228 4 8 4Z" />
    </symbol>
    <symbol id="error-triangle" viewBox="0 0 57 47">
        <path fill-rule="evenodd" clip-rule="evenodd" d="M33.0093 3.13967C30.9163 -0.174155 26.0837 -0.174165 23.9907 3.13966L1.66713 38.4854C-0.57579 42.0367 1.97611 46.6667 6.17641 46.6667H50.8236C55.0239 46.6667 57.5758 42.0367 55.3329 38.4854L33.0093 3.13967ZM26.0987 18.6534C25.9566 17.2327 27.0722 16 28.5 16C29.9277 16 31.0434 17.2327 30.9013 18.6534L29.966 28.0066C29.8907 28.7598 29.2569 29.3333 28.5 29.3333C27.7431 29.3333 27.1093 28.7598 27.034 28.0066L26.0987 18.6534ZM31.1667 34.6667C31.1667 36.1394 29.9728 37.3333 28.5 37.3333C27.0272 37.3333 25.8333 36.1394 25.8333 34.6667C25.8333 33.1939 27.0272 32 28.5 32C29.9728 32 31.1667 33.1939 31.1667 34.6667Z" />
    </symbol>
    <symbol id="ok-rounded" viewBox="0 0 51 50">
        <path fill-rule="evenodd" clip-rule="evenodd" d="M25.5 50C39.3071 50 50.5 38.8071 50.5 25C50.5 11.1929 39.3071 0 25.5 0C11.6929 0 0.5 11.1929 0.5 25C0.5 38.8071 11.6929 50 25.5 50ZM36.9559 20.3713C37.7132 19.5673 37.6754 18.3015 36.8713 17.5441C36.0673 16.7868 34.8015 16.8247 34.0441 17.6287L23.2551 29.0831L16.9559 22.3954C16.1985 21.5913 14.9328 21.5535 14.1287 22.3108C13.3247 23.0682 13.2868 24.3339 14.0441 25.138L21.7992 33.3713C22.1772 33.7725 22.7039 34 23.2551 34C23.8063 34 24.333 33.7725 24.711 33.3713L36.9559 20.3713Z" />
    </symbol>
    <symbol id="share" viewBox="0 0 24 24"> <!-- stroke: #ffffff; -->
        <circle cx="17" cy="7" r="2.2" stroke-width="1.6"/>
        <circle cx="17" cy="17" r="2.2" stroke-width="1.6"/>
        <circle cx="7" cy="12" r="2.2" stroke-width="1.6"/>
        <path d="M9 11L15 7.5" stroke-width="1.6"/>
        <path d="M9 13L15 16.5" stroke-width="1.6"/>
    </symbol>
    <symbol id="pen" viewBox="0 0 24 24">
        <path d="M16.71 6.47a.96.96 0 00-.97.23l-6.82 6.82 1.56 1.56 6.82-6.82a.96.96 0 00.23-.97c-.12-.4-.43-.7-.82-.82zM9.71 15.84L8.16 14.3l-.64.63c-.28.29-.48.65-.57 1.05l-.23 1.05c-.04.15.1.3.26.26l1.05-.23c.4-.09.76-.29 1.05-.57l.63-.64z" />
    </symbol>
    <symbol id="trash" viewBox="0 0 24 24">
        <path fill-rule="evenodd" clip-rule="evenodd" d="M9.36 3.55c.04-.1.13-.17.24-.17h4.8c.11 0 .2.07.24.17L15.13 5H8.88l.48-1.45zm6.7-.47L16.72 5h4.67a.75.75 0 010 1.5h-1.39l-.8 12.12a3.75 3.75 0 01-3.75 3.5H8.56a3.75 3.75 0 01-3.74-3.5L4.02 6.5H2.62a.75.75 0 010-1.5H7.3l.64-1.92c.24-.72.9-1.2 1.66-1.2h4.8c.76 0 1.43.48 1.67 1.2zm-5.39 6.84a.75.75 0 00-1.5 0v7.29a.75.75 0 001.5 0V9.92zm3.42-.75c.41 0 .75.34.75.75v4.17a.75.75 0 11-1.5 0V9.92c0-.41.33-.75.75-.75z"/>
    </symbol>
    <symbol id="copy" viewBox="0 0 24 24">
        <rect x="4.5" y="7.5" width="11" height="13" rx="2"/>
        <path d="M7.5 4.5a1 1 0 011-1h8a3 3 0 013 3v10a1 1 0 11-2 0v-9a2 2 0 00-2-2h-7a1 1 0 01-1-1z"/>
    </symbol>
    <symbol id="metamask" viewBox="0 0 22 22">
        <path d="M20 1.84l-7.8 5.75 1.45-3.4L20 1.85z" fill="#E17726" stroke="#E17726" stroke-width=".25" stroke-linecap="round" stroke-linejoin="round"/>
        <path d="M2.02 1.84l7.73 5.8L8.37 4.2 2.02 1.84zM17.19 15.17l-2.07 3.16 4.43 1.22 1.28-4.3-3.64-.08zM1.2 15.24l1.26 4.31 4.43-1.22-2.06-3.16-3.63.07z" fill="#E27625" stroke="#E27625" stroke-width=".25" stroke-linecap="round" stroke-linejoin="round"/>
        <path d="M6.65 9.83L5.42 11.7l4.4.2-.15-4.72-3.02 2.66zM15.36 9.84L12.3 7.12l-.1 4.77 4.4-.2-1.24-1.85zM6.9 18.33l2.65-1.28-2.29-1.78-.37 3.06zM12.47 17.05l2.65 1.28-.37-3.06-2.28 1.78z" fill="#E27625" stroke="#E27625" stroke-width=".25" stroke-linecap="round" stroke-linejoin="round"/>
        <path d="M15.12 18.33l-2.65-1.28.21 1.72-.02.73 2.46-1.17zM6.9 18.33l2.46 1.17-.02-.73.21-1.72-2.66 1.28z" fill="#D5BFB2" stroke="#D5BFB2" stroke-width=".25" stroke-linecap="round" stroke-linejoin="round"/>
        <path d="M6.9 18.33l.38-3.16-2.45.07 2.06 3.1zM14.74 15.17l.38 3.16 2.07-3.09-2.45-.07zM16.6 11.7l-4.4.19.41 2.25.65-1.36 1.56.71 1.78-1.8zM7.2 13.5l1.56-.72.65 1.36.4-2.25-4.39-.2 1.78 1.8z" fill="#CC6228" stroke="#CC6228" stroke-width=".25" stroke-linecap="round" stroke-linejoin="round"/>
        <path d="M5.42 11.7l1.84 3.57-.06-1.78-1.78-1.8zM14.82 13.5l-.07 1.77 1.85-3.58-1.78 1.8zM9.81 11.89l-.4 2.25.51 2.65.12-3.5-.23-1.4zM12.2 11.89l-.21 1.4.1 3.5.52-2.65-.4-2.25z" fill="#E27525" stroke="#E27525" stroke-width=".25" stroke-linecap="round" stroke-linejoin="round"/>
        <path d="M12.61 14.14l-.51 2.65.37.26 2.28-1.78.07-1.78-2.2.65zM7.2 13.5l.06 1.77 2.3 1.78.36-.26-.51-2.65-2.2-.65z" fill="#F5841F" stroke="#F5841F" stroke-width=".25" stroke-linecap="round" stroke-linejoin="round"/>
        <path d="M12.66 19.5l.02-.73-.2-.17H9.54l-.2.17.02.73-2.47-1.17.87.7 1.75 1.21h3l1.75-1.2.86-.7-2.46 1.16z" fill="#C0AC9D" stroke="#C0AC9D" stroke-width=".25" stroke-linecap="round" stroke-linejoin="round"/>
        <path d="M12.47 17.05l-.37-.26H9.92l-.37.26-.2 1.72.19-.17h2.94l.2.17-.21-1.72z" fill="#161616" stroke="#161616" stroke-width=".25" stroke-linecap="round" stroke-linejoin="round"/>
        <path d="M20.32 7.96l.66-3.17-.99-2.95-7.52 5.56 2.9 2.43 4.08 1.2.9-1.06-.39-.28.63-.57-.48-.37.62-.47-.4-.32zM1.04 4.79l.66 3.17-.42.32.63.47-.48.37.62.57-.39.28.9 1.05 4.1-1.19 2.9-2.43-7.54-5.56-.98 2.95z" fill="#763E1A" stroke="#763E1A" stroke-width=".25" stroke-linecap="round" stroke-linejoin="round"/>
        <path d="M19.45 11.02l-4.09-1.19 1.24 1.86-1.85 3.58 2.44-.03h3.64l-1.38-4.22zM6.66 9.83l-4.1 1.2-1.36 4.21h3.63l2.43.03-1.84-3.58 1.24-1.86zM12.2 11.89l.27-4.5 1.18-3.2H8.37l1.18 3.2.26 4.5.1 1.41.01 3.49h2.18V13.3l.1-1.41z" fill="#F5841F" stroke="#F5841F" stroke-width=".25" stroke-linecap="round" stroke-linejoin="round"/>
    </symbol>
    <symbol id="arrow-down" viewBox="0 0 24 24">
        <path d="M5.94 7.94a1.5 1.5 0 012.12 0L13 12.88l4.94-4.94a1.5 1.5 0 012.12 2.12l-6 6a1.5 1.5 0 01-2.12 0l-6-6a1.5 1.5 0 010-2.12z"/>
    </symbol>
    <symbol id="arrow-up" viewBox="0 0 24 24">
        <path d="M5.24 15.06a1.5 1.5 0 002.12 0l4.94-4.94 4.94 4.94a1.5 1.5 0 002.12-2.12l-6-6a1.5 1.5 0 00-2.12 0l-6 6a1.5 1.5 0 000 2.12z"/>
    </symbol>
    <symbol id="arrow-left" viewBox="0 0 24 24">
        <path d="M15.36 19.06a1.5 1.5 0 000-2.12L10.42 12l4.94-4.94a1.5 1.5 0 10-2.12-2.12l-6 6a1.5 1.5 0 000 2.12l6 6a1.5 1.5 0 002.12 0z"/>
    </symbol>
    <symbol id="arrow-right" viewBox="0 0 24 24">
        <path d="M9.24 19.06a1.5 1.5 0 010-2.12L14.18 12 9.24 7.06a1.5 1.5 0 112.12-2.12l6 6a1.5 1.5 0 010 2.12l-6 6a1.5 1.5 0 01-2.12 0z"/>
    </symbol>
    <symbol id="inhouse" viewBox="0 0 24 24">
        <path d="M19.19 10.28l-6.34-5.76a1.26 1.26 0 00-1.7 0L4.8 10.28a1.27 1.27 0 00-.41.94v7.32a1.27 1.27 0 001.26 1.27h3.8a.63.63 0 00.64-.63V14.1h3.8v5.07a.63.63 0 00.63.63h3.8a1.27 1.27 0 001.27-1.27v-7.32a1.27 1.27 0 00-.41-.94z"/>
    </symbol>
    <symbol id="dice" viewBox="0 0 24 24">
        <path d="M17.95 4.35H7.75A2.55 2.55 0 005.2 6.9v10.2a2.55 2.55 0 002.55 2.55h10.2a2.55 2.55 0 002.55-2.55V6.9a2.55 2.55 0 00-2.55-2.55zM9.98 15.83a.96.96 0 110-1.92.96.96 0 010 1.92zm0-5.74a.96.96 0 110-1.92.96.96 0 010 1.92zm2.87 2.87a.96.96 0 110-1.92.96.96 0 010 1.92zm2.87 2.87a.96.96 0 110-1.92.96.96 0 010 1.92zm0-5.74a.96.96 0 110-1.92.96.96 0 010 1.92z"/>
    </symbol>
    <symbol id="top" viewBox="0 0 24 24">
        <path d="M21.4 9.92a1.28 1.28 0 00-1.13-.9l-4.65-.32-1.73-4.34a1.28 1.28 0 00-1.2-.82 1.28 1.28 0 00-1.18.82L9.76 8.73l-4.63.3A1.28 1.28 0 004 9.92a1.3 1.3 0 00.4 1.41l3.57 3.01L6.9 18.5a1.44 1.44 0 001.33 1.8c.28 0 .55-.07.79-.22l3.67-2.32h.02l3.95 2.5a1.26 1.26 0 001.43-.05 1.3 1.3 0 00.5-1.38l-1.13-4.55L21 11.33a1.3 1.3 0 00.4-1.41z"/>
    </symbol>
    <symbol id="recomendation" viewBox="0 0 24 24">
        <path d="M16.45 4.19a4.87 4.87 0 00-3.9 1.95 4.88 4.88 0 00-8.79 2.93c0 5.85 8.13 10.46 8.47 10.66a.65.65 0 00.64 0c1.5-.88 2.9-1.9 4.18-3.06 2.84-2.55 4.29-5.11 4.29-7.6a4.89 4.89 0 00-4.89-4.88z"/>
    </symbol>
    <symbol id="new" viewBox="0 0 24 24">
        <path d="M13.3 19.3h-2.6a.6.6 0 000 1.3h2.6a.6.6 0 000-1.3z" />
        <path d="M19.2 13.7l-2.4-2.9c0-1-.3-1.9-.6-2.7-1-2.4-2.5-4-3.4-4.7a1.3 1.3 0 00-1.6 0c-.9.7-2.5 2.3-3.4 4.6C7.4 9 7.2 10 7 11l-2.3 2.8a1.3 1.3 0 00-.3 1l1 4.4a1.3 1.3 0 002 .7l2.2-1.7h4.6l2.2 1.7a1.3 1.3 0 002-.7l1-4.4a1.3 1.3 0 00-.3-1zM12 10.8A1 1 0 1112 9a1 1 0 010 2z" />
    </symbol>
    <symbol id="battles" viewBox="0 0 24 24">
        <path fill-rule="evenodd" clip-rule="evenodd" d="M19.7 4a.6.6 0 01.6.6v5a.6.6 0 01-.3.5l-6.6 5.5.6.6a1.2 1.2 0 010 1.8l-1 1a1.3 1.3 0 01-1.7 0l-1.7-1.7-2.3 2.4a1.2 1.2 0 01-1.8 0l-1-1a1.3 1.3 0 010-1.8L7 14.6 5.3 13a1.2 1.2 0 010-1.8l1-1a1.3 1.3 0 011.7 0l.7.7 5.5-6.7a.6.6 0 01.5-.2h5zM11 12.4a.6.6 0 10.8 1l5-5a.6.6 0 10-.9-1l-5 5z" />
    </symbol>
    <symbol id="providers" viewBox="0 0 24 24">
        <path d="M12 7.2c1.3 0 2.3-1 2.3-2.2 0-1.2-1-2.2-2.3-2.2-1.2 0-2.2 1-2.2 2.2 0 1.2 1 2.2 2.2 2.2zM11.4 11.5V8l-6.9 3.2c-.5.3-.5 1 0 1.3l7.6 3.7 7.6-3.7c.5-.2.5-1 0-1.3L12.8 8v3.6c0 .2 0 .5-.5.5H12c-.4 0-.5-.3-.5-.5z" />
        <path d="M13 20.7c-.6.4-1.2.4-1.7 0l.2.2-7.6-4.3v-3l8.2 4 8.2-4v3l-7.5 4.2h.2z" />
    </symbol>
    <symbol id="live" viewBox="0 0 24 24">
        <path d="M21.2 19c-1.2-2-3-3.6-5.3-4.3a5.7 5.7 0 10-5.9 0A9.6 9.6 0 004.7 19a.6.6 0 00.5 1h15.5a.6.6 0 00.5-1z"/>
    </symbol>
    <symbol id="table" viewBox="0 0 24 24">
        <path d="M20.8 13.4a4 4 0 01-6.2 3.3l.8 2.6a.6.6 0 01-.6.8h-4a.6.6 0 01-.6-.8l.8-2.6a4 4 0 01-2.3.7A4 4 0 015 11.9a4 4 0 014-2.5 4 4 0 117.4 0h.4a4 4 0 013.9 4z"/>
    </symbol>
        <symbol id="address-book" viewBox="0 0 26 26">
        <path d="M5.72 2.08c-.86 0-1.56.7-1.56 1.56v2.6h-.52a.52.52 0 100 1.04h2.08a.52.52 0 00.45-.25.5.5 0 01.07.25c0 .29-.23.52-.52.52H4.16v1.56h-.52a.52.52 0 100 1.04h2.08a.52.52 0 00.45-.25.5.5 0 01.07.25c0 .29-.23.52-.52.52H4.16v1.56h-.52a.52.52 0 100 1.04h2.08a.52.52 0 00.45-.25.5.5 0 01.07.25c0 .29-.23.52-.52.52H4.16v1.56h-.52a.52.52 0 100 1.04h2.08a.52.52 0 00.45-.25.5.5 0 01.07.25c0 .29-.23.52-.52.52H4.16v1.56h-.52a.52.52 0 100 1.04h2.08a.52.52 0 00.45-.25.5.5 0 01.07.25c0 .29-.23.52-.52.52H4.16v2.08c0 .86.7 1.56 1.56 1.56h14.56c.86 0 1.56-.7 1.56-1.56V3.64c0-.86-.7-1.56-1.56-1.56H5.72zm8.06 5.72l.26.52c1.7 0 1.78 2.21 1.32 2.76.13.04.24.22.2.52-.06.55-.3.69-.45.7-.06.52-.55 1.22-.55 1.22v1.05c.44 1.17 3.5.84 3.64 3.11H8.32c.14-2.27 3.2-1.94 3.64-3.11l.02-1.05h-.02c-.2-.1-.5-.7-.55-1.22-.15-.01-.39-.15-.46-.7-.03-.3.12-.46.2-.52-.7-1.5.19-3.28 2.63-3.28z" />
    </symbol>
    <symbol id="plus-circle" viewBox="0 0 18 18">
        <path fill-rule="evenodd" clip-rule="evenodd" d="M0 9a9 9 0 1118 0A9 9 0 010 9zm12 7.2a7.81 7.81 0 004.19-4.16l-.02.05A7.77 7.77 0 1012 16.2zM8.25 4.5h1.5v3.75h3.75v1.5H9.75v3.75h-1.5V9.75H4.5v-1.5h3.75V4.5z" />
    </symbol>
    <symbol id="delete" viewBox="0 0 12 13">
        <path d="M11.5 2H9v-.5A1.5 1.5 0 007.5 0h-3A1.5 1.5 0 003 1.5V2H.5a.5.5 0 000 1H1v9a1 1 0 001 1h8a1 1 0 001-1V3h.5a.5.5 0 000-1zM5 9.5a.5.5 0 11-1 0v-4a.5.5 0 111 0v4zm3 0a.5.5 0 11-1 0v-4a.5.5 0 111 0v4zM8 2H4v-.5a.5.5 0 01.5-.5h3a.5.5 0 01.5.5V2z"/>
    </symbol>
    <symbol id="icon-update" viewBox="0 0 24 24">
        <path fill="#297FE5" d="M12 1C5.93466 1 1 5.93519 1 12C1 18.0743 5.92567 23 12 23C18.0653 23 23 18.0653 23 12C23 5.92514 18.0749 1 12 1ZM12 17.5529C10.6816 17.5529 9.41714 17.0291 8.48486 16.0969C7.55259 15.1646 7.02885 13.9002 7.02885 12.5817C7.02885 11.2633 7.55259 9.99887 8.48486 9.06659C9.41714 8.13432 10.6816 7.61058 12 7.61058H12.2226L11.4764 6.8649C11.3376 6.72605 11.2596 6.53772 11.2596 6.34135C11.2596 6.14497 11.3376 5.95665 11.4764 5.81779C11.6153 5.67893 11.8036 5.60092 12 5.60092C12.1964 5.60092 12.3847 5.67893 12.5236 5.81779L14.6389 7.93317C14.7077 8.00193 14.7622 8.08355 14.7995 8.17338C14.8367 8.26321 14.8558 8.3595 14.8558 8.45673C14.8558 8.55397 14.8367 8.65025 14.7995 8.74008C14.7622 8.82991 14.7077 8.91154 14.6389 8.98029L12.5236 11.0957C12.3847 11.2345 12.1964 11.3125 12 11.3125C11.8036 11.3125 11.6153 11.2345 11.4764 11.0957C11.3376 10.9568 11.2596 10.7685 11.2596 10.5721C11.2596 10.3757 11.3376 10.1874 11.4764 10.0486L12.4284 9.09663C12.3025 9.09135 12.1587 9.09135 12 9.09135C11.3097 9.09135 10.6348 9.29605 10.0608 9.67958C9.48686 10.0631 9.03948 10.6082 8.77531 11.246C8.51113 11.8838 8.44201 12.5856 8.57668 13.2627C8.71136 13.9397 9.04379 14.5617 9.53193 15.0498C10.0201 15.5379 10.642 15.8704 11.3191 16.005C11.9961 16.1397 12.6979 16.0706 13.3357 15.8064C13.9735 15.5422 14.5186 15.0949 14.9021 14.5209C15.2857 13.9469 15.4904 13.2721 15.4904 12.5817C15.4904 12.3854 15.5684 12.197 15.7072 12.0582C15.8461 11.9194 16.0344 11.8413 16.2308 11.8413C16.4271 11.8413 16.6155 11.9194 16.7543 12.0582C16.8932 12.197 16.9712 12.3854 16.9712 12.5817C16.9696 13.8997 16.4454 15.1632 15.5134 16.0952C14.5815 17.0271 13.318 17.5513 12 17.5529Z"/>
    </symbol>
    <symbol id="statistic" viewBox="0 0 16 13">
        <path d="M0 13V8.15254V7.9322L5.55556 2.42373L9.55556 6.38983L16 0V13H0Z" />
    </symbol>
    <symbol id="cup" viewBox="0 0 15 14">
        <path d="M4.09 1.09H1.06c-.14 1.6-.25 5.04 2.52 6M10.2 1.09h3.03c.14 1.6.25 5.04-2.52 6" stroke-width="1.5"/>
        <path d="M10.71 1.09l.5 4.9a4.1 4.1 0 01-4.06 4.1 4.07 4.07 0 01-4.08-4.1l.51-4.9M7.15 10.09v3M4.09 13.09h6.11M3.07 1.09h8.15" stroke-width="1.5" stroke-linecap="round" stroke-linejoin="round"/>
    </symbol>
    <symbol id="chat-send-icon" viewBox="0 0 17 16">
        <path d="M1.063 1.087a.75.75 0 01.846-.168l14.5 6.444a.75.75 0 010 1.371l-14.5 6.444a.75.75 0 01-.975-1.02l2.679-5.359h5.242a.75.75 0 100-1.5H3.613L.933 1.94a.75.75 0 01.13-.853z" />
    </symbol>
    <symbol id="chat-reply-icon" viewBox="0 0 16 16">
        <path d="M14 13.75a.5.5 0 01-.394-.192c-.714-.915-1.377-1.62-2.291-2.094-.846-.437-1.909-.664-3.315-.707v2.493a.5.5 0 01-.844.361l-5.5-5.25a.5.5 0 010-.723l5.5-5.25A.5.5 0 018 2.75V5.26c2.317.107 4.043.966 5.136 2.559.905 1.319 1.364 3.146 1.364 5.43a.5.5 0 01-.5.5z"/>
    </symbol>
    <symbol id="chat-tag-icon" viewBox="0 0 16 16">
        <path d="M7 0a7 7 0 100 14A7 7 0 007 0zm4.2 6.84c-.095 1.099-.564 1.673-.942 1.961-.377.288-.83.415-1.22.345a1.4 1.4 0 01-.903-.579 2.089 2.089 0 01-1.481.592 1.739 1.739 0 01-1.297-.567c-.383-.418-.572-1.022-.516-1.657.101-1.177 1.04-1.931 1.914-2.069.915-.144 1.758.22 2.117.655l.13.157-.214 1.696c-.04.482.11.79.414.844.08.014.272-.004.483-.166.226-.173.51-.538.576-1.294.079-.893-.147-1.656-.648-2.204-.521-.57-1.316-.87-2.296-.87-1.818 0-3.427 1.495-3.587 3.332-.077.882.19 1.705.754 2.32.55.6 1.323.933 2.176.933.64 0 1.03-.069 1.665-.295a.471.471 0 01.316.887c-.734.262-1.234.35-1.981.35-1.12 0-2.14-.44-2.87-1.237-.743-.811-1.099-1.89-.999-3.039A4.596 4.596 0 014.264 3.97c.852-.79 1.938-1.228 3.053-1.228 1.252 0 2.286.406 2.99 1.175.677.738.994 1.776.894 2.923z"/>
    </symbol>
    <symbol id="chat-edit-icon" viewBox="0 0 16 16">
        <path d="M13.143.757a.895.895 0 01.894-.224c.356.109.635.388.743.744.097.316.01.66-.223.894L6.95 9.778a2 2 0 01-.966.535l-.966.222a.2.2 0 01-.24-.24l.223-.966a2 2 0 01.535-.965L13.143.757z" />
        <path d="M10.236 1.007A4.057 4.057 0 0010 1H4a4 4 0 00-4 4v6a4 4 0 004 4h6a4 4 0 004-4V5.728l-2 2V11a2 2 0 01-2 2H4a2 2 0 01-2-2V5a2 2 0 012-2h4.243l1.993-1.993z" />
    </symbol>
    <symbol id="chat-delete-icon" viewBox="0 0 16 16">
        <path clip-rule="evenodd" d="M6.402 2.674a.25.25 0 01.237-.17h2.725a.25.25 0 01.237.17l.137.412H6.265l.137-.412zm4.622-.474l.295.886h2.931a.75.75 0 010 1.5h-.687l-.46 6.913A3.75 3.75 0 019.36 15H6.643A3.75 3.75 0 012.9 11.5L2.44 4.586h-.687a.75.75 0 110-1.5h2.931l.295-.886a1.75 1.75 0 011.66-1.197h2.725a1.75 1.75 0 011.66 1.197zM7.363 6.613a.75.75 0 10-1.5 0v4.86a.75.75 0 001.5 0v-4.86zm2.027-.75a.75.75 0 01.75.75V9.39a.75.75 0 11-1.5 0V6.613a.75.75 0 01.75-.75z"/>
    </symbol>
    <symbol id="chat-pin-icon" viewBox="0 0 16 16">
        <path fill-rule="evenodd" clip-rule="evenodd" d="M10.549.257a.585.585 0 00-.828 0l-.345.345a.585.585 0 000 .828l.276.276-5.657 4.277.09.09a2.761 2.761 0 00-3.905 0 .166.166 0 000 .234l9.562 9.562c.064.065.17.065.234 0a2.761 2.761 0 000-3.905l.09.09 4.277-5.657.276.276c.228.229.599.229.828 0l.345-.345a.585.585 0 000-.828L10.548.257zM5.168 7.156l5.657-4.277 1.241 1.241L7.1 9.087 5.168 7.156z" />
        <path d="M1.61 15.466l3.558-3.067-1.38-1.38L.72 14.577a.63.63 0 00.889.889z" />
    </symbol>
    <symbol id="chat-mute-icon" viewBox="0 0 16 16" fill="none">
        <path d="M14.5 8a6.5 6.5 0 11-13 0 6.5 6.5 0 0113 0zM3.5 12.5l9-9" stroke-linecap="round" stroke-linejoin="round" stroke-width="2"/>
    </symbol>
    <symbol id="chat-ban-info-icon" viewBox="0 0 16 16" fill="none">
        <path
                d="M15.5 8C15.5 12.1421 12.1421 15.5 8 15.5C3.85786 15.5 0.5 12.1421 0.5 8C0.5 3.85786 3.85786 0.5 8 0.5C12.1421 0.5 15.5 3.85786 15.5 8Z"
                stroke="#FFB636"
                stroke-linecap="round"
                stroke-linejoin="round"
        />
        <path d="M8 4.33331V8.66665" stroke="#FFB636" stroke-linecap="round" stroke-linejoin="round" />
        <path d="M8 11V11.5" stroke="#FFB636" stroke-linecap="round" stroke-linejoin="round" />
    </symbol>
    <symbol id="chat-close-reply-mode-icon" viewBox="0 0 12 13" fill="none" xmlns="http://www.w3.org/2000/svg">
        <path d="M1.20001 1.69995L10.8 11.3"  stroke-width="2" stroke-linecap="round" />
        <path d="M10.8 1.69995L1.19999 11.3"  stroke-width="2" stroke-linecap="round" />
    </symbol>
    <symbol id="icon_checkmark" viewBox="0 0 16 16">
        <path d="M15.744 3.39756L15.2199 2.87346C15.0552 2.70864 14.8356 2.61798 14.6012 2.61798C14.3668 2.61798 14.1471 2.70864 13.9824 2.87346L6.61815 10.2376L2.01704 5.63638C1.85236 5.47183 1.63265 5.38104 1.39824 5.38104C1.16397 5.38104 0.94439 5.47183 0.779577 5.63638L0.25535 6.16035C0.0905366 6.32543 0 6.54526 0 6.77941C0 7.01369 0.0905366 7.23339 0.25535 7.39821L5.45028 12.5929C5.45717 12.6026 5.46446 12.6117 5.47291 12.6201L5.99714 13.1356C6.16182 13.2997 6.38153 13.3818 6.61776 13.3818H6.62049C6.85502 13.3818 7.07473 13.2997 7.23915 13.1356L7.76351 12.6155C7.77197 12.6072 7.77912 12.6003 7.78341 12.5933L15.7439 4.63359C16.0853 4.2929 16.0853 3.73863 15.744 3.39756Z" />
    </symbol>
    <symbol id="icon_promocode" viewBox="0 0 18 18">
        <g clip-path="url(#clip0)">
            <path d="M7.58671 17.9999C7.23288 18.0009 6.88237 17.9316 6.55547 17.7962C6.22858 17.6608 5.93179 17.4619 5.68229 17.211L0.788896 12.3176C0.538836 12.0675 0.340475 11.7707 0.205141 11.444C0.069808 11.1173 0.000152588 10.7671 0.000152588 10.4135C0.000152588 10.0599 0.069808 9.70974 0.205141 9.38304C0.340475 9.05634 0.538836 8.7595 0.788896 8.50946L8.5078 0.788795C8.75743 0.537786 9.05439 0.338807 9.38148 0.203387C9.70856 0.0679678 10.0593 -0.00120088 10.4133 -0.000111303H15.307C16.021 0.000726082 16.7055 0.284718 17.2103 0.789566C17.7152 1.29441 17.9992 1.97889 18 2.69286V7.58626C18.0012 7.94033 17.9321 8.29112 17.7966 8.61827C17.6612 8.94543 17.4622 9.24244 17.2111 9.49208L9.49218 17.211C9.24257 17.462 8.94561 17.661 8.61852 17.7964C8.29144 17.9319 7.94072 18.001 7.58671 17.9999V17.9999ZM10.4133 0.899889C10.1777 0.899314 9.94442 0.945437 9.72682 1.03559C9.50922 1.12575 9.31165 1.25814 9.14554 1.42512L1.42522 9.14544C1.25871 9.31193 1.12661 9.5096 1.03649 9.72715C0.946371 9.9447 0.899986 10.1779 0.899986 10.4133C0.899986 10.6488 0.946371 10.882 1.03649 11.0995C1.12661 11.3171 1.25871 11.5148 1.42522 11.6813L6.31862 16.5747C6.48512 16.7412 6.68278 16.8733 6.90033 16.9634C7.11788 17.0535 7.35105 17.0999 7.58653 17.0999C7.82201 17.0999 8.05518 17.0535 8.27273 16.9634C8.49028 16.8733 8.68795 16.7412 8.85444 16.5747L16.5748 8.85399C16.7418 8.6879 16.8742 8.49033 16.9643 8.27273C17.0545 8.05512 17.1006 7.8218 17.1 7.58626V2.69286C17.0994 2.2175 16.9104 1.76178 16.5742 1.42565C16.2381 1.08953 15.7824 0.900447 15.307 0.899889H10.4133ZM14.8584 4.48864C14.592 4.48836 14.3317 4.40911 14.1104 4.26091C13.889 4.11271 13.7165 3.90221 13.6148 3.65602C13.513 3.40983 13.4866 3.139 13.5387 2.87777C13.5908 2.61653 13.7193 2.37662 13.9077 2.18835C14.0962 2.00008 14.3362 1.87192 14.5975 1.82005C14.8588 1.76818 15.1296 1.79494 15.3757 1.89695C15.6218 1.99895 15.8321 2.17163 15.9801 2.39314C16.128 2.61465 16.207 2.87506 16.207 3.14145C16.2066 3.49885 16.0643 3.84145 15.8114 4.09404C15.5586 4.34663 15.2158 4.48855 14.8584 4.48864ZM14.8584 2.69567C14.77 2.69567 14.6835 2.7219 14.61 2.77103C14.5364 2.82017 14.4791 2.89001 14.4453 2.97173C14.4114 3.05344 14.4026 3.14335 14.4198 3.2301C14.4371 3.31685 14.4797 3.39653 14.5422 3.45907C14.6048 3.52161 14.6844 3.5642 14.7712 3.58145C14.8579 3.59871 14.9478 3.58985 15.0296 3.556C15.1113 3.52216 15.1811 3.46484 15.2302 3.3913C15.2794 3.31776 15.3056 3.2313 15.3056 3.14286C15.3058 3.08403 15.2943 3.02575 15.2719 2.97135C15.2495 2.91695 15.2166 2.86751 15.175 2.82584C15.1335 2.78418 15.0842 2.75111 15.0298 2.72853C14.9755 2.70595 14.9173 2.69431 14.8584 2.69426V2.69567Z" />
            <path d="M7.64859 14.8499C7.44112 14.8504 7.23561 14.8098 7.04395 14.7304C6.85228 14.651 6.67828 14.5344 6.53202 14.3872L3.61405 11.4692C3.31865 11.1727 3.15279 10.7712 3.15279 10.3527C3.15279 9.93414 3.31865 9.53264 3.61405 9.23612V9.23612L7.43519 5.41394C7.73128 5.11787 8.13285 4.95154 8.55157 4.95154C8.97029 4.95154 9.37187 5.11787 9.66796 5.41394L12.5859 8.33191C12.8813 8.62842 13.0472 9.02992 13.0472 9.44847C13.0472 9.86702 12.8813 10.2685 12.5859 10.565L8.7648 14.3872C8.6186 14.5343 8.44466 14.651 8.25306 14.7304C8.06145 14.8098 7.85599 14.8504 7.64859 14.8499ZM4.24898 9.8714C4.1218 9.99886 4.05037 10.1716 4.05037 10.3516C4.05037 10.5317 4.1218 10.7044 4.24898 10.8319L7.16694 13.7498C7.29625 13.8733 7.46819 13.9423 7.647 13.9423C7.82582 13.9423 7.99775 13.8733 8.12706 13.7498L11.951 9.92835C12.0782 9.80088 12.1496 9.62818 12.1496 9.44812C12.1496 9.26806 12.0782 9.09535 11.951 8.96788L9.03304 6.04991C8.90373 5.92641 8.73179 5.85749 8.55298 5.85749C8.37417 5.85749 8.20223 5.92641 8.07292 6.04991L4.24898 9.8714V9.8714Z" />
            <path d="M10.35 9.8999C10.2312 9.89961 10.1174 9.85219 10.0336 9.76806L8.23361 7.96807C8.15126 7.88327 8.10558 7.76947 8.10644 7.65127C8.10731 7.53306 8.15465 7.41995 8.23823 7.33636C8.32182 7.25278 8.43494 7.20544 8.55314 7.20457C8.67134 7.20371 8.78514 7.24939 8.86994 7.33174L10.6699 9.13174C10.7329 9.19467 10.7757 9.27485 10.7931 9.36213C10.8104 9.44941 10.8015 9.53988 10.7675 9.6221C10.7334 9.70432 10.6757 9.77459 10.6017 9.82404C10.5278 9.87349 10.4408 9.89989 10.3518 9.8999H10.35Z" />
            <path d="M8.99998 11.2501C8.94087 11.2502 8.88233 11.2386 8.82773 11.216C8.77313 11.1934 8.72354 11.1602 8.68181 11.1183L6.88181 9.31829C6.79945 9.2335 6.75377 9.1197 6.75464 9.00149C6.7555 8.88329 6.80284 8.77017 6.88643 8.68658C6.97001 8.603 7.08313 8.55565 7.20134 8.55479C7.31954 8.55393 7.43334 8.59961 7.51814 8.68196L9.31814 10.482C9.38106 10.5449 9.42391 10.6251 9.44127 10.7124C9.45863 10.7996 9.44972 10.8901 9.41566 10.9723C9.38161 11.0546 9.32394 11.1248 9.24995 11.1743C9.17596 11.2237 9.08897 11.2501 8.99998 11.2501V11.2501Z" />
            <path d="M7.65003 12.6C7.53126 12.5998 7.41746 12.5523 7.33362 12.4682L5.53361 10.6682C5.49082 10.6266 5.45672 10.577 5.43329 10.5221C5.40986 10.4673 5.39757 10.4083 5.39714 10.3487C5.3967 10.289 5.40813 10.2299 5.43075 10.1747C5.45338 10.1195 5.48675 10.0694 5.52893 10.0272C5.57111 9.98501 5.62125 9.95164 5.67644 9.92901C5.73163 9.90639 5.79077 9.89496 5.85042 9.8954C5.91006 9.89583 5.96903 9.90812 6.02388 9.93155C6.07874 9.95498 6.12839 9.98908 6.16994 10.0319L7.96995 11.8319C8.03287 11.8948 8.07572 11.975 8.09307 12.0623C8.11043 12.1496 8.10152 12.24 8.06747 12.3222C8.03341 12.4045 7.97574 12.4747 7.90175 12.5242C7.82776 12.5736 7.74077 12.6 7.65178 12.6H7.65003Z" />
        </g>
        <defs>
            <clipPath id="clip0">
                <rect width="18" height="18" />
            </clipPath>
        </defs>
    </symbol>
    <symbol id="icon-plus-rounded" viewBox="0 0 16 16">
        <path fill-rule="evenodd" clip-rule="evenodd"
              d="M8 16C12.4183 16 16 12.4183 16 8C16 3.58172 12.4183 0 8 0C3.58172 0 0 3.58172 0 8C0 12.4183 3.58172 16 8 16ZM8 4C7.44771 4 7 4.44772 7 5L7 7L5 7C4.44771 7 4 7.44772 4 8C4 8.55229 4.44772 9 5 9H7V11C7 11.5523 7.44772 12 8 12C8.55229 12 9 11.5523 9 11L9 9H11C11.5523 9 12 8.55228 12 8C12 7.44771 11.5523 7 11 7H9V5C9 4.44771 8.55228 4 8 4Z"/>
    </symbol>
    <symbol id="icon-pen" viewBox="0 0 24 24">
        <path d="M16.71 6.47a.96.96 0 00-.97.23l-6.82 6.82 1.56 1.56 6.82-6.82a.96.96 0 00.23-.97c-.12-.4-.43-.7-.82-.82zM9.71 15.84L8.16 14.3l-.64.63c-.28.29-.48.65-.57 1.05l-.23 1.05c-.04.15.1.3.26.26l1.05-.23c.4-.09.76-.29 1.05-.57l.63-.64z"/>
    </symbol>
    <symbol id="icon-trash" viewBox="0 0 24 24">
        <path fill-rule="evenodd" clip-rule="evenodd"
              d="M9.36 3.55c.04-.1.13-.17.24-.17h4.8c.11 0 .2.07.24.17L15.13 5H8.88l.48-1.45zm6.7-.47L16.72 5h4.67a.75.75 0 010 1.5h-1.39l-.8 12.12a3.75 3.75 0 01-3.75 3.5H8.56a3.75 3.75 0 01-3.74-3.5L4.02 6.5H2.62a.75.75 0 010-1.5H7.3l.64-1.92c.24-.72.9-1.2 1.66-1.2h4.8c.76 0 1.43.48 1.67 1.2zm-5.39 6.84a.75.75 0 00-1.5 0v7.29a.75.75 0 001.5 0V9.92zm3.42-.75c.41 0 .75.34.75.75v4.17a.75.75 0 11-1.5 0V9.92c0-.41.33-.75.75-.75z"/>
    </symbol>
    
    <symbol id="icon-campaign" viewBox="0 0 24 24">
        <path d="M4.7153 7.64224L11.5525 4.22361C11.8341 4.08285 12.1654 4.08285 12.447 4.22361L19.2842 7.64224C19.579 7.78965 19.579 8.21037 19.2842 8.35778L12.447 11.7764C12.1654 11.9172 11.8341 11.9172 11.5525 11.7764L4.7153 8.35778C4.42048 8.21037 4.42048 7.78965 4.7153 7.64224Z"/>
        <path d="M5.99971 11L4.71526 11.6422C4.42044 11.7896 4.42044 12.2104 4.71526 12.3578L11.5525 15.7764C11.834 15.9172 12.1654 15.9172 12.4469 15.7764L19.2842 12.3578C19.579 12.2104 19.579 11.7896 19.2842 11.6422L17.9997 11L12.4469 13.7764C12.1654 13.9172 11.834 13.9172 11.5525 13.7764L5.99971 11Z"/>
        <path d="M4.71526 15.6422L5.99971 15L11.5525 17.7764C11.834 17.9172 12.1654 17.9172 12.4469 17.7764L17.9997 15L19.2842 15.6422C19.579 15.7896 19.579 16.2104 19.2842 16.3578L12.4469 19.7764C12.1654 19.9172 11.834 19.9172 11.5525 19.7764L4.71526 16.3578C4.42044 16.2104 4.42044 15.7896 4.71526 15.6422Z"/>
    </symbol>
    <symbol id="rain" viewBox="0 0 32 32">
        <path d="M22.8 20H9.1a3.8 3.8 0 0 1-1.3-7.4 3.8 3.8 0 0 1 4.6-2.7 5.2 5.2 0 0 1 10.3-.3h.1a5.2 5.2 0 1 1 0 10.3ZM11.2 21v2.8a1 1 0 0 1-2-.8l.3-.4 1.7-1.6ZM16.7 23.3V21L15 22.6a1 1 0 0 0 .3 1.8 1 1 0 0 0 1.4-1.1ZM13.1 24.5v2.8a1 1 0 0 1-2-.8l.4-.4 1.6-1.6ZM18.6 26.8v-2.3l-1.7 1.6a1 1 0 0 0 .3 1.8 1 1 0 0 0 1.4-1.1ZM22 21l.2 2.3-.1.5a1 1 0 0 1-2-.8l.4-.4L22 21Z"/>
    </symbol>
</svg>
