<svg height="512px" viewBox="56 56 400 400" width="512px" xmlns="http://www.w3.org/2000/svg">
<circle  cx="256" cy="256" r="187" fill="#ffffff" data-original="#ffffff" class=""/>
<path fill='#1eaadc' d="m394.335938 117.664062c-37.183594-37.183593-86.3125-57.664062-138.335938-57.664062s-101.152344 20.480469-138.335938 57.664062c-37.1875 37.183594-57.664062 86.3125-57.664062 138.335938s20.480469 101.152344 57.664062 138.335938c37.183594 37.183593 86.3125 57.664062 138.335938 57.664062s101.152344-20.480469 138.335938-57.664062c37.183593-37.183594 57.664062-86.3125 57.664062-138.335938s-20.480469-101.152344-57.664062-138.335938zm-168.335938 273.335938h-15v-82.5l-36 27-18-24 54-40.5v-37.5l-36 27-18-24 54-40.5v-75h30v52.5l36-27 18 24-54 40.5v37.5l36-27 18 24-54 40.5v73.800781c50.699219-7.203125 90-51 90-103.800781h30c0 74.398438-60.601562 135-135 135zm0 0"/>
</svg>