<svg width="32" height="32" viewBox="0 0 32 32" fill="none" xmlns="http://www.w3.org/2000/svg">
<path d="M32 16C32 7.16344 24.8366 0 16 0C7.16344 0 0 7.16344 0 16C0 24.8366 7.16344 32 16 32C24.8366 32 32 24.8366 32 16Z" fill="#9146FF"/>
<path d="M12.0017 9.42773L9.14453 12.2849V22.5706H12.5731V25.4277L15.4302 22.5706H17.716L22.8588 17.4277V9.42773H12.0017ZM21.716 16.8563L19.4302 19.142H17.1445L15.1445 21.142V19.142H12.5731V10.5706H21.716V16.8563Z" fill="white"/>
<path d="M20.0017 12.5706H18.8588V15.9992H20.0017V12.5706Z" fill="white"/>
<path d="M16.8588 12.5706H15.716V15.9992H16.8588V12.5706Z" fill="white"/>
</svg>
