<svg height="512px" viewBox="56 56 400 400" width="512px" xmlns="http://www.w3.org/2000/svg">
<circle  cx="256" cy="256" r="187" fill="#ffffff" data-original="#ffffff" class=""/>
<path fill='#ffb015' d="m394.335938 117.664062c-37.183594-37.183593-86.3125-57.664062-138.335938-57.664062s-101.152344 20.480469-138.335938 57.664062c-37.183593 37.183594-57.664062 86.3125-57.664062 138.335938s20.480469 101.152344 57.664062 138.335938c37.183594 37.183593 86.3125 57.664062 138.335938 57.664062s101.152344-20.480469 138.335938-57.664062c37.1875-37.183594 57.664062-86.3125 57.664062-138.335938s-20.476562-101.152344-57.664062-138.335938zm-33.335938 123.335938h-62.699219c-8.699219 6.898438-33.898437 27.601562-36.902343 30h99.601562v30h-136.800781c-6.601563 5.101562-12.597657 9.898438-18 14.097656-8.699219 6.601563-11.699219 13.203125-9.597657 19.800782 4.496094 12.601562 26.699219 26.101562 59.398438 26.101562 24 0 48.898438-9.300781 57-21l24.898438 17.101562c-16.199219 23.398438-52.800782 33.898438-81.898438 33.898438-43.199219 0-78.300781-18.601562-87.597656-46.5-5.101563-15-1.800782-30.601562 9.296875-43.5h-26.699219v-30h62.699219c12-9.601562 24.601562-20.101562 36.902343-30h-99.601562v-30h136.800781c6.898438-5.699219 13.199219-10.199219 17.699219-13.800781 8.699219-6.597657 12-13.199219 9.898438-20.097657-4.199219-12.601562-26.398438-26.101562-59.398438-26.101562-24 0-48.898438 9.300781-57 21l-24.597656-17.101562c15.898437-23.398438 52.5-33.898438 81.597656-33.898438 43.199219 0 78.601562 18.898438 87.898438 46.800781 4.800781 15.300781 1.5 30.300781-9.296876 43.199219h26.398438zm0 0"/>
</svg>