<?xml version="1.0" encoding="utf-8"?>
<!-- Generator: Adobe Illustrator 23.0.1, SVG Export Plug-In . SVG Version: 6.00 Build 0)  -->
<svg version="1.1" id="Layer_1" xmlns="http://www.w3.org/2000/svg" xmlns:xlink="http://www.w3.org/1999/xlink" x="0px" y="0px" viewBox="0 0 511 488.04379" style="enable-background:new 0 0 511 488.04379;" xml:space="preserve" class="hi4e1fkfe473tfc33" >
<style type="text/css">.hi4e1fkfe473tfc33 .st0{fill:#2B96EA;} .hi4e1fkfe473tfc33 .st1{fill:#FFFFFF;} </style>
<g>
	<path class="st0" d="M506.95718,231.97906l-42.30389-55.91791l1.36447-70.11289c0.17542-8.9356-5.61398-16.8966-14.17148-19.4892
		l-67.11481-20.3274l-40.0466-57.567c-5.11108-7.3489-14.4873-10.3976-22.9473-7.4542l-66.23759,23.0487l-66.2415-23.0487
		c-8.45219-2.9395-17.83231,0.10139-22.94341,7.4542l-40.04659,57.567l-67.1148,20.3274
		c-8.5574,2.5926-14.3469,10.5536-14.1715,19.4892l1.3646,70.11289L4.04281,231.97906c-5.39179,7.12279-5.39179,16.96289,0,24.08569
		l42.30398,55.91791l-1.3646,70.11279c-0.1754,8.93561,5.6141,16.90051,14.1715,19.4892l67.1148,20.3313l40.04659,57.5632
		c5.1111,7.34891,14.4873,10.39758,22.94341,7.4541l66.2415-23.04861l66.2415,23.04861
		c8.45218,2.93961,17.83231-0.10132,22.94339-7.4541l40.0466-57.56711l67.11481-20.32739
		c8.5575-2.59259,14.34689-10.55359,14.17148-19.4892l-1.36447-70.11279l42.30389-55.91791
		C512.349,248.94196,512.349,239.10185,506.95718,231.97906z"/>
	<path class="st1" d="M385.59589,139.38376c9.86951,11.14221,9.86951,29.21291,0,40.3607l-149.6275,168.9175
		c-9.84981,11.1199-25.8662,11.15891-35.7505,0l-74.8137-84.45599c-9.8695-11.1478-9.8695-29.21851,0-40.3607
		c9.8744-11.1478,25.8809-11.1478,35.7504,0l56.94099,64.2784l131.74979-148.7399
		C359.71487,128.23586,375.72137,128.23586,385.59589,139.38376z"/>
</g>
</svg>
