<svg width="26" height="26" viewBox="0 0 26 26" fill="none" xmlns="http://www.w3.org/2000/svg">
<g clip-path="url(#clip0_740_421)">
<path d="M9.48736 7.73076L7.48001 4.71973L5.47266 7.73076L7.98185 9.48719L9.48736 7.73076Z" fill="#FBBC05"/>
<path d="M20.5279 7.73076L18.5205 4.71973L16.5132 7.73076L18.0187 9.73811L20.5279 7.73076Z" fill="#FBBC05"/>
<path d="M17.015 6.97783L16.5132 7.73059L18.0187 9.73794L20.5279 7.73059L19.9164 6.81348C19.9164 6.81348 18.6452 8.31473 18.0187 8.23242C17.5703 8.17346 17.015 6.97783 17.015 6.97783Z" fill="#F4950C"/>
<path d="M8.98552 6.97783L9.48736 7.73059L7.98185 9.73794L5.47266 7.73059L6.08415 6.81348C6.08415 6.81348 7.3553 8.31473 7.98185 8.23242C8.43024 8.17346 8.98552 6.97783 8.98552 6.97783Z" fill="#F4950C"/>
<path d="M4.97093 13.5022H21.0298L24.2917 3.71634L18.0187 9.23656L13.0003 1.70898L7.98196 9.23656L1.70898 3.71634L4.97093 13.5022Z" fill="#FFE161"/>
<path d="M4.97047 13.502H21.0293C21.5836 13.502 22.033 13.9513 22.033 14.5056C22.033 15.0599 21.5836 15.5093 21.0293 15.5093H4.97047C4.41619 15.5093 3.9668 15.0599 3.9668 14.5056C3.9668 13.9513 4.41619 13.502 4.97047 13.502Z" fill="#FFE161"/>
<path d="M21.0296 13.5022L24.2915 3.71634L18.0185 9.23656L13.0001 1.70898L12.3352 2.70639C12.5176 2.87124 12.7542 2.96283 13.0001 2.96358C13.0001 2.96358 16.2621 8.4838 17.2658 9.98932C18.2694 11.4948 18.7863 11.9967 18.277 13.5022H16.2621L19.1953 13.656C19.5735 13.7195 19.8287 14.0773 19.7652 14.4554C19.7107 14.7796 19.4367 15.0212 19.1083 15.0343L7.229 15.5095H20.9728C21.5495 15.5178 22.0237 15.0571 22.032 14.4805C22.032 14.473 22.0322 14.4652 22.032 14.4577C22.0071 13.9225 21.5655 13.5014 21.0296 13.5022Z" fill="#FBBC05"/>
<path d="M1.70875 4.72024C2.26307 4.72024 2.71243 4.27088 2.71243 3.71657C2.71243 3.16225 2.26307 2.71289 1.70875 2.71289C1.15444 2.71289 0.705078 3.16225 0.705078 3.71657C0.705078 4.27088 1.15444 4.72024 1.70875 4.72024Z" fill="#FF1849"/>
<path d="M24.2913 4.72024C24.8456 4.72024 25.295 4.27088 25.295 3.71657C25.295 3.16225 24.8456 2.71289 24.2913 2.71289C23.737 2.71289 23.2876 3.16225 23.2876 3.71657C23.2876 4.27088 23.737 4.72024 24.2913 4.72024Z" fill="#FF1849"/>
<path d="M13.0003 2.71243C13.5546 2.71243 14.0039 2.26307 14.0039 1.70875C14.0039 1.15444 13.5546 0.705078 13.0003 0.705078C12.4459 0.705078 11.9966 1.15444 11.9966 1.70875C11.9966 2.26307 12.4459 2.71243 13.0003 2.71243Z" fill="#FF1849"/>
<path d="M7.47981 5.47231C7.89554 5.47231 8.23257 5.13529 8.23257 4.71955C8.23257 4.30382 7.89554 3.9668 7.47981 3.9668C7.06407 3.9668 6.72705 4.30382 6.72705 4.71955C6.72705 5.13529 7.06407 5.47231 7.47981 5.47231Z" fill="#E00E45"/>
<path d="M18.5203 5.47231C18.9361 5.47231 19.2731 5.13529 19.2731 4.71955C19.2731 4.30382 18.9361 3.9668 18.5203 3.9668C18.1046 3.9668 17.7676 4.30382 17.7676 4.71955C17.7676 5.13529 18.1046 5.47231 18.5203 5.47231Z" fill="#E00E45"/>
<path d="M12.4818 17.0146H13.4855C13.7628 17.0146 13.9873 17.2392 13.9873 17.5165V24.7931C13.9873 25.0704 13.7628 25.295 13.4855 25.295H12.4818C12.2046 25.295 11.98 25.0704 11.98 24.7931V17.5165C11.98 17.2392 12.2048 17.0146 12.4818 17.0146Z" fill="#FF1849"/>
<path d="M10.2734 17.6447L8.34831 24.9214C8.2901 25.1414 8.09087 25.295 7.86328 25.295H6.62851C6.40068 25.295 6.2017 25.1417 6.14349 24.9214L4.21843 17.6447C4.14767 17.3767 4.30726 17.1022 4.57524 17.0312C4.61714 17.0202 4.6603 17.0146 4.70346 17.0146H5.72018C5.95705 17.0146 6.1618 17.1805 6.21098 17.4124L7.24602 22.2839L8.28056 17.4124C8.32974 17.1805 8.53449 17.0146 8.77136 17.0146H9.78809C10.0654 17.0146 10.2899 17.2392 10.2899 17.5165C10.2902 17.5599 10.2844 17.6031 10.2734 17.6447Z" fill="#FF1849"/>
<path d="M15.4927 17.5165V24.7931C15.4927 25.0704 15.7172 25.295 15.9945 25.295H16.9982C17.2755 25.295 17.5 25.0704 17.5 24.7931V23.0367H18.788C20.4508 23.0367 21.799 21.6885 21.799 20.0257C21.799 18.3628 20.4508 17.0146 18.788 17.0146H15.9945C15.7175 17.0146 15.4927 17.2392 15.4927 17.5165ZM18.7546 21.0294H17.5V19.022H18.7546C19.3089 19.022 19.7583 19.4714 19.7583 20.0257C19.7583 20.58 19.3092 21.0294 18.7546 21.0294Z" fill="#FF1849"/>
<path d="M13.703 19.2729C13.703 20.5275 13.954 24.2913 12.6994 24.5422C12.4409 24.5801 12.1787 24.5048 11.98 24.3352V24.7931C11.98 25.0704 12.2046 25.295 12.4818 25.295H13.4855C13.7628 25.295 13.9873 25.0704 13.9873 24.7931V17.5165C13.9873 17.2392 13.7628 17.0146 13.4855 17.0146H13.2012C13.703 17.0146 13.703 18.0183 13.703 19.2729Z" fill="#E00E45"/>
<path d="M9.47043 18.7711C9.21952 20.0257 8.21584 24.2913 7.21216 24.5422C6.78961 24.6637 6.3347 24.5799 5.98291 24.3161L6.143 24.9214C6.20121 25.1414 6.40044 25.295 6.62827 25.295H7.86305C8.09088 25.295 8.28986 25.1417 8.34807 24.9214L10.2731 17.6447C10.3439 17.3767 10.1843 17.1022 9.91632 17.0312C9.87441 17.0202 9.83126 17.0146 9.7881 17.0146H9.21977C9.72135 17.0146 9.72135 17.5165 9.47043 18.7711Z" fill="#E00E45"/>
<path d="M18.7551 22.5356H17.5562C17.3869 22.5364 17.2498 22.6734 17.2488 22.8428C17.2421 23.8748 17.2496 24.543 16.2126 24.543C15.9571 24.5503 15.7057 24.478 15.4932 24.336V24.7939C15.4932 25.0712 15.7177 25.2957 15.995 25.2957H16.9987C17.2759 25.2957 17.5005 25.0712 17.5005 24.7939V23.0375H18.7885C20.3605 23.037 21.6673 21.8263 21.788 20.2588C21.1519 21.8672 19.7588 22.5356 18.7551 22.5356Z" fill="#E00E45"/>
<path d="M4.80322 13L4.97059 13.5018H21.0294L21.1968 13H4.80322Z" fill="#FBBC05"/>
</g>
<defs>
<clipPath id="clip0_740_421">
<rect width="26" height="26" fill="white"/>
</clipPath>
</defs>
</svg>
