<svg width="30" height="22" viewBox="0 0 30 22" fill="none" xmlns="http://www.w3.org/2000/svg">
<path d="M12.0752 12.5C11.5752 13 10.5752 14 8.57522 12.5C8.33311 12.3184 8.08795 12.0888 7.84389 11.8245C6.47507 10.3425 5.14101 7.77302 4.57522 6.5L3.07522 7L3.10428 7.08136C3.94658 9.43985 5.57502 13.9996 6.07499 15C6.57477 16 6.90856 17.3333 6.57522 18H23.575C23.575 16.5007 23.5752 16.5 24.0745 15.0021L24.0752 15C24.4752 13.8 26.2419 9.16667 27.0752 7L26.0752 6.5C25.5752 7.83333 24.0752 10.9 22.0752 12.5C19.5752 14.5 18.5752 13.5 17.5752 12.5C16.7752 11.7 16.2419 7.16667 16.0752 5H14.0752C14.0752 9.5 12.5752 12 12.0752 12.5Z" fill="#FFC231"/>
<path d="M8.57522 12.5C10.5752 14 11.5752 13 12.0752 12.5C11.2752 12.5 9.74189 8.83333 9.07522 7H7.84389V11.8245C8.08795 12.0888 8.33311 12.3184 8.57522 12.5Z" fill="#FFA031"/>
<path d="M17.5752 12.5C18.5752 13.5 19.5752 14.5 22.0752 12.5V7H21.0752C20.6752 9 18.5752 11.5 17.5752 12.5Z" fill="#FFA031"/>
<path d="M23.575 18H6.57522C4.57499 18 4.57499 21 6.57522 21H23.5752C25.575 21 25.575 18 23.575 18Z" fill="#FFA031"/>
<path d="M13.075 3C13.075 4 13.4085 4.66667 14.0752 5H16.0752C16.575 4.5 17.075 4.15619 17.075 3C17.075 1.84381 16.575 1 15.075 1C13.575 1 13.075 2 13.075 3Z" fill="#FFA031"/>
<path d="M21.0752 7H22.0752C22.5755 7.00001 23.8498 5.77474 22.575 4.49999C22.0752 3.99999 21.075 3.99999 20.575 4.49999C19.8679 5.20709 20.075 6.49999 21.0752 7Z" fill="#FFA031"/>
<path d="M26.0752 6.5L27.0752 7C27.0752 7 28.5703 7.00001 29.0703 6C29.6335 4.87362 29.1449 4.0699 28.575 3.49999C28.075 2.99999 26.375 2.79998 25.575 3.99999C24.9083 4.99998 25.4085 6.16667 26.0752 6.5Z" fill="#FFA031"/>
<path d="M7.84389 7H9.07522C10.075 7 10.075 5.5 10.075 5.5C10.075 5.5 10.075 4 8.575 4C7.075 4 7.07499 5.5 7.07499 5.5C7.07499 5.5 7.07499 6.5 7.84389 7Z" fill="#FFA031"/>
<path d="M3.07522 7L4.57522 6.5C5.07522 5.83333 6.07031 4.5 4.56964 3C2.8457 1.70635 0.570215 3.5 1.07021 5C1.22832 5.47434 1.575 6.5 3.07522 7Z" fill="#FFA031"/>
<path d="M8.57522 12.5L8.35022 12.8L8.57522 12.5ZM22.0752 12.5L22.3095 12.7928L22.0752 12.5ZM26.0752 6.5L26.2429 6.16459L26.2429 6.16458L26.0752 6.5ZM24.0752 15L23.7195 14.8814L23.7195 14.8815L24.0752 15ZM6.57522 18L6.57522 18.375H6.57522V18ZM6.07499 15L5.73955 15.1676L6.07499 15ZM7.84389 11.8245L7.56842 12.079L7.84389 11.8245ZM22.0752 7L22.0752 6.625H22.0752V7ZM6.57522 21L6.57522 21.375H6.57522V21ZM4.56964 3L4.83475 2.73478L4.81596 2.716L4.79472 2.70006L4.56964 3ZM1.07021 5L1.42596 4.88142L1.07021 5ZM22.575 4.49999L22.3098 4.76509L22.3098 4.76515L22.575 4.49999ZM25.575 3.99999L25.263 3.79198L25.575 3.99999ZM29.0703 6L28.7349 5.8323L29.0703 6ZM7.07499 5.5H6.69999H7.07499ZM3.10428 7.08136L2.75113 7.20749L3.10428 7.08136ZM24.0745 15.0021L24.4303 15.1207L24.4303 15.1206L24.0745 15.0021ZM8.35022 12.8C9.40674 13.5924 10.2669 13.7721 10.9691 13.6161C11.6501 13.4647 12.0942 13.0114 12.3404 12.7652L11.8101 12.2348C11.5563 12.4886 11.2504 12.7853 10.8064 12.8839C10.3836 12.9779 9.74371 12.9076 8.80022 12.2L8.35022 12.8ZM12.3404 12.7652C12.646 12.4596 13.1697 11.651 13.6167 10.3739C14.0682 9.08393 14.4502 7.29204 14.4502 5H13.7002C13.7002 7.20797 13.3323 8.91608 12.9088 10.1261C12.4808 11.349 12.0045 12.0404 11.8101 12.2348L12.3404 12.7652ZM17.3101 12.7652C17.7919 13.247 18.373 13.8444 19.1956 13.994C20.0418 14.1478 21.0273 13.8186 22.3095 12.7928L21.841 12.2072C20.6232 13.1814 19.8586 13.3522 19.3298 13.2561C18.7775 13.1556 18.3586 12.753 17.8404 12.2348L17.3101 12.7652ZM22.3095 12.7928C23.3586 11.9535 24.2606 10.7448 24.9583 9.59449C25.6582 8.44081 26.1683 7.31973 26.4264 6.63167L25.7241 6.36833C25.4821 7.0136 24.9923 8.09253 24.3171 9.20551C23.6399 10.3219 22.7918 11.4465 21.841 12.2072L22.3095 12.7928ZM25.9075 6.83541L26.9075 7.33541L27.2429 6.66459L26.2429 6.16459L25.9075 6.83541ZM26.7252 6.86538C25.8938 9.02699 24.1229 13.6711 23.7195 14.8814L24.431 15.1186C24.8275 13.9289 26.59 9.30635 27.4252 7.13462L26.7252 6.86538ZM23.575 17.625H6.57522V18.375H23.575V17.625ZM6.91063 18.1677C7.13486 17.7192 7.1137 17.1149 7.00576 16.5541C6.89421 15.9745 6.67351 15.3587 6.41043 14.8323L5.73955 15.1676C5.97625 15.6412 6.17233 16.1921 6.26928 16.6959C6.36985 17.2184 6.34892 17.6141 6.23981 17.8323L6.91063 18.1677ZM3.19381 7.35576L4.69381 6.85576L4.45664 6.14424L2.95664 6.64424L3.19381 7.35576ZM4.23254 6.6523C4.80204 7.93368 6.15621 10.55 7.56842 12.079L8.11937 11.5701C6.79394 10.135 5.47998 7.61237 4.9179 6.3477L4.23254 6.6523ZM7.56842 12.079C7.82306 12.3546 8.08502 12.6011 8.35022 12.8L8.80022 12.2C8.5812 12.0357 8.35284 11.8229 8.11937 11.5701L7.56842 12.079ZM8.21889 11.8245V7H7.46889V11.8245H8.21889ZM7.84389 7.375H9.07522V6.625H7.84389V7.375ZM8.7228 7.12815C9.05896 8.05259 9.61424 9.44138 10.1891 10.6037C10.4756 11.1831 10.7736 11.7199 11.0578 12.1168C11.1993 12.3143 11.3471 12.4911 11.4983 12.6222C11.64 12.745 11.8384 12.875 12.0752 12.875V12.125C12.1121 12.125 12.0875 12.1404 11.9896 12.0555C11.9013 11.979 11.7928 11.855 11.6676 11.6801C11.4185 11.3322 11.1415 10.8378 10.8614 10.2713C10.3029 9.14196 9.75815 7.78075 9.42765 6.87185L8.7228 7.12815ZM17.8404 12.7652C18.3543 12.2512 19.1437 11.3596 19.8574 10.34C20.5655 9.32858 21.2273 8.15163 21.4429 7.07354L20.7075 6.92646C20.5231 7.84837 19.935 8.92142 19.243 9.90995C18.5567 10.8904 17.7961 11.7488 17.3101 12.2348L17.8404 12.7652ZM21.0752 7.375H22.0752V6.625H21.0752V7.375ZM21.7002 7V12.5H22.4502V7H21.7002ZM23.575 18.375C23.9732 18.375 24.2444 18.5206 24.4197 18.7179C24.6012 18.9221 24.7 19.2049 24.7 19.5C24.7 19.7951 24.6013 20.078 24.4198 20.2821C24.2445 20.4794 23.9734 20.625 23.5752 20.625V21.375C24.1769 21.375 24.6558 21.1456 24.9804 20.7804C25.2989 20.422 25.45 19.9549 25.45 19.5C25.45 19.0451 25.2988 18.5779 24.9803 18.2196C24.6556 17.8544 24.1768 17.625 23.575 17.625V18.375ZM23.5752 20.625H6.57522V21.375H23.5752V20.625ZM6.57522 20.625C6.17691 20.625 5.90574 20.4794 5.73036 20.2821C5.54885 20.0779 5.45005 19.7951 5.45005 19.5C5.45005 19.2049 5.54885 18.9221 5.73036 18.7179C5.90574 18.5206 6.17691 18.375 6.57522 18.375L6.57522 17.625C5.97342 17.625 5.49451 17.8544 5.16983 18.2196C4.85128 18.5779 4.70005 19.0451 4.70005 19.5C4.70005 19.9549 4.85128 20.4221 5.16983 20.7804C5.49451 21.1456 5.97342 21.375 6.57522 21.375L6.57522 20.625ZM4.87522 6.725C5.1201 6.3985 5.54718 5.83564 5.69006 5.13771C5.84077 4.4016 5.6679 3.56755 4.83475 2.73478L4.30454 3.26522C4.97206 3.93245 5.05198 4.51507 4.9553 4.98729C4.85081 5.4977 4.53035 5.93483 4.27522 6.275L4.87522 6.725ZM4.79472 2.70006C3.78144 1.93969 2.60606 2.09634 1.78006 2.63896C0.977102 3.16643 0.390628 4.1471 0.714449 5.11858L1.42596 4.88142C1.24979 4.3529 1.55106 3.68674 2.19184 3.2658C2.80957 2.86001 3.6339 2.76666 4.34456 3.29994L4.79472 2.70006ZM0.714449 5.11858C0.795261 5.36102 0.937578 5.78852 1.27334 6.22051C1.61292 6.65741 2.1365 7.08242 2.95665 7.35576L3.19379 6.64424C2.51372 6.41758 2.11385 6.07976 1.8655 5.76025C1.61334 5.43582 1.50326 5.11332 1.42596 4.88142L0.714449 5.11858ZM8.575 4.375C8.88438 4.375 9.09148 4.45127 9.23417 4.54639C9.37921 4.64309 9.48058 4.77469 9.55208 4.91771C9.62433 5.06219 9.66232 5.21121 9.68166 5.32727C9.69118 5.38442 9.6958 5.43122 9.69802 5.46226C9.69912 5.47772 9.69962 5.48908 9.69984 5.49565C9.69995 5.49892 9.69999 5.50099 9.7 5.50174C9.7 5.50212 9.7 5.50218 9.7 5.50189C9.7 5.50175 9.7 5.50152 9.7 5.5012C9.7 5.50105 9.7 5.50087 9.7 5.50067C9.7 5.50057 9.7 5.5004 9.7 5.50035C9.7 5.50018 9.7 5.5 10.075 5.5C10.45 5.5 10.45 5.49981 10.45 5.49962C10.45 5.49954 10.45 5.49934 10.45 5.4992C10.45 5.4989 10.45 5.49859 10.45 5.49825C10.45 5.49757 10.45 5.4968 10.45 5.49594C10.45 5.49421 10.4499 5.49211 10.4499 5.48965C10.4498 5.48473 10.4497 5.47837 10.4494 5.47066C10.4489 5.45525 10.4479 5.43439 10.4461 5.40883C10.4425 5.35784 10.4354 5.28746 10.4215 5.20398C10.3939 5.03879 10.3382 4.81281 10.2229 4.58229C10.1069 4.35031 9.92703 4.10691 9.6502 3.92236C9.37101 3.73623 9.01561 3.625 8.575 3.625V4.375ZM10.075 5.5C9.7 5.5 9.7 5.49988 9.7 5.49977C9.7 5.49974 9.7 5.49964 9.7 5.49958C9.7 5.49946 9.7 5.49936 9.7 5.49929C9.7 5.49914 9.7 5.49908 9.7 5.4991C9.7 5.49915 9.69999 5.49955 9.69999 5.50027C9.69997 5.50172 9.69993 5.5045 9.69984 5.50852C9.69967 5.51655 9.69928 5.52949 9.69847 5.54662C9.69683 5.58098 9.69348 5.63162 9.68667 5.69297C9.67282 5.81758 9.64567 5.97716 9.59426 6.13144C9.4856 6.4575 9.32596 6.625 9.07522 6.625V7.375C9.82425 7.375 10.1645 6.79251 10.3058 6.36856C10.3793 6.14784 10.4147 5.93242 10.4321 5.77578C10.4409 5.69651 10.4453 5.62996 10.4476 5.58229C10.4488 5.5584 10.4493 5.53911 10.4497 5.52518C10.4498 5.5182 10.4499 5.51256 10.4499 5.50833C10.45 5.50622 10.45 5.50446 10.45 5.50307C10.45 5.50237 10.45 5.50177 10.45 5.50126C10.45 5.501 10.45 5.50077 10.45 5.50056C10.45 5.50045 10.45 5.50031 10.45 5.50026C10.45 5.50013 10.45 5.5 10.075 5.5ZM14.2429 4.66458C13.747 4.41663 13.45 3.91452 13.45 3H12.7C12.7 4.08548 13.07 4.9167 13.9075 5.33542L14.2429 4.66458ZM13.45 3C13.45 2.55571 13.5618 2.15161 13.8006 1.86507C14.0293 1.59056 14.4152 1.375 15.075 1.375V0.625C14.2348 0.625 13.6207 0.909441 13.2244 1.38493C12.8382 1.84839 12.7 2.44429 12.7 3H13.45ZM15.075 1.375C15.755 1.375 16.1362 1.56416 16.3559 1.81402C16.5837 2.07319 16.7 2.46743 16.7 3H17.45C17.45 2.37638 17.3163 1.77063 16.9191 1.31884C16.5138 0.857745 15.895 0.625 15.075 0.625V1.375ZM15.7013 5.02876C15.7852 6.11974 15.9614 7.80654 16.218 9.32498C16.3461 10.0834 16.4958 10.8085 16.6665 11.3994C16.7519 11.6947 16.8445 11.9637 16.9455 12.1899C17.0438 12.4099 17.1621 12.6172 17.3101 12.7652L17.8404 12.2348C17.7884 12.1828 17.7149 12.0734 17.6303 11.884C17.5484 11.7006 17.4668 11.4673 17.3871 11.1912C17.2276 10.6394 17.0835 9.94572 16.9575 9.20002C16.7057 7.71013 16.5319 6.04693 16.4491 4.97124L15.7013 5.02876ZM14.0752 5.375H16.0752V4.625H14.0752V5.375ZM16.7 3C16.7 3.5178 16.5898 3.82021 16.4467 4.04395C16.2881 4.29168 16.0884 4.45635 15.81 4.7349L16.3404 5.26511C16.5618 5.04365 16.862 4.78641 17.0784 4.44819C17.3102 4.08598 17.45 3.63838 17.45 3H16.7ZM21.2429 6.66458C20.4535 6.26998 20.3281 5.27719 20.8402 4.76515L20.3098 4.23482C19.4077 5.13698 19.6965 6.73 20.9076 7.33542L21.2429 6.66458ZM20.8402 4.76515C21.0039 4.60141 21.2745 4.49999 21.5751 4.49999C21.8757 4.49999 22.1462 4.60141 22.3098 4.76509L22.8402 4.23488C22.5041 3.89857 22.0245 3.74999 21.5751 3.74999C21.1257 3.74999 20.6461 3.89857 20.3098 4.23482L20.8402 4.76515ZM22.3098 4.76515C22.5841 5.03945 22.6994 5.28808 22.7358 5.49366C22.7722 5.69986 22.7347 5.89354 22.6522 6.0668C22.5682 6.24302 22.4401 6.39206 22.3105 6.49487C22.2462 6.54591 22.1868 6.58133 22.1391 6.60272C22.0877 6.62577 22.067 6.625 22.0752 6.625L22.0752 7.375C22.3249 7.37501 22.5807 7.23789 22.7767 7.08242C22.9869 6.91566 23.1915 6.6787 23.3293 6.38927C23.4685 6.09686 23.5418 5.74521 23.4743 5.36314C23.4067 4.98046 23.2032 4.5979 22.8402 4.23482L22.3098 4.76515ZM26.2429 6.16458C26.0229 6.05461 25.7896 5.77784 25.6869 5.40129C25.5876 5.0373 25.6195 4.60926 25.887 4.208L25.263 3.79198C24.8638 4.39071 24.8125 5.04601 24.9633 5.59869C25.1107 6.13882 25.4608 6.61206 25.9075 6.83542L26.2429 6.16458ZM25.887 4.208C26.2067 3.72855 26.7096 3.51875 27.2114 3.48672C27.4623 3.47071 27.7032 3.50047 27.9033 3.55856C28.1093 3.61836 28.2446 3.69994 28.3098 3.76515L28.8402 3.23482C28.6554 3.05004 28.3908 2.91912 28.1124 2.8383C27.8281 2.75575 27.5002 2.71676 27.1636 2.73825C26.4904 2.78121 25.7434 3.07142 25.263 3.79198L25.887 4.208ZM28.3098 3.76515C28.5741 4.02941 28.7905 4.32031 28.8882 4.64835C28.9819 4.96319 28.9772 5.34772 28.7349 5.8323L29.4057 6.1677C29.7266 5.5259 29.7592 4.94538 29.607 4.43428C29.4587 3.93639 29.1458 3.54047 28.8402 3.23482L28.3098 3.76515ZM28.7349 5.8323C28.5542 6.19363 28.1783 6.40096 27.782 6.51451C27.59 6.56951 27.4099 6.59745 27.2773 6.61145C27.2114 6.6184 27.1584 6.6218 27.123 6.62346C27.1053 6.62428 27.0921 6.62467 27.0839 6.62485C27.0798 6.62494 27.077 6.62498 27.0755 6.62499C27.0748 6.625 27.0744 6.625 27.0743 6.625C27.0743 6.625 27.0744 6.625 27.0745 6.625C27.0746 6.625 27.0747 6.625 27.0748 6.625C27.0749 6.625 27.075 6.625 27.075 6.625C27.0751 6.625 27.0752 6.625 27.0752 7C27.0752 7.375 27.0754 7.375 27.0755 7.375C27.0755 7.375 27.0757 7.375 27.0758 7.375C27.076 7.375 27.0762 7.375 27.0765 7.375C27.077 7.375 27.0776 7.375 27.0783 7.37499C27.0797 7.37498 27.0814 7.37497 27.0836 7.37495C27.0878 7.3749 27.0934 7.37482 27.1004 7.37467C27.1144 7.37436 27.1338 7.37377 27.1579 7.37264C27.2062 7.37039 27.2739 7.36597 27.356 7.3573C27.5194 7.34006 27.7442 7.3055 27.9886 7.2355C28.4648 7.09906 29.0864 6.80638 29.4057 6.1677L28.7349 5.8323ZM8.04832 6.68563C7.76339 6.50034 7.61062 6.21591 7.52954 5.95226C7.48953 5.82219 7.4694 5.70445 7.45941 5.62001C7.45445 5.57808 7.45209 5.54518 7.45097 5.52409C7.45041 5.51356 7.45017 5.50605 7.45006 5.5019C7.45001 5.49983 7.44999 5.4986 7.44999 5.49827C7.44999 5.4981 7.44999 5.49816 7.44999 5.49845C7.44999 5.49859 7.44999 5.49879 7.44999 5.49905C7.44999 5.49918 7.44999 5.49932 7.44999 5.49948C7.44999 5.49956 7.44999 5.49969 7.44999 5.49973C7.44999 5.49986 7.44999 5.5 7.07499 5.5C6.69999 5.5 6.69999 5.50014 6.69999 5.50029C6.69999 5.50035 6.69999 5.5005 6.69999 5.50061C6.7 5.50083 6.7 5.50106 6.7 5.50132C6.7 5.50182 6.7 5.50238 6.7 5.50301C6.70001 5.50426 6.70002 5.50576 6.70005 5.5075C6.70009 5.51098 6.70017 5.51543 6.7003 5.5208C6.70057 5.53155 6.70108 5.54601 6.70202 5.5638C6.70391 5.59935 6.70755 5.64848 6.7146 5.70811C6.72864 5.8268 6.75657 5.99031 6.81268 6.17274C6.92381 6.53409 7.1555 6.99967 7.63946 7.31438L8.04832 6.68563ZM7.07499 5.5C7.44999 5.5 7.44999 5.50018 7.44999 5.50035C7.44999 5.5004 7.44999 5.50057 7.44999 5.50067C7.44999 5.50087 7.44999 5.50105 7.44999 5.5012C7.44999 5.50152 7.44999 5.50175 7.44999 5.50189C7.44999 5.50218 7.44999 5.50212 7.44999 5.50174C7.45 5.50099 7.45004 5.49892 7.45015 5.49565C7.45037 5.48908 7.45087 5.47772 7.45197 5.46226C7.45419 5.43122 7.45881 5.38442 7.46833 5.32727C7.48767 5.21121 7.52566 5.06219 7.5979 4.91771C7.66941 4.77469 7.77078 4.64309 7.91582 4.54639C8.05851 4.45127 8.26561 4.375 8.575 4.375V3.625C8.13438 3.625 7.77898 3.73623 7.49979 3.92236C7.22296 4.10691 7.04308 4.35031 6.92708 4.58229C6.81183 4.81281 6.75606 5.03879 6.72853 5.20398C6.71462 5.28746 6.70752 5.35784 6.70388 5.40883C6.70205 5.43439 6.70108 5.45525 6.70057 5.47066C6.70031 5.47837 6.70017 5.48473 6.70009 5.48965C6.70005 5.49211 6.70003 5.49421 6.70001 5.49594C6.7 5.4968 6.7 5.49757 6.7 5.49825C6.7 5.49859 6.7 5.4989 6.7 5.4992C6.69999 5.49934 6.69999 5.49954 6.69999 5.49962C6.69999 5.49981 6.69999 5.5 7.07499 5.5ZM2.72207 7.12612L2.75113 7.20749L3.45744 6.95524L3.42838 6.87388L2.72207 7.12612ZM2.75113 7.20749C3.17217 8.38645 3.79049 10.1178 4.36615 11.6796C4.9375 13.2298 5.47796 14.6442 5.73955 15.1676L6.41043 14.8323C6.17206 14.3554 5.64831 12.9897 5.06987 11.4203C4.49574 9.86255 3.87868 8.13476 3.45743 6.95524L2.75113 7.20749ZM23.95 18C23.95 17.239 23.9512 16.8995 24.0074 16.5622C24.0639 16.2231 24.1769 15.8809 24.4303 15.1207L23.7188 14.8835C23.4729 15.6212 23.3361 16.0282 23.2676 16.4389C23.1989 16.8512 23.2 17.2617 23.2 18H23.95ZM24.4303 15.1206L24.431 15.1185L23.7195 14.8815L23.7188 14.8835L24.4303 15.1206ZM3.45743 6.95524C3.44764 6.92783 3.43795 6.90069 3.42838 6.87387L2.72207 7.12613C2.73165 7.15294 2.74133 7.18006 2.75113 7.20749L3.45743 6.95524Z" fill="#FFC231"/>
<path d="M18 15C17.25 15 15 13.5 15 12C15 13.5 12.75 15 12 15C12.75 15 15 17.25 15 18C15 17.25 17.25 15 18 15Z" fill="#FA305F" stroke="#FA305F" stroke-width="0.75"/>
</svg>
