<svg width="32" height="32" viewBox="0 0 32 32" fill="none" xmlns="http://www.w3.org/2000/svg">
<rect width="32" height="32" rx="16" fill="#0077FF"/>
<path d="M16.7852 21.6004C10.772 21.6004 7.34213 17.3962 7.19922 10.4004H10.2113C10.3103 15.5351 12.5309 17.7101 14.2898 18.1585V10.4004H17.126V14.8288C18.8629 14.6382 20.6878 12.6202 21.3034 10.4004H24.1396C23.9077 11.5517 23.4452 12.6417 22.7813 13.6024C22.1174 14.5631 21.2662 15.3737 20.281 15.9836C21.3807 16.5408 22.352 17.3296 23.1308 18.2978C23.9096 19.266 24.4783 20.3916 24.7992 21.6004H21.6772C21.3891 20.5505 20.8035 19.6106 19.9939 18.8987C19.1843 18.1867 18.1867 17.7342 17.126 17.598V21.6004H16.7852Z" fill="white"/>
</svg>
