<svg width="29" height="23" viewBox="0 0 29 23" fill="none" xmlns="http://www.w3.org/2000/svg">
<path fill-rule="evenodd" clip-rule="evenodd" d="M19.315 1C19.636 1 19.896 1.264 19.896 1.59C19.896 1.916 19.636 2.18 19.315 2.18C19.1796 2.17996 19.0486 2.13215 18.945 2.045L18.966 2.092C17.443 3.193 16.591 3.773 16.411 3.832L16.383 3.837V4.684C22.853 5.184 27.819 8.103 27.819 11.63C27.819 11.78 27.81 11.928 27.793 12.075C27.81 12.231 27.819 12.388 27.819 12.546C27.819 13.924 27.123 15.212 25.913 16.313C25.261 19.348 20.496 21.705 14.714 21.705C9.36 21.705 4.877 19.684 3.725 16.974C2.015 15.745 1 14.21 1 12.546C1 12.39 1.009 12.235 1.027 12.081C1.00945 11.9313 1.00043 11.7807 1 11.63C1 8.007 6.241 5.024 12.97 4.648L12.971 3.76C12.657 3.58 11.936 3.083 10.808 2.271L10.56 2.092L10.581 2.045C10.4774 2.13215 10.3464 2.17996 10.211 2.18C9.89 2.18 9.63 1.916 9.63 1.59C9.63 1.264 9.89 1 10.211 1C10.2996 1.00053 10.387 1.02119 10.4664 1.06041C10.5459 1.09963 10.6154 1.15639 10.6697 1.22641C10.724 1.29642 10.7617 1.37787 10.78 1.46459C10.7982 1.5513 10.7965 1.64103 10.775 1.727C12.083 2.326 12.922 2.761 13.292 3.033C13.6 2.809 14.105 2.664 14.675 2.664C15.301 2.664 15.848 2.839 16.145 3.101C16.453 2.838 17.322 2.38 18.748 1.727C18.7265 1.64103 18.7248 1.5513 18.743 1.46459C18.7613 1.37787 18.799 1.29642 18.8533 1.22641C18.9076 1.15639 18.9771 1.09963 19.0566 1.06041C19.136 1.02119 19.2234 1.00053 19.312 1H19.315ZM10.707 13.564C8.814 14.571 7.58 15.247 7.007 15.591C8.4 16.766 11.213 17.768 13.314 17.848C13.314 17.456 13.281 16.352 13.214 14.534H13.154C12.423 14.466 11.265 14.108 10.706 13.564H10.707ZM18.372 13.723C17.619 14.204 16.26 14.566 15.474 14.566C15.672 15.287 15.947 16.3 16.301 17.604C18.762 17.293 20.564 16.508 21.733 15.574C20.986 15.154 19.865 14.537 18.371 13.724L18.372 13.723ZM23.301 10.16L18.998 11.02C19.223 11.377 19.314 11.799 19.271 12.283C19.693 12.398 20.326 12.563 20.975 12.729L21.408 12.839C22.486 13.113 23.489 13.359 23.515 13.35C24.116 12.22 24.044 11.157 23.301 10.159V10.16ZM7.234 8.454L7.063 8.549C5.236 9.44 3.837 11.132 4.78 12.847C6.272 12.656 8.614 12.366 10.147 12.15C10.1442 12.1291 10.1428 12.1081 10.143 12.087C10.143 11.469 10.42 10.994 10.971 10.543C9.74381 9.81412 8.49771 9.11755 7.234 8.454ZM17.346 7.062L17.334 7.078C16.922 7.775 16.523 8.403 16.185 9.027V9.565C16.7819 9.61827 17.3659 9.77034 17.913 10.015C19.292 9.561 20.278 9.166 21.748 8.553C20.573 7.866 19.059 7.344 17.345 7.062H17.346ZM10.163 7.272C10.883 7.963 11.879 8.967 12.556 9.627C12.706 9.557 12.883 9.518 13.06 9.49V8.86C13.06 8.692 13.13 8.61 13.28 8.556V8.316C13.28 8.216 13.36 8.043 13.595 8.043C13.593 7.493 13.593 7.092 13.595 6.837C12.542 6.797 11.046 7.018 10.162 7.271L10.163 7.272Z" fill="#FFC231" stroke="#371699" stroke-linecap="round"/>
</svg>
